<svg xmlns="http://www.w3.org/2000/svg" viewBox="0 0 286.85 114.86"><defs><style>.cls-1{fill:#262628;}</style></defs><g id="Layer_1" data-name="Layer 1"><path class="cls-1" d="M59.29,0H0V114.86H114.87V0ZM57.55,11.11l32.7,65H25Zm5.23-4.18a50.71,50.71,0,0,1,38.36,76.22l-2.81-5.59-.74-1.47ZM17.61,76.09l-1,2-2.65,5.27A50.71,50.71,0,0,1,52.32,6.91ZM6.56,6.56h24.5A57.59,57.59,0,0,0,6.56,31.13Zm0,77.07a57.69,57.69,0,0,0,4,6.57l-4,7.93Zm2.23,24.68L15,95.83a57.7,57.7,0,0,0,16.22,12.48Zm9.44-18.82,3.43-6.85H93.54l3.34,6.63a50.65,50.65,0,0,1-78.65.22Zm65.45,18.82a57.73,57.73,0,0,0,16.4-12.69l6.38,12.69Zm24.63-10.92L104.57,90a58,58,0,0,0,3.74-6.2Zm0-66.38A57.61,57.61,0,0,0,83.87,6.56h24.44Z"/><path class="cls-1" d="M194.11,81.46c0,.42-.3.72-.88.88a40.24,40.24,0,0,1-6.54.28,44.13,44.13,0,0,1-6.47-.28,1.88,1.88,0,0,1-1.51-1.58c-.8-3.38-1.42-5.18-1.87-5.42s-3.51-.24-9.42-.24q-6,0-6.36.31c-.4.38-.85,1.63-1.34,3.77-.44,1.94-1,3-1.61,3.16a58.82,58.82,0,0,1-8,.28q-5.39,0-5.38-1t7.95-22.46q8.61-23.31,9.35-25.63c.28-.89.61-1.34,1-1.34q.94,0,2.94.18c1.32.12,2.31.17,3,.17s1.56,0,2.79-.12,2.15-.12,2.76-.12c.45,0,.86.38,1.23,1.16q1.73,3.69,10.06,25.31T194.11,81.46Zm-24.93-32c-.49,1-1.32,3.27-2.5,6.72a37,37,0,0,0-1.9,6.43c0,.42.71.66,2.11.71.73,0,1.93.07,3.59.07s2.4-.19,2.57-.57a1.5,1.5,0,0,0,.07-.49,34.4,34.4,0,0,0-1.62-6.4A49.87,49.87,0,0,0,169.18,49.43Z"/><path class="cls-1" d="M239.6,82c0,.16-.24.28-.71.35a60.93,60.93,0,0,1-6.71.21,60,60,0,0,1-6.26-.21,3.42,3.42,0,0,1-.88-.18,1.56,1.56,0,0,1-.49-.7c-.35-.91-.87-2.27-1.55-4.08q-1.37-3.51-4.29-10.37c-.42-.91-1.39-1.42-2.91-1.51.7,0-.51.07-3.62.07-.36,0-.53.6-.53,1.79,0,1.6.14,4,.44,7.14s.44,5.54.44,7.14c0,.4-.11.63-.32.7l-1,.07c-1.39.09-3.54.14-6.47.14a46.87,46.87,0,0,1-6-.21c-.68-.14-1-.5-1-1.09q0-3.87.37-11.67t.37-11.71q0-14.86-.67-23.2l0-.49c0-.4.34-.67,1.1-.81s4.35-.28,10.74-.42q6.51-.15,10.38-.15,8,0,13.07,3.63,5.73,4.08,5.73,11.77a19.05,19.05,0,0,1-1.47,8.19,16.81,16.81,0,0,1-5.45,6q-.81.55-.81,1s1.43,2.92,4.29,8.83S239.6,81.38,239.6,82ZM224.83,50.45q0-4.29-2.81-5.94c-1.45-.84-3.73-1.26-6.82-1.26-2.23,0-3.41.34-3.55,1a61.13,61.13,0,0,0-.21,6.89c0,.54,0,1.33,0,2.39s0,1.84,0,2.35c0,.12.37.24,1.12.35a29.61,29.61,0,0,0,4.5.32Q224.84,56.57,224.83,50.45Z"/><path class="cls-1" d="M286.85,80.37a1.88,1.88,0,0,1-1.3,2,25.2,25.2,0,0,1-5.56.35,41.25,41.25,0,0,1-6.33-.35,3.91,3.91,0,0,1-1.24-.37,3,3,0,0,1-.76-1q-2.57-4.71-5.1-9.42c-2.79-5.07-4.45-7.85-5-8.37-2.53.91-3.8,1.57-3.8,2q0,2.64.21,8c.14,3.55.22,6.22.22,8,0,.73-.32,1.14-.95,1.23a50.93,50.93,0,0,1-6.61.28,40.1,40.1,0,0,1-6-.28c-.68-.14-1-.5-1-1.09q0-3.8.37-11.46t.37-11.5q0-4.08-.35-12.25t-.35-12.25c0-.52.24-.77.73-.77.73,0,1.83,0,3.29.1s2.56.11,3.29.11,1.86,0,3.34-.11,2.58-.1,3.3-.1q.6,0,.6.63,0,2.6-.26,7.86t-.27,7.85q0,3,1.65,3a8.87,8.87,0,0,0,6.51-2.29A18.15,18.15,0,0,0,269.27,44q1.13-3.41,3.69-10.06a1.56,1.56,0,0,1,1.58-.87c.61,0,1.53,0,2.76.1s2.15.11,2.76.11,1.58,0,2.83-.07,2.19-.07,2.8-.07.84.27.84.8a26.16,26.16,0,0,1-1.48,5.66q-4.35,13.29-10,16.6c-.77.44-1.16.81-1.16,1.09t6.49,10.55Q286.86,78.37,286.85,80.37Z"/></g></svg>