<svg xmlns="http://www.w3.org/2000/svg" viewBox="0 0 131.11 134.93"><defs><style>.cls-1{fill:#262628;}</style></defs><g id="Layer_1" data-name="Layer 1"><polygon class="cls-1" points="39.19 87.33 65.35 87.33 54.41 109.38 28.23 109.38 28.23 109.39 11.17 109.39 51.26 28.75 59.83 45.82 39.19 87.33"/><polygon class="cls-1" points="119.94 109.39 102.88 109.39 102.88 109.38 65.84 109.38 76.62 87.33 91.91 87.33 69.62 42.5 69.35 41.95 65.55 34.31 65.53 34.35 56.96 17.28 57.03 17.16 65.55 0 74.08 17.16 119.94 109.39"/><path class="cls-1" d="M6.4,119.48h4l6.41,15.15H12.36L11.26,132H5.46l-1.08,2.68H0Zm3.66,9.22-1.68-4.28-1.7,4.28Z"/><path class="cls-1" d="M17.51,128v-8.45h4.24V128c0,2.17,1.09,3.2,2.77,3.2s2.77-1,2.77-3.09v-8.47h4.24v8.34c0,4.85-2.78,7-7,7S17.51,132.74,17.51,128Z"/><path class="cls-1" d="M37.67,123.24H33.16v-3.65H46.35v3.65H41.84v11.39H37.67Z"/><path class="cls-1" d="M47,127.15v0a8.11,8.11,0,0,1,16.2,0v0a8.11,8.11,0,0,1-16.2,0Zm11.95,0v0a3.91,3.91,0,0,0-3.87-4.06,3.83,3.83,0,0,0-3.8,4v0a3.9,3.9,0,0,0,3.84,4.06A3.84,3.84,0,0,0,59,127.15Z"/><path class="cls-1" d="M65.39,119.59h7.72a5.54,5.54,0,0,1,4.1,1.35,3.31,3.31,0,0,1,1,2.43v0a3.49,3.49,0,0,1-2.32,3.36c1.83.6,3,1.63,3,3.67v.05c0,2.57-2.11,4.14-5.7,4.14H65.39Zm6.69,6c1.26,0,2-.43,2-1.32v0c0-.82-.64-1.29-1.89-1.29H69.45v2.65Zm.6,5.69c1.27,0,2-.49,2-1.38v0c0-.81-.65-1.35-2-1.35H69.45v2.77Z"/><path class="cls-1" d="M80.84,119.59H85v15H80.84Z"/><path class="cls-1" d="M87.78,119.59H94.9a6.58,6.58,0,0,1,4.9,1.63,4.67,4.67,0,0,1,1.33,3.51v0A4.76,4.76,0,0,1,98,129.39l3.59,5.24H96.81l-3-4.55H92v4.55H87.78Zm6.93,7.22c1.41,0,2.23-.69,2.23-1.78v0c0-1.18-.86-1.78-2.26-1.78H92v3.61Z"/><path class="cls-1" d="M106.91,123.24H102.4v-3.65h13.19v3.65h-4.51v11.39h-4.17Z"/><path class="cls-1" d="M117.42,119.59h4.17v5.63h5.35v-5.63h4.17v15h-4.17v-5.71h-5.35v5.71h-4.17Z"/></g></svg>