<svg xmlns="http://www.w3.org/2000/svg" viewBox="0 0 308.47 56.99"><defs><style>.cls-1{fill:#262628;}</style></defs><g id="Layer_1" data-name="Layer 1"><circle class="cls-1" cx="5.69" cy="51.16" r="5.69"/><circle class="cls-1" cx="5.69" cy="28.51" r="5.69"/><circle class="cls-1" cx="16.96" cy="39.78" r="5.69"/><circle class="cls-1" cx="16.96" cy="17.24" r="5.69"/><circle class="cls-1" cx="5.69" cy="5.86" r="5.69"/><circle class="cls-1" cx="28.34" cy="51.16" r="5.69"/><circle class="cls-1" cx="28.34" cy="5.86" r="5.69"/><circle class="cls-1" cx="50.99" cy="28.51" r="5.69"/><path class="cls-1" d="M47.47,1.36a5.76,5.76,0,0,0-1.84,2.56,5.84,5.84,0,0,0-.22.82,10.55,10.55,0,0,1-7.14,6.94l-.29.08a5.68,5.68,0,0,0-2.92,2,5.93,5.93,0,0,0-.65,1.09h0A5.52,5.52,0,0,0,34,16.48h0a10.56,10.56,0,0,1-6.9,6.46,3.74,3.74,0,0,0-.45.12,5.7,5.7,0,0,0-3.94,4.85v0a5.07,5.07,0,0,0,0,.55h0v0a5.07,5.07,0,0,0,0,.55v0a5.7,5.7,0,0,0,3.94,4.85,3.74,3.74,0,0,0,.45.12A10.54,10.54,0,0,1,34,40.51h0a5.52,5.52,0,0,0,.44,1.58h0a6,6,0,0,0,.65,1.1,5.68,5.68,0,0,0,2.92,2l.29.08a10.53,10.53,0,0,1,7.14,6.94,5.36,5.36,0,0,0,.22.81,5.69,5.69,0,1,0,7-7.36l-.3-.08a10.55,10.55,0,0,1-7.1-6.84,5.57,5.57,0,0,0-.27-1,5.73,5.73,0,0,0-2.07-2.68,5.26,5.26,0,0,0-1.07-.58,5.43,5.43,0,0,0-1.34-.38h0a10.5,10.5,0,0,1-6.12-5.66,10.52,10.52,0,0,1,6.12-5.65h0a5.43,5.43,0,0,0,1.34-.38,5.26,5.26,0,0,0,1.07-.58,5.73,5.73,0,0,0,2.07-2.68,5.57,5.57,0,0,0,.27-1,10.53,10.53,0,0,1,7.1-6.84l.3-.08a5.72,5.72,0,0,0,3-2.1,5.69,5.69,0,0,0-8.11-7.83Z"/><path class="cls-1" d="M67.92.4H83.6v23L103.08.4h18.6L100.26,24.74,122.4,57H103.57L89.34,36,83.6,42.36V57H67.92Z"/><path class="cls-1" d="M126.93.4h26.75c8.65,0,14.63,2.27,18.43,6.15,3.32,3.23,5,7.6,5,13.17v.17c0,8.64-4.6,14.38-11.64,17.37L179,57h-18.1l-11.4-17.14h-6.87V57H126.93Zm26,27.16c5.34,0,8.41-2.58,8.41-6.71v-.16c0-4.44-3.23-6.71-8.49-6.71H142.61V27.56Z"/><path class="cls-1" d="M203.63,0h15.12l24.09,57H226L221.9,46.88H200.08L196,57H179.54Zm13.74,34.68-6.3-16.09-6.39,16.09Z"/><path class="cls-1" d="M248.33.4H264.9l13.5,21.91L291.9.4h16.57V57h-15.6V24.49L278.4,46.64h-.32l-14.39-22V57H248.33Z"/></g></svg>