<svg width="305" height="305" viewBox="0 0 305 305" fill="none" xmlns="http://www.w3.org/2000/svg">
<g clip-path="url(#clip0)">
<path d="M244.85 0H60C26.8629 0 0 26.8629 0 60V244.85C0 277.987 26.8629 304.85 60 304.85H244.85C277.987 304.85 304.85 277.987 304.85 244.85V60C304.85 26.8629 277.987 0 244.85 0Z" fill="#794F2F"/>
<path d="M241.36 23.4902H63.49C41.3986 23.4902 23.49 41.3988 23.49 63.4902V241.36C23.49 263.452 41.3986 281.36 63.49 281.36H241.36C263.451 281.36 281.36 263.452 281.36 241.36V63.4902C281.36 41.3988 263.451 23.4902 241.36 23.4902Z" fill="#553720"/>
<path d="M212.67 150.51C212.788 149.561 212.676 148.597 212.346 147.7C212.015 146.802 211.475 145.997 210.77 145.35C210.59 145.17 210.39 144.99 210.18 144.81C210.19 144.614 210.19 144.417 210.18 144.22C210.151 143.734 210.06 143.254 209.91 142.79C210.17 142.76 210.428 142.71 210.68 142.64C213.75 144.32 215.56 143.95 217.03 143.18C217.831 142.762 218.511 142.145 219.005 141.389C219.499 140.632 219.79 139.762 219.85 138.86C220.411 138.694 220.941 138.437 221.42 138.1C222.094 137.638 222.654 137.027 223.054 136.315C223.455 135.602 223.686 134.807 223.73 133.99C224.571 133.379 225.228 132.549 225.63 131.59C226.08 130.487 226.183 129.272 225.924 128.108C225.664 126.945 225.056 125.888 224.18 125.08L224.08 124.98C222.845 123.812 221.268 123.073 219.58 122.87C219.259 122.187 218.822 121.565 218.29 121.03C218.042 120.782 217.775 120.555 217.49 120.35C217.93 119.772 218.269 119.123 218.49 118.43C219.477 118.73 220.522 118.788 221.536 118.6C222.551 118.412 223.505 117.983 224.32 117.35C224.974 116.819 225.514 116.16 225.906 115.414C226.298 114.668 226.534 113.85 226.6 113.01C227.51 112.715 228.347 112.232 229.057 111.59C229.768 110.949 230.334 110.166 230.72 109.29C231.266 108.121 231.437 106.811 231.21 105.54C231.827 105.314 232.397 104.975 232.89 104.54C233.741 103.806 234.345 102.828 234.623 101.739C234.9 100.65 234.836 99.502 234.44 98.4502C234.345 98.1778 234.234 97.9107 234.11 97.6502C235.047 97.3204 235.881 96.7516 236.53 96.0002C237.12 95.3267 237.538 94.5192 237.745 93.6478C237.952 92.7764 237.944 91.8676 237.72 91.0002C237.649 90.686 237.552 90.3783 237.43 90.0802C238.264 89.2555 238.855 88.2178 239.14 87.0802C239.388 86.0665 239.367 85.0057 239.079 84.0026C238.791 82.9995 238.247 82.0887 237.5 81.3602C237.065 80.9255 236.578 80.5459 236.05 80.2302C234.229 79.152 232.061 78.8188 230 79.3002C229.726 78.8867 229.411 78.5014 229.06 78.1502C228.068 77.1279 226.77 76.4567 225.363 76.2383C223.955 76.02 222.515 76.2664 221.26 76.9402C220.624 77.2794 220.05 77.7221 219.56 78.2502L219.24 77.9102C218.315 76.9891 217.151 76.3449 215.88 76.0502C214.895 75.8047 213.865 75.8047 212.88 76.0502C212.673 75.7736 212.446 75.5129 212.2 75.2702C211.9 74.9583 211.565 74.683 211.2 74.4502C210.738 74.1579 210.241 73.926 209.72 73.7602C209.638 72.0487 208.926 70.428 207.72 69.2102C206.883 68.3749 205.82 67.8015 204.662 67.56C203.505 67.3184 202.301 67.4193 201.2 67.8502C200.304 68.1668 199.484 68.6688 198.795 69.3236C198.105 69.9784 197.562 70.7712 197.2 71.6502C196.308 71.6559 195.427 71.8535 194.618 72.2297C193.808 72.6058 193.09 73.1517 192.51 73.8302C191.894 74.5825 191.457 75.4648 191.232 76.4106C191.007 77.3565 190.999 78.3411 191.21 79.2902C190.622 79.4347 190.056 79.6602 189.53 79.9602C189.338 79.6899 189.12 79.4387 188.88 79.2102C188.25 78.5809 187.502 78.0815 186.68 77.7402C186.578 75.8097 185.795 73.9778 184.47 72.5702L184.37 72.4702C183.747 71.7853 182.972 71.2567 182.107 70.9273C181.242 70.598 180.312 70.4771 179.391 70.5745C178.471 70.6719 177.587 70.9848 176.81 71.488C176.033 71.9911 175.385 72.6702 174.92 73.4702H174.67C173.81 73.4919 172.968 73.7182 172.213 74.1304C171.459 74.5425 170.813 75.1287 170.33 75.8402C169.85 76.5403 169.535 77.3405 169.41 78.1802C168.36 78.1138 167.313 78.3569 166.399 78.8795C165.486 79.4021 164.745 80.1811 164.27 81.1202C163.76 82.1202 162.85 83.9402 164.95 87.8102C164.623 88.7196 164.537 89.6978 164.7 90.6502C163.823 90.0828 162.805 89.7711 161.76 89.7502C161.457 89.7251 161.153 89.7251 160.85 89.7502C160.581 89.4842 160.297 89.2337 160 89.0002C159.352 88.2777 158.542 87.7196 157.636 87.3718C156.73 87.0241 155.755 86.8967 154.79 87.0002C153.888 87.1306 153.028 87.4696 152.28 87.9904C151.532 88.5112 150.916 89.1994 150.48 90.0002C149.611 91.5509 149.364 93.3743 149.79 95.1002C149.195 95.6328 148.712 96.2787 148.37 97.0002C147.836 98.2255 147.692 99.5858 147.958 100.896C148.225 102.206 148.889 103.401 149.86 104.32C149.182 105.189 148.753 106.226 148.62 107.32C148.506 108.23 148.601 109.153 148.9 110.02C149.198 110.887 149.69 111.674 150.34 112.32C150.867 112.843 151.479 113.273 152.15 113.59C152.429 114.201 152.815 114.756 153.29 115.23C154.288 116.177 155.574 116.761 156.944 116.888C158.313 117.015 159.685 116.677 160.84 115.93C160.96 116.5 161.06 117.1 161.14 117.75C158.31 123.31 155.14 129.05 151.51 135.15C141.51 131.81 129.92 134.69 120.22 143.21C106.27 155.44 96.05 170.01 86.78 183.89C85.78 185.4 84.7 187.07 83.58 188.84V188.91C78.5495 196.863 74.04 205.134 70.08 213.67L69.94 213.99C68.4654 217.184 67.2515 220.491 66.31 223.88L66.23 224.18C66.14 224.56 66.05 224.94 65.98 225.3L65.89 225.76C65.89 225.76 65.8 226.24 65.77 226.38L65.65 227.32C65.65 227.49 65.65 227.64 65.65 227.81C65.65 228.16 65.65 228.5 65.65 228.81C65.65 228.92 65.65 229.02 65.65 229.13C65.6322 229.433 65.6322 229.737 65.65 230.04C65.65 230.17 65.65 230.3 65.65 230.39C65.7078 230.819 65.7946 231.243 65.91 231.66C65.91 231.77 65.97 231.87 66.01 231.99C66.1572 232.473 66.3549 232.939 66.6 233.38L66.66 233.49L66.74 233.62C67.0321 234.115 67.3849 234.572 67.79 234.98L67.85 235.04C69.85 237.04 74.11 241.15 103.37 228.14H103.48L104 228C107.718 226.402 111.35 224.61 114.88 222.63C117.63 220.9 120.38 219.12 123.06 217.35L123.51 217.12L123.73 216.9C124.42 216.45 125.95 215.41 125.95 215.41C131.86 211.41 137.35 207.48 142.26 203.7L142.52 203.5C143.3 202.9 144.07 202.29 144.84 201.68L145.07 201.5C150.309 197.388 155.294 192.963 160 188.25C161.12 187.11 162.08 186.11 162.92 185.18C172.75 174.37 175.07 162.38 169.64 151.56C174.51 148.88 179.08 146.56 183.29 144.65C184.247 144.742 185.199 144.885 186.14 145.08C185.656 146.157 185.507 147.355 185.712 148.517C185.917 149.68 186.467 150.754 187.29 151.6C187.707 152.007 188.186 152.345 188.71 152.6C189.009 153.184 189.397 153.717 189.86 154.18C190.794 155.101 192.003 155.69 193.303 155.858C194.604 156.026 195.923 155.763 197.06 155.11C197.964 155.959 199.1 156.52 200.324 156.719C201.548 156.919 202.803 156.748 203.93 156.23C204.421 155.996 204.875 155.693 205.28 155.33C206.807 155.659 208.402 155.424 209.77 154.67C210.542 154.248 211.206 153.653 211.709 152.931C212.212 152.209 212.541 151.381 212.67 150.51ZM184 129.83L182.31 130.43L183.97 128.62C184.225 128.784 184.489 128.934 184.76 129.07L184.62 129.22C184.426 129.436 184.219 129.64 184 129.83ZM192.57 95.2602C192.977 95.368 193.392 95.4482 193.81 95.5002C194.277 95.5692 194.73 95.7145 195.15 95.9302C195.27 95.9855 195.384 96.0525 195.49 96.1302C194.665 95.9951 193.824 95.9951 193 96.1302C192.857 95.9452 192.7 95.7714 192.53 95.6102L192.44 95.5102L192.57 95.2602Z" fill="white"/>
<path d="M220.79 91.3802C220.79 91.3802 204.69 90.7702 159.69 140.07C158.2 141.71 155.54 145.78 154.61 147.07C154.16 147.71 158.51 150.21 159.02 149.62C161.84 146.35 187.33 115.31 202.02 104.26C214.36 95.0002 220.79 91.3802 220.79 91.3802Z" fill="#00873E"/>
<path d="M199.2 106.37C202.078 99.6959 203.378 92.4482 203 85.1899C203 85.1899 202.9 90.6199 199.87 100.92C199.23 103.12 197.72 105.16 196.8 107.16C197.43 106.85 198.63 106.73 199.2 106.37Z" fill="#00873E"/>
<path d="M204.27 105.66C201.133 106.225 198.135 107.389 195.44 109.09C195.33 109.62 191.06 112.82 191 113.38C193.743 111.57 196.577 109.901 199.49 108.38C201.203 107.66 202.952 107.029 204.73 106.49C204.558 106.224 204.405 105.947 204.27 105.66Z" fill="#00873E"/>
<path d="M211.21 92.7699C210.58 91.2799 209.1 91.5299 208.28 91.7699C210.46 90.7699 215.19 87.9599 213.2 86.9599C211.01 85.8499 207.27 90.0799 207.27 90.0799C209.4 87.8499 209.2 84.9899 208.58 84.4199C207.96 83.8499 207.02 85.0799 205.72 88.1899C204.42 91.2999 203.17 91.7099 203.17 91.7099C203.15 89.7615 203.691 87.8486 204.73 86.1999C206.5 83.2899 210.04 79.6699 208.49 78.6999C206.94 77.7299 204.12 81.3399 204.12 81.3399C204.78 78.1899 205.67 71.5399 202.82 72.5799C200.39 73.4499 201.2 79.5799 201.49 81.4199C201.09 79.7274 200.074 78.2444 198.64 77.2599C195.93 75.3699 194.74 78.5499 197.64 80.4699C200.54 82.3899 200.92 90.3799 200.92 90.3799C200.072 89.8595 199.427 89.066 199.09 88.1299C198.62 86.6499 199.09 82.2099 196.95 82.8599C194.81 83.5099 196.95 87.7899 196.95 87.7899C196.95 87.7899 193.46 82.7899 191.68 84.4699C190.45 85.6599 193.68 87.6999 195.68 88.8399C192.68 87.7799 191.3 90.1199 194.41 90.5099C195.414 90.6467 196.39 90.9438 197.3 91.3899C198.328 91.8977 199.236 92.6187 199.964 93.505C200.692 94.3913 201.222 95.4225 201.52 96.5299C202.723 95.4715 204.187 94.7535 205.76 94.4499C208.22 94.0899 212.09 94.8799 211.21 92.7699Z" fill="#31A444"/>
<path d="M206.68 96.0801C207.39 96.2801 207.68 98.5501 207.39 99.3401C208.54 97.2401 211.39 93.9601 212.22 96.0001C213.22 98.2501 208.67 101.68 208.67 101.68C211.06 99.6801 213.96 100.1 214.5 100.75C215.04 101.4 213.72 102.25 210.5 103.34C207.28 104.43 206.57 105.92 206.57 105.92C208.62 105.879 210.634 105.373 212.46 104.44C215.53 102.89 219.46 99.6201 220.32 101.21C221.18 102.8 217.32 105.37 217.32 105.37C220.56 104.93 227.38 104.48 226.14 107.24C225.09 109.59 218.9 108.39 217.07 107.97C218.737 108.48 220.16 109.583 221.07 111.07C222.81 113.89 219.5 114.85 217.75 111.85C216 108.85 207.89 107.96 207.89 107.96C208.358 108.856 209.121 109.563 210.05 109.96C211.53 110.53 216.05 110.33 215.27 112.43C214.49 114.53 210.27 112.11 210.27 112.11C210.27 112.11 215.15 115.91 213.27 117.56C211.98 118.7 210.12 115.4 209.1 113.27C209.99 116.27 207.52 117.53 207.32 114.41C207.251 113.404 207.011 112.416 206.61 111.49C206.118 110.404 205.409 109.431 204.527 108.629C203.645 107.828 202.608 107.216 201.48 106.83C202.732 105.826 203.637 104.455 204.07 102.91C204.69 100.47 204.51 95.4601 206.68 96.0801Z" fill="#31A444"/>
<path d="M223.31 101.17C224.06 99.9302 222.68 98.8202 221.8 98.2702C224.35 99.6202 230.45 102.2 229.71 100.05C228.89 97.7002 222.41 96.6102 222.41 96.6102C225.95 97.3202 228.18 95.7802 228.16 94.9802C228.14 94.1802 226.38 93.9802 222.76 94.4202C219.14 94.8602 217.43 93.8102 217.43 93.8102C219.381 92.9536 221.501 92.5534 223.63 92.6402C227.45 92.7102 233.27 93.9202 232.86 92.1702C232.45 90.4202 227.2 89.7902 227.2 89.7902C230.34 88.7902 236.59 86.3802 233.47 84.5002C230.81 82.9002 226.34 86.5002 225.05 87.6402C225.595 87.0675 225.991 86.369 226.202 85.6068C226.413 84.8445 226.433 84.042 226.26 83.2702C225.69 80.1002 222.1 80.6402 222.8 83.9802C223.5 87.3202 217.13 91.4602 217.13 91.4602C217.013 91.0228 216.991 90.5655 217.065 90.1188C217.139 89.6721 217.308 89.2465 217.56 88.8702C218.42 87.7602 222.51 86.0402 220.26 84.5502C218.01 83.0602 216.15 86.9102 216.15 86.9102C216.15 86.9102 217.57 81.5802 214.74 80.9102C212.74 80.4502 213.6 84.1002 214.29 86.3602C212.8 83.3602 209.76 83.3602 211.9 86.1202C212.561 86.9952 213.084 87.9665 213.45 89.0002C213.86 89.9902 213.989 91.0738 213.823 92.1323C213.657 93.1908 213.203 94.1831 212.51 95.0002C214.357 95.5055 216.086 96.3685 217.6 97.5402C219.85 99.3202 222.26 102.92 223.31 101.17Z" fill="#31A444"/>
<path d="M178.26 89.1001C178.26 89.1001 180.26 104.88 157.04 146.66C156.527 147.66 155.917 148.608 155.22 149.49C154.81 150.05 150.35 146.79 150.7 146.19C152.7 142.88 163.38 126.26 171.32 108.05C176.92 95.2001 178.26 89.1001 178.26 89.1001Z" fill="#00873E"/>
<path d="M170 116.06C174.053 111.216 179.444 107.674 185.5 105.88C185.5 105.88 181.5 107.88 174.77 114.06C172.873 115.98 171.087 118.007 169.42 120.13C169.48 119.49 170 116.68 170 116.06Z" fill="#00873E"/>
<path d="M165.72 110.36C167.296 113.274 168.144 116.527 168.19 119.84C167.88 120.17 166.79 124.84 166.43 125.09C166.43 123.61 166.82 115.59 164.43 110.9C164.66 110.94 165.48 110.37 165.72 110.36Z" fill="#00873E"/>
<path d="M177.26 100.92C178.61 101.03 178.86 102.42 178.89 103.22C178.99 100.99 179.75 95.9302 181.13 97.4002C182.51 98.8702 180.52 103.61 180.52 103.61C181.59 101.05 183.87 100.35 184.52 100.73C185.17 101.11 184.52 102.32 182.46 104.42C180.4 106.52 180.46 107.75 180.46 107.75C182.017 107.155 183.346 106.084 184.26 104.69C185.98 102.24 187.71 98.0002 188.93 99.0802C190.15 100.16 188.21 103.76 188.21 103.76C190.45 102.22 195.33 99.4102 195.4 102.26C195.4 104.68 190.4 105.83 188.94 106.12C189.674 106.045 190.415 106.118 191.12 106.336C191.824 106.555 192.478 106.913 193.04 107.39C195.32 109.22 193.22 111.24 190.85 109.25C188.48 107.26 182.18 109.35 182.18 109.35C182.809 109.923 183.62 110.256 184.47 110.29C185.77 110.29 189.06 108.47 189.2 110.59C189.34 112.71 185.39 112.09 185.39 112.09C185.39 112.09 190.39 113.67 189.56 115.76C189.01 117.22 186.46 115 184.95 113.51C186.69 115.85 185.29 117.78 184.04 115.13C183.636 114.294 183.11 113.522 182.48 112.84C181.825 112.102 181.012 111.522 180.101 111.142C179.19 110.763 178.205 110.595 177.22 110.65C177.683 109.232 177.796 107.722 177.55 106.25C177.14 104 175.36 100.77 177.26 100.92Z" fill="#31A444"/>
<path d="M171.16 104C170.71 103.49 169.01 104.22 168.62 104.86C169.54 102.95 170.52 99.0998 168.73 99.2598C166.73 99.4398 166.46 104.83 166.46 104.83C166.72 101.92 165.16 99.6298 164.46 99.4598C163.76 99.2898 163.79 100.8 164.51 104.04C165.23 107.28 164.51 108.54 164.51 108.54C163.614 106.772 163.058 104.852 162.87 102.88C162.55 99.5698 163.02 94.7798 161.54 94.7498C160.06 94.7198 160.04 99.1398 160.04 99.1398C158.89 96.1398 156.13 90.1998 154.8 92.4898C153.68 94.4898 157.28 99.1498 158.39 100.49C157.375 99.3564 155.974 98.6431 154.46 98.4898C151.76 98.2798 152.59 101.49 155.46 101.66C158.33 101.83 162.54 108.28 162.54 108.28C161.675 108.245 160.855 107.888 160.24 107.28C159.19 106.28 157.24 102.34 156.24 103.96C155.24 105.58 158.7 108.07 158.7 108.07C158.7 108.07 153.92 105.64 153.64 107.95C153.44 109.56 156.52 109.66 158.43 109.57C155.96 110.19 156.24 112.83 158.43 111.57C159.143 111.186 159.925 110.945 160.73 110.86C161.756 110.812 162.779 110.991 163.728 111.384C164.676 111.776 165.527 112.372 166.22 113.13C166.315 111.676 166.84 110.283 167.73 109.13C169.07 107.68 172.56 105.58 171.16 104Z" fill="#31A444"/>
<path d="M169.76 89.1801C170.58 88.1801 171.81 89.1801 172.46 89.8401C170.76 87.8401 167.22 83.0401 169.13 83.1901C171.22 83.3601 173.65 88.9001 173.65 88.9001C172.24 85.9001 172.94 83.5301 173.59 83.3601C174.24 83.1901 174.8 84.7201 175.34 88.0701C175.88 91.4201 177.1 92.6901 177.1 92.6901C177.326 90.727 177.142 88.7384 176.56 86.8501C175.56 83.4501 173.22 78.5301 174.74 78.4801C176.26 78.4301 178 83.0001 178 83.0001C178 80.0001 178.5 73.7601 180.77 76.1101C182.69 78.1101 180.84 82.9901 180.24 84.4101C180.549 83.8039 181.01 83.2882 181.578 82.9132C182.146 82.5382 182.801 82.3166 183.48 82.2701C186.18 82.0301 186.6 85.3801 183.74 85.5501C180.88 85.7201 179.06 92.4201 179.06 92.4201C179.448 92.4208 179.831 92.3308 180.179 92.1572C180.526 91.9836 180.828 91.7311 181.06 91.4201C181.75 90.4201 182.16 86.3101 183.89 87.9701C185.62 89.6301 182.98 92.2201 182.98 92.2201C182.98 92.2201 186.98 89.6701 188.14 92.0501C188.98 93.7101 185.84 93.8301 183.85 93.7601C186.63 94.3701 187.38 97.0901 184.62 95.8401C183.793 95.4526 182.908 95.2026 182 95.1001C181.095 94.9802 180.174 95.132 179.355 95.5362C178.536 95.9403 177.856 96.5786 177.4 97.3701C176.571 95.8432 175.462 94.4861 174.13 93.3701C172.08 91.8401 168.6 90.5501 169.76 89.1801Z" fill="#31A444"/>
<path d="M209.55 130.36C209.55 130.36 195.55 127.17 160.45 145.81C159 146.58 159.52 147.67 158.56 148.37C158.09 148.7 160.01 151.26 160.56 150.97C163.33 149.38 179.63 139.66 193 135.49C204.18 132 209.55 130.36 209.55 130.36Z" fill="#00873E"/>
<path d="M186.73 136.63C190.774 133.264 193.665 128.719 195 123.63C195 123.63 193.44 127.04 188.31 132.63C186.727 134.189 185.057 135.657 183.31 137.03C183.82 137 186.2 136.68 186.73 136.63Z" fill="#00873E"/>
<path d="M191.72 140.49C189.22 139.069 186.422 138.254 183.55 138.11C183.28 138.36 179.35 139.17 179.1 139.47C180.37 139.47 187.22 139.4 191.3 141.6C191.26 141.38 191.72 140.7 191.72 140.49Z" fill="#00873E"/>
<path d="M199.47 130.88C199.34 129.73 198.15 129.47 197.47 129.42C199.37 129.42 203.68 128.9 202.38 127.67C201.08 126.44 197.09 128.02 197.09 128.02C199.25 127.18 199.78 125.25 199.44 124.69C199.1 124.13 198.09 124.69 196.35 126.35C194.61 128.01 193.55 127.93 193.55 127.93C194.013 126.628 194.896 125.516 196.06 124.77C198.06 123.37 201.69 122.01 200.73 120.93C199.77 119.85 196.73 121.42 196.73 121.42C197.98 119.55 200.25 115.42 197.81 115.31C195.73 115.2 194.89 119.44 194.69 120.72C194.769 119.432 194.338 118.164 193.49 117.19C191.85 115.19 190.19 116.92 191.96 119C193.73 121.08 192.12 126.42 192.12 126.42C191.61 125.873 191.303 125.167 191.25 124.42C191.25 123.31 192.67 120.55 190.86 120.36C189.05 120.17 189.68 123.58 189.68 123.58C189.68 123.58 188.19 119.3 186.42 119.92C185.19 120.35 187.16 122.59 188.48 123.92C186.43 122.37 184.82 123.51 187.12 124.65C187.846 125.025 188.519 125.496 189.12 126.05C189.76 126.623 190.27 127.326 190.615 128.113C190.96 128.9 191.132 129.751 191.12 130.61C192.343 130.259 193.632 130.204 194.88 130.45C196.87 130.9 199.65 132.52 199.47 130.88Z" fill="#31A444"/>
<path d="M197 136C197.45 136.4 196.87 137.84 196.34 138.15C197.94 137.42 201.21 136.69 201.12 138.22C201.02 139.9 196.42 140 196.42 140C198.91 139.86 200.91 141.26 201.07 141.86C201.23 142.46 199.95 142.39 197.16 141.69C194.37 140.99 193.31 141.55 193.31 141.55C194.832 142.364 196.489 142.896 198.2 143.12C201.03 143.48 205.12 143.21 205.2 144.49C205.28 145.77 201.48 145.64 201.48 145.64C204.04 146.71 209.24 149.24 207.32 150.31C205.68 151.22 201.55 148 200.32 147.02C201.323 147.905 201.978 149.117 202.17 150.44C202.43 152.75 199.63 151.95 199.43 149.52C199.23 147.09 193.58 143.28 193.58 143.28C193.622 144.031 193.934 144.742 194.46 145.28C195.34 146.21 198.77 147.95 197.46 148.81C196.15 149.67 193.88 146.59 193.88 146.59C193.88 146.59 196.09 150.74 194.12 150.92C192.75 151.05 192.58 148.41 192.61 146.78C192.15 148.88 189.88 148.56 190.87 146.7C191.191 146.079 191.378 145.398 191.42 144.7C191.421 143.805 191.234 142.921 190.873 142.103C190.511 141.285 189.982 140.551 189.32 139.95C190.53 139.904 191.698 139.492 192.67 138.77C193.92 137.7 195.62 134.77 197 136Z" fill="#31A444"/>
<path d="M209.72 137.63C210.52 136.96 209.66 135.88 209.08 135.31C210.8 136.81 215.08 139.97 214.86 138.31C214.66 136.51 209.86 134.31 209.86 134.31C212.47 135.6 214.47 135.07 214.61 134.52C214.75 133.97 213.4 133.44 210.53 132.89C209.076 132.704 207.696 132.138 206.53 131.25C208.222 131.114 209.924 131.328 211.53 131.88C214.47 132.8 218.75 134.97 218.75 133.67C218.75 132.37 214.81 130.75 214.81 130.75C217.41 130.82 222.69 130.58 220.62 128.58C218.86 126.87 214.74 128.32 213.54 128.79C214.05 128.541 214.481 128.157 214.787 127.679C215.092 127.2 215.259 126.647 215.27 126.08C215.4 123.78 212.53 123.33 212.47 125.77C212.41 128.21 206.72 129.58 206.72 129.58C206.707 129.256 206.773 128.934 206.913 128.641C207.052 128.349 207.261 128.094 207.52 127.9C208.39 127.34 211.86 127.11 210.39 125.58C208.92 124.05 206.79 126.24 206.79 126.24C206.79 126.24 208.86 122.93 206.79 121.83C205.35 121.07 205.33 123.75 205.45 125.46C204.85 123.06 202.5 122.34 203.65 124.74C203.991 125.461 204.22 126.23 204.33 127.02C204.468 127.774 204.366 128.553 204.04 129.246C203.714 129.94 203.179 130.515 202.51 130.89C203.835 131.647 205.017 132.633 206 133.8C207.38 135.57 208.59 138.59 209.72 137.63Z" fill="#31A444"/>
<path d="M123.53 147C110.44 158.49 100.61 172.26 90.96 186.69C81.51 200.83 66.96 227.32 71.31 231.53C75.86 235.97 108.14 220.88 112.19 218.33C126.19 209.51 146.7 195.51 159.19 181.79C167.71 172.43 172.48 159.01 159.19 145.79C147.9 134.61 133.62 138.16 123.53 147Z" fill="#F27321"/>
<path d="M159.19 145.82C156.183 142.713 152.377 140.498 148.19 139.42C159.83 154.16 157.96 161.33 138.1 183.5C126 197 71.92 237.15 71.76 223C70.41 227.16 70.06 230.29 71.31 231.52C75.86 235.96 108.14 220.87 112.19 218.32C126.19 209.5 146.7 195.5 159.19 181.78C167.7 172.45 172.47 159 159.19 145.82Z" fill="#DC691E"/>
<path d="M143.73 150C135.52 140.28 121.73 152.29 129.73 161.44C137 169.67 151.89 159.62 143.73 150Z" fill="#F68F31"/>
<path d="M132.49 147.3C134.01 149.38 135.49 151.45 137.17 153.47C137.98 154.47 138.79 155.47 139.65 156.47C140.51 157.47 141.39 158.4 142.26 159.36C139.67 154.96 137.16 150.62 134.67 146.24L132 141.44C131.118 141.85 130.257 142.303 129.42 142.8C130.4 144.31 131.42 145.82 132.49 147.3Z" fill="#DC691E"/>
<path d="M150.91 180.87C152.7 182.22 154.54 183.48 156.4 184.74C157.15 183.98 157.87 183.22 158.57 182.46L157.73 182.01C155.82 181.01 153.94 179.88 152.04 178.8C148.23 176.61 144.43 174.32 140.5 172.25C143.86 175.28 147.31 178.17 150.91 180.87Z" fill="#C85F19"/>
<path d="M136.26 194.64C132.2 192.3 128.17 189.81 124 187.51C127.525 190.806 131.227 193.907 135.09 196.8C136.43 197.8 137.8 198.75 139.18 199.69C140.03 199.04 140.87 198.37 141.71 197.69C139.89 196.71 138.08 195.69 136.26 194.64Z" fill="#C85F19"/>
<path d="M114.33 156.19C115.55 158.11 116.75 160.02 118.06 161.89C119.37 163.76 120.71 165.6 122.13 167.4C122.83 168.3 123.56 169.18 124.31 170.05C125.06 170.92 125.85 171.76 126.62 172.61C124.39 168.68 122.28 164.82 120.22 160.92C119.22 158.92 118.15 157.03 117.22 155.07C117 154.63 116.78 154.19 116.55 153.75C115.8 154.52 115.03 155.28 114.3 156.06L114.33 156.19Z" fill="#DC691E"/>
<path d="M120.07 209.57C117.8 208.29 115.57 206.91 113.32 205.57C111.07 204.23 108.86 202.72 106.62 201.24C108.473 203.219 110.437 205.092 112.5 206.85C114.5 208.64 116.69 210.28 118.88 211.85L120.51 212.98C121.36 212.42 122.21 211.84 123.07 211.26C122.07 210.7 121.06 210.15 120.07 209.57Z" fill="#C85F19"/>
<path d="M102.14 177.46C103.52 179.427 104.999 181.322 106.57 183.14C108.138 184.966 109.807 186.702 111.57 188.34C110.28 186.34 109 184.34 107.8 182.42C106.6 180.5 105.44 178.42 104.34 176.42C103.43 174.7 102.56 172.99 101.75 171.27C101.12 172.12 100.5 172.99 99.87 173.85C100.57 175.1 101.32 176.3 102.14 177.46Z" fill="#DC691E"/>
<path d="M86.89 194.73C87.97 196 89.11 197.22 90.25 198.44C91.39 199.66 92.62 200.8 93.8 201.96C94.98 203.12 96.27 204.14 97.54 205.21L96.09 203.21C95.6 202.56 95.09 201.92 94.62 201.21C93.68 199.89 92.7 198.64 91.8 197.31C90.9 195.98 89.95 194.71 89.07 193.39C88.64 192.78 88.22 192.16 87.81 191.54L86.31 194C86.5 194.26 86.69 194.5 86.89 194.73Z" fill="#DC691E"/>
<path d="M76.51 215.12L75.61 213.64C75.25 214.39 74.91 215.14 74.61 215.87C76.71 218.18 78.88 220.41 81.18 222.52L76.51 215.12Z" fill="#DC691E"/>
<path d="M96.11 219.62C94.04 218.23 91.96 216.85 89.84 215.47C91.6 217.364 93.4266 219.184 95.32 220.93C96.64 222.17 98 223.35 99.32 224.52L101.8 223.43L96.11 219.62Z" fill="#C85F19"/>
</g>
<defs>
<clipPath id="clip0">
<rect width="304.85" height="304.85" fill="white"/>
</clipPath>
</defs>
</svg>
