<svg width="305" height="305" viewBox="0 0 305 305" fill="none" xmlns="http://www.w3.org/2000/svg">
<g clip-path="url(#clip0)">
<path d="M244.85 0H60C26.8629 0 0 26.8629 0 60V244.85C0 277.987 26.8629 304.85 60 304.85H244.85C277.987 304.85 304.85 277.987 304.85 244.85V60C304.85 26.8629 277.987 0 244.85 0Z" fill="#794F2F"/>
<path d="M241.36 23.4902H63.49C41.3986 23.4902 23.49 41.3988 23.49 63.4902V241.36C23.49 263.452 41.3986 281.36 63.49 281.36H241.36C263.451 281.36 281.36 263.452 281.36 241.36V63.4902C281.36 41.3988 263.451 23.4902 241.36 23.4902Z" fill="#553720"/>
<path d="M211.45 183.83C208.803 178.65 205.219 174.005 200.88 170.13C196.748 166.506 191.885 163.815 186.62 162.24C186.87 161.94 187.11 161.63 187.33 161.31L189.07 158.76C190.496 156.662 191.221 154.166 191.14 151.63C193.454 150.652 195.4 148.969 196.7 146.82C197.15 146.07 197.6 145.33 198.04 144.58C199.268 142.515 199.843 140.127 199.69 137.73C201.785 136.672 203.498 134.987 204.59 132.91L205.59 131C206.518 129.207 206.943 127.195 206.82 125.18C208.439 124.147 209.724 122.667 210.52 120.92C210.92 120.04 211.31 119.16 211.7 118.29C212.352 116.82 212.64 115.215 212.54 113.61C213.702 112.631 214.594 111.371 215.13 109.95C215.57 108.78 215.98 107.64 216.37 106.52C217.124 104.378 217.02 102.027 216.08 99.9599C220.93 87.0999 221.03 79.5099 216.47 75.5299L216.31 75.3899C211.68 71.5399 204.41 72.8599 192.93 79.6899C191.774 79.3325 190.557 79.2139 189.354 79.3411C188.151 79.4683 186.986 79.8387 185.93 80.4299C184.93 81.0099 183.93 81.6099 182.83 82.2499C181.532 83.0244 180.454 84.1194 179.7 85.4299C178.121 85.6251 176.61 86.1904 175.29 87.0799C174.51 87.6132 173.73 88.1532 172.95 88.6999C171.392 89.7917 170.18 91.3086 169.46 93.0699C167.47 93.3179 165.583 94.0988 164 95.3299L162.25 96.6999C160.445 98.1299 159.13 100.088 158.49 102.3C156.116 102.58 153.882 103.569 152.08 105.14L150.13 106.85C148.263 108.507 146.959 110.706 146.4 113.14C143.917 113.535 141.618 114.692 139.82 116.45L137.64 118.61L137.45 118.8C135.197 114.133 132.016 109.975 128.1 106.58C123.676 102.803 118.59 99.8803 113.1 97.9599L98.24 92.5599L106.89 105.79C118.43 123.43 121.21 130 103.11 150.79C82.11 174.79 76.53 191.87 83.38 211.13C83.2462 212.043 82.9481 212.924 82.5 213.73C81.2238 215.815 80.6472 218.253 80.854 220.688C81.0609 223.124 82.0405 225.43 83.65 227.27C84.0977 227.788 84.5823 228.272 85.1 228.72L85.21 228.82C87.2502 230.526 89.8253 231.461 92.485 231.461C95.1447 231.461 97.7197 230.526 99.76 228.82C100.468 228.276 101.272 227.869 102.13 227.62C128.13 234.29 140 224.48 160.56 200.93C178.66 180.18 185.56 182.05 204.56 191.09L218.85 197.88L211.45 183.83Z" fill="white"/>
<path d="M213 79.4498C198.58 67.5098 77.7701 179.18 108.76 204.92C139.75 230.66 227.32 91.3798 213 79.4498Z" fill="#FFF8B5"/>
<path d="M108.59 204.76C114.87 209.98 122.33 210.6 130.32 207.94L121.75 200.47C115.74 205 111.07 206.83 108.59 204.76Z" fill="#DEBA2B"/>
<path d="M110.56 190.7L101.63 182.9C100.16 191.71 102.03 199.32 108.63 204.76C106.06 202.67 107.09 197.62 110.56 190.7Z" fill="#E9C32D"/>
<path d="M204.36 109.54C204.806 109.928 205.338 110.203 205.913 110.341C206.488 110.48 207.087 110.477 207.661 110.333C208.234 110.19 208.764 109.91 209.207 109.518C209.649 109.126 209.989 108.633 210.2 108.08C210.62 106.97 211.02 105.87 211.4 104.79C211.632 104.103 211.655 103.362 211.464 102.662C211.274 101.962 210.879 101.335 210.33 100.86L208.84 99.5602C208.44 99.209 207.968 98.9493 207.457 98.7992C206.946 98.6492 206.409 98.6124 205.882 98.6914C205.356 98.7704 204.853 98.9634 204.409 99.2568C203.964 99.5502 203.589 99.937 203.31 100.39C202.78 101.26 202.22 102.14 201.65 103.05C201.182 103.79 200.994 104.672 201.12 105.538C201.247 106.404 201.68 107.196 202.34 107.77L204.36 109.54Z" fill="#DEBA2B"/>
<path d="M161.51 174.17L159.51 172.4C158.049 171.14 156.149 170.51 154.224 170.646C152.3 170.783 150.508 171.676 149.24 173.13C148.64 173.82 148.05 174.5 147.45 175.13C146.818 175.849 146.334 176.686 146.026 177.592C145.718 178.498 145.592 179.456 145.655 180.411C145.718 181.367 145.969 182.3 146.394 183.158C146.819 184.015 147.409 184.781 148.13 185.41L150.07 187.1C151.48 188.317 153.302 188.947 155.162 188.862C157.022 188.776 158.778 187.981 160.07 186.64C160.737 185.974 161.377 185.307 161.99 184.64C162.66 183.928 163.18 183.089 163.519 182.172C163.859 181.256 164.01 180.28 163.966 179.304C163.921 178.327 163.68 177.37 163.259 176.488C162.837 175.606 162.242 174.818 161.51 174.17Z" fill="#DEBA2B"/>
<path d="M189.22 130.85L190.74 132.18C191.422 132.763 192.226 133.186 193.093 133.417C193.96 133.648 194.868 133.682 195.749 133.516C196.631 133.35 197.465 132.988 198.188 132.458C198.912 131.927 199.507 131.241 199.93 130.45L200.93 128.58C201.539 127.392 201.735 126.036 201.487 124.725C201.239 123.413 200.561 122.222 199.56 121.34L198.25 120.2C197.617 119.658 196.878 119.254 196.081 119.014C195.283 118.773 194.444 118.701 193.617 118.803C192.79 118.905 191.994 119.177 191.278 119.604C190.562 120.03 189.943 120.601 189.46 121.28L188.29 122.94C187.451 124.144 187.082 125.614 187.253 127.071C187.425 128.529 188.124 129.873 189.22 130.85Z" fill="#DEBA2B"/>
<path d="M181.15 144.84C180.458 144.24 179.651 143.788 178.778 143.512C177.905 143.236 176.984 143.142 176.074 143.236C175.163 143.33 174.281 143.609 173.482 144.057C172.683 144.505 171.985 145.112 171.43 145.84L169.59 148.23C168.543 149.581 168.053 151.281 168.218 152.982C168.384 154.683 169.193 156.256 170.48 157.38L173.04 159.61C173.754 160.241 174.595 160.713 175.505 160.994C176.416 161.275 177.376 161.36 178.322 161.241C179.268 161.123 180.178 160.805 180.991 160.308C181.804 159.811 182.503 159.147 183.04 158.36C183.62 157.53 184.19 156.69 184.75 155.85C185.674 154.492 186.07 152.843 185.864 151.213C185.657 149.583 184.863 148.085 183.63 147L181.15 144.84Z" fill="#DEBA2B"/>
<path d="M121.75 200.47L130.32 207.94C134.674 206.411 138.804 204.305 142.6 201.68L131.51 192C128.427 195.014 125.168 197.842 121.75 200.47Z" fill="#DEBA2B"/>
<path d="M198.33 120.29C198.882 120.773 199.539 121.121 200.249 121.306C200.959 121.492 201.702 121.509 202.42 121.358C203.137 121.207 203.81 120.89 204.385 120.434C204.959 119.978 205.42 119.395 205.73 118.73C206.12 117.87 206.51 117.01 206.88 116.17C207.289 115.245 207.392 114.214 207.174 113.227C206.957 112.24 206.43 111.347 205.67 110.68L204 109.26C203.494 108.825 202.901 108.501 202.261 108.312C201.621 108.122 200.948 108.071 200.286 108.161C199.625 108.25 198.99 108.479 198.423 108.833C197.857 109.186 197.372 109.656 197 110.21L195.55 112.37C194.91 113.326 194.639 114.482 194.788 115.623C194.937 116.763 195.496 117.811 196.36 118.57L198.33 120.29Z" fill="#DEBA2B"/>
<path d="M180.42 144.21L182.06 145.64C182.794 146.283 183.659 146.759 184.596 147.032C185.533 147.306 186.518 147.372 187.483 147.225C188.448 147.079 189.369 146.723 190.182 146.183C190.995 145.643 191.68 144.933 192.19 144.1L193.51 141.89C194.311 140.541 194.613 138.953 194.364 137.404C194.116 135.855 193.332 134.442 192.15 133.41L190.68 132.14C189.984 131.528 189.167 131.067 188.283 130.788C187.399 130.508 186.466 130.416 185.544 130.517C184.622 130.617 183.732 130.909 182.929 131.372C182.126 131.836 181.428 132.462 180.88 133.21L179.43 135.21C178.442 136.563 177.995 138.237 178.178 139.902C178.361 141.568 179.161 143.105 180.42 144.21Z" fill="#DEBA2B"/>
<path d="M171.41 158.15C170.673 157.508 169.815 157.021 168.885 156.718C167.956 156.416 166.975 156.303 166.002 156.388C165.028 156.473 164.081 156.754 163.219 157.213C162.356 157.672 161.594 158.3 160.98 159.06C160.14 160.06 159.3 161.13 158.45 162.16C157.25 163.62 156.668 165.49 156.827 167.373C156.985 169.256 157.873 171.002 159.3 172.24L161.47 174.13C162.203 174.779 163.06 175.272 163.989 175.579C164.919 175.887 165.9 176.002 166.876 175.919C167.851 175.836 168.799 175.556 169.663 175.095C170.526 174.635 171.287 174.004 171.9 173.24C172.77 172.15 173.64 171.05 174.5 169.94C175.635 168.469 176.164 166.62 175.978 164.771C175.792 162.923 174.905 161.215 173.5 160L171.41 158.15Z" fill="#DEBA2B"/>
<path d="M148.83 186.09L147.83 185.23C146.429 184.001 144.608 183.359 142.746 183.438C140.884 183.516 139.123 184.308 137.83 185.65C137.52 185.97 137.22 186.29 136.91 186.6C136.225 187.308 135.692 188.148 135.342 189.069C134.993 189.99 134.834 190.972 134.876 191.957C134.918 192.941 135.16 193.906 135.587 194.794C136.014 195.681 136.617 196.473 137.36 197.12L138.22 197.87C139.495 198.985 141.119 199.619 142.812 199.663C144.505 199.707 146.159 199.157 147.49 198.11L148.54 197.29C149.377 196.626 150.059 195.787 150.536 194.831C151.014 193.875 151.276 192.826 151.303 191.758C151.331 190.69 151.124 189.628 150.697 188.649C150.269 187.67 149.632 186.796 148.83 186.09Z" fill="#DEBA2B"/>
<path d="M117.18 179.5L105.86 169.62C103.892 173.849 102.47 178.312 101.63 182.9L110.56 190.7C112.546 186.841 114.757 183.101 117.18 179.5Z" fill="#E9C32D"/>
<path d="M194.08 86.6702L192.69 85.4702C192.126 84.9707 191.421 84.6591 190.672 84.5785C189.923 84.4978 189.167 84.6522 188.51 85.0202C187.51 85.5702 186.51 86.1502 185.51 86.7602C185.018 87.0605 184.603 87.4726 184.3 87.9632C183.996 88.4537 183.813 89.0088 183.764 89.5834C183.716 90.1581 183.803 90.7361 184.019 91.2707C184.236 91.8053 184.575 92.2813 185.01 92.6602L186.91 94.3302C187.593 94.925 188.472 95.2468 189.378 95.2339C190.284 95.221 191.154 94.8743 191.82 94.2602C192.6 93.5302 193.37 92.8302 194.12 92.1402C194.504 91.794 194.81 91.3705 195.018 90.8976C195.226 90.4246 195.332 89.9129 195.328 89.3962C195.324 88.8795 195.211 88.3694 194.996 87.8996C194.781 87.4297 194.469 87.0107 194.08 86.6702Z" fill="#E9C32D"/>
<path d="M176 100.78L174.78 99.71C173.742 98.8007 172.419 98.2814 171.039 98.2413C169.66 98.2011 168.309 98.6426 167.22 99.49L165.5 100.83C164.826 101.379 164.279 102.069 163.898 102.85C163.517 103.632 163.31 104.487 163.292 105.356C163.274 106.225 163.445 107.088 163.794 107.885C164.142 108.682 164.659 109.393 165.31 109.97L166.74 111.21C167.892 112.201 169.377 112.718 170.895 112.657C172.413 112.596 173.852 111.961 174.92 110.88L176.33 109.44C176.893 108.858 177.332 108.168 177.622 107.412C177.911 106.656 178.044 105.849 178.013 105.04C177.983 104.23 177.788 103.436 177.442 102.704C177.096 101.972 176.606 101.317 176 100.78Z" fill="#E9C32D"/>
<path d="M141.64 132.16L144.15 134.36C145.481 135.519 147.215 136.107 148.976 135.996C150.737 135.886 152.384 135.086 153.56 133.77C154.23 133.02 154.89 132.27 155.56 131.53C156.154 130.87 156.611 130.099 156.905 129.261C157.198 128.423 157.323 127.535 157.271 126.648C157.218 125.762 156.991 124.894 156.601 124.097C156.211 123.299 155.667 122.586 155 122L152.62 119.92C151.342 118.809 149.691 118.222 147.998 118.275C146.305 118.329 144.695 119.02 143.49 120.21L141.34 122.33C140.683 122.979 140.167 123.756 139.824 124.612C139.481 125.469 139.318 126.388 139.347 127.311C139.375 128.233 139.593 129.14 139.987 129.975C140.382 130.809 140.945 131.553 141.64 132.16Z" fill="#E9C32D"/>
<path d="M131.85 148.34L129.79 146.54C129.038 145.866 128.151 145.358 127.189 145.049C126.227 144.741 125.21 144.639 124.206 144.75C123.202 144.862 122.232 145.184 121.361 145.696C120.49 146.207 119.736 146.897 119.15 147.72C118.57 148.5 118 149.28 117.44 150.06C116.402 151.529 115.947 153.33 116.164 155.116C116.38 156.901 117.252 158.542 118.61 159.72L120.61 161.45C121.354 162.098 122.222 162.588 123.162 162.89C124.101 163.192 125.092 163.299 126.075 163.206C127.057 163.112 128.01 162.82 128.876 162.346C129.742 161.872 130.502 161.227 131.11 160.45L132.77 158.36C133.936 156.893 134.491 155.032 134.32 153.166C134.148 151.299 133.264 149.571 131.85 148.34Z" fill="#E9C32D"/>
<path d="M185.54 93.11L184 91.79C183.211 91.1011 182.215 90.6931 181.17 90.6298C180.124 90.5664 179.087 90.8514 178.22 91.44L176 93C175.415 93.4132 174.931 93.954 174.585 94.5816C174.239 95.2091 174.041 95.907 174.004 96.6226C173.967 97.3382 174.094 98.0527 174.374 98.7123C174.654 99.3719 175.08 99.9592 175.62 100.43L177.49 102.05C178.388 102.832 179.547 103.247 180.737 103.212C181.927 103.176 183.06 102.694 183.91 101.86L185.76 100.06C186.226 99.6021 186.592 99.0526 186.835 98.4463C187.078 97.8399 187.193 97.1897 187.172 96.5368C187.152 95.8839 186.996 95.2423 186.715 94.6525C186.434 94.0627 186.034 93.5375 185.54 93.11Z" fill="#E9C32D"/>
<path d="M153.65 120.85L155.22 122.22C156.533 123.36 158.236 123.947 159.972 123.857C161.708 123.768 163.342 123.009 164.53 121.74L166.19 119.97C166.806 119.314 167.284 118.54 167.594 117.695C167.904 116.849 168.04 115.95 167.994 115.051C167.949 114.152 167.722 113.271 167.328 112.462C166.933 111.652 166.38 110.931 165.7 110.34L164.32 109.12C163.097 108.057 161.531 107.471 159.91 107.471C158.289 107.471 156.723 108.057 155.5 109.12C154.86 109.68 154.22 110.24 153.59 110.81C152.883 111.443 152.318 112.219 151.933 113.087C151.548 113.955 151.352 114.894 151.357 115.844C151.363 116.793 151.57 117.73 151.966 118.593C152.361 119.456 152.935 120.226 153.65 120.85Z" fill="#E9C32D"/>
<path d="M131.53 148.06C132.258 148.693 133.104 149.175 134.019 149.477C134.935 149.78 135.901 149.898 136.863 149.823C137.824 149.749 138.761 149.484 139.619 149.044C140.477 148.604 141.239 147.997 141.86 147.26L144.47 144.18C145.704 142.723 146.318 140.839 146.18 138.934C146.041 137.029 145.162 135.254 143.73 133.99L141.62 132.15C140.179 130.893 138.301 130.254 136.393 130.37C134.484 130.486 132.698 131.348 131.42 132.77C130.48 133.77 129.54 134.88 128.62 135.94C127.367 137.398 126.743 139.293 126.883 141.21C127.024 143.127 127.918 144.911 129.37 146.17L131.53 148.06Z" fill="#E9C32D"/>
<path d="M121.37 162.13L120.27 161.13C119.448 160.415 118.476 159.893 117.426 159.603C116.376 159.313 115.274 159.262 114.201 159.454C113.129 159.646 112.113 160.075 111.228 160.712C110.344 161.348 109.613 162.174 109.09 163.13C108.87 163.52 108.66 163.91 108.45 164.31C107.671 165.762 107.407 167.436 107.701 169.058C107.995 170.68 108.83 172.154 110.07 173.24L111.07 174.08C111.834 174.747 112.729 175.246 113.698 175.546C114.667 175.846 115.687 175.94 116.694 175.821C117.702 175.702 118.673 175.374 119.545 174.857C120.418 174.34 121.172 173.646 121.76 172.82L122.49 171.82C123.54 170.354 124.007 168.55 123.8 166.759C123.593 164.968 122.727 163.318 121.37 162.13Z" fill="#E9C32D"/>
<path d="M121.75 200.47L110.56 190.7C107.09 197.62 106.06 202.7 108.56 204.76C111.06 206.82 115.74 205 121.75 200.47Z" fill="#FFDD39"/>
<path d="M192.75 99.4098L196.47 102.65C196.905 103.027 197.417 103.305 197.97 103.466C198.523 103.627 199.105 103.666 199.674 103.582C200.244 103.497 200.789 103.291 201.271 102.976C201.754 102.662 202.163 102.247 202.47 101.76C202.93 101.02 203.39 100.29 203.83 99.5698C204.317 98.7663 204.506 97.8168 204.364 96.8879C204.221 95.959 203.756 95.11 203.05 94.4898L199.86 91.7098C199.13 91.0685 198.192 90.7148 197.22 90.7148C196.248 90.7148 195.31 91.0685 194.58 91.7098L192.69 93.4398C192.273 93.8192 191.941 94.2825 191.716 94.7992C191.49 95.316 191.377 95.8745 191.383 96.4382C191.388 97.0019 191.513 97.5581 191.749 98.0702C191.984 98.5823 192.326 99.0388 192.75 99.4098Z" fill="#FFDD39"/>
<path d="M110.56 190.7L121.75 200.47C125.168 197.842 128.427 195.014 131.51 192L117.18 179.5C114.757 183.101 112.546 186.841 110.56 190.7Z" fill="#FFDD39"/>
<path d="M175.16 118.59L180.76 123.47C181.318 123.957 181.972 124.321 182.68 124.538C183.388 124.756 184.134 124.823 184.869 124.734C185.604 124.646 186.313 124.404 186.949 124.024C187.584 123.644 188.133 123.135 188.56 122.53L190.56 119.72C191.304 118.651 191.626 117.345 191.465 116.053C191.305 114.761 190.673 113.574 189.69 112.72L184.52 108.21C183.508 107.322 182.194 106.854 180.848 106.902C179.503 106.951 178.226 107.511 177.28 108.47L174.89 110.91C174.387 111.423 173.993 112.033 173.733 112.703C173.472 113.373 173.351 114.089 173.377 114.808C173.402 115.526 173.573 116.232 173.88 116.882C174.186 117.532 174.622 118.113 175.16 118.59Z" fill="#FFDD39"/>
<path d="M153.63 142.63L161.02 149.08C161.625 149.607 162.332 150.005 163.096 150.25C163.861 150.494 164.667 150.579 165.466 150.501C166.265 150.422 167.039 150.181 167.742 149.792C168.444 149.404 169.059 148.875 169.55 148.24L172.4 144.54C173.306 143.355 173.729 141.869 173.582 140.384C173.435 138.899 172.731 137.526 171.61 136.54L164.47 130.31C163.303 129.295 161.784 128.78 160.241 128.875C158.697 128.97 157.253 129.669 156.22 130.82C155.22 131.97 154.15 133.13 153.11 134.29C152.594 134.871 152.198 135.548 151.945 136.282C151.692 137.016 151.587 137.793 151.635 138.568C151.683 139.343 151.884 140.101 152.227 140.799C152.569 141.496 153.046 142.118 153.63 142.63Z" fill="#FFDD39"/>
<path d="M149.56 163.76L141.73 156.94C141.13 156.42 140.431 156.026 139.675 155.783C138.919 155.539 138.122 155.45 137.331 155.522C136.54 155.594 135.772 155.825 135.072 156.201C134.373 156.577 133.756 157.09 133.26 157.71C132.08 159.19 130.923 160.657 129.79 162.11C128.876 163.292 128.447 164.778 128.592 166.265C128.737 167.752 129.445 169.127 130.57 170.11L138.18 176.76C139.349 177.781 140.875 178.299 142.424 178.199C143.974 178.1 145.421 177.392 146.45 176.23C147.67 174.857 148.9 173.45 150.14 172.01C151.147 170.834 151.65 169.31 151.542 167.766C151.433 166.222 150.721 164.783 149.56 163.76Z" fill="#FFDD39"/>
<path d="M184.44 108.17L189.34 112.44C189.827 112.863 190.399 113.179 191.017 113.365C191.635 113.551 192.285 113.603 192.925 113.519C193.565 113.435 194.18 113.216 194.729 112.877C195.278 112.537 195.749 112.085 196.11 111.55L197.79 109.01C198.394 108.094 198.644 106.99 198.495 105.903C198.346 104.816 197.808 103.82 196.98 103.1L192.56 99.2401C191.704 98.4923 190.599 98.092 189.463 98.1179C188.327 98.1438 187.241 98.5941 186.42 99.3801L184.25 101.49C183.803 101.93 183.451 102.457 183.217 103.039C182.983 103.621 182.871 104.245 182.889 104.872C182.907 105.498 183.054 106.115 183.32 106.683C183.587 107.25 183.969 107.757 184.44 108.17Z" fill="#FFDD39"/>
<path d="M138 176.61L131.24 170.71C130.623 170.175 129.902 169.775 129.122 169.534C128.342 169.293 127.521 169.217 126.71 169.311C125.899 169.405 125.116 169.667 124.412 170.08C123.708 170.493 123.098 171.048 122.62 171.71C121.77 172.88 120.95 174.04 120.16 175.18C119.338 176.37 118.986 177.822 119.171 179.257C119.355 180.691 120.064 182.007 121.16 182.95L127.45 188.44C128.571 189.414 130.02 189.927 131.505 189.875C132.99 189.823 134.399 189.21 135.45 188.16C136.45 187.16 137.4 186.16 138.39 185.16C138.948 184.584 139.382 183.901 139.666 183.151C139.95 182.401 140.077 181.602 140.041 180.801C140.004 180 139.804 179.215 139.453 178.495C139.102 177.774 138.608 177.133 138 176.61Z" fill="#FFDD39"/>
<path d="M164.69 130.48L171 136C171.614 136.533 172.333 136.933 173.109 137.175C173.886 137.418 174.704 137.496 175.513 137.407C176.321 137.318 177.103 137.063 177.808 136.657C178.513 136.251 179.126 135.704 179.61 135.05L182.03 131.75C182.902 130.56 183.296 129.085 183.133 127.619C182.97 126.152 182.262 124.8 181.15 123.83L175.26 118.69C174.111 117.691 172.62 117.175 171.1 117.249C169.579 117.324 168.146 117.983 167.1 119.09L164.31 122.09C163.778 122.663 163.365 123.336 163.096 124.07C162.827 124.804 162.707 125.584 162.742 126.365C162.777 127.146 162.968 127.912 163.302 128.618C163.637 129.325 164.108 129.958 164.69 130.48Z" fill="#FFDD39"/>
<path d="M141.46 156.71L149.41 163.63C150.003 164.147 150.694 164.54 151.442 164.786C152.189 165.031 152.979 165.124 153.763 165.059C154.547 164.993 155.31 164.771 156.007 164.406C156.704 164.04 157.321 163.538 157.82 162.93C159.273 161.17 160.723 159.39 162.17 157.59C163.124 156.405 163.583 154.897 163.451 153.382C163.319 151.867 162.605 150.461 161.46 149.46L153.62 142.62C153.034 142.109 152.352 141.72 151.615 141.474C150.877 141.229 150.098 141.131 149.323 141.188C148.548 141.245 147.791 141.454 147.097 141.805C146.403 142.155 145.786 142.64 145.28 143.23C143.78 144.99 142.293 146.743 140.82 148.49C139.83 149.671 139.342 151.194 139.462 152.731C139.582 154.267 140.299 155.696 141.46 156.71Z" fill="#FFDD39"/>
<path d="M113.75 211.23L111 199L98.46 197.92L88.71 210.45C88.5968 212.581 87.9872 214.656 86.93 216.51C86.2491 217.637 85.9459 218.952 86.0646 220.263C86.1833 221.574 86.7178 222.814 87.59 223.8C87.8841 224.151 88.1979 224.485 88.53 224.8L88.6 224.86C89.6825 225.774 91.0534 226.275 92.47 226.275C93.8866 226.275 95.2575 225.774 96.34 224.86C98.041 223.546 100.028 222.651 102.14 222.25L113.75 211.23Z" fill="#308037"/>
<path d="M102.12 222.13C102.12 222.13 98.45 210 111 195.62C123.55 181.24 183.3 141.62 206.82 186.29C186.82 176.77 176.82 174.16 156.57 197.41C136.32 220.66 126 228.66 102.12 222.13Z" fill="#609E3E"/>
<path d="M88.69 210.41C88.69 210.41 102.46 213.46 114.98 199.11C127.5 184.76 158.72 120.11 111.25 102.91C123.39 121.47 127.32 130.96 107.03 154.21C86.74 177.46 82 192.77 88.69 210.41Z" fill="#72AA43"/>
</g>
<defs>
<clipPath id="clip0">
<rect width="304.85" height="304.85" fill="white"/>
</clipPath>
</defs>
</svg>
