<svg width="305" height="305" viewBox="0 0 305 305" fill="none" xmlns="http://www.w3.org/2000/svg">
<g clip-path="url(#clip0)">
<path d="M244.85 0H60C26.8629 0 0 26.8629 0 60V244.85C0 277.987 26.8629 304.85 60 304.85H244.85C277.987 304.85 304.85 277.987 304.85 244.85V60C304.85 26.8629 277.987 0 244.85 0Z" fill="#794F2F"/>
<path d="M241.36 23.4902H63.49C41.3986 23.4902 23.49 41.3988 23.49 63.4902V241.36C23.49 263.452 41.3986 281.36 63.49 281.36H241.36C263.451 281.36 281.36 263.452 281.36 241.36V63.4902C281.36 41.3988 263.451 23.4902 241.36 23.4902Z" fill="#553720"/>
<path d="M238 134.78C238.166 133.83 238.279 132.872 238.34 131.91C238.521 129.417 238.363 126.911 237.87 124.46C237.431 122.301 236.637 120.229 235.52 118.33L235.42 118.14L235.33 118.01C234.545 116.741 233.612 115.569 232.55 114.52C234.152 110.95 234.865 107.046 234.63 103.14L234.47 101.48L233.38 100.23C232.132 98.771 230.444 97.7568 228.57 97.3401C225.607 96.8388 222.566 97.5016 220.08 99.1901L216.29 101.78L218.37 105.86C218.611 106.337 218.783 106.845 218.88 107.37C213.649 106.433 208.255 107.364 203.64 110C201.49 111.12 193.64 118.16 193.64 118.16C176.75 131.84 162.7 130.82 153.52 128.81C151.99 128.47 150.57 128.1 149.32 127.81L148.55 127.61C145.62 126.86 142.72 126.03 139.64 125.15C134.93 123.8 130.07 122.41 125.14 121.33C116.85 119.52 109.96 118.94 103.44 119.52C87 121 72.34 132.42 67.9 147.36L67.8 147.69C67.6534 148.223 67.5134 148.763 67.38 149.31L67.26 149.88C67.15 150.35 67.06 150.82 66.98 151.28C66.98 151.51 66.9 151.74 66.87 151.99C66.7967 152.45 66.7367 152.91 66.69 153.37V153.51C66.69 153.71 66.69 153.91 66.63 154.08C66.63 154.57 66.56 155.08 66.53 155.57C66.53 155.57 66.53 156.03 66.53 156.2C66.53 156.91 66.53 157.61 66.53 158.34C66.53 158.61 66.53 158.87 66.53 159.13V159.74C66.53 160.21 66.58 160.68 66.63 161.15C67.3394 167.727 69.6614 174.026 73.39 179.49C74.03 180.44 74.62 181.27 75.19 182.01C75.61 182.55 76.04 183.09 76.48 183.61C77.34 184.61 78.28 185.67 79.26 186.67C80.24 187.67 81.26 188.6 82.26 189.52C84.7108 191.649 87.3181 193.592 90.06 195.33C91.06 195.94 92 196.53 92.98 197.08C93.96 197.63 95 198.16 96 198.66C98.7558 200.073 101.594 201.319 104.5 202.39C107.123 203.361 109.793 204.199 112.5 204.9C113.59 205.18 114.69 205.44 115.79 205.68L116.24 205.78C117.5 206.05 118.76 206.29 120.01 206.5C153.53 212.14 188.32 198.09 215.47 167.95C217.8 165.36 220.09 162.64 222.28 159.87C223.22 158.66 224.14 157.47 225.03 156.28L225.17 158.98L233.89 145.62C235.928 142.296 237.322 138.619 238 134.78Z" fill="white"/>
<path d="M113.75 199.86C92.95 194.47 73.88 180.31 71.86 160.62C71.77 159.81 71.72 158.99 71.69 158.17C71.12 140.17 86.8 126.17 103.92 124.68C118.69 123.36 133.21 129.01 147.27 132.63C156.42 134.98 175.33 140.63 198.34 121.04C203.84 116.37 215.79 111.8 224.9 122.48C229.62 128.02 232.29 136.56 225.13 147.1C193.9 193 151.14 209.53 113.75 199.86Z" fill="#60266C"/>
<path d="M224.9 122.48C223.656 121.015 222.212 119.732 220.61 118.67C223.71 124.16 224.71 133.37 213.49 147.03C190 175.68 152.2 196.89 114.72 178.5C89.93 166.34 81.44 148.37 84 132.75C76.41 138.83 71.35 147.82 71.68 158.17C71.68 158.99 71.76 159.81 71.85 160.62C73.85 180.31 92.94 194.47 113.74 199.86C151.13 209.53 193.89 193.03 225.12 147.1C232.29 136.56 229.62 128 224.9 122.48Z" fill="#572262"/>
<path d="M115.23 134.72C108.34 133.55 99.23 136.31 99.23 146.04C99.23 158.47 114.74 166.38 125.23 168.04C141.11 170.61 153.6 166.73 162.47 160.45C168.47 156.17 170.98 150.99 168.83 147.9C165.43 143.02 158.12 143.83 152.94 143.79C136.05 143.72 125.09 136.38 115.23 134.72Z" fill="#8F3894"/>
<path d="M225.8 115.81C217.56 110.73 211.8 111.61 206.05 114.62C201.25 117.12 198.9 116.68 198.9 116.68C199.918 118.034 201.245 119.125 202.771 119.86C204.297 120.596 205.977 120.956 207.67 120.91H213.73C213.73 120.91 211.46 122.06 210.62 127.23C209.78 132.4 207.05 134.63 207.05 134.63C207.05 134.63 220.74 138.3 222.57 128.63C223.074 131.032 224.319 133.214 226.13 134.87C229.22 137.77 229.47 142.81 229.47 142.81C231.538 139.42 232.79 135.596 233.13 131.64C233.5 125.51 232.09 119.68 225.8 115.81Z" fill="#37B34A"/>
<path d="M233.13 131.6C233.5 125.51 232.13 119.68 225.8 115.81C228.344 112.277 229.623 107.989 229.43 103.64C226.96 100.8 223 103.5 223 103.5C225.72 108.86 222.91 114.22 222.91 114.22C223.396 116.592 223.188 119.054 222.31 121.31C219.49 128.18 214.31 129.51 214.31 129.51C213.57 128.215 213.133 126.77 213.031 125.282C212.929 123.795 213.164 122.304 213.72 120.92L212.31 122.41C211.409 123.881 210.833 125.528 210.62 127.24C209.78 132.41 207.04 134.64 207.04 134.64C207.04 134.64 220.73 138.31 222.56 128.64C223.064 131.042 224.309 133.224 226.12 134.88C229.21 137.78 229.46 142.82 229.46 142.82C231.538 139.416 232.795 135.574 233.13 131.6Z" fill="#31A444"/>
</g>
<defs>
<clipPath id="clip0">
<rect width="304.85" height="304.85" fill="white"/>
</clipPath>
</defs>
</svg>
