<svg width="305" height="305" viewBox="0 0 305 305" fill="none" xmlns="http://www.w3.org/2000/svg">
<g clip-path="url(#clip0)">
<path d="M244.85 0H60C26.8629 0 0 26.8629 0 60V244.85C0 277.987 26.8629 304.85 60 304.85H244.85C277.987 304.85 304.85 277.987 304.85 244.85V60C304.85 26.8629 277.987 0 244.85 0Z" fill="#444444"/>
<path d="M241.36 23.4902H63.49C41.3986 23.4902 23.49 41.3988 23.49 63.4902V241.36C23.49 263.452 41.3986 281.36 63.49 281.36H241.36C263.451 281.36 281.36 263.452 281.36 241.36V63.4902C281.36 41.3988 263.451 23.4902 241.36 23.4902Z" fill="#303030"/>
<path d="M162 214.91C164.888 208.615 166.111 201.683 165.55 194.78C165.019 187.944 162.649 181.379 158.69 175.78L166.16 166.94C167.196 165.709 167.856 164.206 168.062 162.61C168.267 161.015 168.01 159.394 167.32 157.94L186.67 135C188.673 135.036 190.66 134.623 192.483 133.793C194.307 132.962 195.922 131.735 197.21 130.2L240.54 78.9301C242.853 76.1838 243.984 72.6327 243.684 69.0545C243.384 65.4764 241.678 62.163 238.94 59.8401L232.88 54.7201C230.135 52.4061 226.584 51.2759 223.007 51.5778C219.43 51.8797 216.118 53.5889 213.8 56.3301L170.47 107.6C169.165 109.122 168.218 110.918 167.699 112.854C167.18 114.791 167.102 116.819 167.47 118.79L148.11 141.7C146.556 141.255 144.906 141.268 143.359 141.738C141.812 142.208 140.434 143.115 139.39 144.35L131.92 153.19C125.738 150.224 118.87 148.981 112.04 149.59C105.149 150.187 98.5267 152.546 92.81 156.44L92.58 156.57L64.23 189.94C63.1364 191.207 62.3048 192.679 61.7836 194.269C61.2623 195.86 61.0615 197.538 61.193 199.206C61.3244 200.875 61.7854 202.501 62.5493 203.99C63.3132 205.479 64.3649 206.802 65.6434 207.883C66.9219 208.963 68.402 209.779 69.9979 210.283C71.5938 210.788 73.2739 210.971 74.9411 210.822C76.6082 210.673 78.2292 210.195 79.7103 209.415C81.1915 208.635 82.5033 207.57 83.57 206.28L105.37 180.49C105.673 180.066 106.06 179.709 106.507 179.442C106.955 179.175 107.453 179.003 107.97 178.939C108.487 178.874 109.012 178.917 109.511 179.065C110.011 179.213 110.474 179.463 110.872 179.8C111.271 180.136 111.595 180.551 111.824 181.019C112.054 181.487 112.184 181.997 112.206 182.518C112.228 183.038 112.142 183.558 111.954 184.044C111.765 184.53 111.478 184.971 111.11 185.34L89.31 211.14C88.1842 212.402 87.3226 213.876 86.776 215.477C86.2295 217.077 86.0091 218.77 86.1278 220.457C86.2465 222.144 86.702 223.79 87.4673 225.298C88.2326 226.806 89.2922 228.145 90.5836 229.237C91.8751 230.329 93.3721 231.15 94.9864 231.654C96.6007 232.158 98.2995 232.333 99.9826 232.169C101.666 232.005 103.299 231.506 104.786 230.701C106.273 229.895 107.583 228.8 108.64 227.48L130.45 201.68C130.753 201.256 131.14 200.899 131.587 200.632C132.035 200.365 132.533 200.193 133.05 200.129C133.567 200.064 134.092 200.107 134.591 200.255C135.091 200.403 135.554 200.653 135.952 200.99C136.351 201.326 136.675 201.741 136.904 202.209C137.134 202.677 137.264 203.187 137.286 203.708C137.308 204.228 137.222 204.748 137.034 205.234C136.845 205.72 136.558 206.161 136.19 206.53L114.39 232.33C113.264 233.592 112.403 235.066 111.856 236.667C111.309 238.267 111.089 239.96 111.208 241.647C111.327 243.334 111.782 244.98 112.547 246.488C113.313 247.996 114.372 249.335 115.664 250.427C116.955 251.519 118.452 252.34 120.066 252.844C121.681 253.348 123.379 253.523 125.063 253.359C126.746 253.195 128.379 252.696 129.866 251.891C131.353 251.085 132.663 249.99 133.72 248.67L162 214.91Z" fill="white"/>
<path d="M157.6 213C160.179 207.434 161.274 201.295 160.78 195.18C160.441 190.801 159.237 186.532 157.24 182.621C155.242 178.709 152.489 175.232 149.14 172.39L136.86 162C133.504 159.169 129.618 157.034 125.43 155.717C121.241 154.4 116.832 153.929 112.46 154.33C106.362 154.862 100.505 156.963 95.46 160.43L67.88 193C67.1774 193.791 66.6387 194.713 66.2948 195.713C65.9509 196.713 65.8088 197.772 65.8767 198.827C65.9446 199.883 66.2211 200.914 66.6903 201.862C67.1595 202.81 67.812 203.656 68.61 204.35C69.4273 205.021 70.3694 205.523 71.3819 205.828C72.3945 206.132 73.4573 206.233 74.509 206.124C75.5608 206.015 76.5805 205.699 77.5092 205.194C78.438 204.688 79.2574 204.004 79.92 203.18L101.72 177.39C102.443 176.5 103.334 175.761 104.343 175.216C105.353 174.671 106.459 174.33 107.6 174.214C108.741 174.098 109.894 174.208 110.992 174.539C112.09 174.869 113.113 175.414 114 176.14C114.858 176.894 115.559 177.809 116.063 178.833C116.567 179.858 116.865 180.972 116.938 182.111C117.011 183.251 116.859 184.394 116.491 185.474C116.122 186.555 115.544 187.553 114.79 188.41L93 214.22C92.2996 215.011 91.7628 215.933 91.4207 216.933C91.0785 217.932 90.9378 218.99 91.0066 220.044C91.0754 221.099 91.3524 222.129 91.8215 223.076C92.2907 224.022 92.9427 224.867 93.74 225.56C94.5553 226.224 95.4934 226.72 96.5007 227.021C97.508 227.322 98.5647 227.422 99.6104 227.314C100.656 227.206 101.67 226.893 102.595 226.393C103.52 225.893 104.337 225.216 105 224.4L126.8 198.6C128.253 196.819 130.353 195.687 132.64 195.45C134.926 195.214 137.213 195.894 139 197.34C139.859 198.093 140.561 199.007 141.066 200.032C141.571 201.056 141.869 202.17 141.943 203.309C142.017 204.449 141.866 205.592 141.499 206.673C141.131 207.754 140.554 208.752 139.8 209.61L118 235.41C116.594 237.013 115.881 239.108 116.018 241.236C116.154 243.364 117.13 245.351 118.73 246.76C120.388 248.103 122.51 248.733 124.632 248.514C126.754 248.295 128.702 247.243 130.05 245.59L157.6 213Z" fill="#3F3F41"/>
<path d="M149.15 172.39L136.86 162C133.504 159.169 129.618 157.034 125.43 155.717C121.241 154.4 116.832 153.929 112.46 154.33C108.848 154.64 105.306 155.506 101.96 156.9C103.811 163.118 106.621 169.009 110.29 174.36C111.641 174.636 112.903 175.245 113.96 176.13C114.91 176.938 115.667 177.948 116.175 179.087C116.684 180.226 116.932 181.463 116.9 182.71C119.133 185.161 121.525 187.463 124.06 189.6C126.596 191.741 129.268 193.715 132.06 195.51C133.288 195.271 134.554 195.309 135.765 195.622C136.976 195.935 138.102 196.516 139.06 197.32C140.114 198.208 140.929 199.346 141.43 200.63C147.303 203.375 153.568 205.187 160 206C160.814 202.468 161.081 198.833 160.79 195.22C160.456 190.834 159.255 186.558 157.257 182.639C155.259 178.72 152.503 175.237 149.15 172.39Z" fill="#444444"/>
<path d="M201.942 109.535L190.05 99.4849L145.294 152.446L157.186 162.496L201.942 109.535Z" fill="#744C28"/>
<path d="M149.411 148.018L160.868 157.7C161.932 158.599 162.595 159.883 162.711 161.271C162.828 162.658 162.388 164.035 161.489 165.099L146.612 182.704C145.532 183.982 144.211 185.035 142.724 185.802C141.237 186.569 139.614 187.036 137.947 187.176C136.28 187.316 134.601 187.127 133.007 186.618C131.414 186.109 129.936 185.292 128.658 184.212C127.38 183.132 126.327 181.811 125.56 180.324C124.793 178.838 124.325 177.214 124.185 175.547C124.045 173.88 124.235 172.202 124.744 170.608C125.253 169.014 126.07 167.536 127.15 166.258L142.008 148.675C142.907 147.612 144.192 146.949 145.579 146.832C146.967 146.716 148.344 147.155 149.407 148.054L149.411 148.018Z" fill="#58595B"/>
<path d="M176.669 107.632C172.127 113.006 172.801 121.043 178.173 125.583C183.545 130.123 191.581 129.446 196.123 124.072L234.327 78.8629C238.869 73.4887 238.196 65.4519 232.824 60.9122C227.452 56.3725 219.415 57.0489 214.874 62.4231L176.669 107.632Z" fill="#58595B"/>
</g>
<defs>
<clipPath id="clip0">
<rect width="304.85" height="304.85" fill="white"/>
</clipPath>
</defs>
</svg>
