<svg width="305" height="305" viewBox="0 0 305 305" fill="none" xmlns="http://www.w3.org/2000/svg">
<g clip-path="url(#clip0)">
<path d="M244.85 0H60C26.8629 0 0 26.8629 0 60V244.85C0 277.987 26.8629 304.85 60 304.85H244.85C277.987 304.85 304.85 277.987 304.85 244.85V60C304.85 26.8629 277.987 0 244.85 0Z" fill="#444444"/>
<path d="M241.36 23.4902H63.49C41.3986 23.4902 23.49 41.3988 23.49 63.4902V241.36C23.49 263.452 41.3986 281.36 63.49 281.36H241.36C263.451 281.36 281.36 263.452 281.36 241.36V63.4902C281.36 41.3988 263.451 23.4902 241.36 23.4902Z" fill="#303030"/>
<path d="M199.44 73.4001C191.25 68.1201 180.88 68.5801 175.44 74.3301L175.28 74.2001C173.688 72.8765 171.635 72.2384 169.573 72.4259C167.511 72.6134 165.608 73.611 164.28 75.2001L139.07 105.2C138.214 106.224 137.633 107.449 137.383 108.759C137.133 110.07 137.221 111.423 137.64 112.69L55.78 210C53.3764 212.868 52.2078 216.572 52.5302 220.3C52.8526 224.029 54.6397 227.477 57.5 229.89L59.86 231.89C62.7271 234.296 66.4317 235.466 70.1607 235.144C73.8898 234.822 77.3385 233.033 79.75 230.17L161.59 132.84C162.91 133.035 164.258 132.889 165.506 132.416C166.754 131.944 167.86 131.16 168.72 130.14L179.07 117.83L212.63 154.83L252.37 107.57L199.44 73.4001Z" fill="white"/>
<path d="M165.525 86.251L182.776 100.757L77.1375 226.385C75.3264 228.539 72.734 229.885 69.9305 230.128C67.127 230.37 64.3421 229.489 62.1884 227.678L61.1781 226.828C59.0244 225.017 57.6783 222.425 57.436 219.621C57.1937 216.818 58.075 214.033 59.886 211.879L165.525 86.251Z" fill="#744C28"/>
<path d="M186.976 89.3919L175.993 80.1564C172.687 77.3768 167.754 77.8032 164.975 81.1087L145.416 104.368C142.636 107.674 143.063 112.607 146.368 115.386L157.351 124.622C160.657 127.402 165.59 126.975 168.369 123.67L187.928 100.41C190.708 97.1044 190.281 92.1715 186.976 89.3919Z" fill="#58595B"/>
<path d="M212.7 147.88L173.7 104.88C168.47 99.1101 167.35 90.7401 171.19 86.1701L178.46 77.5101C182.3 72.9501 190.72 72.6601 197.25 76.8701L246 108.28L212.7 147.88Z" fill="#3F3F41"/>
<path d="M220.17 112.9C224.034 108.3 227.078 103.071 229.17 97.4398L197.25 76.8598C190.72 72.6498 182.3 72.9398 178.46 77.4998L171.19 86.1598C167.35 90.7298 168.47 99.0998 173.7 104.87L195.7 129.12C205.27 126.228 213.779 120.588 220.17 112.9Z" fill="#444444"/>
</g>
<defs>
<clipPath id="clip0">
<rect width="304.85" height="304.85" fill="white"/>
</clipPath>
</defs>
</svg>
