<svg width="305" height="305" viewBox="0 0 305 305" fill="none" xmlns="http://www.w3.org/2000/svg">
<g clip-path="url(#clip0)">
<path d="M244.85 0H60C26.8629 0 0 26.8629 0 60V244.85C0 277.987 26.8629 304.85 60 304.85H244.85C277.987 304.85 304.85 277.987 304.85 244.85V60C304.85 26.8629 277.987 0 244.85 0Z" fill="#444444"/>
<path d="M241.36 23.4902H63.49C41.3986 23.4902 23.49 41.3988 23.49 63.4902V241.36C23.49 263.452 41.3986 281.36 63.49 281.36H241.36C263.451 281.36 281.36 263.452 281.36 241.36V63.4902C281.36 41.3988 263.451 23.4902 241.36 23.4902Z" fill="#303030"/>
<path d="M156.54 215.45C158.211 212.799 159.135 209.745 159.214 206.612C159.294 203.479 158.525 200.382 156.99 197.65L148.21 181.88L155.49 172.56C156.966 170.654 157.627 168.242 157.33 165.85L196.66 115.44L200.66 118.57L203.37 115.1L204.61 116.1C205.894 117.102 207.363 117.84 208.933 118.273C210.502 118.705 212.142 118.824 213.758 118.621C215.373 118.418 216.933 117.899 218.348 117.092C219.762 116.286 221.003 115.208 222 113.92L233.57 99C235.582 96.4153 236.486 93.1382 236.085 89.8876C235.684 86.637 234.01 83.6782 231.43 81.66L200.43 57.48C197.845 55.4685 194.568 54.5641 191.318 54.9653C188.067 55.3664 185.108 57.0404 183.09 59.62L171.49 74.55C169.479 77.1332 168.575 80.4086 168.976 83.6576C169.377 86.9066 171.051 89.8637 173.63 91.88L174.87 92.88L172.16 96.36L176.16 99.48L136.83 149.89C134.437 150.182 132.257 151.412 130.77 153.31L123.49 162.64L106.07 157.95C103.045 157.125 99.854 157.133 96.8334 157.973C93.8129 158.813 91.0753 160.453 88.91 162.72C87.8 163.89 86.71 165.16 85.67 166.49C77.62 176.81 71.37 192.44 69.36 207.29C67.02 224.53 70.58 237.8 79.36 244.66C88.14 251.52 101.89 251.74 118.04 245.28C131.95 239.72 145.6 229.86 153.65 219.54C154.7 218.18 155.67 216.81 156.54 215.45ZM184.66 80.3L182.08 83.61L180.84 82.61C180.774 82.5592 180.719 82.4956 180.677 82.4232C180.636 82.3508 180.609 82.2708 180.599 82.188C180.589 82.1052 180.595 82.0212 180.618 81.9409C180.64 81.8605 180.678 81.7855 180.73 81.72L192.34 66.84C192.446 66.7109 192.597 66.6274 192.763 66.607C192.929 66.5865 193.096 66.6306 193.23 66.73L224.23 90.91C224.296 90.9609 224.351 91.0244 224.393 91.0969C224.434 91.1693 224.461 91.2492 224.471 91.332C224.481 91.4148 224.475 91.4988 224.452 91.5792C224.43 91.6595 224.392 91.7346 224.34 91.8L212.73 106.69C212.626 106.821 212.474 106.906 212.307 106.927C212.141 106.948 211.973 106.902 211.84 106.8L210.6 105.8L213.19 102.48L184.66 80.3Z" fill="white"/>
<path d="M151.7 218C136.22 237.84 98.6 256.48 80.91 242.68C63.22 228.88 72.16 187.84 87.65 168C88.65 166.71 89.65 165.52 90.73 164.41C92.5852 162.468 94.9306 161.064 97.5183 160.346C100.106 159.628 102.84 159.622 105.43 160.33L132.1 167.5C134.052 168.025 135.879 168.936 137.473 170.18C139.067 171.423 140.396 172.974 141.38 174.74L154.82 198.86C156.131 201.203 156.787 203.855 156.718 206.539C156.65 209.222 155.859 211.838 154.43 214.11C153.61 215.37 152.7 216.667 151.7 218Z" fill="#2B2B2B"/>
<path d="M149.87 216.1C135.29 234.78 99.9499 252.4 83.3899 239.49C66.8299 226.58 75.3899 188 89.9099 169.32C90.8633 168.113 91.8333 166.987 92.8199 165.94C94.557 164.11 96.7565 162.783 99.1857 162.1C101.615 161.417 104.184 161.403 106.62 162.06L131.62 168.73C133.448 169.217 135.159 170.067 136.65 171.23C138.141 172.393 139.383 173.846 140.3 175.5L152.84 198.13C154.071 200.333 154.684 202.828 154.613 205.35C154.543 207.873 153.792 210.329 152.44 212.46C151.67 213.67 150.81 214.89 149.87 216.1Z" fill="#3F3F41"/>
<path d="M152.89 198.22V198.13L140.3 175.5C139.383 173.846 138.142 172.394 136.65 171.23C135.159 170.067 133.448 169.217 131.62 168.73L106.62 162.06C106.41 162 106.19 161.96 105.98 161.91C103.746 164.105 101.659 166.443 99.73 168.91C84 189.12 81.88 213.84 95.07 224.13C108.26 234.42 131.73 226.39 147.5 206.18C149.474 203.652 151.275 200.992 152.89 198.22Z" fill="#444444"/>
<path d="M205.511 100.057L188.946 87.1338L130.135 162.517L146.7 175.44L205.511 100.057Z" fill="#744C28"/>
<path d="M141.97 153.678L152.401 161.816C153.773 162.887 154.663 164.458 154.876 166.185C155.09 167.911 154.608 169.652 153.538 171.024L134.826 195.008C132.676 197.764 129.519 199.553 126.05 199.982C122.581 200.41 119.084 199.443 116.328 197.293C113.572 195.142 111.783 191.985 111.354 188.516C110.926 185.047 111.893 181.55 114.043 178.794L132.755 154.809C133.825 153.438 135.396 152.547 137.123 152.334C138.85 152.121 140.59 152.602 141.962 153.672L141.97 153.678Z" fill="#58595B"/>
<path d="M229.9 83.6699L198.9 59.4899C197.879 58.6933 196.711 58.1057 195.463 57.7605C194.215 57.4154 192.911 57.3194 191.626 57.4782C190.341 57.637 189.099 58.0474 187.973 58.686C186.846 59.3245 185.856 60.1788 185.06 61.1999L173.46 76.0799C171.853 78.1416 171.129 80.7568 171.448 83.3515C171.767 85.9462 173.102 88.3084 175.16 89.9199L178.37 92.4199L175.66 95.8899L200.24 115.07L203 111.6L206.21 114.1C208.269 115.693 210.874 116.407 213.457 116.087C216.041 115.767 218.393 114.438 220 112.39L231.62 97.5099C233.222 95.4447 233.941 92.8286 233.619 90.2346C233.296 87.6406 231.959 85.28 229.9 83.6699ZM214.69 108.25C214.179 108.903 213.43 109.327 212.607 109.428C211.784 109.529 210.954 109.3 210.3 108.79L207.09 106.29L209.68 102.98L185.1 83.7999L182.51 87.1099L179.31 84.6099C178.655 84.1004 178.23 83.3519 178.126 82.5287C178.023 81.7056 178.251 80.8751 178.76 80.2199L190.38 65.3399C190.632 65.0153 190.946 64.7438 191.303 64.5409C191.661 64.338 192.055 64.2077 192.463 64.1576C192.871 64.1074 193.285 64.1383 193.681 64.2485C194.076 64.3588 194.447 64.5461 194.77 64.7999L225.77 88.9799C226.423 89.4908 226.847 90.2401 226.948 91.0632C227.049 91.8863 226.82 92.7159 226.31 93.3699L214.69 108.25Z" fill="#3F3F41"/>
</g>
<defs>
<clipPath id="clip0">
<rect width="304.85" height="304.85" fill="white"/>
</clipPath>
</defs>
</svg>
