<svg width="305" height="305" viewBox="0 0 305 305" fill="none" xmlns="http://www.w3.org/2000/svg">
<g clip-path="url(#clip0)">
<path d="M244.85 0H60C26.8629 0 0 26.8629 0 60V244.85C0 277.987 26.8629 304.85 60 304.85H244.85C277.987 304.85 304.85 277.987 304.85 244.85V60C304.85 26.8629 277.987 0 244.85 0Z" fill="#794F2F"/>
<path d="M241.36 23.4902H63.49C41.3986 23.4902 23.49 41.3988 23.49 63.4902V241.36C23.49 263.452 41.3986 281.36 63.49 281.36H241.36C263.451 281.36 281.36 263.452 281.36 241.36V63.4902C281.36 41.3988 263.451 23.4902 241.36 23.4902Z" fill="#553720"/>
<path d="M214 124.57C209 121.02 204.29 117.45 200.13 114.3C198.41 113 196.73 111.73 195.13 110.54L213.13 93.8C214.057 92.9684 214.805 91.957 215.329 90.8274C215.853 89.6977 216.143 88.4734 216.179 87.2286C216.216 85.9838 215.999 84.7446 215.542 83.5862C215.084 82.4278 214.397 81.3744 213.52 80.49L211.64 78.57C210.762 77.6831 209.714 76.9838 208.557 76.5145C207.401 76.0453 206.162 75.8159 204.914 75.8402C203.667 75.8645 202.437 76.142 201.3 76.656C200.163 77.1699 199.142 77.9096 198.3 78.83L179.62 99.09C177.17 96.93 174.34 94.54 171.15 91.86C167.15 88.5 162.64 84.69 158.08 80.63C150.711 73.9224 141.104 70.2065 131.14 70.21C121.88 70.21 114 73.37 111.29 76.34C110.567 77.0679 110.062 77.9844 109.834 78.9851C109.606 79.9858 109.663 81.0304 110 82C111.14 85.31 114.23 85.82 117.8 86.42C118.57 86.54 119.43 86.69 120.38 86.86C116.372 88.3931 112.688 90.6659 109.52 93.56C104.099 97.0817 99.272 101.443 95.22 106.48C83.83 120.41 75.96 144.75 74.22 171.58C72.41 198.79 77.41 220.01 87.61 228.35C92.73 232.53 100.95 234.66 112.03 234.66C141.53 234.66 187.18 219.02 205.49 196.66L205.58 196.55C212.93 187.55 217.24 177.87 218.47 167.82C219.6 170.07 221.1 171.88 223.94 171.88C224.864 171.875 225.773 171.638 226.582 171.191C227.391 170.743 228.074 170.1 228.57 169.32C232.21 163.91 234.93 139.54 214 124.57Z" fill="white"/>
<path d="M201.64 193.46C178.47 221.81 108.23 238.93 90.64 224.54C71.74 209.09 75.82 137.91 98.99 109.54C122.16 81.1702 155.85 86.8602 184.2 110.03C212.55 133.2 224.81 165.11 201.64 193.46Z" fill="#E12727"/>
<path d="M201.7 193.38C178.58 221.68 108.55 238.79 90.78 224.53C113.88 221.23 161.44 210.84 184.17 179.77C198.65 159.99 196.17 135.19 189.49 114.53C214 137.21 223.39 166.85 201.7 193.38Z" fill="#C32120"/>
<path d="M203.23 134.28C191.58 120.15 182.66 107.07 177.94 104.18C172.35 99.0798 163.78 92.2798 154.8 84.2798C137.98 69.2798 117.8 76.4298 114.88 79.6398C111.96 82.8498 129.5 79.0598 146.33 94.0398C157.07 103.61 168.33 110.1 175.76 112.72C178.19 120.29 184.2 131.5 193.15 142.38C207.48 159.77 203.02 177.16 206.34 174.38C209.66 171.6 217.56 151.67 203.23 134.28Z" fill="#609E3E"/>
<path d="M211.08 128.56C196.18 117.92 184.17 107.56 178.86 106.03C172.14 102.55 162.1 98.2 151.36 92.8C131.23 82.69 113.6 94.8 111.6 98.66C109.6 102.52 125.6 94.31 145.7 104.42C158.56 110.88 171.07 114.25 178.96 114.84C183.27 121.52 191.96 130.84 203.45 138.98C221.79 152.07 221.98 170.03 224.45 166.46C226.92 162.89 229.42 141.64 211.08 128.56Z" fill="#609E3E"/>
<path d="M183.66 114.47L177.54 108.56L201.81 82.1398C202.205 81.7071 202.683 81.3592 203.216 81.1172C203.75 80.8751 204.327 80.744 204.912 80.7319C205.498 80.7197 206.08 80.8267 206.622 81.0464C207.165 81.2661 207.658 81.5939 208.07 82.0098L210 83.9198C210.411 84.3344 210.733 84.8281 210.948 85.3711C211.162 85.914 211.264 86.4949 211.247 87.0784C211.231 87.6619 211.095 88.2359 210.85 88.7656C210.605 89.2953 210.254 89.7696 209.82 90.1598L183.66 114.47Z" fill="#609E3E"/>
</g>
<defs>
<clipPath id="clip0">
<rect width="304.85" height="304.85" fill="white"/>
</clipPath>
</defs>
</svg>
