<svg width="305" height="305" viewBox="0 0 305 305" fill="none" xmlns="http://www.w3.org/2000/svg">
<g clip-path="url(#clip0)">
<path d="M244.85 0H60C26.8629 0 0 26.8629 0 60V244.85C0 277.987 26.8629 304.85 60 304.85H244.85C277.987 304.85 304.85 277.987 304.85 244.85V60C304.85 26.8629 277.987 0 244.85 0Z" fill="#794F2F"/>
<path d="M241.36 23.4902H63.49C41.3986 23.4902 23.49 41.3988 23.49 63.4902V241.36C23.49 263.452 41.3986 281.36 63.49 281.36H241.36C263.451 281.36 281.36 263.452 281.36 241.36V63.4902C281.36 41.3988 263.451 23.4902 241.36 23.4902Z" fill="#553720"/>
<path d="M113.07 211.48C111.51 209.89 110.14 208.32 108.82 206.79L107.51 205.29C106.65 204.29 105.51 203.04 104.18 201.72C103.767 201.313 103.367 200.923 102.98 200.55C101.67 199.31 100.37 198.18 99.1 197.08C97.58 195.75 96 194.38 94.41 192.82L94.05 192.46C89.8717 188.204 86.3528 183.347 83.61 178.05C83.11 177.12 82.61 176.11 82.03 174.97L81.78 174.45C70.38 150.9 72.63 128.16 88.45 106.85C102.06 88.5101 121.67 77.1901 142.25 75.7901C151.629 75.2087 160.984 77.2701 169.25 81.7401L176.41 82.9401C181.27 83.7601 185.23 86.8701 187.69 89.3301C187.95 89.5901 188.2 89.8501 188.45 90.1201C188.45 89.4701 188.45 88.7701 188.45 88.0301L188.19 73.6001L197.32 84.7701C199.495 87.4086 201.157 90.4306 202.22 93.6801C208.76 88.9301 215.08 86.8801 221.08 87.5901L222.52 87.7601L223.72 88.7601C223.72 88.7601 223.9 88.9101 224.2 89.2001C227.41 92.4101 228.7 98.0301 223.96 102.78L221.68 105L219 104C218.5 103.9 215.76 103.52 211.4 105.37C213.757 106.673 215.916 108.306 217.81 110.22C220.51 112.92 224.07 119.8 224.07 125.03C224.07 125.03 215.76 124.93 215.07 124.52L215.45 124.89L215.99 125.44C224.953 134.732 230.039 147.091 230.21 160C230.21 161.21 230.21 162.44 230.11 163.65C228.96 180.5 221.11 196.87 208.05 209.75C205.232 212.523 202.225 215.095 199.05 217.45C188.77 225.08 178 229.6 167.05 230.87C166.303 230.957 165.553 231.027 164.8 231.08C161.771 231.32 158.729 231.32 155.7 231.08C154.94 231.02 154.17 230.94 153.41 230.85C144.426 229.635 135.751 226.738 127.84 222.31C125.483 221.057 123.2 219.672 121 218.16C118.285 216.305 115.748 214.203 113.42 211.88L113.07 211.48Z" fill="white"/>
<path d="M225.12 163.31C226.31 145.96 216.49 127.83 200.55 120.47C197.17 118.9 186.99 108.73 185.43 105.35C178.07 89.4 159.93 79.59 142.59 80.78C121.99 82.18 104.28 93.91 92.46 109.83C77.43 130.07 75.2 152 88 175.67C95.15 188.89 100.7 191.18 107.7 198.18C114.7 205.18 117 210.73 130.22 217.89C153.88 230.7 175.81 228.46 196.06 213.44C212 201.62 223.71 183.91 225.12 163.31Z" fill="#E12727"/>
<path d="M143.29 125.27C151.342 125.27 157.87 118.742 157.87 110.69C157.87 102.638 151.342 96.1099 143.29 96.1099C135.238 96.1099 128.71 102.638 128.71 110.69C128.71 118.742 135.238 125.27 143.29 125.27Z" fill="#E55D42"/>
<path d="M225.12 163.31C226.31 145.96 216.49 127.83 200.55 120.47C197.17 118.9 186.99 108.73 185.43 105.35C182.98 100.142 179.445 95.5183 175.06 91.79C180.26 99.89 172.06 108.54 194.46 127.84C215.27 145.78 200.81 188.84 166.11 201.5C144.55 209.37 111.23 195.95 82.62 163.22C84.0319 167.525 85.8326 171.692 88 175.67C95.15 188.89 100.7 191.18 107.7 198.18C114.7 205.18 117 210.73 130.22 217.89C153.88 230.7 175.81 228.46 196.06 213.44C212 201.62 223.71 183.91 225.12 163.31Z" fill="#C32120"/>
<path d="M197 108.12C199.92 101.34 198.09 93.6499 193.41 87.9399C193.5 92.8399 193.28 96.7099 189.92 101.76C188.72 97.4999 182.47 89.0299 175.56 87.8799C180.33 93.8799 182.11 98.0299 181.63 104.76C181.63 104.76 177.42 104.59 174.73 106.38C172.82 107.65 169.65 111.78 169.65 111.78C177.65 110.4 183.19 120.72 188.48 116.16C188.48 116.16 195.08 125.88 192.56 134.64C200.56 127.8 198.32 122.88 198.32 122.88C204.24 123.88 208.92 132.04 211.45 136.88C212.59 130.95 210.34 122.69 204.9 118.54C210.32 116.96 215.72 118.43 220.08 122.01C216.14 113.93 207.51 105.49 197 108.15V108.12Z" fill="#00873E"/>
<path d="M220.49 92.5502C208.84 91.1902 197.05 104.38 191.84 111.13C191.972 111.535 192.212 111.895 192.535 112.172C192.858 112.449 193.25 112.631 193.67 112.7C197.31 109.1 203.22 103.7 208.34 101.3C215.72 97.8002 220.41 99.2202 220.41 99.2202C224.06 95.5702 220.49 92.5502 220.49 92.5502Z" fill="#007B38"/>
</g>
<defs>
<clipPath id="clip0">
<rect width="304.85" height="304.85" fill="white"/>
</clipPath>
</defs>
</svg>
