<svg width="276" height="223" viewBox="0 0 276 223" fill="none" xmlns="http://www.w3.org/2000/svg">
<g clip-path="url(#clip0)">
<path d="M78.174 66.3096L63.8995 69.5605L72.5931 107.733L86.8676 104.482L78.174 66.3096Z" fill="#3A4347"/>
<path d="M78.17 66.31L75.75 66.86L71.55 48.18L76.68 37.33L68.54 33.48L62.09 47.14L66.98 68.86L63.89 69.56L67.59 85.78L81.86 82.53L78.17 66.31Z" fill="#676F76"/>
<path d="M230.91 6.47021H144.1L125.8 90.1302L14.5299 118.78C10.3826 119.714 6.74378 122.186 4.34775 125.697C1.95171 129.208 0.97685 133.498 1.61989 137.7L10.6199 179.4H226.08C240.46 179.4 252.08 167.23 252.08 152.85L230.91 6.47021Z" fill="#F88916"/>
<path d="M187.65 92.9799H135.59L152.29 18.3799H187.65V92.9799Z" fill="white"/>
<path d="M232.61 93.96H197.6V18.71H223.19L232.61 93.96Z" fill="white"/>
<path d="M0.439941 187.91C0.597908 178.399 4.48709 169.33 11.269 162.66C18.051 155.99 27.1825 152.252 36.6949 152.252C46.2074 152.252 55.3389 155.99 62.1209 162.66C68.9028 169.33 72.792 178.399 72.9499 187.91H0.439941Z" fill="#BA5E0C"/>
<path d="M127.08 167.66C127.08 148.023 134.881 129.191 148.766 115.306C162.651 101.421 181.483 93.6201 201.12 93.6201C220.757 93.6201 239.589 101.421 253.474 115.306C267.359 129.191 275.16 148.023 275.16 167.66H127.08Z" fill="#BA5E0C"/>
<path d="M229.37 0H124.08C120.694 0 117.95 2.74449 117.95 6.13C117.95 9.51551 120.694 12.26 124.08 12.26H229.37C232.755 12.26 235.5 9.51551 235.5 6.13C235.5 2.74449 232.755 0 229.37 0Z" fill="#BA5E0C"/>
<path d="M66.44 197C67.2001 193.137 67.2001 189.163 66.44 185.3H64.18C63.9611 184.259 63.684 183.23 63.35 182.22L65.27 181.11C63.9958 177.396 62.0162 173.963 59.44 171L57.51 172.12C56.8031 171.328 56.0519 170.577 55.26 169.87L56.38 167.93C53.406 165.354 49.9679 163.368 46.25 162.08L45.11 164C44.101 163.661 43.0725 163.384 42.03 163.17V160.93C38.1704 160.17 34.1996 160.17 30.34 160.93V163.17C29.2975 163.384 28.2689 163.661 27.26 164L26.14 162.07C22.4221 163.358 18.9839 165.344 16.01 167.92L17.13 169.86C16.3381 170.567 15.5869 171.318 14.88 172.11L12.95 171C10.365 173.969 8.37547 177.409 7.08998 181.13L9.01998 182.24C8.68597 183.25 8.40887 184.279 8.18998 185.32H5.95998C5.19986 189.183 5.19986 193.157 5.95998 197.02H8.18998C8.41015 198.061 8.68723 199.089 9.01998 200.1L7.08998 201.21C8.37547 204.931 10.365 208.37 12.95 211.34L14.88 210.22C15.5894 211.009 16.3405 211.76 17.13 212.47L16.01 214.41C18.9839 216.986 22.4221 218.972 26.14 220.26L27.26 218.33C28.2703 218.664 29.2986 218.941 30.34 219.16V221.4C34.1996 222.16 38.1704 222.16 42.03 221.4V219.16C43.0714 218.941 44.0996 218.664 45.11 218.33L46.23 220.26C49.9479 218.972 53.386 216.986 56.36 214.41L55.24 212.47C56.0295 211.76 56.7805 211.009 57.49 210.22L59.44 211.32C62.0255 208.353 64.0121 204.913 65.29 201.19L63.37 200.08C63.7027 199.069 63.9798 198.041 64.2 197H66.44ZM36.21 206.73C33.1286 206.73 30.1163 205.816 27.5542 204.104C24.9921 202.392 22.9952 199.959 21.8159 197.112C20.6367 194.265 20.3282 191.133 20.9293 188.11C21.5305 185.088 23.0144 182.312 25.1933 180.133C27.3722 177.954 30.1483 176.47 33.1705 175.869C36.1927 175.268 39.3253 175.577 42.1722 176.756C45.0191 177.935 47.4523 179.932 49.1643 182.494C50.8762 185.056 51.79 188.068 51.79 191.15C51.79 193.198 51.386 195.227 50.6012 197.119C49.8163 199.011 48.666 200.73 47.2161 202.177C45.7662 203.624 44.0451 204.771 42.1514 205.553C40.2577 206.334 38.2285 206.734 36.18 206.73H36.21Z" fill="#3F3F41"/>
<path d="M47.2021 202.168C53.2865 196.084 53.2865 186.219 47.2021 180.135C41.1178 174.05 31.2531 174.05 25.1687 180.135C19.0843 186.219 19.0843 196.084 25.1687 202.168C31.2531 208.252 41.1178 208.252 47.2021 202.168Z" fill="#D6D6D6"/>
<path d="M36.1799 198.81C40.4104 198.81 43.8399 195.381 43.8399 191.15C43.8399 186.92 40.4104 183.49 36.1799 183.49C31.9494 183.49 28.5199 186.92 28.5199 191.15C28.5199 195.381 31.9494 198.81 36.1799 198.81Z" fill="#4E4F51"/>
<path d="M258.63 173.73C260.11 166.239 260.11 158.531 258.63 151.04H254.3C253.874 149.012 253.336 147.009 252.69 145.04L256.44 142.9C253.945 135.684 250.089 129.013 245.08 123.25L241.33 125.42C239.954 123.888 238.495 122.432 236.96 121.06L239.13 117.3C233.351 112.307 226.666 108.471 219.44 106L217.28 109.74C215.313 109.088 213.309 108.55 211.28 108.13V103.8C203.789 102.32 196.081 102.32 188.59 103.8V108.13C186.561 108.552 184.558 109.089 182.59 109.74L180.51 106C173.296 108.495 166.626 112.348 160.86 117.35L163.03 121.11C161.498 122.482 160.042 123.938 158.67 125.47L154.91 123.3C149.908 129.066 146.055 135.736 143.56 142.95L147.3 145.11C146.649 147.078 146.112 149.081 145.69 151.11H141.36C139.88 158.601 139.88 166.309 141.36 173.8H145.69C146.112 175.829 146.65 177.832 147.3 179.8L143.56 181.96C146.051 189.176 149.904 195.847 154.91 201.61L158.67 199.44C160.042 200.975 161.498 202.434 163.03 203.81L160.86 207.56C166.621 212.569 173.292 216.423 180.51 218.91L182.67 215.18C184.639 215.826 186.642 216.364 188.67 216.79V221C196.161 222.48 203.869 222.48 211.36 221V216.67C213.388 216.245 215.391 215.708 217.36 215.06L219.52 218.79C226.74 216.307 233.412 212.453 239.17 207.44L237 203.69C238.535 202.314 239.994 200.856 241.37 199.32L245.12 201.49C250.116 195.732 253.959 189.068 256.44 181.86L252.7 179.7C253.345 177.731 253.883 175.728 254.31 173.7L258.63 173.73ZM199.99 192.6C194.013 192.6 188.17 190.828 183.201 187.507C178.231 184.186 174.358 179.467 172.07 173.945C169.783 168.423 169.185 162.346 170.351 156.484C171.517 150.622 174.395 145.238 178.621 141.011C182.847 136.785 188.232 133.907 194.094 132.741C199.956 131.575 206.033 132.173 211.555 134.46C217.077 136.748 221.796 140.621 225.117 145.591C228.438 150.56 230.21 156.403 230.21 162.38C230.21 170.395 227.026 178.081 221.359 183.749C215.691 189.416 208.005 192.6 199.99 192.6Z" fill="#3F3F41"/>
<path d="M221.362 183.755C233.164 171.954 233.164 152.82 221.362 141.018C209.56 129.216 190.426 129.216 178.624 141.018C166.823 152.82 166.823 171.954 178.624 183.755C190.426 195.557 209.56 195.557 221.362 183.755Z" fill="#D6D6D6"/>
<path d="M199.99 177.25C208.202 177.25 214.86 170.592 214.86 162.38C214.86 154.167 208.202 147.51 199.99 147.51C191.777 147.51 185.12 154.167 185.12 162.38C185.12 170.592 191.777 177.25 199.99 177.25Z" fill="#4E4F51"/>
<path d="M77.51 127.28H57.8C56.8611 127.28 56.1 128.041 56.1 128.98C56.1 129.919 56.8611 130.68 57.8 130.68H77.51C78.4489 130.68 79.21 129.919 79.21 128.98C79.21 128.041 78.4489 127.28 77.51 127.28Z" fill="#3A4347"/>
<path d="M77.51 133.23H57.8C56.8611 133.23 56.1 133.991 56.1 134.93C56.1 135.869 56.8611 136.63 57.8 136.63H77.51C78.4489 136.63 79.21 135.869 79.21 134.93C79.21 133.991 78.4489 133.23 77.51 133.23Z" fill="#3A4347"/>
<path d="M77.51 139.19H57.8C56.8611 139.19 56.1 139.951 56.1 140.89C56.1 141.829 56.8611 142.59 57.8 142.59H77.51C78.4489 142.59 79.21 141.829 79.21 140.89C79.21 139.951 78.4489 139.19 77.51 139.19Z" fill="#3A4347"/>
</g>
<defs>
<clipPath id="clip0">
<rect width="274.72" height="222.13" fill="white" transform="translate(0.439941)"/>
</clipPath>
</defs>
</svg>
