<svg width="275" height="223" viewBox="0 0 275 223" fill="none" xmlns="http://www.w3.org/2000/svg">
<g clip-path="url(#clip0)">
<path d="M77.7341 66.3096L63.4597 69.5605L72.1533 107.733L86.4278 104.482L77.7341 66.3096Z" fill="#3A4347"/>
<path d="M77.73 66.31L75.31 66.86L71.11 48.18L76.24 37.33L68.1 33.48L61.65 47.14L66.54 68.86L63.45 69.56L67.15 85.78L81.42 82.53L77.73 66.31Z" fill="#676F76"/>
<path d="M230.47 6.47021H143.66L125.36 90.1302L14.09 118.78C9.94272 119.714 6.3039 122.186 3.90787 125.697C1.51183 129.208 0.53697 133.498 1.18001 137.7L10.18 179.4H225.64C240.02 179.4 251.64 167.23 251.64 152.85L230.47 6.47021Z" fill="#384ECE"/>
<path d="M187.21 92.9799H135.15L151.85 18.3799H187.21V92.9799Z" fill="white"/>
<path d="M232.17 93.96H197.16V18.71H222.75L232.17 93.96Z" fill="white"/>
<path d="M0 187.91C0.157966 178.399 4.04714 169.33 10.8291 162.66C17.611 155.99 26.7425 152.252 36.255 152.252C45.7675 152.252 54.899 155.99 61.6809 162.66C68.4629 169.33 72.352 178.399 72.51 187.91H0Z" fill="#1C36A3"/>
<path d="M126.64 167.66C126.64 148.023 134.441 129.191 148.326 115.306C162.211 101.421 181.043 93.6201 200.68 93.6201C220.317 93.6201 239.149 101.421 253.034 115.306C266.919 129.191 274.72 148.023 274.72 167.66H126.64Z" fill="#1C36A3"/>
<path d="M228.93 0H123.64C120.255 0 117.51 2.74449 117.51 6.13C117.51 9.51551 120.255 12.26 123.64 12.26H228.93C232.316 12.26 235.06 9.51551 235.06 6.13C235.06 2.74449 232.316 0 228.93 0Z" fill="#1C36A3"/>
<path d="M66 197C66.7601 193.137 66.7601 189.163 66 185.3H63.74C63.5211 184.259 63.244 183.23 62.91 182.22L64.83 181.11C63.5558 177.396 61.5762 173.963 59 171L57.07 172.12C56.3631 171.328 55.6119 170.577 54.82 169.87L55.94 167.93C52.966 165.354 49.5279 163.368 45.81 162.08L44.67 164C43.661 163.661 42.6325 163.384 41.59 163.17V160.93C37.7304 160.17 33.7596 160.17 29.9 160.93V163.17C28.8575 163.384 27.8289 163.661 26.82 164L25.7 162.07C21.9821 163.358 18.5439 165.344 15.57 167.92L16.69 169.86C15.8981 170.567 15.1469 171.318 14.44 172.11L12.51 171C9.92497 173.969 7.93547 177.409 6.64998 181.13L8.57998 182.24C8.24597 183.25 7.96887 184.279 7.74998 185.32H5.51998C4.75986 189.183 4.75986 193.157 5.51998 197.02H7.74998C7.97015 198.061 8.24723 199.089 8.57998 200.1L6.64998 201.21C7.93547 204.931 9.92497 208.37 12.51 211.34L14.44 210.22C15.1494 211.009 15.9005 211.76 16.69 212.47L15.57 214.41C18.5439 216.986 21.9821 218.972 25.7 220.26L26.82 218.33C27.8303 218.664 28.8586 218.941 29.9 219.16V221.4C33.7596 222.16 37.7304 222.16 41.59 221.4V219.16C42.6314 218.941 43.6596 218.664 44.67 218.33L45.79 220.26C49.5079 218.972 52.946 216.986 55.92 214.41L54.8 212.47C55.5895 211.76 56.3405 211.009 57.05 210.22L59 211.32C61.5855 208.353 63.5721 204.913 64.85 201.19L62.93 200.08C63.2627 199.069 63.5398 198.041 63.76 197H66ZM35.77 206.73C32.6885 206.73 29.6763 205.816 27.1142 204.104C24.5521 202.392 22.5552 199.959 21.3759 197.112C20.1967 194.265 19.8882 191.133 20.4893 188.11C21.0905 185.088 22.5744 182.312 24.7533 180.133C26.9322 177.954 29.7082 176.47 32.7305 175.869C35.7527 175.268 38.8853 175.577 41.7322 176.756C44.5791 177.935 47.0123 179.932 48.7243 182.494C50.4362 185.056 51.35 188.068 51.35 191.15C51.35 193.198 50.946 195.227 50.1612 197.119C49.3763 199.011 48.226 200.73 46.7761 202.177C45.3262 203.624 43.6051 204.771 41.7114 205.553C39.8177 206.334 37.7885 206.734 35.74 206.73H35.77Z" fill="#3F3F41"/>
<path d="M46.7622 202.168C52.8466 196.084 52.8466 186.219 46.7622 180.135C40.6778 174.05 30.8131 174.05 24.7288 180.135C18.6444 186.219 18.6444 196.084 24.7288 202.168C30.8131 208.252 40.6778 208.252 46.7622 202.168Z" fill="#D6D6D6"/>
<path d="M35.74 198.81C39.9705 198.81 43.4 195.381 43.4 191.15C43.4 186.92 39.9705 183.49 35.74 183.49C31.5095 183.49 28.08 186.92 28.08 191.15C28.08 195.381 31.5095 198.81 35.74 198.81Z" fill="#4E4F51"/>
<path d="M258.19 173.73C259.67 166.239 259.67 158.531 258.19 151.04H253.86C253.434 149.012 252.896 147.009 252.25 145.04L256 142.9C253.505 135.684 249.649 129.013 244.64 123.25L240.89 125.42C239.514 123.888 238.055 122.432 236.52 121.06L238.69 117.3C232.911 112.307 226.226 108.471 219 106L216.84 109.74C214.873 109.088 212.869 108.55 210.84 108.13V103.8C203.349 102.32 195.641 102.32 188.15 103.8V108.13C186.121 108.552 184.118 109.089 182.15 109.74L180.07 106C172.856 108.495 166.186 112.348 160.42 117.35L162.59 121.11C161.058 122.482 159.602 123.938 158.23 125.47L154.47 123.3C149.468 129.066 145.615 135.736 143.12 142.95L146.86 145.11C146.209 147.078 145.672 149.081 145.25 151.11H140.92C139.44 158.601 139.44 166.309 140.92 173.8H145.25C145.673 175.829 146.21 177.832 146.86 179.8L143.12 181.96C145.611 189.176 149.464 195.847 154.47 201.61L158.23 199.44C159.602 200.975 161.058 202.434 162.59 203.81L160.42 207.56C166.181 212.569 172.852 216.423 180.07 218.91L182.23 215.18C184.199 215.826 186.202 216.364 188.23 216.79V221C195.721 222.48 203.429 222.48 210.92 221V216.67C212.948 216.245 214.951 215.708 216.92 215.06L219.08 218.79C226.3 216.307 232.972 212.453 238.73 207.44L236.56 203.69C238.096 202.314 239.554 200.856 240.93 199.32L244.68 201.49C249.676 195.732 253.519 189.068 256 181.86L252.26 179.7C252.905 177.731 253.443 175.728 253.87 173.7L258.19 173.73ZM199.55 192.6C193.573 192.6 187.73 190.828 182.761 187.507C177.791 184.186 173.918 179.467 171.63 173.945C169.343 168.423 168.745 162.346 169.911 156.484C171.077 150.622 173.955 145.238 178.181 141.011C182.408 136.785 187.792 133.907 193.654 132.741C199.516 131.575 205.593 132.173 211.115 134.46C216.637 136.748 221.356 140.621 224.677 145.591C227.998 150.56 229.77 156.403 229.77 162.38C229.77 170.395 226.586 178.081 220.919 183.749C215.251 189.416 207.565 192.6 199.55 192.6Z" fill="#3F3F41"/>
<path d="M220.922 183.755C232.724 171.954 232.724 152.82 220.922 141.018C209.12 129.216 189.986 129.216 178.184 141.018C166.383 152.82 166.383 171.954 178.184 183.755C189.986 195.557 209.12 195.557 220.922 183.755Z" fill="#D6D6D6"/>
<path d="M199.55 177.25C207.762 177.25 214.42 170.592 214.42 162.38C214.42 154.167 207.762 147.51 199.55 147.51C191.338 147.51 184.68 154.167 184.68 162.38C184.68 170.592 191.338 177.25 199.55 177.25Z" fill="#4E4F51"/>
<path d="M77.07 127.28H57.36C56.4211 127.28 55.66 128.041 55.66 128.98C55.66 129.919 56.4211 130.68 57.36 130.68H77.07C78.0089 130.68 78.77 129.919 78.77 128.98C78.77 128.041 78.0089 127.28 77.07 127.28Z" fill="#3A4347"/>
<path d="M77.07 133.23H57.36C56.4211 133.23 55.66 133.991 55.66 134.93C55.66 135.869 56.4211 136.63 57.36 136.63H77.07C78.0089 136.63 78.77 135.869 78.77 134.93C78.77 133.991 78.0089 133.23 77.07 133.23Z" fill="#3A4347"/>
<path d="M77.07 139.19H57.36C56.4211 139.19 55.66 139.951 55.66 140.89C55.66 141.829 56.4211 142.59 57.36 142.59H77.07C78.0089 142.59 78.77 141.829 78.77 140.89C78.77 139.951 78.0089 139.19 77.07 139.19Z" fill="#3A4347"/>
</g>
<defs>
<clipPath id="clip0">
<rect width="274.72" height="222.13" fill="white"/>
</clipPath>
</defs>
</svg>
