<svg width="276" height="223" viewBox="0 0 276 223" fill="none" xmlns="http://www.w3.org/2000/svg">
<g clip-path="url(#clip0)">
<path d="M78.4541 66.3096L64.1796 69.5605L72.8732 107.733L87.1477 104.482L78.4541 66.3096Z" fill="#3A4347"/>
<path d="M78.45 66.31L76.03 66.86L71.83 48.18L76.96 37.33L68.82 33.48L62.37 47.14L67.26 68.86L64.17 69.56L67.87 85.78L82.14 82.53L78.45 66.31Z" fill="#676F76"/>
<path d="M231.19 6.47021H144.38L126.08 90.1302L14.8099 118.78C10.6626 119.714 7.02381 122.186 4.62777 125.697C2.23174 129.208 1.25688 133.498 1.89992 137.7L10.8999 179.4H226.36C240.74 179.4 252.36 167.23 252.36 152.85L231.19 6.47021Z" fill="#B74452"/>
<path d="M187.93 92.9799H135.87L152.57 18.3799H187.93V92.9799Z" fill="white"/>
<path d="M232.89 93.96H197.88V18.71H223.47L232.89 93.96Z" fill="white"/>
<path d="M0.719971 187.91C0.877937 178.399 4.76712 169.33 11.5491 162.66C18.331 155.99 27.4625 152.252 36.975 152.252C46.4874 152.252 55.6189 155.99 62.4009 162.66C69.1828 169.33 73.072 178.399 73.23 187.91H0.719971Z" fill="#832B32"/>
<path d="M127.36 167.66C127.36 148.023 135.161 129.191 149.046 115.306C162.931 101.421 181.763 93.6201 201.4 93.6201C221.037 93.6201 239.869 101.421 253.754 115.306C267.639 129.191 275.44 148.023 275.44 167.66H127.36Z" fill="#832B32"/>
<path d="M229.65 0H124.36C120.974 0 118.23 2.74449 118.23 6.13C118.23 9.51551 120.974 12.26 124.36 12.26H229.65C233.035 12.26 235.78 9.51551 235.78 6.13C235.78 2.74449 233.035 0 229.65 0Z" fill="#A91E2D"/>
<path d="M66.72 197C67.4801 193.137 67.4801 189.163 66.72 185.3H64.46C64.2411 184.259 63.964 183.23 63.63 182.22L65.55 181.11C64.2758 177.396 62.2962 173.963 59.72 171L57.79 172.12C57.0831 171.328 56.3319 170.577 55.54 169.87L56.66 167.93C53.686 165.354 50.2479 163.368 46.53 162.08L45.39 164C44.3811 163.661 43.3525 163.384 42.31 163.17V160.93C38.4504 160.17 34.4796 160.17 30.62 160.93V163.17C29.5775 163.384 28.549 163.661 27.54 164L26.42 162.07C22.7021 163.358 19.264 165.344 16.29 167.92L17.41 169.86C16.6181 170.567 15.8669 171.318 15.16 172.11L13.23 171C10.645 173.969 8.6555 177.409 7.37001 181.13L9.30001 182.24C8.966 183.25 8.6889 184.279 8.47001 185.32H6.24001C5.47989 189.183 5.47989 193.157 6.24001 197.02H8.47001C8.69018 198.061 8.96726 199.089 9.30001 200.1L7.37001 201.21C8.6555 204.931 10.645 208.37 13.23 211.34L15.16 210.22C15.8695 211.009 16.6205 211.76 17.41 212.47L16.29 214.41C19.264 216.986 22.7021 218.972 26.42 220.26L27.54 218.33C28.5504 218.664 29.5786 218.941 30.62 219.16V221.4C34.4796 222.16 38.4504 222.16 42.31 221.4V219.16C43.3514 218.941 44.3797 218.664 45.39 218.33L46.51 220.26C50.2279 218.972 53.666 216.986 56.64 214.41L55.52 212.47C56.3095 211.76 57.0605 211.009 57.77 210.22L59.72 211.32C62.3056 208.353 64.2921 204.913 65.57 201.19L63.65 200.08C63.9828 199.069 64.2598 198.041 64.48 197H66.72ZM36.49 206.73C33.4086 206.73 30.3963 205.816 27.8342 204.104C25.2721 202.392 23.2752 199.959 22.096 197.112C20.9168 194.265 20.6082 191.133 21.2094 188.11C21.8105 185.088 23.2944 182.312 25.4733 180.133C27.6522 177.954 30.4283 176.47 33.4505 175.869C36.4727 175.268 39.6053 175.577 42.4522 176.756C45.2991 177.935 47.7324 179.932 49.4443 182.494C51.1563 185.056 52.07 188.068 52.07 191.15C52.07 193.198 51.666 195.227 50.8812 197.119C50.0963 199.011 48.9461 200.73 47.4961 202.177C46.0462 203.624 44.3251 204.771 42.4314 205.553C40.5377 206.334 38.5085 206.734 36.46 206.73H36.49Z" fill="#3F3F41"/>
<path d="M47.4822 202.168C53.5665 196.084 53.5665 186.219 47.4822 180.135C41.3978 174.05 31.5331 174.05 25.4487 180.135C19.3644 186.219 19.3644 196.084 25.4487 202.168C31.5331 208.252 41.3978 208.252 47.4822 202.168Z" fill="#D6D6D6"/>
<path d="M36.4599 198.81C40.6904 198.81 44.1199 195.381 44.1199 191.15C44.1199 186.92 40.6904 183.49 36.4599 183.49C32.2294 183.49 28.7999 186.92 28.7999 191.15C28.7999 195.381 32.2294 198.81 36.4599 198.81Z" fill="#4E4F51"/>
<path d="M258.91 173.73C260.39 166.239 260.39 158.531 258.91 151.04H254.58C254.154 149.012 253.616 147.009 252.97 145.04L256.72 142.9C254.225 135.684 250.369 129.013 245.36 123.25L241.61 125.42C240.234 123.888 238.775 122.432 237.24 121.06L239.41 117.3C233.631 112.307 226.946 108.471 219.72 106L217.56 109.74C215.593 109.088 213.589 108.55 211.56 108.13V103.8C204.069 102.32 196.361 102.32 188.87 103.8V108.13C186.841 108.552 184.838 109.089 182.87 109.74L180.79 106C173.576 108.495 166.906 112.348 161.14 117.35L163.31 121.11C161.778 122.482 160.322 123.938 158.95 125.47L155.19 123.3C150.188 129.066 146.335 135.736 143.84 142.95L147.58 145.11C146.929 147.078 146.392 149.081 145.97 151.11H141.64C140.16 158.601 140.16 166.309 141.64 173.8H145.97C146.392 175.829 146.93 177.832 147.58 179.8L143.84 181.96C146.331 189.176 150.184 195.847 155.19 201.61L158.95 199.44C160.322 200.975 161.778 202.434 163.31 203.81L161.14 207.56C166.901 212.569 173.572 216.423 180.79 218.91L182.95 215.18C184.919 215.826 186.922 216.364 188.95 216.79V221C196.441 222.48 204.149 222.48 211.64 221V216.67C213.668 216.245 215.671 215.708 217.64 215.06L219.8 218.79C227.02 216.307 233.692 212.453 239.45 207.44L237.28 203.69C238.816 202.314 240.274 200.856 241.65 199.32L245.4 201.49C250.396 195.732 254.239 189.068 256.72 181.86L252.98 179.7C253.625 177.731 254.163 175.728 254.59 173.7L258.91 173.73ZM200.27 192.6C194.293 192.6 188.45 190.828 183.481 187.507C178.511 184.186 174.638 179.467 172.35 173.945C170.063 168.423 169.465 162.346 170.631 156.484C171.797 150.622 174.675 145.238 178.901 141.011C183.128 136.785 188.512 133.907 194.374 132.741C200.236 131.575 206.313 132.173 211.835 134.46C217.357 136.748 222.076 140.621 225.397 145.591C228.718 150.56 230.49 156.403 230.49 162.38C230.49 170.395 227.306 178.081 221.639 183.749C215.971 189.416 208.285 192.6 200.27 192.6Z" fill="#3F3F41"/>
<path d="M221.642 183.755C233.444 171.954 233.444 152.82 221.642 141.018C209.84 129.216 190.706 129.216 178.904 141.018C167.103 152.82 167.103 171.954 178.904 183.755C190.706 195.557 209.84 195.557 221.642 183.755Z" fill="#D6D6D6"/>
<path d="M200.27 177.25C208.482 177.25 215.14 170.592 215.14 162.38C215.14 154.167 208.482 147.51 200.27 147.51C192.057 147.51 185.4 154.167 185.4 162.38C185.4 170.592 192.057 177.25 200.27 177.25Z" fill="#4E4F51"/>
<path d="M77.79 127.28H58.08C57.1411 127.28 56.38 128.041 56.38 128.98C56.38 129.919 57.1411 130.68 58.08 130.68H77.79C78.7289 130.68 79.49 129.919 79.49 128.98C79.49 128.041 78.7289 127.28 77.79 127.28Z" fill="#3A4347"/>
<path d="M77.79 133.23H58.08C57.1411 133.23 56.38 133.991 56.38 134.93C56.38 135.869 57.1411 136.63 58.08 136.63H77.79C78.7289 136.63 79.49 135.869 79.49 134.93C79.49 133.991 78.7289 133.23 77.79 133.23Z" fill="#3A4347"/>
<path d="M77.79 139.19H58.08C57.1411 139.19 56.38 139.951 56.38 140.89C56.38 141.829 57.1411 142.59 58.08 142.59H77.79C78.7289 142.59 79.49 141.829 79.49 140.89C79.49 139.951 78.7289 139.19 77.79 139.19Z" fill="#3A4347"/>
</g>
<defs>
<clipPath id="clip0">
<rect width="274.72" height="222.13" fill="white" transform="translate(0.719971)"/>
</clipPath>
</defs>
</svg>
