<svg width="305" height="305" viewBox="0 0 305 305" fill="none" xmlns="http://www.w3.org/2000/svg">
<g clip-path="url(#clip0)">
<path d="M244.85 0H60C26.8629 0 0 26.8629 0 60V244.85C0 277.987 26.8629 304.85 60 304.85H244.85C277.987 304.85 304.85 277.987 304.85 244.85V60C304.85 26.8629 277.987 0 244.85 0Z" fill="#794F2F"/>
<path d="M241.36 23.4902H63.49C41.3986 23.4902 23.49 41.3988 23.49 63.4902V241.36C23.49 263.452 41.3986 281.36 63.49 281.36H241.36C263.451 281.36 281.36 263.452 281.36 241.36V63.4902C281.36 41.3988 263.451 23.4902 241.36 23.4902Z" fill="#553720"/>
<path d="M237.64 129.32C235.512 127.717 233.273 126.267 230.94 124.98L232.23 123.98C237.95 119.53 241.73 112.98 243.89 108.34C248.54 98.2598 247.1 96.4098 246.41 95.5198C246.027 95.058 245.549 94.6834 245.009 94.4213C244.47 94.1591 243.88 94.0154 243.28 93.9998C240.69 93.7998 225.42 94.4298 215.34 102.27C214.9 102.61 214.49 102.94 214.08 103.27C213.409 100.693 212.557 98.1666 211.53 95.7098C208.12 87.5798 206.48 87.3798 205.17 87.2098H205C203.93 87.1198 201.7 86.9498 195.49 95.9498C192.828 99.7386 190.727 103.891 189.25 108.28C186.87 103.63 185.32 103.43 184.47 103.28H184.29C183.58 103.22 182.29 103.12 179.71 105.8C178.084 104.949 176.396 104.224 174.66 103.63C171.979 102.663 169.228 101.904 166.43 101.36C166.69 101 166.95 100.62 167.21 100.23C171.15 94.3798 172.67 87.2298 173.21 82.2298C174.46 71.4798 172.53 70.2298 171.61 69.5598L170.76 68.9998L169.76 68.9298C167.11 68.7198 152 74.5898 144.87 85.1798C144.6 85.5698 144.35 85.9598 144.11 86.3398C142.762 84.2592 141.272 82.2745 139.65 80.3998C134.56 74.4898 132.87 74.3998 132.06 74.2998H131.53L131.03 74.3998C129.88 74.6198 127.74 75.0398 124.68 85.3998C123.409 89.6183 122.736 93.9942 122.68 98.3998C120.99 96.7598 119.25 95.4598 117.9 95.3498H117.38L116.89 95.4398C115.73 95.6698 113.59 96.0798 110.52 106.44C109.253 110.659 108.58 115.035 108.52 119.44C106.83 117.8 105.08 116.44 103.74 116.44H103.22L102.72 116.54C101.57 116.76 99.43 117.18 96.36 127.54C95.0892 131.758 94.416 136.134 94.36 140.54C92.67 138.9 90.92 137.6 89.58 137.54H89.06L88.56 137.64C87.41 137.86 85.27 138.28 82.2 148.64C80.9282 152.858 80.255 157.234 80.2 161.64C78.51 160.01 76.76 158.7 75.42 158.64H74.9L74.4 158.73C73.25 158.96 71.11 159.38 68.04 169.73C66.62 174.55 65.2 181.73 66.55 188.65C67.13 191.65 68.69 199.65 74.55 202.65L58.75 226C57.9278 227.383 57.6666 229.028 58.0202 230.597C58.3738 232.167 59.3153 233.541 60.6511 234.437C61.9869 235.334 63.6155 235.685 65.2019 235.417C66.7883 235.15 68.2119 234.285 69.18 233L84.9 209.72C85.6214 210.337 86.4218 210.854 87.28 211.26L85.52 212.63C84.186 213.667 83.3185 215.191 83.1085 216.868C82.8984 218.544 83.363 220.236 84.4 221.57C85.437 222.904 86.9615 223.771 88.6381 223.981C90.3146 224.191 92.006 223.727 93.34 222.69L116.34 204.76C119.8 210.63 128.09 211.67 131.34 212.07C131.78 212.13 132.23 212.17 132.67 212.21C139.67 212.75 146.57 210.77 151.16 209.02C161.08 205.24 161.34 203.2 161.49 202.02C161.6 201.17 161.79 199.62 157.86 196.17C162.659 195.795 167.377 194.714 171.86 192.96C181.78 189.17 182.04 187.14 182.19 185.96C182.3 185.11 182.49 183.57 178.56 180.12C183.36 179.747 188.077 178.665 192.56 176.91C202.49 173.12 202.74 171.08 202.9 169.91C203 169.06 203.19 167.51 199.26 164.06C204.06 163.694 208.778 162.616 213.26 160.86C223.19 157.07 223.44 155.03 223.6 153.81C223.7 152.96 223.9 151.42 219.97 147.96C224.771 147.596 229.49 146.514 233.97 144.75C243.9 140.97 244.15 138.93 244.31 137.75C244.47 136.57 244.68 134.62 237.64 129.32ZM168.07 123.53L169.07 122.96C168.9 123.44 168.73 123.96 168.57 124.42C168.38 124.1 168.23 123.81 168.07 123.53Z" fill="white"/>
<path d="M230 121.08C220.26 128.65 215.81 126.42 212.4 122.08C208.99 117.74 207.93 112.84 217.68 105.26C227.43 97.6802 243.2 97.4402 243.53 97.8702C243.86 98.3002 239.69 113.5 230 121.08Z" fill="#DEBA2B"/>
<path d="M230.75 118.16C222.75 124.36 219.12 122.54 216.33 118.95C213.54 115.36 212.67 111.38 220.65 105.18C228.63 98.9799 241.56 98.7699 241.83 99.1199C242.1 99.4699 238.73 112 230.75 118.16Z" fill="#FFDD39"/>
<path d="M211.58 116.94C210.05 129.19 205.32 130.76 199.82 130.07C194.32 129.38 190.13 126.7 191.66 114.45C193.19 102.2 204.18 90.8802 204.71 90.9402C205.24 91.0002 213.11 104.7 211.58 116.94Z" fill="#DEBA2B"/>
<path d="M210.08 114.32C208.82 124.32 204.95 125.63 200.45 125.07C195.95 124.51 192.51 122.31 193.76 112.28C195.01 102.25 204 93 204.45 93C204.9 93 211.33 104.28 210.08 114.32Z" fill="#FFDD39"/>
<path d="M190.88 133C189.35 145.25 184.62 146.82 179.12 146.13C173.62 145.44 169.43 142.76 170.96 130.52C172.49 118.28 183.48 107 184 107C184.52 107 192.41 120.8 190.88 133Z" fill="#DEBA2B"/>
<path d="M189.38 130.42C188.12 140.42 184.25 141.74 179.75 141.17C175.25 140.6 171.81 138.41 173.06 128.38C174.31 118.35 183.32 109.06 183.75 109.12C184.18 109.18 190.63 120.39 189.38 130.42Z" fill="#FFDD39"/>
<path d="M170.17 149.15C168.64 161.39 163.92 162.96 158.42 162.28C152.92 161.6 148.73 158.9 150.26 146.66C151.79 134.42 162.78 123.08 163.31 123.15C163.84 123.22 171.7 136.9 170.17 149.15Z" fill="#DEBA2B"/>
<path d="M168.67 146.52C167.42 156.52 163.55 157.84 159.04 157.28C154.53 156.72 151.1 154.51 152.36 144.48C153.62 134.45 162.62 125.17 163.05 125.22C163.48 125.27 169.93 136.49 168.67 146.52Z" fill="#FFDD39"/>
<path d="M149.47 165.25C147.94 177.49 143.22 179.07 137.72 178.38C132.22 177.69 128 175 129.56 162.76C131.12 150.52 142.08 139.18 142.61 139.25C143.14 139.32 151 153 149.47 165.25Z" fill="#DEBA2B"/>
<path d="M148.42 162.27C147.17 172.27 143.3 173.59 138.79 173.03C134.28 172.47 130.85 170.26 132.1 160.23C133.35 150.2 142.36 140.92 142.8 140.97C143.24 141.02 149.67 152.24 148.42 162.27Z" fill="#FFDD39"/>
<path d="M128.77 181.35C127.24 193.6 122.52 195.17 117.02 194.48C111.52 193.79 107.32 191.11 108.85 178.86C110.38 166.61 121.38 155.28 121.91 155.35C122.44 155.42 130.3 169.11 128.77 181.35Z" fill="#DEBA2B"/>
<path d="M127.27 178.72C126.02 188.72 122.15 190.04 117.64 189.48C113.13 188.92 109.7 186.72 110.95 176.68C112.2 166.64 121.21 157.37 121.65 157.42C122.09 157.47 128.52 168.69 127.27 178.72Z" fill="#FFDD39"/>
<path d="M217.11 124.06C204.86 122.53 202.18 126.72 201.49 132.22C200.8 137.72 202.38 142.44 214.62 143.97C226.86 145.5 240.55 137.64 240.62 137.11C240.69 136.58 229.36 125.59 217.11 124.06Z" fill="#DEBA2B"/>
<path d="M219.29 126.16C209.29 124.9 207.06 128.34 206.49 132.84C205.92 137.34 207.22 141.22 217.25 142.47C227.28 143.72 238.49 137.28 238.55 136.85C238.61 136.42 229.32 127.41 219.29 126.16Z" fill="#FFDD39"/>
<path d="M196.41 140.16C184.16 138.63 181.48 142.82 180.79 148.32C180.1 153.82 181.67 158.54 193.92 160.08C206.17 161.62 219.85 153.74 219.92 153.21C219.99 152.68 208.65 141.69 196.41 140.16Z" fill="#DEBA2B"/>
<path d="M198.59 142.26C188.59 141.01 186.35 144.44 185.79 148.95C185.23 153.46 186.52 157.32 196.55 158.57C206.58 159.82 217.79 153.39 217.85 152.95C217.91 152.51 208.62 143.51 198.59 142.26Z" fill="#FFDD39"/>
<path d="M175.71 156.26C163.46 154.73 160.78 158.92 160.09 164.42C159.4 169.92 160.97 174.65 173.22 176.18C185.47 177.71 199.15 169.84 199.22 169.31C199.29 168.78 188 157.79 175.71 156.26Z" fill="#DEBA2B"/>
<path d="M177.88 158.36C167.88 157.11 165.65 160.54 165.09 165.05C164.53 169.56 165.81 173.42 175.85 174.68C185.89 175.94 197.09 169.49 197.14 169.05C197.19 168.61 187.92 159.61 177.88 158.36Z" fill="#FFDD39"/>
<path d="M155 172.36C142.75 170.83 140.06 175.02 139.38 180.52C138.7 186.02 140.26 190.75 152.51 192.28C164.76 193.81 178.44 185.95 178.51 185.41C178.58 184.87 167.25 173.89 155 172.36Z" fill="#DEBA2B"/>
<path d="M157.63 174.11C147.63 172.86 145.4 176.3 144.84 180.8C144.28 185.3 145.56 189.18 155.59 190.43C165.62 191.68 176.84 185.24 176.89 184.81C176.94 184.38 167.66 175.37 157.63 174.11Z" fill="#FFDD39"/>
<path d="M134.3 188.46C122.06 186.93 119.37 191.13 118.69 196.63C118.01 202.13 119.57 206.85 131.81 208.38C144.05 209.91 157.75 202.05 157.81 201.52C157.87 200.99 146.55 190 134.3 188.46Z" fill="#DEBA2B"/>
<path d="M136.48 190.57C126.48 189.31 124.25 192.75 123.69 197.25C123.13 201.75 124.41 205.63 134.44 206.88C144.47 208.13 155.69 201.69 155.74 201.26C155.79 200.83 146.51 191.82 136.48 190.57Z" fill="#FFDD39"/>
<path d="M214.982 123.376C216.137 122.478 216.345 120.813 215.446 119.658C214.548 118.502 212.883 118.294 211.727 119.193L87.8234 215.58C86.6682 216.479 86.4602 218.144 87.3589 219.299C88.2575 220.454 89.9224 220.662 91.0776 219.764L214.982 123.376Z" fill="#DEBA2B"/>
<path d="M164.13 98.2102C157.45 108.13 152.68 107.42 148.23 104.42C143.78 101.42 141.32 97.2702 148 87.3502C154.68 77.4302 169.14 72.4402 169.57 72.7302C170 73.0202 170.81 88.2902 164.13 98.2102Z" fill="#DEBA2B"/>
<path d="M164 95.28C158.53 103.41 154.62 102.83 151 100.37C147.38 97.91 145.34 94.51 150.81 86.37C156.28 78.23 168.12 74.16 168.48 74.37C168.84 74.58 169.45 87.16 164 95.28Z" fill="#FFDD39"/>
<path d="M146 99.9999C148.29 111.73 144.42 114.6 139.15 115.63C133.88 116.66 129.21 115.45 126.92 103.72C124.63 91.9899 131.32 78.2399 131.83 78.1399C132.34 78.0399 143.68 88.2199 146 99.9999Z" fill="#DEBA2B"/>
<path d="M143.8 97.9998C145.67 107.61 142.5 110 138.18 110.81C133.86 111.62 130.04 110.66 128.18 101.05C126.32 91.4398 131.79 80.1798 132.18 80.0498C132.57 79.9198 141.92 88.3798 143.8 97.9998Z" fill="#FFDD39"/>
<path d="M131.78 121C134.07 132.73 130.2 135.61 124.93 136.64C119.66 137.67 114.99 136.46 112.7 124.73C110.41 113 117.1 99.2399 117.61 99.1399C118.12 99.0399 129.49 109.3 131.78 121Z" fill="#DEBA2B"/>
<path d="M129.61 119.06C131.48 128.68 128.31 131.06 123.99 131.87C119.67 132.68 115.85 131.73 113.99 122.12C112.13 112.51 117.6 101.24 117.99 101.12C118.38 101 127.73 109.45 129.61 119.06Z" fill="#FFDD39"/>
<path d="M117.59 142.1C119.88 153.84 116.01 156.71 110.74 157.74C105.47 158.77 100.8 157.56 98.51 145.83C96.22 134.1 102.91 120.35 103.42 120.25C103.93 120.15 115.3 130.37 117.59 142.1Z" fill="#DEBA2B"/>
<path d="M115.42 140.14C117.29 149.75 114.12 152.14 109.8 152.95C105.48 153.76 101.66 152.8 99.8 143.19C97.94 133.58 103.41 122.31 103.8 122.19C104.19 122.07 113.54 130.53 115.42 140.14Z" fill="#FFDD39"/>
<path d="M103.4 163.18C105.69 174.91 101.82 177.79 96.54 178.81C91.26 179.83 86.6 178.64 84.31 166.9C82.02 155.16 88.72 141.42 89.23 141.32C89.74 141.22 101.11 151.45 103.4 163.18Z" fill="#DEBA2B"/>
<path d="M101.53 160.76C103.41 170.37 100.23 172.76 95.92 173.57C91.61 174.38 87.77 173.42 85.92 163.81C84.07 154.2 89.53 142.93 89.92 142.81C90.31 142.69 99.66 151.14 101.53 160.76Z" fill="#FFDD39"/>
<path d="M89.21 184.25C91.5 195.99 87.62 198.86 82.35 199.89C77.08 200.92 72.41 199.71 70.12 187.98C67.83 176.25 74.53 162.49 75.04 162.39C75.55 162.29 86.92 172.52 89.21 184.25Z" fill="#DEBA2B"/>
<path d="M87 182.29C88.88 191.9 85.71 194.29 81.39 195.1C77.07 195.91 73.25 194.95 71.39 185.34C69.53 175.73 75 164.46 75.39 164.34C75.78 164.22 85.16 172.68 87 182.29Z" fill="#FFDD39"/>
<path d="M153.21 104.83C141.48 107.12 140.27 111.83 141.3 117.06C142.33 122.29 145.2 126.21 156.94 123.92C168.68 121.63 178.94 110.25 178.8 109.74C178.66 109.23 165 102.54 153.21 104.83Z" fill="#DEBA2B"/>
<path d="M155.85 106.11C146.24 107.98 145.25 111.81 146.1 116.11C146.95 120.41 149.29 123.6 158.9 121.72C168.51 119.84 176.9 110.53 176.81 110.11C176.72 109.69 165.46 104.23 155.85 106.11Z" fill="#FFDD39"/>
<path d="M139 125.91C127.27 128.2 126.06 132.91 127.09 138.14C128.12 143.37 130.99 147.28 142.73 144.99C154.47 142.7 164.73 131.33 164.59 130.82C164.45 130.31 150.76 123.62 139 125.91Z" fill="#DEBA2B"/>
<path d="M141.66 127.18C132.05 129.06 131.06 132.88 131.9 137.18C132.74 141.48 135.1 144.67 144.71 142.8C154.32 140.93 162.71 131.6 162.62 131.19C162.53 130.78 151.27 125.31 141.66 127.18Z" fill="#FFDD39"/>
<path d="M124.83 147C113.1 149.29 111.89 154 112.92 159.23C113.95 164.46 116.82 168.38 128.56 166.09C140.3 163.8 150.51 152.42 150.41 151.91C150.31 151.4 136.56 144.69 124.83 147Z" fill="#DEBA2B"/>
<path d="M127.47 148.26C117.86 150.13 116.87 153.96 117.71 158.26C118.55 162.56 120.91 165.75 130.52 163.87C140.13 161.99 148.52 152.68 148.43 152.26C148.34 151.84 137.08 146.38 127.47 148.26Z" fill="#FFDD39"/>
<path d="M110.64 168.05C98.91 170.34 97.7 175.05 98.73 180.29C99.76 185.53 102.63 189.43 114.37 187.14C126.11 184.85 136.32 173.48 136.22 172.97C136.12 172.46 122.37 165.76 110.64 168.05Z" fill="#DEBA2B"/>
<path d="M113.59 168.87C103.97 170.75 102.99 174.58 103.83 178.87C104.67 183.16 107.03 186.36 116.64 184.49C126.25 182.62 134.64 173.3 134.54 172.88C134.44 172.46 123.2 167 113.59 168.87Z" fill="#FFDD39"/>
<path d="M96.45 189.13C84.72 191.42 83.51 196.13 84.54 201.36C85.57 206.59 88.44 210.5 100.17 208.21C111.9 205.92 122.17 194.55 122.03 194.04C121.89 193.53 108.18 186.84 96.45 189.13Z" fill="#DEBA2B"/>
<path d="M99.09 190.41C89.48 192.28 88.49 196.11 89.33 200.41C90.17 204.71 92.53 207.91 102.14 206.03C111.75 204.15 120.14 194.84 120.05 194.42C119.96 194 108.7 188.53 99.09 190.41Z" fill="#FFDD39"/>
<path d="M151.029 104.856C151.822 103.679 151.511 102.082 150.333 101.289C149.156 100.496 147.559 100.808 146.766 101.985L61.8176 228.116C61.0247 229.294 61.3363 230.891 62.5136 231.683C63.6909 232.476 65.288 232.165 66.0808 230.988L151.029 104.856Z" fill="#DEBA2B"/>
</g>
<defs>
<clipPath id="clip0">
<rect width="304.85" height="304.85" fill="white"/>
</clipPath>
</defs>
</svg>
