<svg width="44" height="44" viewBox="0 0 44 44" fill="none" xmlns="http://www.w3.org/2000/svg">
<path d="M44 0H0V44H44V0Z" fill="#505050"/>
<path d="M10.5 14.7159C10.5367 14.353 10.3984 13.9944 10.1274 13.7501L7.36747 10.4254V9.92871H15.9371L22.5609 24.4557L28.3844 9.92871H36.5539V10.4254L34.1941 12.6879C33.9907 12.8429 33.8897 13.0978 33.9319 13.3501V29.974C33.8897 30.2263 33.9907 30.4811 34.1941 30.6362L36.4987 32.8987V33.3954H24.9069V32.8987L27.2942 30.581C27.5288 30.3465 27.5288 30.2775 27.5288 29.9188V16.4817L20.8912 33.3402H19.9942L12.2664 16.4817V27.7805C12.2019 28.2555 12.3597 28.7338 12.6942 29.0773L15.7991 32.8435V33.3402H6.99487V32.8435L10.0998 29.0773C10.4318 28.7332 10.5804 28.2518 10.5 27.7805V14.7159Z" fill="#1E1E1E"/>
</svg>
