<svg width="44" height="44" viewBox="0 0 44 44" fill="none" xmlns="http://www.w3.org/2000/svg">
<path d="M0 0V44H44V0H0ZM36.5578 10.4328L34.2031 12.7016C33.9969 12.8563 33.8937 13.1141 33.9453 13.3719V29.9922C33.9109 30.25 33.9969 30.5078 34.2031 30.6625L36.5062 32.9313V33.4297H24.9219V32.9313L27.3109 30.6109C27.5516 30.3703 27.5516 30.3016 27.5516 29.9406V16.4828L20.8828 33.3438H19.9891L12.2547 16.4828V27.775C12.1859 28.2563 12.3406 28.7203 12.6844 29.0641L15.7953 32.8281V33.3266H6.99531V32.8281L10.1062 29.0641C10.4328 28.7203 10.5875 28.2391 10.5016 27.775V14.7125C10.5359 14.3516 10.3984 13.9906 10.1234 13.75L7.37344 10.4328V9.93437H15.95L22.5672 24.4578L28.3937 9.93437H36.5578V10.4328V10.4328Z" fill="#FDFDFD"/>
</svg>
