<svg width="53" height="43" viewBox="0 0 53 43" fill="none" xmlns="http://www.w3.org/2000/svg">
<path d="M53 5.23596C51.0499 6.09539 48.9543 6.67624 46.7547 6.93748C48.9998 5.60007 50.7239 3.48241 51.5358 0.959215C49.4349 2.19741 47.1078 3.09672 44.631 3.58144C42.6474 1.48131 39.8214 0.168945 36.6941 0.168945C30.6888 0.168945 25.8201 5.00708 25.8201 10.9746C25.8201 11.8215 25.9165 12.6462 26.1018 13.4371C17.0647 12.9865 9.05259 8.68447 3.68959 2.14693C2.75362 3.74288 2.2174 5.59911 2.2174 7.57941C2.2174 11.3283 4.13721 14.6358 7.05484 16.5735C5.27228 16.5174 3.59576 16.0314 2.12958 15.222C2.1288 15.2671 2.1288 15.3124 2.1288 15.3578C2.1288 20.5934 5.87693 24.9609 10.8512 25.9535C9.93874 26.2004 8.97815 26.3324 7.98635 26.3324C7.28573 26.3324 6.6045 26.2648 5.94071 26.1386C7.32431 30.4317 11.34 33.5558 16.0981 33.6431C12.3767 36.5412 7.68819 38.2687 2.59388 38.2687C1.71626 38.2687 0.850668 38.2177 0 38.1179C4.81205 41.1838 10.5277 42.9726 16.6683 42.9726C36.6687 42.9726 47.6056 26.507 47.6056 12.2276C47.6056 11.7591 47.5951 11.293 47.5742 10.8297C49.6985 9.30617 51.5422 7.40293 53 5.23596Z" fill="#505050"/>
</svg>
