<svg xmlns="http://www.w3.org/2000/svg" xmlns:xlink="http://www.w3.org/1999/xlink" viewBox="0 0 512 512"><defs><style>.cls-1{isolation:isolate;}.cls-2{fill:none;}.cls-3{fill:url(#linear-gradient);}.cls-4{fill:url(#linear-gradient-2);}.cls-5{fill:url(#linear-gradient-3);}.cls-6{fill:url(#linear-gradient-4);}.cls-7{fill:url(#linear-gradient-5);}.cls-8{fill:url(#linear-gradient-6);}.cls-9{fill:url(#linear-gradient-7);}.cls-10{fill:#402010;}.cls-11{fill:url(#linear-gradient-8);}.cls-12{fill:url(#linear-gradient-9);}.cls-13{fill:url(#linear-gradient-10);}.cls-14{fill:url(#linear-gradient-11);}.cls-15{fill:url(#linear-gradient-12);}.cls-16{fill:url(#linear-gradient-13);}.cls-17{fill:url(#linear-gradient-14);}.cls-18{fill:url(#linear-gradient-15);}.cls-19{fill:url(#linear-gradient-16);}.cls-20{fill:url(#linear-gradient-17);}.cls-21{fill:url(#linear-gradient-18);}.cls-22{fill:url(#linear-gradient-19);}.cls-23{fill:url(#linear-gradient-20);}.cls-24{fill:url(#linear-gradient-21);}.cls-25{fill:url(#linear-gradient-22);}.cls-26{fill:url(#linear-gradient-23);}.cls-27{fill:url(#linear-gradient-24);}.cls-28{fill:url(#linear-gradient-25);}.cls-29{fill:url(#linear-gradient-26);}.cls-30{fill:url(#linear-gradient-27);}.cls-31{fill:url(#linear-gradient-28);}.cls-32{fill:url(#linear-gradient-29);}.cls-33{fill:url(#linear-gradient-30);}.cls-34{fill:url(#linear-gradient-31);}.cls-35{fill:url(#linear-gradient-32);}.cls-36{fill:url(#linear-gradient-33);}.cls-37{fill:url(#linear-gradient-34);}.cls-38{fill:url(#linear-gradient-35);}.cls-39{fill:url(#linear-gradient-36);}.cls-40{fill:url(#linear-gradient-37);}.cls-41{fill:url(#linear-gradient-38);}.cls-42{fill:url(#linear-gradient-39);}.cls-43{fill:url(#linear-gradient-40);}.cls-44{fill:url(#linear-gradient-41);}.cls-45{fill:url(#linear-gradient-42);}.cls-46{fill:url(#linear-gradient-43);}.cls-47{fill:url(#linear-gradient-44);}.cls-48{fill:url(#linear-gradient-45);}.cls-49{fill:url(#linear-gradient-46);}.cls-50{fill:url(#linear-gradient-47);}.cls-51{fill:url(#linear-gradient-48);}.cls-52{fill:url(#linear-gradient-49);}.cls-53{fill:url(#linear-gradient-50);}.cls-54{fill:url(#linear-gradient-51);}.cls-55{fill:url(#linear-gradient-52);}.cls-56{fill:url(#linear-gradient-53);}.cls-57{fill:url(#linear-gradient-54);}.cls-58{fill:url(#linear-gradient-55);}.cls-59{fill:url(#linear-gradient-56);}.cls-60{fill:url(#linear-gradient-57);}.cls-61{fill:url(#linear-gradient-58);}.cls-62{fill:url(#linear-gradient-59);}.cls-63{fill:url(#linear-gradient-60);}.cls-64{fill:url(#linear-gradient-61);}.cls-65{fill:url(#linear-gradient-62);}.cls-66{fill:url(#linear-gradient-63);}.cls-67{fill:url(#linear-gradient-64);}.cls-68{fill:url(#linear-gradient-65);}.cls-69{fill:url(#linear-gradient-66);}.cls-70{fill:url(#linear-gradient-67);}.cls-71{fill:url(#linear-gradient-68);}.cls-72{fill:url(#linear-gradient-69);}.cls-73{fill:url(#linear-gradient-70);}.cls-74{fill:url(#linear-gradient-71);}.cls-75{fill:url(#linear-gradient-72);}.cls-76{fill:url(#linear-gradient-73);}.cls-77{fill:url(#linear-gradient-74);}.cls-78{fill:url(#linear-gradient-75);}.cls-79{fill:url(#linear-gradient-76);}.cls-80{fill:url(#linear-gradient-77);}.cls-81{fill:url(#linear-gradient-78);}.cls-82{fill:url(#linear-gradient-79);}.cls-83{fill:url(#linear-gradient-80);}.cls-84{fill:url(#linear-gradient-81);}.cls-85{fill:url(#linear-gradient-82);}.cls-86{fill:url(#linear-gradient-83);}.cls-87{fill:url(#linear-gradient-84);}.cls-88{fill:url(#linear-gradient-85);}.cls-89{fill:url(#linear-gradient-86);}.cls-90{fill:url(#linear-gradient-87);}.cls-91{fill:url(#linear-gradient-88);}.cls-92{fill:url(#linear-gradient-89);}.cls-93{fill:url(#linear-gradient-90);}.cls-94{fill:url(#linear-gradient-91);}.cls-95{fill:url(#linear-gradient-92);}.cls-96{fill:url(#linear-gradient-93);}.cls-97{fill:url(#linear-gradient-94);}.cls-98{fill:url(#linear-gradient-95);}.cls-99{fill:url(#linear-gradient-96);}.cls-100{fill:url(#linear-gradient-97);}.cls-101{fill:url(#linear-gradient-98);}.cls-102{fill:url(#linear-gradient-99);}.cls-103{fill:url(#linear-gradient-100);}.cls-104{fill:url(#linear-gradient-101);}.cls-105{fill:url(#linear-gradient-102);}.cls-106{fill:url(#linear-gradient-103);}.cls-107{fill:url(#linear-gradient-104);}.cls-108{fill:url(#linear-gradient-105);}.cls-109{fill:url(#linear-gradient-106);}.cls-110{fill:url(#linear-gradient-107);}.cls-111{fill:url(#linear-gradient-108);}.cls-112{fill:url(#linear-gradient-109);}.cls-113{fill:url(#linear-gradient-110);}.cls-114{fill:url(#linear-gradient-111);}.cls-115{fill:url(#linear-gradient-112);}.cls-116{fill:url(#linear-gradient-113);}.cls-117{fill:url(#linear-gradient-114);}.cls-118{fill:url(#linear-gradient-115);}.cls-119{fill:url(#linear-gradient-116);}.cls-120{fill:url(#linear-gradient-117);}.cls-121{fill:url(#linear-gradient-118);}.cls-122{fill:url(#linear-gradient-119);}.cls-123{fill:url(#linear-gradient-120);}.cls-124{fill:url(#linear-gradient-121);}.cls-125{fill:url(#linear-gradient-122);}.cls-126{fill:url(#linear-gradient-123);}.cls-127{fill:url(#linear-gradient-124);}.cls-128{fill:url(#linear-gradient-125);}.cls-129{fill:url(#linear-gradient-126);}.cls-130{fill:url(#linear-gradient-127);}.cls-131{fill:url(#linear-gradient-128);}.cls-132{fill:url(#linear-gradient-129);}.cls-133{fill:url(#linear-gradient-130);}.cls-134{fill:url(#linear-gradient-131);}.cls-135{fill:url(#linear-gradient-132);}.cls-136{fill:url(#linear-gradient-133);}.cls-137{fill:url(#linear-gradient-134);}.cls-138{fill:url(#linear-gradient-135);}.cls-139{fill:url(#linear-gradient-136);}.cls-140{fill:url(#linear-gradient-137);}.cls-141{fill:url(#linear-gradient-138);}.cls-142{fill:url(#linear-gradient-139);}.cls-143{fill:url(#linear-gradient-140);}.cls-144{fill:url(#linear-gradient-141);}.cls-145{fill:url(#linear-gradient-142);}.cls-146{fill:url(#linear-gradient-143);}.cls-147{fill:url(#linear-gradient-144);}.cls-148{mix-blend-mode:screen;opacity:0.25;}.cls-149{fill:#ce7f42;}.cls-150{fill:url(#linear-gradient-145);}</style><linearGradient id="linear-gradient" x1="250.72" y1="440.84" x2="302.16" y2="348.61" gradientUnits="userSpaceOnUse"><stop offset="0" stop-color="#724329"/><stop offset="1" stop-color="#451e0f"/></linearGradient><linearGradient id="linear-gradient-2" x1="139.48" y1="492.36" x2="157.7" y2="342.97" xlink:href="#linear-gradient"/><linearGradient id="linear-gradient-3" x1="247.86" y1="451.19" x2="307.56" y2="344.15" xlink:href="#linear-gradient"/><linearGradient id="linear-gradient-4" x1="261.03" y1="614.83" x2="292.36" y2="358.07" xlink:href="#linear-gradient"/><linearGradient id="linear-gradient-5" x1="394.03" y1="461.38" x2="395.83" y2="338.58" xlink:href="#linear-gradient"/><linearGradient id="linear-gradient-6" x1="251.02" y1="448.77" x2="305.36" y2="351.35" xlink:href="#linear-gradient"/><linearGradient id="linear-gradient-7" x1="295.98" y1="467.18" x2="297.97" y2="331.99" xlink:href="#linear-gradient"/><linearGradient id="linear-gradient-8" x1="248.89" y1="328.33" x2="259.91" y2="203.07" xlink:href="#linear-gradient"/><linearGradient id="linear-gradient-9" x1="151.77" y1="368.85" x2="164.47" y2="224.33" xlink:href="#linear-gradient"/><linearGradient id="linear-gradient-10" x1="391.14" y1="399.95" x2="406.44" y2="226.01" xlink:href="#linear-gradient"/><linearGradient id="linear-gradient-11" x1="246.61" y1="306.53" x2="259.37" y2="161.35" xlink:href="#linear-gradient"/><linearGradient id="linear-gradient-12" x1="246.07" y1="338.18" x2="260.77" y2="171" xlink:href="#linear-gradient"/><linearGradient id="linear-gradient-13" x1="394.85" y1="349.39" x2="408.67" y2="192.23" xlink:href="#linear-gradient"/><linearGradient id="linear-gradient-14" x1="154.73" y1="361.84" x2="167.38" y2="217.9" xlink:href="#linear-gradient"/><linearGradient id="linear-gradient-15" x1="241.64" y1="318.78" x2="256.83" y2="146.02" xlink:href="#linear-gradient"/><linearGradient id="linear-gradient-16" x1="288.26" y1="364.31" x2="300.73" y2="222.49" xlink:href="#linear-gradient"/><linearGradient id="linear-gradient-17" x1="254.77" y1="368.56" x2="270.02" y2="195" xlink:href="#linear-gradient"/><linearGradient id="linear-gradient-18" x1="103.3" y1="325.55" x2="119.19" y2="144.85" xlink:href="#linear-gradient"/><linearGradient id="linear-gradient-19" x1="327.49" y1="391.39" x2="339.92" y2="249.94" xlink:href="#linear-gradient"/><linearGradient id="linear-gradient-20" x1="28.09" y1="364.9" x2="52.94" y2="82.25" xlink:href="#linear-gradient"/><linearGradient id="linear-gradient-21" x1="234.02" y1="384.27" x2="248.19" y2="223.03" xlink:href="#linear-gradient"/><linearGradient id="linear-gradient-22" x1="371.51" y1="391.45" x2="383.41" y2="256.06" xlink:href="#linear-gradient"/><linearGradient id="linear-gradient-23" x1="67.26" y1="365.39" x2="84.14" y2="173.41" xlink:href="#linear-gradient"/><linearGradient id="linear-gradient-24" x1="249.09" y1="442.5" x2="300.99" y2="349.46" xlink:href="#linear-gradient"/><linearGradient id="linear-gradient-25" x1="292.09" y1="417.15" x2="316.58" y2="138.53" xlink:href="#linear-gradient"/><linearGradient id="linear-gradient-26" x1="246.11" y1="431.48" x2="294.62" y2="344.51" xlink:href="#linear-gradient"/><linearGradient id="linear-gradient-27" x1="290.73" y1="415.92" x2="314.92" y2="140.69" xlink:href="#linear-gradient"/><linearGradient id="linear-gradient-28" x1="251.25" y1="426.43" x2="296.9" y2="344.59" xlink:href="#linear-gradient"/><linearGradient id="linear-gradient-29" x1="285.2" y1="414.16" x2="309.05" y2="142.87" xlink:href="#linear-gradient"/><linearGradient id="linear-gradient-30" x1="246.81" y1="438.67" x2="297.81" y2="347.25" xlink:href="#linear-gradient"/><linearGradient id="linear-gradient-31" x1="291.4" y1="416.81" x2="315.83" y2="138.97" xlink:href="#linear-gradient"/><linearGradient id="linear-gradient-32" x1="250.18" y1="424.55" x2="295.29" y2="343.68" xlink:href="#linear-gradient"/><linearGradient id="linear-gradient-33" x1="287.27" y1="414.14" x2="311.05" y2="143.6" xlink:href="#linear-gradient"/><linearGradient id="linear-gradient-34" x1="247.24" y1="424.04" x2="292.87" y2="342.23" xlink:href="#linear-gradient"/><linearGradient id="linear-gradient-35" x1="290.59" y1="414.61" x2="314.44" y2="143.34" xlink:href="#linear-gradient"/><linearGradient id="linear-gradient-36" x1="248.69" y1="423.75" x2="293.87" y2="342.76" xlink:href="#linear-gradient"/><linearGradient id="linear-gradient-37" x1="289.19" y1="414.31" x2="312.98" y2="143.68" xlink:href="#linear-gradient"/><linearGradient id="linear-gradient-38" x1="136.71" y1="500.15" x2="157.14" y2="332.72" xlink:href="#linear-gradient"/><linearGradient id="linear-gradient-39" x1="152.1" y1="379.89" x2="169.85" y2="178" xlink:href="#linear-gradient"/><linearGradient id="linear-gradient-40" x1="60.51" y1="443.54" x2="74.03" y2="332.72" xlink:href="#linear-gradient"/><linearGradient id="linear-gradient-41" x1="70.16" y1="365.65" x2="81.08" y2="241.43" xlink:href="#linear-gradient"/><linearGradient id="linear-gradient-42" x1="221.19" y1="467.35" x2="235.25" y2="352.13" xlink:href="#linear-gradient"/><linearGradient id="linear-gradient-43" x1="232.45" y1="381.04" x2="243.95" y2="250.17" xlink:href="#linear-gradient"/><linearGradient id="linear-gradient-44" x1="250.93" y1="428.64" x2="297.9" y2="344.44" xlink:href="#linear-gradient"/><linearGradient id="linear-gradient-45" x1="259.58" y1="600.31" x2="289.17" y2="357.83" xlink:href="#linear-gradient"/><linearGradient id="linear-gradient-46" x1="284.09" y1="414.4" x2="308.1" y2="141.3" xlink:href="#linear-gradient"/><linearGradient id="linear-gradient-47" x1="417.58" y1="432.61" x2="418.87" y2="344.53" xlink:href="#linear-gradient"/><linearGradient id="linear-gradient-48" x1="415.33" y1="397.8" x2="426.7" y2="268.42" xlink:href="#linear-gradient"/><linearGradient id="linear-gradient-49" x1="481.34" y1="469.02" x2="483.25" y2="339.06" xlink:href="#linear-gradient"/><linearGradient id="linear-gradient-50" x1="475.77" y1="438.25" x2="496.2" y2="205.87" xlink:href="#linear-gradient"/><linearGradient id="linear-gradient-51" x1="335.2" y1="434.32" x2="336.56" y2="341.82" xlink:href="#linear-gradient"/><linearGradient id="linear-gradient-52" x1="333.54" y1="391.27" x2="345.19" y2="258.84" xlink:href="#linear-gradient"/><linearGradient id="linear-gradient-53" x1="254.12" y1="437.9" x2="302.4" y2="351.35" xlink:href="#linear-gradient"/><linearGradient id="linear-gradient-54" x1="295.94" y1="466.78" x2="297.92" y2="332.1" xlink:href="#linear-gradient"/><linearGradient id="linear-gradient-55" x1="292.56" y1="416.43" x2="316.71" y2="141.69" xlink:href="#linear-gradient"/><linearGradient id="linear-gradient-56" x1="36.36" y1="361.63" x2="60.04" y2="92.18" xlink:href="#linear-gradient"/><linearGradient id="linear-gradient-57" x1="28.31" y1="365.55" x2="53.32" y2="81.15" xlink:href="#linear-gradient"/><linearGradient id="linear-gradient-58" x1="52.88" y1="336.07" x2="72.9" y2="108.32" xlink:href="#linear-gradient"/><linearGradient id="linear-gradient-59" x1="-144.37" y1="2572.82" x2="182.78" y2="-1148.58" xlink:href="#linear-gradient"/><linearGradient id="linear-gradient-60" x1="446.11" y1="450.2" x2="470.75" y2="170" xlink:href="#linear-gradient"/><linearGradient id="linear-gradient-61" x1="225.01" y1="303.29" x2="238.88" y2="145.57" xlink:href="#linear-gradient"/><linearGradient id="linear-gradient-62" x1="239.32" y1="63.32" x2="231.56" y2="350.59" xlink:href="#linear-gradient"/><linearGradient id="linear-gradient-63" x1="243.51" y1="300.55" x2="255.88" y2="159.83" xlink:href="#linear-gradient"/><linearGradient id="linear-gradient-64" x1="255.67" y1="87.96" x2="249.09" y2="331.63" xlink:href="#linear-gradient"/><linearGradient id="linear-gradient-65" x1="306.45" y1="214.07" x2="309.81" y2="175.9" xlink:href="#linear-gradient"/><linearGradient id="linear-gradient-66" x1="308.84" y1="168.78" x2="307.44" y2="220.77" xlink:href="#linear-gradient"/><linearGradient id="linear-gradient-67" x1="104.32" y1="335.68" x2="121.92" y2="135.53" xlink:href="#linear-gradient"/><linearGradient id="linear-gradient-68" x1="118.76" y1="22.17" x2="108.58" y2="398.78" xlink:href="#linear-gradient"/><linearGradient id="linear-gradient-69" x1="248.52" y1="287.62" x2="258.05" y2="179.27" xlink:href="#linear-gradient"/><linearGradient id="linear-gradient-70" x1="257.45" y1="123.13" x2="252.32" y2="313.02" xlink:href="#linear-gradient"/><linearGradient id="linear-gradient-71" x1="391.18" y1="373.78" x2="407.95" y2="182.98" xlink:href="#linear-gradient"/><linearGradient id="linear-gradient-72" x1="408.87" y1="19.88" x2="397.52" y2="439.93" xlink:href="#linear-gradient"/><linearGradient id="linear-gradient-73" x1="251.09" y1="326.89" x2="260.89" y2="215.47" xlink:href="#linear-gradient"/><linearGradient id="linear-gradient-74" x1="259.22" y1="147.22" x2="253.85" y2="345.89" xlink:href="#linear-gradient"/><linearGradient id="linear-gradient-75" x1="30.12" y1="370.64" x2="56.33" y2="72.55" xlink:href="#linear-gradient"/><linearGradient id="linear-gradient-76" x1="46.29" y1="3.81" x2="35.39" y2="407.02" xlink:href="#linear-gradient"/><linearGradient id="linear-gradient-77" x1="247.77" y1="323.25" x2="258.52" y2="200.94" xlink:href="#linear-gradient"/><linearGradient id="linear-gradient-78" x1="258.05" y1="84.44" x2="250.35" y2="369.18" xlink:href="#linear-gradient"/><linearGradient id="linear-gradient-79" x1="451.94" y1="449.13" x2="465.02" y2="300.27" xlink:href="#linear-gradient"/><linearGradient id="linear-gradient-80" x1="470.34" y1="188.19" x2="466.32" y2="337.08" xlink:href="#linear-gradient"/><linearGradient id="linear-gradient-81" x1="454.42" y1="415.49" x2="474.43" y2="187.81" xlink:href="#linear-gradient"/><linearGradient id="linear-gradient-82" x1="473.52" y1="52.44" x2="463.63" y2="418.63" xlink:href="#linear-gradient"/><linearGradient id="linear-gradient-83" x1="156.52" y1="356.78" x2="168.32" y2="222.58" xlink:href="#linear-gradient"/><linearGradient id="linear-gradient-84" x1="164.92" y1="102.92" x2="157.24" y2="387.07" xlink:href="#linear-gradient"/><linearGradient id="linear-gradient-85" x1="391.92" y1="388.93" x2="405.1" y2="238.96" xlink:href="#linear-gradient"/><linearGradient id="linear-gradient-86" x1="406.75" y1="-54.71" x2="393" y2="453.87" xlink:href="#linear-gradient"/><linearGradient id="linear-gradient-87" x1="249.51" y1="422.09" x2="293.85" y2="342.59" xlink:href="#linear-gradient"/><linearGradient id="linear-gradient-88" x1="290.35" y1="414.03" x2="314.02" y2="144.7" xlink:href="#linear-gradient"/><linearGradient id="linear-gradient-89" x1="305.54" y1="23.89" x2="294.81" y2="421.05" xlink:href="#linear-gradient"/><linearGradient id="linear-gradient-90" x1="287.67" y1="372.15" x2="301.96" y2="209.53" xlink:href="#linear-gradient"/><linearGradient id="linear-gradient-91" x1="301.34" y1="4.47" x2="289.91" y2="427.25" xlink:href="#linear-gradient"/><linearGradient id="linear-gradient-92" x1="336.74" y1="378.77" x2="344.87" y2="286.3" xlink:href="#linear-gradient"/><linearGradient id="linear-gradient-93" x1="352.02" y1="-133.56" x2="336.08" y2="456.34" xlink:href="#linear-gradient"/><linearGradient id="linear-gradient-94" x1="233.09" y1="384.29" x2="247.59" y2="219.3" xlink:href="#linear-gradient"/><linearGradient id="linear-gradient-95" x1="242.54" y1="103.2" x2="234.48" y2="401.52" xlink:href="#linear-gradient"/><linearGradient id="linear-gradient-96" x1="70.39" y1="363.24" x2="85.64" y2="189.76" xlink:href="#linear-gradient"/><linearGradient id="linear-gradient-97" x1="80.64" y1="-1.41" x2="69.54" y2="409.37" xlink:href="#linear-gradient"/><linearGradient id="linear-gradient-98" x1="252.08" y1="422.68" x2="295.8" y2="344.31" xlink:href="#linear-gradient"/><linearGradient id="linear-gradient-99" x1="286.46" y1="413.56" x2="310.04" y2="145.25" xlink:href="#linear-gradient"/><linearGradient id="linear-gradient-100" x1="300.7" y1="26.88" x2="290.08" y2="419.98" xlink:href="#linear-gradient"/><linearGradient id="linear-gradient-101" x1="253.02" y1="431.29" x2="299.12" y2="348.66" xlink:href="#linear-gradient"/><linearGradient id="linear-gradient-102" x1="291.87" y1="415.5" x2="315.77" y2="143.58" xlink:href="#linear-gradient"/><linearGradient id="linear-gradient-103" x1="306.42" y1="20.97" x2="295.59" y2="421.65" xlink:href="#linear-gradient"/><linearGradient id="linear-gradient-104" x1="109.13" y1="510.68" x2="131.7" y2="325.67" xlink:href="#linear-gradient"/><linearGradient id="linear-gradient-105" x1="125.82" y1="378.81" x2="145.5" y2="155" xlink:href="#linear-gradient"/><linearGradient id="linear-gradient-106" x1="135.98" y1="42.88" x2="126.17" y2="406.15" xlink:href="#linear-gradient"/><linearGradient id="linear-gradient-107" x1="151.69" y1="588" x2="183.64" y2="326.16" xlink:href="#linear-gradient"/><linearGradient id="linear-gradient-108" x1="176.51" y1="394.89" x2="201.89" y2="106.23" xlink:href="#linear-gradient"/><linearGradient id="linear-gradient-109" x1="189.03" y1="14.45" x2="178.23" y2="413.98" xlink:href="#linear-gradient"/><linearGradient id="linear-gradient-110" x1="374.99" y1="462.78" x2="376.85" y2="336.36" xlink:href="#linear-gradient"/><linearGradient id="linear-gradient-111" x1="373.63" y1="392.77" x2="384.58" y2="268.2" xlink:href="#linear-gradient"/><linearGradient id="linear-gradient-112" x1="384.46" y1="65.56" x2="374.91" y2="418.72" xlink:href="#linear-gradient"/><linearGradient id="linear-gradient-113" x1="382.09" y1="382.01" x2="391.77" y2="271.92" xlink:href="#linear-gradient"/><linearGradient id="linear-gradient-114" x1="397.07" y1="-100.68" x2="381.97" y2="457.8" xlink:href="#linear-gradient"/><linearGradient id="linear-gradient-115" x1="153.84" y1="362.54" x2="165.01" y2="235.52" xlink:href="#linear-gradient"/><linearGradient id="linear-gradient-116" x1="163.37" y1="57.58" x2="154.01" y2="403.74" xlink:href="#linear-gradient"/><linearGradient id="linear-gradient-117" x1="246.75" y1="434.06" x2="296" y2="345.77" xlink:href="#linear-gradient"/><linearGradient id="linear-gradient-118" x1="291.03" y1="416.29" x2="315.31" y2="140.07" xlink:href="#linear-gradient"/><linearGradient id="linear-gradient-119" x1="306.12" y1="22.52" x2="295.34" y2="421.38" xlink:href="#linear-gradient"/><linearGradient id="linear-gradient-120" x1="249.43" y1="423.93" x2="294.49" y2="343.16" xlink:href="#linear-gradient"/><linearGradient id="linear-gradient-121" x1="288.35" y1="414.22" x2="312.13" y2="143.7" xlink:href="#linear-gradient"/><linearGradient id="linear-gradient-122" x1="303.15" y1="27.51" x2="292.54" y2="419.94" xlink:href="#linear-gradient"/><linearGradient id="linear-gradient-123" x1="463.24" y1="453.54" x2="464.89" y2="341.5" xlink:href="#linear-gradient"/><linearGradient id="linear-gradient-124" x1="459.95" y1="413.06" x2="474.3" y2="249.91" xlink:href="#linear-gradient"/><linearGradient id="linear-gradient-125" x1="471.2" y1="116.68" x2="463.18" y2="413.41" xlink:href="#linear-gradient"/><linearGradient id="linear-gradient-126" x1="200.73" y1="111.51" x2="251.14" y2="51.82" gradientUnits="userSpaceOnUse"><stop offset="0.38" stop-color="#266922"/><stop offset="0.49" stop-color="#2b6f26"/><stop offset="0.65" stop-color="#3a8030"/><stop offset="0.83" stop-color="#529c41"/><stop offset="0.86" stop-color="#58a345"/></linearGradient><linearGradient id="linear-gradient-127" x1="189.5" y1="115.08" x2="217.18" y2="84.36" xlink:href="#linear-gradient-126"/><linearGradient id="linear-gradient-128" x1="182.31" y1="61.04" x2="123.82" y2="119.89" xlink:href="#linear-gradient-126"/><linearGradient id="linear-gradient-129" x1="339.12" y1="125.12" x2="316.48" y2="70.18" xlink:href="#linear-gradient-126"/><linearGradient id="linear-gradient-130" x1="294.34" y1="269.42" x2="131.92" y2="61.22" gradientUnits="userSpaceOnUse"><stop offset="0.32" stop-color="#266922"/><stop offset="0.62" stop-color="#58a345"/><stop offset="0.76" stop-color="#32762d"/></linearGradient><linearGradient id="linear-gradient-131" x1="181.9" y1="74.51" x2="149.16" y2="93.11" xlink:href="#linear-gradient-126"/><linearGradient id="linear-gradient-132" x1="289.73" y1="176.24" x2="333.19" y2="89.09" xlink:href="#linear-gradient-126"/><linearGradient id="linear-gradient-133" x1="283.88" y1="171.95" x2="295.17" y2="188" gradientUnits="userSpaceOnUse"><stop offset="0" stop-color="#ea8801"/><stop offset="0.85" stop-color="#bc6600"/><stop offset="0.98" stop-color="#995000"/></linearGradient><linearGradient id="linear-gradient-134" x1="399.73" y1="140.48" x2="392.22" y2="196.01" xlink:href="#linear-gradient-133"/><linearGradient id="linear-gradient-135" x1="343.14" y1="239.61" x2="347.27" y2="335.83" xlink:href="#linear-gradient-133"/><linearGradient id="linear-gradient-136" x1="30.29" y1="250.36" x2="164.1" y2="326.49" xlink:href="#linear-gradient-133"/><linearGradient id="linear-gradient-137" x1="109.69" y1="171.28" x2="224.67" y2="261.89" xlink:href="#linear-gradient-133"/><linearGradient id="linear-gradient-138" x1="160.4" y1="165.42" x2="221.3" y2="216.17" xlink:href="#linear-gradient-133"/><linearGradient id="linear-gradient-139" x1="-58.67" y1="254.22" x2="144.08" y2="361.54" xlink:href="#linear-gradient-133"/><linearGradient id="linear-gradient-140" x1="281.39" y1="190.52" x2="313.85" y2="211.57" xlink:href="#linear-gradient-133"/><linearGradient id="linear-gradient-141" x1="104.74" y1="383.36" x2="255.16" y2="126.82" gradientUnits="userSpaceOnUse"><stop offset="0.19" stop-color="#ffe507"/><stop offset="0.94" stop-color="#ff9300"/></linearGradient><linearGradient id="linear-gradient-142" x1="293.36" y1="204.91" x2="292.95" y2="200.64" gradientUnits="userSpaceOnUse"><stop offset="0.38" stop-color="#ffe507"/><stop offset="0.94" stop-color="#ff9300"/></linearGradient><linearGradient id="linear-gradient-143" x1="435.25" y1="450.6" x2="331.9" y2="136.84" gradientUnits="userSpaceOnUse"><stop offset="0.11" stop-color="#ffe507"/><stop offset="0.25" stop-color="#ffe007"/><stop offset="0.41" stop-color="#ffd205"/><stop offset="0.58" stop-color="#ffbb03"/><stop offset="0.76" stop-color="#ff9a01"/><stop offset="0.8" stop-color="#ff9300"/></linearGradient><linearGradient id="linear-gradient-144" x1="208.56" y1="193.59" x2="233.55" y2="193.59" xlink:href="#linear-gradient-133"/><linearGradient id="linear-gradient-145" x1="317.6" y1="105.48" x2="213.52" y2="209.56" gradientUnits="userSpaceOnUse"><stop offset="0" stop-color="#ea8801"/><stop offset="0.91" stop-color="#bc6600"/><stop offset="1" stop-color="#9e5000"/></linearGradient></defs><g class="cls-1"><g id="Text"><polygon class="cls-2" points="71.63 190.78 71.61 190.77 71.44 190.84 71.63 190.78"/><polygon class="cls-3" points="297.25 358.95 297.2 352.54 297.19 350.6 297.15 345.07 297.12 341.18 297.09 337.64 297.08 335.42 296.38 337.59 295.3 341.01 294.09 344.79 292.35 350.27 291.74 352.18 288.98 360.86 288.9 360.86 288.91 360.92 291.85 389.41 297.05 373.25 297.24 358.95 297.25 358.95"/><path class="cls-4" d="M181.56,360.86a18.34,18.34,0,0,0-1.75-1.76c-.53-.47-1.17-1-1.9-1.53-3.08-2.22-7.89-4.49-13.52-3-9.83,2.68-14.27,7.14-14.27,7.14l-17.28-.11-7.43-.05-109.7-.73L19.44,368l10.9,21.42,128.44-1.11s5.69-6.7,8.77-6.92,7.14.67,8.39,2l1.26,1.34,3.47,4.91,111.18-.23-3.14-28.55Z"/><polygon class="cls-5" points="288.9 360.86 288.71 360.86 291.85 389.41 288.91 360.92 288.9 360.86"/><polygon class="cls-6" points="288.9 360.86 288.71 360.86 291.85 389.41 288.91 360.92 288.9 360.86"/><path class="cls-7" d="M493.89,353.41a2.81,2.81,0,0,1-.1.31c-1.35,3.57-6.17,6.7-6.17,6.7l-10.48,0-19.69.1-67.87.32-14.75.06-77.07.37,0,9.8-.68,2.13-.2,14.95,101.25.67,62.1.22s5.88-1.79,15.52,0S488,383.5,488,383.5Z"/><polygon class="cls-8" points="297.76 361.31 297.27 361.31 297.25 358.95 297.24 358.95 297.05 373.25 297.73 371.11 297.76 361.31"/><polygon class="cls-9" points="297.76 361.31 297.27 361.31 297.25 358.95 297.24 358.95 297.05 373.25 297.73 371.11 297.76 361.31"/><path class="cls-10" d="M40.06,270.72A13.33,13.33,0,0,1,37,265.18c0-.2-.06-.4-.07-.6L37.58,280l10.71-1.73A51.8,51.8,0,0,1,40.06,270.72Z"/><path class="cls-10" d="M36.9,264.31v0Z"/><polygon class="cls-10" points="71.61 190.77 58.51 188.1 58.52 188.09 58.51 188.09 59.49 195.13 71.44 190.84 71.61 190.77"/><path class="cls-10" d="M457.73,267.11a97.92,97.92,0,0,1,9.46,5.63l1.14-10.09-.89.38Z"/><polygon class="cls-10" points="468.33 262.63 468.33 262.63 468.33 262.63 468.33 262.63"/><path class="cls-11" d="M103.83,263.67c14.32.22,44.6,3.83,49.82,4.45,103,.84,212,3.07,317.49,7.72a34.41,34.41,0,0,0-3.95-3.1l-.1.9-10.38-6.32L467.35,263c-42.3.79-23.62,9.6-124.43.37C198.24,250.13,277,249.45,38.25,258.19a43.47,43.47,0,0,0-1.34,5.8v.34s.22.33.53.8C64,262.65,86.63,263.33,103.83,263.67Z"/><path class="cls-12" d="M88.25,347.6c10.84,1.86,25.38,8.56,40.26,12.87l22.17-.07s9.93-6.92,17.84-6.7a22.6,22.6,0,0,1,10.88,3.5c26.1-6.35,65.57-7.32,102-7.32,2.91,0,6.52.13,10.7.38l1.8-5.49c-13-1.2-25.89-2.51-37.52-3.68-48.29-4.88-43.25-5.55-71.17,1.79-76.61,20.14-59.62-2.63-83.82-5.6-9.68-1.18-49.64,1.6-85.23,4.49l-3,10.16.24.84C41.4,349.26,76.55,345.6,88.25,347.6Z"/><path class="cls-13" d="M345.93,333.68,333.48,336a137.67,137.67,0,0,1-35.66,1.74v3.55c28.48,2.62,56.37,4.66,70.14,3.66,19.48-1.39,68,7.29,104,14.51,4.11.06,14.27.16,15.73,0,1.83-.22,6.37-6.76,6.37-6.76l-.16.78a8.73,8.73,0,0,0,.32-2.64C449.68,340.09,384.56,328,345.93,333.68Z"/><path class="cls-14" d="M197.8,212.84c22.5-3.09,159.8,4.52,257.5,2.39-2.4-8.71-4.74-17.18-6.61-23.95-42.37,10.64-85.76,16.52-123.71,8.08L308.15,195h0c-11.39-3.31-28.94-6.29-51.39-7.32-60.68-1.61-112,16.46-199.89,11.27-.52,1.57-1.21,3.66-2,6.12C105.36,209.82,177.11,215.68,197.8,212.84Z"/><path class="cls-15" d="M343.8,255.65c106.8,10.22,71.34,2.53,123.19,2.09l-2.44-8.88c-62.62-2.46-129.36-7.65-122.82-18.6,4.25-7.12,65.62-4.52,117.43-1-.91-3.34-1.85-6.76-2.79-10.17-98.07,2.31-234.83-5.61-257.91-2.44-21.51,3-94.15-3-144.84-7.8-.66,2-1.36,4.19-2.1,6.48,52.89,1.1,112.7,4.63,127.68,14.67C200.57,244.35,115,243.8,43.34,241.08c-1.35,4.37-2.6,8.47-3.63,12,59.2-4.74,119.83-7.22,173.9-9.64C242.11,243.33,299.58,251.18,343.8,255.65Z"/><path class="cls-16" d="M345.79,231.89c6,6.39,58.69,10.57,117.65,12.94l-3.16-11.5C411,229.92,353,227.06,345.79,231.89Z"/><path class="cls-17" d="M102,333.45c20,2.45,14,14.86,39.75,13.74,26.19-1.13,55.26-13.76,71.72-13.76,9,0,45.5,4.19,81.7,7.57l1.12-3.42c-34.43-2.62-70.84-14-118.34-13.22-40.42.48-105.65,2.84-158.06,4.94l-2.51,8.47C52.79,334.91,92.06,332.23,102,333.45Z"/><path class="cls-18" d="M134.87,195.51c5.76-.43,11.55-1.2,17.32-1.79,93.15-10.83,110.2-14.2,173.6,2.73,37.34,8.2,80.06,2.29,122-8.38-1.15-4.14-2.06-7.4-2.61-9.35-3.66-12.94-19.48-17.85-19.48-17.85l-178.39-.45-49.95.89-107.81.45-8.1-.89H76.83c-2.7,0-9.45,4.46-9.45,4.46L62.84,177c11.44.75,22.72,1.21,33.71,1.28,64.52-3,116.49-18.1,177.39-8.6,31,4.78,54.78,11.53,77.5,10.28s39.37-11.19,41-11.83c2-1,4.29-2.24,7.24-3.93H413c-31.38,18.3-40.94,21.08-61.06,23-25.62,1.43-49.22-5.12-79.52-9.64-51.8-7.87-96.17,2.53-155.38,8.08-16,1.83-36,1.46-57.44-.33l-1.1,2.81L71.8,190.7l-.19.07h0l-.2.07-11.87,4.79-.07-.51-1.56.56-.18.55C103.72,198.71,134.73,195.51,134.87,195.51Z"/><path class="cls-19" d="M222.65,306.82c5.47,9.32,131.21,13.21,140.85,8.44-8.16-5.69-46.27-7.8-56.63-8.18C296.12,305.94,218,298.81,222.65,306.82Z"/><path class="cls-20" d="M212.15,321.37c31.32,2.93,57.33,10.58,85.42,12.37l.26-.8v.81a162.4,162.4,0,0,0,39-2c3.51-.35,14.61-4,42.79-2.61,33.89,1.6,78.33,10.38,114.42,19.41a34.69,34.69,0,0,0-1.22-5.51s-14.2-49.31-18.63-62c-380-5.65-310-4-346-8-2.86,0-39.73-5-86.86-2.37,2.1,2.79,4.41,5.52,5.66,5.82a3.54,3.54,0,0,1,2.65,2l-12,1.67V280l-3.17.51L21,325.56C84.91,321.66,183.59,318.54,212.15,321.37Zm8.68-16.63c6-7.85,77.86-.48,86.25.41,2.55.1,49.31,1.86,58.11,8.85a1.51,1.51,0,0,1,.66,1.75c-.37,1-1.61,2.08-11.75,2.82C329.84,320.33,210.47,318.22,220.83,304.74Z"/><path class="cls-21" d="M177.83,234.18c-7-10.2-71-13.77-127.59-14.88-1.84,5.73-3.81,11.9-5.65,17.79C103.43,239.31,172.28,240.49,177.83,234.18Z"/><path class="cls-22" d="M297.76,359l44.89.44,20.76.13c-25.25-3.1-48.89-5.71-65.63-6.94Z"/><path class="cls-23" d="M36.92,264.58v-.1A.34.34,0,0,0,36.92,264.58Z"/><path class="cls-24" d="M181.58,358.68c.65.5,1,.82,1,.82H288.67l.15.91,2.71-8.24c-3.92-.23-7.32-.35-10.08-.35C245.84,351.82,207.39,352.74,181.58,358.68Z"/><path class="cls-25" d="M368.3,348.77c-14,1-42-1-70.5-3.64l0,5.51c20.34,1.49,50.85,5,82.06,9l34,.21,38.28-.3C419.85,353.43,383.88,347.64,368.3,348.77Z"/><path class="cls-26" d="M121.93,360.49c-12.79-4.18-24.86-9.4-34.09-11-11.26-1.94-46.06,1.69-73.88,5.17l1.74,6.18h0l0,0Z"/><path class="cls-27" d="M297.78,352.58l-.58,0,.05,6.41h.51Z"/><path class="cls-28" d="M297.78,352.58l-.58,0,.05,6.41h.51Z"/><path class="cls-29" d="M297.82,337.69l-.73-.05,0,3.54.69.06Z"/><path class="cls-30" d="M297.82,337.69l-.73-.05,0,3.54.69.06Z"/><path class="cls-31" d="M288.82,360.41l.08.45H289l2.76-8.68h-.21Z"/><path class="cls-32" d="M288.82,360.41l.08.45H289l2.76-8.68h-.21Z"/><path class="cls-33" d="M297.8,345.13l-.65-.06,0,5.53.59,0Z"/><path class="cls-34" d="M297.8,345.13l-.65-.06,0,5.53.59,0Z"/><path class="cls-35" d="M292.15,350.26h.2l1.74-5.48-.14,0Z"/><path class="cls-36" d="M292.15,350.26h.2l1.74-5.48-.14,0Z"/><path class="cls-37" d="M297.83,332.94l-.26.8h.26Z"/><path class="cls-38" d="M297.83,332.94l-.26.8h.26Z"/><path class="cls-39" d="M295.19,341h.11l1.08-3.42h-.07Z"/><path class="cls-40" d="M295.19,341h.11l1.08-3.42h-.07Z"/><path class="cls-41" d="M168.52,353.7c-7.91-.22-17.84,6.7-17.84,6.7l-22.17.07c1.44.41,2.88.8,4.33,1.17l17.28.11s4.44-4.46,14.27-7.14c5.63-1.53,10.44.74,13.52,3l1.49-.37A22.6,22.6,0,0,0,168.52,353.7Z"/><path class="cls-42" d="M168.52,353.7c-7.91-.22-17.84,6.7-17.84,6.7l-22.17.07c1.44.41,2.88.8,4.33,1.17l17.28.11s4.44-4.46,14.27-7.14c5.63-1.53,10.44.74,13.52,3l1.49-.37A22.6,22.6,0,0,0,168.52,353.7Z"/><path class="cls-43" d="M121.93,360.49l-106.24.34,0,0,109.7.73C124.25,361.23,123.09,360.87,121.93,360.49Z"/><path class="cls-44" d="M121.93,360.49l-106.24.34,0,0,109.7.73C124.25,361.23,123.09,360.87,121.93,360.49Z"/><path class="cls-45" d="M288.82,360.41l-.15-.91H182.6s-.37-.32-1-.82l-1.77.42a18.34,18.34,0,0,1,1.75,1.76H288.71v-.06Z"/><path class="cls-46" d="M288.82,360.41l-.15-.91H182.6s-.37-.32-1-.82l-1.77.42a18.34,18.34,0,0,1,1.75,1.76H288.71v-.06Z"/><polygon class="cls-47" points="288.7 360.8 288.71 360.86 288.9 360.86 288.82 360.41 288.7 360.8"/><polygon class="cls-48" points="288.7 360.8 288.71 360.86 288.9 360.86 288.82 360.41 288.7 360.8"/><polygon class="cls-49" points="288.7 360.8 288.71 360.86 288.9 360.86 288.82 360.41 288.7 360.8"/><path class="cls-50" d="M413.82,359.84l-34-.21,9.74,1.25,67.87-.32-5.35-1Z"/><path class="cls-51" d="M413.82,359.84l-34-.21,9.74,1.25,67.87-.32-5.35-1Z"/><path class="cls-52" d="M487.68,359.39c-1.46.18-11.62.08-15.73,0l5.19,1,10.48,0s4.82-3.13,6.17-6.7a2.81,2.81,0,0,0,.1-.31l.16-.78S489.51,359.17,487.68,359.39Z"/><path class="cls-53" d="M487.68,359.39c-1.46.18-11.62.08-15.73,0l5.19,1,10.48,0s4.82-3.13,6.17-6.7a2.81,2.81,0,0,0,.1-.31l.16-.78S489.51,359.17,487.68,359.39Z"/><path class="cls-54" d="M342.65,359.39,297.76,359v2.36l77.07-.37-11.42-1.42Z"/><path class="cls-55" d="M342.65,359.39,297.76,359v2.36l77.07-.37-11.42-1.42Z"/><polygon class="cls-56" points="297.25 358.95 297.27 361.31 297.76 361.31 297.76 358.95 297.25 358.95"/><polygon class="cls-57" points="297.25 358.95 297.27 361.31 297.76 361.31 297.76 358.95 297.25 358.95"/><polygon class="cls-58" points="297.25 358.95 297.27 361.31 297.76 361.31 297.76 358.95 297.25 358.95"/><path class="cls-10" d="M49.62,278.48a3.54,3.54,0,0,0-2.65-2c-1.25-.3-3.56-3-5.66-5.82l-1.25.07a51.8,51.8,0,0,0,8.23,7.55L37.58,280v.15Z"/><path class="cls-59" d="M49.62,278.48a3.54,3.54,0,0,0-2.65-2c-1.25-.3-3.56-3-5.66-5.82l-1.25.07a51.8,51.8,0,0,0,8.23,7.55L37.58,280v.15Z"/><path class="cls-10" d="M37.44,265.13c-.31-.47-.5-.77-.53-.8v.25c0,.2,0,.4.07.6Z"/><path class="cls-60" d="M37.44,265.13c-.31-.47-.5-.77-.53-.8v.25c0,.2,0,.4.07.6Z"/><polygon class="cls-10" points="71.44 190.84 59.49 195.13 59.56 195.64 71.44 190.84"/><polygon class="cls-61" points="71.44 190.84 59.49 195.13 59.56 195.64 71.44 190.84"/><polygon class="cls-10" points="71.61 190.77 71.8 190.7 58.52 188.09 58.51 188.1 71.61 190.77"/><polygon class="cls-62" points="71.61 190.77 71.8 190.7 58.52 188.09 58.51 188.1 71.61 190.77"/><path class="cls-10" d="M467.44,263h-.09l-10.64,4.29,10.38,6.32.1-.9a97.92,97.92,0,0,0-9.46-5.63Z"/><path class="cls-63" d="M467.44,263h-.09l-10.64,4.29,10.38,6.32.1-.9a97.92,97.92,0,0,0-9.46-5.63Z"/><path class="cls-64" d="M117.05,185.61c59.21-5.55,103.58-16,155.38-8.08,30.3,4.52,53.9,11.07,79.52,9.64,20.12-1.89,29.68-4.67,61.06-23h-13.3c-2.95,1.69-5.25,2.94-7.24,3.93-1.66.64-18.26,10.44-41,11.83s-46.5-5.5-77.5-10.28c-60.9-9.5-112.87,5.59-177.39,8.6-11-.07-22.27-.53-33.71-1.28l-3.23,8.28C81.05,187.07,101,187.44,117.05,185.61Z"/><path class="cls-65" d="M117.05,185.61c59.21-5.55,103.58-16,155.38-8.08,30.3,4.52,53.9,11.07,79.52,9.64,20.12-1.89,29.68-4.67,61.06-23h-13.3c-2.95,1.69-5.25,2.94-7.24,3.93-1.66.64-18.26,10.44-41,11.83s-46.5-5.5-77.5-10.28c-60.9-9.5-112.87,5.59-177.39,8.6-11-.07-22.27-.53-33.71-1.28l-3.23,8.28C81.05,187.07,101,187.44,117.05,185.61Z"/><path class="cls-2" d="M308.12,195h0"/><path class="cls-66" d="M256.76,187.67c22.45,1,40,4,51.39,7.32L325,199.36c37.95,8.44,81.34,2.56,123.71-8.08-.31-1.12-.61-2.19-.89-3.21-41.95,10.67-84.67,16.58-122,8.38-63.4-16.93-80.45-13.56-173.6-2.73-5.77.59-11.56,1.36-17.32,1.79-.14,0-31.15,3.2-77.12.73-.18.54-.48,1.46-.88,2.7C144.79,204.13,196.08,186.06,256.76,187.67Z"/><path class="cls-67" d="M256.76,187.67c22.45,1,40,4,51.39,7.32L325,199.36c37.95,8.44,81.34,2.56,123.71-8.08-.31-1.12-.61-2.19-.89-3.21-41.95,10.67-84.67,16.58-122,8.38-63.4-16.93-80.45-13.56-173.6-2.73-5.77.59-11.56,1.36-17.32,1.79-.14,0-31.15,3.2-77.12.73-.18.54-.48,1.46-.88,2.7C144.79,204.13,196.08,186.06,256.76,187.67Z"/><path class="cls-68" d="M308.15,195Z"/><path class="cls-69" d="M308.15,195Z"/><path class="cls-70" d="M179.2,230c-15-10-74.79-13.57-127.68-14.67-.42,1.29-.84,2.61-1.28,4,56.63,1.11,120.58,4.68,127.59,14.88-5.55,6.31-74.4,5.13-133.24,2.91l-1.25,4C115,243.8,200.57,244.35,179.2,230Z"/><path class="cls-71" d="M179.2,230c-15-10-74.79-13.57-127.68-14.67-.42,1.29-.84,2.61-1.28,4,56.63,1.11,120.58,4.68,127.59,14.88-5.55,6.31-74.4,5.13-133.24,2.91l-1.25,4C115,243.8,200.57,244.35,179.2,230Z"/><path class="cls-72" d="M198.46,216.67c23.08-3.17,159.84,4.75,257.91,2.44-.36-1.29-.72-2.59-1.07-3.88-97.7,2.13-235-5.48-257.5-2.39-20.69,2.84-92.44-3-142.94-7.78l-1.24,3.81C104.31,213.67,177,219.62,198.46,216.67Z"/><path class="cls-73" d="M198.46,216.67c23.08-3.17,159.84,4.75,257.91,2.44-.36-1.29-.72-2.59-1.07-3.88-97.7,2.13-235-5.48-257.5-2.39-20.69,2.84-92.44-3-142.94-7.78l-1.24,3.81C104.31,213.67,177,219.62,198.46,216.67Z"/><path class="cls-74" d="M341.73,230.26c-6.54,11,60.2,16.14,122.82,18.6-.35-1.28-.72-2.63-1.11-4-59-2.37-111.66-6.55-117.65-12.94,7.18-4.83,65.24-2,114.49,1.44-.37-1.34-.74-2.69-1.12-4.05C407.35,225.74,346,223.14,341.73,230.26Z"/><path class="cls-75" d="M341.73,230.26c-6.54,11,60.2,16.14,122.82,18.6-.35-1.28-.72-2.63-1.11-4-59-2.37-111.66-6.55-117.65-12.94,7.18-4.83,65.24-2,114.49,1.44-.37-1.34-.74-2.69-1.12-4.05C407.35,225.74,346,223.14,341.73,230.26Z"/><path class="cls-76" d="M103.83,263.67c-17.2-.34-39.86-1-66.39,1.46.77,1.16,2.25,3.35,3.87,5.52,47.13-2.63,84,2.34,86.86,2.37,36,4-34,2.31,346,8a26,26,0,0,0-1-2.71,9.92,9.92,0,0,0-2-2.43c-105.49-4.65-214.49-6.88-317.49-7.72C148.43,267.5,118.15,263.89,103.83,263.67Z"/><path class="cls-77" d="M103.83,263.67c-17.2-.34-39.86-1-66.39,1.46.77,1.16,2.25,3.35,3.87,5.52,47.13-2.63,84,2.34,86.86,2.37,36,4-34,2.31,346,8a26,26,0,0,0-1-2.71,9.92,9.92,0,0,0-2-2.43c-105.49-4.65-214.49-6.88-317.49-7.72C148.43,267.5,118.15,263.89,103.83,263.67Z"/><path class="cls-10" d="M37,265.18a13.33,13.33,0,0,0,3.07,5.54l1.25-.07c-1.62-2.17-3.1-4.36-3.87-5.52Z"/><path class="cls-78" d="M37,265.18a13.33,13.33,0,0,0,3.07,5.54l1.25-.07c-1.62-2.17-3.1-4.36-3.87-5.52Z"/><path class="cls-79" d="M37,265.18a13.33,13.33,0,0,0,3.07,5.54l1.25-.07c-1.62-2.17-3.1-4.36-3.87-5.52Z"/><path class="cls-80" d="M342.92,263.4c100.81,9.23,82.13.42,124.43-.37l1-.4c0-.12-.52-1.9-1.34-4.89-51.85.44-16.39,8.13-123.19-2.09-44.22-4.47-101.69-12.32-130.19-12.23-54.07,2.42-114.7,4.9-173.9,9.64-.55,1.9-1.05,3.62-1.46,5.13C277,249.45,198.24,250.13,342.92,263.4Z"/><path class="cls-81" d="M342.92,263.4c100.81,9.23,82.13.42,124.43-.37l1-.4c0-.12-.52-1.9-1.34-4.89-51.85.44-16.39,8.13-123.19-2.09-44.22-4.47-101.69-12.32-130.19-12.23-54.07,2.42-114.7,4.9-173.9,9.64-.55,1.9-1.05,3.62-1.46,5.13C277,249.45,198.24,250.13,342.92,263.4Z"/><polygon class="cls-82" points="468.33 262.65 468.33 262.63 468.33 262.65 468.33 262.65"/><polygon class="cls-83" points="468.33 262.65 468.33 262.63 468.33 262.65 468.33 262.65"/><path class="cls-10" d="M467.44,263l.89-.38v0h0l-1,.4Z"/><path class="cls-84" d="M467.44,263l.89-.38v0h0l-1,.4Z"/><path class="cls-85" d="M467.44,263l.89-.38v0h0l-1,.4Z"/><path class="cls-86" d="M296.31,337.58l1.26-3.84c-28.09-1.79-54.1-9.44-85.42-12.37-28.56-2.83-127.24.29-191.12,4.19l-1.12,3.74c52.41-2.1,117.64-4.46,158.06-4.94C225.47,323.54,261.88,335,296.31,337.58Z"/><path class="cls-87" d="M296.31,337.58l1.26-3.84c-28.09-1.79-54.1-9.44-85.42-12.37-28.56-2.83-127.24.29-191.12,4.19l-1.12,3.74c52.41-2.1,117.64-4.46,158.06-4.94C225.47,323.54,261.88,335,296.31,337.58Z"/><path class="cls-88" d="M336.84,331.72a162.4,162.4,0,0,1-39,2v3.94A137.67,137.67,0,0,0,333.48,336l12.45-2.27c38.63-5.72,103.75,6.41,148.28,17.09a19.06,19.06,0,0,0-.16-2.25c-36.09-9-80.53-17.81-114.42-19.41C351.45,327.71,340.35,331.37,336.84,331.72Z"/><path class="cls-89" d="M336.84,331.72a162.4,162.4,0,0,1-39,2v3.94A137.67,137.67,0,0,0,333.48,336l12.45-2.27c38.63-5.72,103.75,6.41,148.28,17.09a19.06,19.06,0,0,0-.16-2.25c-36.09-9-80.53-17.81-114.42-19.41C351.45,327.71,340.35,331.37,336.84,331.72Z"/><path class="cls-90" d="M297.83,333.75h-.26l-1.26,3.84h.07l.7-2.17v2.22l.73.05Z"/><path class="cls-91" d="M297.83,333.75h-.26l-1.26,3.84h.07l.7-2.17v2.22l.73.05Z"/><path class="cls-92" d="M297.83,333.75h-.26l-1.26,3.84h.07l.7-2.17v2.22l.73.05Z"/><path class="cls-93" d="M354.1,318.57c10.14-.74,11.38-1.84,11.75-2.82a1.51,1.51,0,0,0-.66-1.75c-8.8-7-55.56-8.75-58.11-8.85-8.39-.89-80.22-8.26-86.25-.41C210.47,318.22,329.84,320.33,354.1,318.57Zm-47.23-11.49c10.36.38,48.47,2.49,56.63,8.18-9.64,4.77-135.38.88-140.85-8.44C218,298.81,296.12,305.94,306.87,307.08Z"/><path class="cls-94" d="M354.1,318.57c10.14-.74,11.38-1.84,11.75-2.82a1.51,1.51,0,0,0-.66-1.75c-8.8-7-55.56-8.75-58.11-8.85-8.39-.89-80.22-8.26-86.25-.41C210.47,318.22,329.84,320.33,354.1,318.57Zm-47.23-11.49c10.36.38,48.47,2.49,56.63,8.18-9.64,4.77-135.38.88-140.85-8.44C218,298.81,296.12,305.94,306.87,307.08Z"/><path class="cls-95" d="M297.78,352.58c16.74,1.23,40.38,3.84,65.63,6.94l16.43.11c-31.21-4-61.72-7.5-82.06-9Z"/><path class="cls-96" d="M297.78,352.58c16.74,1.23,40.38,3.84,65.63,6.94l16.43.11c-31.21-4-61.72-7.5-82.06-9Z"/><path class="cls-97" d="M281.45,351.82c2.76,0,6.16.12,10.08.35l.62-1.91c-4.18-.25-7.79-.38-10.7-.38-36.48,0-75.95,1-102,7.32.9.55,1.64,1.07,2.18,1.48C207.39,352.74,245.84,351.82,281.45,351.82Z"/><path class="cls-98" d="M281.45,351.82c2.76,0,6.16.12,10.08.35l.62-1.91c-4.18-.25-7.79-.38-10.7-.38-36.48,0-75.95,1-102,7.32.9.55,1.64,1.07,2.18,1.48C207.39,352.74,245.84,351.82,281.45,351.82Z"/><path class="cls-99" d="M87.84,349.51c9.23,1.58,21.3,6.8,34.09,11l6.58,0c-14.88-4.31-29.42-11-40.26-12.87-11.7-2-46.85,1.66-74.82,5.17l.53,1.91C41.78,351.2,76.58,347.57,87.84,349.51Z"/><path class="cls-100" d="M87.84,349.51c9.23,1.58,21.3,6.8,34.09,11l6.58,0c-14.88-4.31-29.42-11-40.26-12.87-11.7-2-46.85,1.66-74.82,5.17l.53,1.91C41.78,351.2,76.58,347.57,87.84,349.51Z"/><path class="cls-101" d="M291.53,352.17h.21l.61-1.91h-.2Z"/><path class="cls-102" d="M291.53,352.17h.21l.61-1.91h-.2Z"/><path class="cls-103" d="M291.53,352.17h.21l.61-1.91h-.2Z"/><path class="cls-104" d="M297.78,350.64l-.59,0v1.94l.58,0Z"/><path class="cls-105" d="M297.78,350.64l-.59,0v1.94l.58,0Z"/><path class="cls-106" d="M297.78,350.64l-.59,0v1.94l.58,0Z"/><path class="cls-107" d="M121.93,360.49c1.16.38,2.32.74,3.48,1.1l7.43.05c-1.45-.37-2.89-.76-4.33-1.17Z"/><path class="cls-108" d="M121.93,360.49c1.16.38,2.32.74,3.48,1.1l7.43.05c-1.45-.37-2.89-.76-4.33-1.17Z"/><path class="cls-109" d="M121.93,360.49c1.16.38,2.32.74,3.48,1.1l7.43.05c-1.45-.37-2.89-.76-4.33-1.17Z"/><path class="cls-110" d="M179.4,357.2l-1.49.37c.73.53,1.37,1.06,1.9,1.53l1.77-.42C181,358.27,180.3,357.75,179.4,357.2Z"/><path class="cls-111" d="M179.4,357.2l-1.49.37c.73.53,1.37,1.06,1.9,1.53l1.77-.42C181,358.27,180.3,357.75,179.4,357.2Z"/><path class="cls-112" d="M179.4,357.2l-1.49.37c.73.53,1.37,1.06,1.9,1.53l1.77-.42C181,358.27,180.3,357.75,179.4,357.2Z"/><path class="cls-113" d="M363.41,359.52l11.42,1.42,14.75-.06-9.74-1.25Z"/><path class="cls-114" d="M363.41,359.52l11.42,1.42,14.75-.06-9.74-1.25Z"/><path class="cls-115" d="M363.41,359.52l11.42,1.42,14.75-.06-9.74-1.25Z"/><path class="cls-116" d="M368.3,348.77c15.58-1.13,51.55,4.66,83.8,10.77l18.13-.15,1.72,0c-36-7.22-84.52-15.9-104-14.51-13.77,1-41.66-1-70.14-3.66v3.89C326.31,347.74,354.33,349.77,368.3,348.77Z"/><path class="cls-117" d="M368.3,348.77c15.58-1.13,51.55,4.66,83.8,10.77l18.13-.15,1.72,0c-36-7.22-84.52-15.9-104-14.51-13.77,1-41.66-1-70.14-3.66v3.89C326.31,347.74,354.33,349.77,368.3,348.77Z"/><path class="cls-118" d="M101.44,337.28c24.2,3,7.21,25.74,83.82,5.6,27.92-7.34,22.88-6.67,71.17-1.79,11.63,1.17,24.56,2.48,37.52,3.68l1.24-3.77c-36.2-3.38-72.68-7.57-81.7-7.57-16.46,0-45.53,12.63-71.72,13.76C116,348.31,122,335.9,102,333.45c-10-1.22-49.23,1.46-84.62,4.32l-1.19,4C51.8,338.88,91.76,336.1,101.44,337.28Z"/><path class="cls-119" d="M101.44,337.28c24.2,3,7.21,25.74,83.82,5.6,27.92-7.34,22.88-6.67,71.17-1.79,11.63,1.17,24.56,2.48,37.52,3.68l1.24-3.77c-36.2-3.38-72.68-7.57-81.7-7.57-16.46,0-45.53,12.63-71.72,13.76C116,348.31,122,335.9,102,333.45c-10-1.22-49.23,1.46-84.62,4.32l-1.19,4C51.8,338.88,91.76,336.1,101.44,337.28Z"/><path class="cls-120" d="M297.81,341.24l-.69-.06,0,3.89.65.06Z"/><path class="cls-121" d="M297.81,341.24l-.69-.06,0,3.89.65.06Z"/><path class="cls-122" d="M297.81,341.24l-.69-.06,0,3.89.65.06Z"/><path class="cls-123" d="M294,344.77l.14,0L295.3,341h-.11Z"/><path class="cls-124" d="M294,344.77l.14,0L295.3,341h-.11Z"/><path class="cls-125" d="M294,344.77l.14,0L295.3,341h-.11Z"/><path class="cls-126" d="M470.23,359.39l-18.13.15,5.35,1,19.69-.1-5.19-1Z"/><path class="cls-127" d="M470.23,359.39l-18.13.15,5.35,1,19.69-.1-5.19-1Z"/><path class="cls-128" d="M470.23,359.39l-18.13.15,5.35,1,19.69-.1-5.19-1Z"/><path class="cls-129" d="M206.27,92.33A7.35,7.35,0,0,1,202.91,87c-.35-3.6,1.5-6.15,8.12-9s17.28-8.7,16.23-20.64c0,0,7.43,6.84,9.51,16.81s2,23.78-7.77,25.64-20.18-5.22-20.18-5.22Z"/><path class="cls-130" d="M198.5,97.64A10.48,10.48,0,0,1,204,92.25c4.24-1.86,13.6-5.49,17.64-10s6.11-6.67,6.61-11c0,0-.3,9.9-4.73,14.21s-10.25,5.1-13.11,8.34-4.24,7.15-6,9.9a27,27,0,0,1-3.16,4.11Z"/><path class="cls-131" d="M164.62,82.34s2.86,6.17,2.86,9S170.17,95,155,105.32s-11.26,14.22-11.26,14.22-6.09-8.31-6.18-17,2.15-19,6.44-22.54a15,15,0,0,1,11.72-3.48,57.53,57.53,0,0,1,7.69,2.41Z"/><path class="cls-132" d="M296.06,124.69s-6.54-6.83-7.66-11.4S286,96,294.54,90s8.26-7,29.14-8.48,37.29-3.69,41.2-5.36c0,0-12.62,5.69-18.2,19.09s-3.68,18.53-10.27,25.34-11.61,9.6-19.32,10-16.29-2.47-16.29-2.47Z"/><path class="cls-133" d="M98.63,161.75s11.29-20.35,20.75-25.94c10-5.9,12.8-8,22-8.37s28.38,0,35.27-3.19,13.12-14.85,13.78-22.06-4.27-13.29-7.22-15.42-14.6-18.37-14.93-19.85,12,11.15,17.72,13.78l5.74,2.62s13.78,7.55,10,23-8,19.35-3.77,23.62,18.37,16.23,26.41,24.93,14.43,15.58,23.78,17.71,21.16,6.07,30.67-3.77,2.3-27.89,2.3-27.89h0C278,132,270.94,125.15,270,115.8a46.47,46.47,0,0,1,2.13-18.13s-.33,17.47,9.84,32.56,19.85,28.05,11.32,45.11S274.71,194.86,256,194.86s-23.79-3.28-43.31-18.37-29.85-23-41-19.85-12.5,5-12.5,5Z"/><path class="cls-134" d="M177.71,80.48c-.41.14-13.24-2-19.31,4.73s-10.76,16.69-10.76,16.69.69-11.17,8-18.76,16.66-10,17.65-9.66C178.88,75.46,177.71,80.48,177.71,80.48Z"/><path class="cls-135" d="M286.36,136.86a73.07,73.07,0,0,0,9.7-12.17c4.34-6.94,17.95-25,21.86-27.94s9.12-7,21-11.15,23.89-8.83,23.46-8.68S335.73,86,324.73,98.78s-23.32,29.07-25.64,34.57-5.83,15.36-5.83,15.36a20,20,0,0,1-6.35-5.94C284.3,138.86,286.36,136.86,286.36,136.86Z"/><polygon class="cls-136" points="279.96 202.49 276.54 195.15 324.72 193.88 323.68 209.1 322.83 209.12 311.38 210.99 305.61 202.07 279.96 202.49"/><polygon class="cls-137" points="413.48 189.69 372.24 192.8 372.86 208.49 399.31 208.18 413.48 189.69"/><polygon class="cls-138" points="325.62 341.14 315.29 325.39 378.38 325.69 371.3 341.45 325.62 341.14"/><path class="cls-139" d="M72.29,331.61l8.61,17.84a23.57,23.57,0,0,0,6.77,3.07c3.08.62,36.3.16,36.3.16l11.07-.46s6.31.46,9.23-4.62,39.84-67.36,39.84-67.36l-10.66-18.77-40,66.22s-3.2,5.61-7.81,6.38S72.29,331.61,72.29,331.61Z"/><path class="cls-140" d="M183.76,281s36.1,0,40.41-1.31,14.46-6.15,16.15-7.69a60.37,60.37,0,0,0,5.15-6.46L258.24,237s-12.15,14.57-20.07,18.11-8.42,3.69-13,4.15-51.64,2.21-51.64,2.21Z"/><path class="cls-141" d="M190.64,223.72l18.57-30.92,24.69.92a5.28,5.28,0,0,1,2.42,6.75c-1.61,4.85-5.25,13.33-11,18.17-6.43,5.46-9.17,6.75-12.86,6.75s-11.82.17-11.82.17Z"/><path class="cls-142" d="M70.88,330.1l10.22,21s3.38,2.46,13.38,2.31,35.06.62,40.29-.61,2.77-.77,2.77-.77l-6.61-20.31a20,20,0,0,1-5.54,2.93c-2.46.61-23.84-.62-23.84-.62Z"/><line class="cls-143" x1="306.03" y1="201.91" x2="316.26" y2="217.72"/><path class="cls-144" d="M132.31,330.15s-2.77,5.53-15.38,5.84-42.14-3.46-42.14-3.46-9.84.38.92-15S188,158.2,188,158.2s0-4.62,20.3-3.69,45.83,4,45.83,4,17.48,5.32,21.3,18.84c4.31,15.23-7.45,36.84-7.45,36.84l-9.54,22.76s-9,15.11-20.92,19.69c-20,7.69-64,4.92-64,4.92Z"/><line class="cls-145" x1="280.04" y1="202.03" x2="306.11" y2="201.8"/><polygon class="cls-146" points="324.56 194.03 276.58 195.26 277.81 170.04 282.42 168.04 410.69 148.81 416.23 154.04 413.46 189.73 372.24 192.8 378.39 325.69 373.47 329.38 319.95 329.69 315.34 325.38 324.56 194.03"/><line class="cls-147" x1="208.56" y1="193.31" x2="233.55" y2="193.88"/><g class="cls-148"><path class="cls-149" d="M243.72,253.15a48.21,48.21,0,0,0,8.29-7.58c-41.27-1-83.41-1.31-125.26-.42l-4.54,6.42C162.84,251.19,203.76,251.83,243.72,253.15Z"/><path class="cls-149" d="M375.48,258.32q-27.66-.3-55.22-.54l-.62,9c20.41.16,39.11.29,56.24.41Z"/><path class="cls-149" d="M198.19,204.57c0,.11-.06.22-.1.33,29.38.37,50.55,1.68,72.71,3.52.26-.61.53-1.26.8-1.94C246.44,205,223,204.15,198.19,204.57Z"/><path class="cls-149" d="M264.68,222.3l1.7-4.07c-37.63.15-79.37,0-120.46-.28L143.07,222C186.84,222.29,229.2,222.44,264.68,222.3Z"/><path class="cls-149" d="M262.36,227.83c-43.1,1.46-86.48,3.11-126.75,4.73q-2.13,3-4.29,6.08c48.12-.95,90.38-1.8,127.58-2.55Z"/><path class="cls-149" d="M274.93,196.38c-35.39-1-74.32-1.4-112.82-1.4-1,1.35-1.91,2.72-2.9,4.11,39.34,0,79,.4,114.58,1.31C274.19,199.11,274.58,197.77,274.93,196.38Z"/><path class="cls-149" d="M374.45,236.14c-18-1-35.57-1.92-52.46-2.79l-.68,9.64c13.7,1,30.58,2.08,53.61,3.34Z"/><path class="cls-149" d="M374.1,228.5q-27.14.08-51.77-.09l-.19,2.72c16.69-.06,34-.26,52.05-.65Z"/><path class="cls-149" d="M95.59,289.35l-1.38,2c19.2.26,39.86.15,61.82-.52l1.25-2.07C135.37,289.43,114.75,289.58,95.59,289.35Z"/><path class="cls-149" d="M376.7,284.78c-19.59-.39-39.06-.74-58.27-1l-.14,2.11c19.28.3,38.83.66,58.51,1Z"/><path class="cls-149" d="M254.31,158.31s-25.52-3.08-45.83-4l-.84,0-9.55.1c-9.91.75-9.91,3.62-9.91,3.62l-4.36,6.2c28.2-.14,54.39-.85,79.1-1.93A43.56,43.56,0,0,0,254.31,158.31Z"/><path class="cls-149" d="M416.27,155.88c-10.11-.94-21-2-33-3.12h0l-36.58,5.48c26.52,2.23,49.15,4.25,68.93,5.91Z"/><path class="cls-149" d="M275.62,177.15c-.15-.53-.32-1-.5-1.55-.27-.69-.57-1.37-.9-2-30.67,1.25-63.36,2.08-98.57,2.19l-1.39,2-8,11.4c34.78,1,72.76,2.11,109.63,3C276.75,187.11,276.94,181.83,275.62,177.15Z"/><path class="cls-149" d="M372.43,192.61l41.22-3.08,1.22-15.79c-19.1-2.32-45.83-5.16-78.19-7.54L318,165.44q-8.25-.28-16.49-.42h0l-18.85,2.83-4.62,2-1.23,25.22,48-1.23-.43,6.19c15.47.21,31.68.47,48.48.73Z"/><path class="cls-149" d="M80,311.49l63.8-.34,2.51-4.17c-22,.21-43.45.44-63.59.65C81.73,309,80.83,310.33,80,311.49Z"/><path class="cls-149" d="M377.18,295.05c-16.9-.71-38.06-1.51-59.4-2.06l-.14,2.06c21.31.61,42.59,1.43,59.64,2.15Z"/><path class="cls-149" d="M315.53,325.18l2.85,2.67c6.9.54,13.87,1,20.83,1.53h0l34.42-.2,2.41-1.8c-20.79-.84-40.49-2.34-60.41-4.07Z"/><path class="cls-149" d="M377.82,308.85c-20.87-.42-41.7-1-61-1.76l-.15,2.21c16,.62,33,1.11,50,1.48q-25,.18-50.11.28l-.21,2.93q30.81-.23,61.72-.62Z"/><path class="cls-149" d="M75,332.34s6.23.79,14.19,1.61l17.52,1.53,17.17-.48a18.77,18.77,0,0,0,5.61-2.19,8.29,8.29,0,0,0,3-2.86l6.77-11.27c-20.87.33-43.1.73-65,1.11C66.22,332.67,75,332.34,75,332.34Z"/></g><path class="cls-150" d="M190.1,223.69l18.46-30.38,25,.57s7.38,1.7-.85,15.05S218.78,226.25,206,226,190.1,223.69,190.1,223.69Z"/></g></g></svg>