<svg width="280" height="280" viewBox="0 0 280 280" fill="none" xmlns="http://www.w3.org/2000/svg">
<path d="M238.989 89.1022L238.745 88.6139C238.501 87.8816 237.524 86.1728 236.548 83.9758C233.862 77.8729 232.642 75.4317 231.909 74.2111C230.445 71.0376 228.248 67.8642 225.807 64.9348L225.562 64.4465C224.586 63.4701 223.365 62.2495 222.145 61.0289L221.901 60.7848C220.68 59.5642 219.46 58.5878 217.995 57.6113L217.751 57.3672C216.53 56.3907 215.066 55.6584 213.357 54.6819L212.624 54.1937C211.16 53.4614 209.695 52.729 208.23 51.9967L207.498 51.5084C205.789 50.7761 204.324 50.2879 202.86 49.7996H202.616C195.048 47.3585 186.748 45.8938 177.96 45.8938C162.825 45.8938 146.713 49.5555 131.578 56.6349C126.696 58.8319 106.19 72.5023 106.19 72.5023C105.946 72.7465 105.702 72.9906 105.214 73.2347C104.726 73.4788 103.749 74.4553 103.749 74.4553C102.528 75.4317 101.552 76.6523 100.331 77.6288C99.8432 78.117 99.355 78.3611 99.1109 78.8493C98.3785 79.5817 97.8903 80.0699 97.1579 80.8022C96.9138 81.0464 95.9374 82.0228 95.9374 82.0228C94.9609 83.2434 93.9844 84.464 93.008 85.4404C92.5198 85.9287 92.2756 86.4169 92.0315 86.9051C91.5433 87.6375 90.811 88.3698 90.3227 89.1022C89.8345 89.5904 89.5904 90.3227 89.1021 90.811L88.858 91.0551C88.1257 92.0315 87.3933 93.008 86.9051 93.9845C86.661 94.4727 86.1728 94.9609 85.6845 95.6933C85.1963 96.4256 84.9522 96.9138 84.7081 97.6462C84.2198 98.6226 83.4875 99.8432 82.9993 100.82C82.7552 101.308 82.511 102.04 82.2669 102.528C81.7787 103.261 81.5346 104.237 81.2905 104.97V105.214C81.0463 105.702 81.0463 105.946 80.8022 106.434C80.314 107.655 79.8258 109.12 79.3375 110.34L79.0934 111.317C79.0934 111.317 78.8493 112.537 78.6052 112.781C78.117 114.978 77.6287 117.175 77.3846 119.372C69.5729 122.79 62.4936 127.184 56.6348 132.066L55.9025 132.555C54.926 133.287 53.9496 134.263 52.9731 135.24L52.4849 135.728C51.5084 136.705 50.7761 137.681 49.7996 138.658C49.3114 139.146 48.3349 140.366 48.3349 140.366L47.8467 141.587C47.1144 142.319 46.6261 143.052 46.1379 144.028H45.8938C44.9173 145.249 44.185 146.713 43.4526 147.934L43.2085 148.178C42.7203 149.154 41.9879 150.375 41.7438 151.351C41.4997 152.084 41.0115 152.816 40.7674 153.549L39.7909 155.746C39.5468 156.722 39.0586 157.698 38.8144 158.675L38.5703 159.407C38.0821 160.872 37.838 162.337 37.5939 164.045C37.5939 164.534 37.3497 165.266 37.3497 165.754C37.3497 166.487 37.1056 167.219 37.1056 167.707C37.1056 168.684 37.1056 169.416 37.1056 170.392C37.1056 170.637 37.1056 171.125 37.1056 171.369C36.8615 173.81 37.1056 177.716 37.3497 186.26V187.725C37.5939 198.466 41.7438 208.719 49.5555 217.751L71.2817 234.107C78.3611 237.524 86.1728 240.209 94.4727 242.162H94.9609C95.9374 242.406 97.1579 242.651 98.1344 242.895L99.8432 243.139C100.576 243.383 101.552 243.383 102.284 243.627C103.505 243.871 104.97 243.871 106.434 244.115L107.899 244.359C108.875 244.359 110.096 244.603 111.073 244.603H112.537C113.758 244.603 114.978 244.603 116.199 244.848H116.687C116.687 244.848 118.884 244.848 119.861 244.848C120.593 244.848 121.569 244.848 122.302 244.848C122.79 244.848 123.522 244.848 124.255 244.848C130.602 244.603 157.698 238.501 157.698 238.501C158.187 238.256 158.919 238.012 159.407 237.768L160.628 237.28C181.378 229.224 196.025 216.042 201.883 199.93V199.686C202.86 197.001 203.592 194.316 203.836 191.63C203.836 190.898 204.08 190.166 204.08 189.433C204.08 188.945 204.08 188.213 204.324 187.725C204.324 186.504 204.569 185.283 204.324 184.307V184.063V183.819V183.575V183.331C204.324 182.842 204.324 182.11 204.324 181.134C204.324 177.228 204.324 174.054 204.08 171.857C206.033 169.904 207.742 167.707 209.451 165.266C214.333 161.604 218.483 157.698 222.389 153.549L236.059 134.263C236.059 134.019 236.304 133.775 236.304 133.531C236.792 132.555 237.28 131.578 237.768 130.358C238.012 130.113 238.256 129.137 238.256 129.137C238.501 128.161 238.989 127.428 239.233 126.696C239.233 126.452 239.477 126.208 239.477 125.964L240.942 121.814V121.569C244.359 109.852 243.383 98.8668 238.989 89.1022Z" fill="white"/>
<path d="M192.119 167.463C192.119 167.463 186.26 183.819 175.763 192.851C163.069 204.08 138.902 213.845 122.302 212.869C60.0525 208.474 49.3114 170.881 49.3114 170.881C49.0673 172.834 49.5555 184.551 49.7996 186.504C50.532 212.38 82.9993 232.642 122.302 231.665C161.604 230.689 193.095 208.963 192.363 183.087C192.363 181.378 192.363 169.172 192.119 167.463Z" fill="#ED8203"/>
<path d="M58.8319 186.26C57.1231 184.551 55.6584 182.598 54.4378 180.401C54.4378 185.284 53.9496 190.41 54.1937 195.292C54.1937 197.489 54.1937 199.442 54.4378 201.639C55.9025 204.325 57.6113 206.766 59.5643 208.963C59.5643 207.742 59.5643 206.522 59.5643 205.301C58.8319 199.198 58.5878 192.607 58.8319 186.26Z" fill="#C66802"/>
<path d="M106.922 210.671C106.922 217.507 106.922 224.098 106.922 230.689C109.364 230.933 111.805 231.177 114.246 231.421C113.758 224.83 112.537 218.239 112.781 211.648C110.584 211.404 108.631 211.16 106.922 210.671Z" fill="#C66802"/>
<path d="M74.2112 198.954C74.4553 204.324 74.4553 209.695 74.4553 215.065C74.4553 217.018 74.4553 218.727 74.2112 220.68C76.1641 221.657 77.8729 222.633 79.8258 223.609C79.5817 216.286 79.0935 208.963 79.0935 201.639C77.3847 200.907 75.92 199.93 74.2112 198.954Z" fill="#C66802"/>
<path d="M64.2024 191.386C63.9583 197.489 64.9348 203.592 65.1789 209.939C65.1789 211.404 65.1789 212.869 65.1789 214.333C66.3995 215.31 67.62 216.286 68.8406 217.263C69.0847 209.939 69.573 202.616 69.3288 195.536C67.1318 194.072 65.6671 192.851 64.2024 191.386Z" fill="#C66802"/>
<path d="M84.4639 204.324C84.708 211.404 84.9521 218.727 85.1962 225.806C86.6609 226.295 88.3697 227.027 89.8344 227.515C89.1021 220.436 89.1021 213.356 89.5903 206.521C87.8815 205.545 86.1727 204.812 84.4639 204.324Z" fill="#C66802"/>
<path d="M94.7167 207.986C94.2285 214.821 94.2285 221.901 95.2049 228.736C97.1578 229.224 99.3549 229.712 101.308 229.956C101.308 223.121 101.552 216.286 101.308 209.695C99.1108 209.207 96.9137 208.474 94.7167 207.986Z" fill="#C66802"/>
<path d="M122.058 212.868L117.664 212.38C117.908 218.727 118.396 225.318 119.128 231.665C120.105 231.665 121.081 231.665 122.302 231.665C123.522 231.665 124.987 231.421 126.208 231.421C126.208 225.074 126.452 218.971 125.719 212.624C124.499 212.624 123.278 212.868 122.058 212.868Z" fill="#C66802"/>
<path d="M159.895 203.348C157.942 204.325 155.745 205.301 153.792 206.278C154.037 212.869 154.281 219.216 154.769 225.807C156.966 225.074 158.919 224.098 160.872 223.366C160.872 222.389 160.872 221.169 160.872 220.192C160.384 214.333 160.139 208.719 159.895 203.348Z" fill="#C66802"/>
<path d="M170.393 197.001C168.684 198.222 166.975 199.442 165.022 200.419C165.266 206.766 165.754 213.357 165.998 219.704V220.436C167.951 219.46 169.66 218.483 171.369 217.263C171.369 215.31 171.369 213.113 171.369 211.16C171.125 206.521 170.637 201.639 170.393 197.001Z" fill="#C66802"/>
<path d="M180.889 187.236C179.181 189.189 177.472 191.142 175.519 192.851C175.519 198.222 176.251 203.348 176.251 208.718C176.251 210.427 176.251 211.892 176.251 213.601C178.204 212.136 179.913 210.427 181.622 208.718C181.622 204.568 181.622 200.174 181.378 196.024C181.134 193.095 180.889 190.166 180.889 187.236Z" fill="#C66802"/>
<path d="M186.748 178.204C185.772 185.039 185.772 191.875 186.504 198.71C186.504 199.686 186.504 200.907 186.504 201.883C188.213 199.198 189.433 196.513 190.41 193.583C189.922 186.504 189.433 179.425 189.433 172.345C188.945 174.054 187.969 176.251 186.748 178.204Z" fill="#C66802"/>
<path d="M142.319 210.183C142.563 216.53 143.296 222.633 143.784 228.98C145.737 228.492 147.69 228.004 149.643 227.515C149.398 221.168 148.91 214.577 148.666 208.23C146.469 208.718 144.272 209.451 142.319 210.183Z" fill="#C66802"/>
<path d="M130.846 212.38C131.334 218.483 131.09 224.83 131.09 230.933C133.531 230.689 135.972 230.201 138.413 229.957C137.925 223.854 137.437 217.507 136.949 211.404C134.996 211.892 133.043 212.136 130.846 212.38Z" fill="#C66802"/>
<path opacity="0.25" d="M122.058 212.869C88.8581 210.427 70.3054 198.71 60.2966 188.213C61.2731 196.025 61.7613 204.08 62.0054 211.892C74.9435 224.342 97.158 232.154 122.058 231.665C122.302 225.318 122.546 218.971 122.546 212.869C122.302 212.624 122.302 212.869 122.058 212.869Z" fill="#FFEE52"/>
<path opacity="0.28" d="M73.2348 198.466C73.2348 205.545 72.9907 212.624 72.5024 219.704C82.5112 225.318 93.4963 229.224 104.97 230.689C105.214 224.098 105.214 217.263 105.214 210.672C93.7405 208.475 82.9994 204.325 73.2348 198.466Z" fill="#FFEE52"/>
<path opacity="0.35" d="M78.8492 201.639C79.3375 208.719 79.3375 216.042 79.3375 223.122C81.5345 224.098 83.7315 225.074 86.1727 225.807C85.9286 218.727 85.6845 211.648 85.4404 204.569C83.2433 203.836 81.0463 202.86 78.8492 201.639Z" fill="#FFEE52"/>
<path opacity="0.35" d="M73.2348 198.466C73.2348 205.545 72.9907 212.624 72.5024 219.704C72.9907 219.948 73.723 220.192 74.2112 220.68C74.4554 213.357 74.2112 206.033 73.2348 198.466Z" fill="#FFEE52"/>
<path opacity="0.35" d="M91.0549 206.766C91.299 213.845 91.5432 220.68 91.7873 227.76C92.7637 228.004 93.7402 228.248 94.9608 228.492C94.4726 221.657 94.2284 214.577 94.2284 207.742C93.0079 207.498 91.7873 207.01 91.0549 206.766Z" fill="#FFEE52"/>
<path opacity="0.35" d="M103.261 210.183C103.505 217.019 103.749 223.854 103.993 230.445L104.97 230.689C105.214 224.098 105.214 217.263 105.214 210.672L103.261 210.183Z" fill="#FFEE52"/>
<path opacity="0.32" d="M175.519 192.851C166.487 200.175 155.99 205.789 145.005 209.207C145.249 215.554 145.493 221.901 145.737 228.248C162.093 224.098 175.519 216.042 183.575 206.277C183.331 198.71 183.331 191.386 183.086 184.063C181.134 187.481 178.448 190.166 175.519 192.851Z" fill="#7A4103"/>
<path opacity="0.32" d="M175.519 192.851C169.904 197.733 163.313 201.639 156.478 204.813C156.478 211.404 156.722 217.995 156.722 224.586C163.313 221.901 169.66 218.483 175.275 214.089C175.275 206.521 175.763 198.954 176.739 191.63C176.495 192.119 176.007 192.607 175.519 192.851Z" fill="#7A4103"/>
<path opacity="0.32" d="M192.119 167.463C192.119 167.463 186.26 183.819 175.763 192.851C168.928 198.466 161.116 203.104 152.816 206.522C153.06 213.113 153.549 219.46 154.037 226.051C177.228 217.751 193.095 201.639 192.607 183.087C192.363 181.378 192.363 169.172 192.119 167.463Z" fill="#7A4103"/>
<path d="M119.616 122.302C80.3139 123.278 48.823 145.005 49.5554 170.881C50.2877 196.757 82.5109 216.774 121.813 215.798C161.116 214.821 192.607 193.095 191.874 167.219C191.142 141.343 158.919 121.325 119.616 122.302Z" fill="#FCD517"/>
<path d="M134.508 123.034C147.69 137.681 159.651 153.305 170.148 169.904C174.542 176.984 178.448 184.307 181.866 191.875C188.213 185.284 191.875 176.251 191.875 166.975C191.386 145.005 166.731 126.94 134.508 123.034Z" fill="#FFBC00"/>
<path d="M119.616 122.302C116.443 122.302 113.514 122.546 110.584 123.034C121.569 130.358 132.066 138.169 142.075 146.713C135.972 138.657 129.869 130.602 123.766 122.302C122.302 122.302 120.837 122.302 119.616 122.302Z" fill="#FFBC00"/>
<path opacity="0.54" d="M108.631 159.895C102.04 150.131 94.9607 138.413 92.7637 126.452C66.8875 134.019 48.8229 151.351 49.3112 170.881C50.0435 196.757 82.5108 216.774 121.813 215.798C136.948 215.554 151.839 211.892 165.266 204.813C163.313 203.836 161.36 202.86 159.407 201.883C139.878 192.119 121.325 178.448 108.631 159.895Z" fill="#FFF7AB"/>
<path opacity="0.54" d="M59.0761 146.469C52.7291 153.06 49.3115 161.848 49.3115 170.881C50.0439 196.757 82.2671 216.774 121.814 215.798C124.987 215.798 128.161 215.554 131.334 215.066C117.908 209.207 105.214 201.639 93.4963 192.607C81.5347 183.575 63.4702 164.778 59.0761 146.469Z" fill="#FFF7AB"/>
<path opacity="0.54" d="M108.631 159.895C102.04 150.131 94.9608 138.413 92.7638 126.452C88.858 127.672 84.9521 129.137 81.2904 130.846C83.4874 160.628 106.678 182.598 133.531 196.024C142.319 200.419 151.351 204.08 160.872 207.254C162.337 206.521 164.045 205.789 165.266 205.057C163.313 204.08 161.36 203.104 159.407 202.127C139.878 192.119 121.325 178.448 108.631 159.895Z" fill="#FFF7AB"/>
<path d="M124.499 211.892C68.3522 210.916 53.7053 184.307 50.0436 176.495C54.9259 199.442 85.4403 216.774 121.813 215.798C151.595 215.066 176.739 202.372 186.992 185.283C175.519 200.419 152.084 212.38 124.499 211.892Z" fill="#FFFFD7"/>
<path d="M119.617 130.114C88.37 131.09 63.2262 145.981 63.4703 163.557C63.7144 181.134 89.8347 194.804 121.326 194.072C152.816 193.339 177.96 178.448 177.472 160.628C176.984 142.808 151.108 129.381 119.617 130.114Z" fill="url(#paint0_linear)"/>
<path d="M94.7169 134.263C75.92 139.878 63.226 151.107 63.4701 163.801C63.9584 181.378 89.8346 195.048 121.081 194.316C128.161 194.072 135.484 193.095 142.319 191.386C140.61 190.41 139.146 189.433 137.681 188.457C120.105 175.519 102.04 155.746 94.7169 134.263Z" fill="url(#paint1_linear)"/>
<path d="M119.617 130.114C88.37 131.09 63.2262 145.981 63.4703 163.557C63.4703 164.534 63.7144 165.51 63.7144 166.487C65.9114 150.131 90.0788 136.705 119.617 135.972C149.155 135.24 174.054 147.446 176.984 163.557C177.228 162.581 177.228 161.604 177.228 160.628C176.984 143.296 151.108 129.381 119.617 130.114Z" fill="#ED8203"/>
<path d="M144.272 152.084L149.643 147.934V144.028C148.422 143.784 141.343 146.469 140.122 146.713C139.146 146.713 138.414 147.202 137.681 147.446L134.508 149.643C130.602 148.91 126.452 148.666 122.546 148.666C119.128 148.666 115.711 148.91 112.293 149.399C109.608 149.887 106.923 150.375 104.237 151.352C101.552 152.084 99.111 153.304 96.6698 154.525C96.6698 155.746 96.6698 157.21 96.6698 158.431C96.914 159.896 97.6463 161.116 98.8669 161.849C100.332 163.069 102.04 164.046 103.993 164.534C106.19 165.266 108.387 166.243 110.584 166.975L100.087 174.787C98.8669 174.298 97.6463 173.81 96.4257 173.322C95.4493 172.834 94.4728 172.345 93.7405 171.857C93.0081 171.369 92.2758 171.125 91.5434 170.637C90.8111 170.393 90.0787 170.148 89.3464 169.904C88.614 169.66 87.6376 169.66 86.9052 169.66C85.9288 169.66 76.8965 167.951 76.1642 168.196V172.101C78.1171 173.81 80.3141 175.275 82.7553 176.251C85.9288 177.716 89.3464 178.937 92.764 179.669L87.3935 180.645V184.551L93.4963 185.528C94.7169 185.772 95.9375 185.772 97.1581 185.528C98.1345 185.528 98.8669 185.039 99.5992 184.795L103.017 182.354C106.923 182.842 111.073 183.331 114.978 183.087C118.396 183.087 122.058 182.842 125.475 182.354C128.405 181.866 131.09 181.134 133.775 180.157C135.972 179.425 137.925 178.204 139.634 176.74C140.366 176.007 141.099 175.275 141.343 174.298C141.587 173.566 141.343 172.59 141.099 172.101C140.611 171.369 139.878 170.637 139.146 170.148C138.169 169.416 136.949 168.928 135.972 168.196C134.752 167.707 133.531 166.975 132.067 166.487L127.672 165.022L137.681 157.699C138.658 157.943 139.39 158.431 140.366 158.675L142.563 159.651L144.516 160.384C145.005 160.628 145.737 160.628 146.225 160.872C146.958 161.116 147.934 161.116 148.666 161.116C149.643 161.116 150.375 160.872 151.352 160.628L157.943 158.919V155.013C155.257 153.304 147.69 152.816 144.272 152.084ZM123.034 174.543C120.593 176.74 116.443 177.472 110.096 176.984L119.373 170.148C120.837 170.637 122.058 171.369 123.034 172.345C124.011 173.078 124.011 173.81 123.034 174.543ZM118.884 161.36C117.42 160.872 116.199 160.14 115.223 159.163C114.49 158.431 114.49 157.699 115.467 156.722C115.955 156.234 116.443 155.99 117.176 155.746C117.908 155.502 118.884 155.257 119.617 155.013C120.837 154.769 121.814 154.769 123.034 154.769C124.255 154.769 125.964 154.769 127.672 155.013L118.884 161.36Z" fill="#D67003"/>
<path d="M144.272 148.178L149.643 144.028L143.54 143.052C142.319 142.808 141.099 142.808 139.878 143.052C138.902 143.052 138.169 143.54 137.437 143.784L134.263 145.981C130.358 145.249 126.452 145.005 122.302 145.005C118.884 145.005 115.467 145.249 112.049 145.737C109.364 146.225 106.678 146.713 103.993 147.69C102.04 148.422 100.331 149.399 98.8667 150.619C97.1579 152.084 96.4256 153.549 96.6697 154.769C96.9138 156.234 97.6462 157.455 98.8667 158.187C100.331 159.407 102.04 160.384 103.993 160.872C106.19 161.604 108.387 162.581 110.584 163.313L100.087 171.125C98.8667 170.637 97.6462 170.149 96.4256 169.66C95.4491 169.172 94.4727 168.684 93.7403 168.196L91.5433 166.975C90.8109 166.731 90.0786 166.487 89.3462 166.243C88.3698 165.999 87.6374 165.999 86.661 165.999C85.9286 165.999 84.9522 166.243 84.2198 166.243L75.9199 168.196C77.8728 169.904 80.0699 171.369 82.7551 172.346C85.9286 173.81 89.3462 175.031 92.7639 175.763L87.3933 180.645L93.4962 181.622C94.7168 181.866 95.9374 181.866 97.1579 181.622C98.1344 181.622 98.8667 181.378 99.5991 180.89L103.017 178.448C106.923 178.937 111.072 179.425 114.978 179.425C118.396 179.425 122.058 179.181 125.475 178.693C128.405 178.204 131.09 177.472 133.775 176.496C135.972 175.763 137.925 174.543 139.39 173.078C140.122 172.346 140.855 171.613 141.099 170.393C141.343 169.66 141.099 168.684 140.61 168.196C140.122 167.463 139.39 166.731 138.657 166.243C137.681 165.51 136.46 165.022 135.484 164.29C134.263 163.802 133.043 163.069 131.578 162.581L127.184 161.116L137.193 153.793C138.169 154.037 139.146 154.525 139.878 154.769C140.61 155.013 141.343 155.502 142.075 155.746C142.807 155.99 143.296 156.234 144.028 156.478C144.516 156.722 145.249 156.966 145.737 156.966C146.469 157.21 147.446 157.21 148.178 157.21C149.154 157.21 149.887 156.966 150.863 156.722L157.454 155.013C155.99 153.793 154.281 152.572 152.572 151.596C149.887 149.887 146.957 148.911 144.272 148.178ZM123.034 170.637C120.593 172.834 116.443 173.566 110.096 173.078L119.372 166.243C120.837 166.731 122.058 167.463 123.034 168.44C123.766 169.172 123.766 169.904 123.034 170.637ZM118.884 157.455C117.419 156.966 116.199 156.234 115.222 155.257C114.49 154.525 114.49 153.793 115.467 152.816C115.955 152.328 116.443 152.084 117.175 151.84C117.908 151.596 118.884 151.352 119.617 151.108C120.837 150.863 121.814 150.863 123.034 150.863C124.499 150.863 125.964 150.863 127.672 151.108L118.884 157.455Z" fill="#FCD517"/>
<path d="M108.387 146.469C106.923 146.713 105.702 147.202 104.237 147.69C102.284 148.422 100.576 149.399 99.111 150.619C97.4022 152.084 96.6698 153.549 96.914 154.769C97.1581 156.234 97.8904 157.454 99.111 158.187C100.576 159.407 102.284 160.384 104.237 161.116C106.434 161.848 108.631 162.825 110.829 163.557L100.332 171.369C99.111 170.881 97.8904 170.393 96.6698 169.904C95.6934 169.416 94.7169 168.928 93.9846 168.44L91.7875 167.219C91.0552 166.975 90.3229 166.731 89.5905 166.487C88.6141 166.243 87.8817 166.243 86.9052 166.243C86.1729 166.243 85.1964 166.487 84.4641 166.487L76.1642 168.44C78.1171 170.148 80.3141 171.613 82.9994 172.59C86.1729 174.054 89.5905 175.275 93.0081 176.007L87.3935 180.645L93.4963 181.622C94.7169 181.866 95.9375 181.866 97.1581 181.622C98.1345 181.622 98.8669 181.378 99.5992 180.889L103.017 178.448C106.923 178.937 111.073 179.425 114.978 179.425C118.396 179.425 122.058 179.181 125.475 178.692C128.405 178.204 131.09 177.472 133.775 176.495C134.019 176.495 134.264 176.251 134.264 176.251C123.278 167.707 113.758 157.943 108.387 146.469ZM119.373 166.243C120.837 166.731 122.058 167.463 123.034 168.44C123.767 169.172 123.767 169.904 122.79 170.881C120.349 173.078 116.199 173.81 109.852 173.322L119.373 166.243Z" fill="url(#paint2_linear)"/>
<path d="M138.902 165.51C137.925 165.022 137.193 164.534 136.216 164.045C133.775 167.219 128.16 168.439 123.522 169.416C123.522 169.904 123.278 170.392 122.79 170.881C120.349 173.078 116.199 173.81 109.852 173.322L113.025 170.881C108.875 171.125 104.725 171.369 100.331 171.125L99.8431 171.369L99.1108 170.881C92.5197 170.392 85.9286 169.416 79.3375 167.951L76.4081 168.684C78.361 170.392 80.558 171.857 83.2433 172.834C86.4168 174.298 89.8344 175.519 93.252 176.251L87.3933 180.645L93.4961 181.622C94.7167 181.866 95.9373 181.866 97.1579 181.622C98.1343 181.622 98.8667 181.378 99.599 180.889L103.017 178.448C106.922 178.936 111.072 179.425 114.978 179.425C118.396 179.425 122.058 179.181 125.475 178.692C128.405 178.204 131.09 177.472 133.775 176.495C135.972 175.763 137.925 174.542 139.39 173.078C140.122 172.345 140.854 171.613 141.099 170.392C141.343 169.66 141.099 168.684 140.61 168.195C140.366 166.975 139.634 166.242 138.902 165.51Z" fill="#FFEE52"/>
<path d="M144.272 148.178L149.643 144.028L143.54 143.052C142.319 142.808 141.099 142.808 139.878 143.052C138.902 143.052 138.169 143.54 137.437 143.784L134.263 145.981C130.358 145.249 126.452 145.005 122.302 145.005C118.884 145.005 115.467 145.249 112.049 145.737C109.364 146.225 106.678 146.713 103.993 147.69C103.017 148.178 102.04 148.666 101.064 149.155C108.143 146.958 115.467 146.225 122.546 147.202C132.799 147.69 142.563 150.619 151.352 155.99L156.966 154.525C155.501 153.305 153.793 152.084 152.084 151.108C149.887 149.887 146.957 148.911 144.272 148.178Z" fill="#FFEE52"/>
<path d="M98.8669 155.013C98.3787 152.328 103.261 148.91 108.387 146.469C106.923 146.713 105.702 147.202 104.237 147.69C102.284 148.422 100.576 149.399 99.111 150.619C97.4022 152.084 96.6699 153.549 96.914 154.769C97.1581 156.234 97.8904 157.454 99.111 158.187C100.576 159.407 102.284 160.384 104.237 160.872C106.434 161.604 108.631 162.581 110.829 163.313L100.332 171.125C99.111 170.637 97.8904 170.148 96.6698 169.66C95.6934 169.172 94.7169 168.684 93.9846 168.195L91.7875 166.975C91.0552 166.731 90.3229 166.487 89.5905 166.243C88.6141 165.998 87.8817 165.998 86.9052 165.998C86.1729 165.998 85.1964 166.243 84.4641 166.243L76.1642 168.195C78.1171 169.904 80.3141 171.369 82.9994 172.345C86.1729 173.81 89.5905 175.031 93.0081 175.763L87.3935 180.645L89.5905 181.134C90.3229 180.645 93.4964 178.204 95.9375 176.251C96.6698 175.763 79.5818 169.904 80.3141 169.416C82.7553 168.44 85.6847 167.951 88.3699 167.951C90.0787 168.195 100.087 173.322 100.332 173.078C102.773 171.613 107.655 167.463 113.026 163.557C110.34 160.872 100.087 160.384 98.8669 155.013Z" fill="#FFF8B8"/>
<path d="M49.3113 170.881C49.3113 170.881 50.776 141.587 92.0315 128.893C109.608 123.522 125.719 123.522 143.296 124.499C135.484 122.79 127.428 122.058 119.372 122.302C80.0698 123.278 48.8231 145.005 49.3113 170.881Z" fill="#F9AF19"/>
<path d="M221.168 79.0935C221.168 79.0935 222.145 96.4257 216.286 109.12C209.207 124.499 191.142 143.296 175.275 148.91C116.687 169.904 91.7874 139.634 91.7874 139.634C92.2756 141.587 97.6461 152.084 98.3785 153.793C109.364 177.228 147.201 182.598 182.842 165.998C218.483 149.399 238.501 116.687 227.515 93.2522C227.027 91.7875 222.145 80.5582 221.168 79.0935Z" fill="#ED8203"/>
<path d="M106.923 149.887C104.481 148.91 102.528 147.69 100.331 146.469C102.284 151.107 103.993 155.746 105.946 160.384C106.923 162.337 107.655 164.29 108.631 166.243C111.072 167.951 113.514 169.66 116.443 170.881C115.955 169.66 115.467 168.684 114.978 167.463C112.049 161.604 109.12 155.99 106.923 149.887Z" fill="#C66802"/>
<path d="M160.628 153.06C163.313 159.163 165.998 165.266 168.684 171.369C171.125 170.637 173.322 169.904 175.763 168.928C172.834 163.069 168.928 157.454 166.487 151.352C164.29 152.328 162.337 152.572 160.628 153.06Z" fill="#C66802"/>
<path d="M126.208 155.257C128.405 160.14 130.602 165.022 132.799 169.904C133.531 171.613 134.264 173.322 134.752 175.031C136.705 175.275 138.902 175.275 141.099 175.519C137.925 168.928 134.752 162.337 131.578 155.746C129.625 155.746 127.917 155.501 126.208 155.257Z" fill="#C66802"/>
<path d="M113.758 152.572C115.955 158.187 119.372 163.557 122.058 169.172C122.546 170.392 123.278 171.857 123.766 173.322C125.231 173.81 126.696 174.054 128.16 174.298C125.475 167.463 123.034 160.628 119.861 154.281C117.664 153.793 115.711 153.06 113.758 152.572Z" fill="#C66802"/>
<path d="M137.437 155.99C140.61 162.581 143.54 168.928 146.713 175.519C148.422 175.519 149.887 175.275 151.596 175.031C148.178 168.928 145.249 162.581 143.052 155.746C141.343 155.99 139.39 155.99 137.437 155.99Z" fill="#C66802"/>
<path d="M148.422 155.257C150.619 161.848 153.548 168.195 157.21 174.298C159.163 173.81 161.36 173.566 163.313 173.078C160.628 166.731 157.942 160.628 155.257 154.281C153.06 154.769 150.619 155.013 148.422 155.257Z" fill="#C66802"/>
<path d="M175.275 148.91C173.81 149.399 172.589 149.887 171.125 150.375C173.81 156.234 176.739 161.849 180.157 167.463C181.133 166.975 182.11 166.731 183.086 166.243C184.063 165.754 185.283 165.022 186.504 164.534C184.063 158.919 181.622 153.06 178.692 147.446C177.716 147.934 176.495 148.422 175.275 148.91Z" fill="#C66802"/>
<path d="M206.033 124.987C204.569 126.696 203.104 128.404 201.639 130.113C204.569 135.972 207.498 141.831 210.427 147.69C212.136 146.225 213.601 144.516 215.065 143.051C214.577 142.075 214.089 141.098 213.601 140.122C210.916 134.996 208.474 130.113 206.033 124.987Z" fill="#C66802"/>
<path d="M213.357 114.979C212.38 116.687 210.916 118.64 209.695 120.349C212.38 126.208 215.554 131.822 218.239 137.681C218.239 137.925 218.483 138.169 218.483 138.414C219.704 136.705 220.924 134.996 221.901 133.287C221.168 131.334 220.436 129.625 219.46 127.672C217.751 123.523 215.31 119.128 213.357 114.979Z" fill="#C66802"/>
<path d="M218.972 101.796C218.483 104.237 217.507 106.678 216.53 109.119C218.727 114.002 221.413 118.396 223.61 123.278C224.342 124.743 224.83 126.207 225.563 127.672C226.539 125.475 227.516 123.278 228.492 121.081C226.783 117.175 225.074 113.269 223.122 109.608C221.413 107.166 220.192 104.481 218.972 101.796Z" fill="#C66802"/>
<path d="M221.168 84.708C221.168 86.6609 220.924 88.858 220.68 91.2991C222.633 97.8902 225.318 104.237 228.736 110.096C229.224 111.072 229.712 112.049 230.201 113.025C230.689 109.852 230.689 106.922 230.445 103.749C227.271 97.402 224.098 91.055 221.168 84.708Z" fill="#C66802"/>
<path d="M192.851 138.169C195.78 143.784 198.71 149.399 201.639 154.769C203.348 153.548 204.812 152.328 206.277 151.107C203.348 145.249 200.418 139.634 197.733 133.775C196.024 135.484 194.56 136.949 192.851 138.169Z" fill="#C66802"/>
<path d="M183.331 145.005C186.26 150.375 188.701 156.234 191.142 161.848C193.339 160.628 195.292 159.407 197.245 157.943C194.316 152.328 191.386 146.957 188.457 141.587C186.748 142.807 185.039 144.028 183.331 145.005Z" fill="#C66802"/>
<path opacity="0.25" d="M175.275 148.911C144.028 160.14 122.302 156.722 108.875 151.108C112.781 158.187 116.687 165.022 119.861 172.102C136.705 178.204 160.14 176.74 182.842 166.243C180.645 160.384 178.204 154.525 175.763 148.667C175.519 148.667 175.519 148.911 175.275 148.911Z" fill="#FFEE52"/>
<path opacity="0.28" d="M124.743 155.257C127.672 161.848 130.113 168.44 132.799 175.031C144.272 176.251 155.99 175.275 166.975 171.857C164.534 165.51 161.848 159.407 158.919 153.549C147.69 156.234 136.216 156.966 124.743 155.257Z" fill="#FFEE52"/>
<path opacity="0.35" d="M131.334 155.99C134.752 162.337 137.437 168.928 140.366 175.519C142.807 175.519 145.249 175.519 147.69 175.275C144.516 168.928 141.587 162.337 138.413 155.99C136.216 156.234 133.775 156.234 131.334 155.99Z" fill="#FFEE52"/>
<path opacity="0.35" d="M124.743 155.257C127.672 161.848 130.113 168.44 132.799 175.031C133.531 175.031 134.019 175.031 134.752 175.275C131.578 168.44 128.649 161.848 124.743 155.257Z" fill="#FFEE52"/>
<path opacity="0.35" d="M144.516 155.746C147.446 162.093 150.375 168.44 153.549 174.542C154.525 174.542 155.746 174.298 156.722 174.054C153.549 167.951 150.619 161.604 147.69 155.257C146.469 155.501 145.493 155.746 144.516 155.746Z" fill="#FFEE52"/>
<path opacity="0.35" d="M157.21 153.793C160.14 159.896 163.069 165.998 165.998 172.101L166.975 171.857C164.534 165.51 161.849 159.407 158.919 153.549C158.431 153.793 157.699 153.793 157.21 153.793Z" fill="#FFEE52"/>
<path opacity="0.32" d="M216.53 109.119C211.16 119.616 203.836 128.893 195.048 136.46C197.977 142.075 200.663 147.934 203.348 153.793C216.53 143.296 225.807 130.846 229.224 118.396C226.051 111.561 222.877 104.969 219.948 98.1343C219.215 101.796 217.995 105.702 216.53 109.119Z" fill="#7A4103"/>
<path opacity="0.32" d="M216.53 109.119C213.112 115.955 208.962 122.058 203.836 127.672C206.521 133.775 209.207 139.634 212.136 145.737C217.262 140.61 221.412 134.996 224.83 128.649C221.901 121.813 219.215 114.734 217.018 107.411C216.774 108.143 216.774 108.631 216.53 109.119Z" fill="#7A4103"/>
<path opacity="0.32" d="M221.168 79.0935C221.168 79.0935 222.145 96.4257 216.286 109.12C212.38 117.175 207.01 124.499 200.907 130.846C203.592 136.705 206.765 142.319 209.695 148.178C227.759 131.334 235.571 110.096 227.759 93.4963C227.027 91.7875 222.145 80.5582 221.168 79.0935Z" fill="#7A4103"/>
<path d="M136.705 67.1319C101.064 83.7317 81.0466 116.443 92.0318 139.878C103.017 163.313 140.855 168.684 176.496 152.084C212.136 135.484 232.154 102.529 221.169 79.0935C210.183 55.6585 172.59 50.2879 136.705 67.1319Z" fill="#FCD517"/>
<path d="M150.863 61.7613C168.928 69.8171 186.016 79.3376 202.371 90.3228C209.207 94.9609 215.798 100.331 221.901 105.702C225.074 97.158 224.83 87.3934 221.168 79.0935C211.648 58.8319 181.866 52.2408 150.863 61.7613Z" fill="#FFBC00"/>
<path d="M136.705 67.1319C133.775 68.3525 131.334 69.8172 128.649 71.526C141.587 73.723 154.525 76.8965 166.975 80.5582C158.187 75.6759 149.155 70.7936 140.611 65.4231C139.39 65.9113 138.169 66.3996 136.705 67.1319Z" fill="#FFBC00"/>
<path opacity="0.54" d="M142.075 105.702C132.066 99.5992 120.837 91.5434 114.246 81.2905C93.496 98.6227 83.7314 121.814 92.2755 139.634C103.261 163.069 141.098 168.44 176.739 151.84C190.41 145.493 202.615 136.216 212.136 124.255C209.939 124.255 207.742 124.255 205.545 124.011C183.33 122.79 160.872 117.664 142.075 105.702Z" fill="#FFF7AB"/>
<path opacity="0.54" d="M91.0549 113.27C87.8814 121.814 88.3696 131.334 92.0314 139.634C103.017 163.069 140.854 168.44 176.495 151.84C179.425 150.375 182.11 148.911 184.795 147.446C170.148 147.446 155.501 145.493 141.098 142.075C126.452 138.414 102.528 128.161 91.0549 113.27Z" fill="#FFF7AB"/>
<path opacity="0.54" d="M142.075 105.702C132.067 99.5992 120.837 91.5434 114.246 81.2905C111.073 83.9758 108.143 86.9052 105.458 89.8346C119.373 116.199 149.643 126.94 179.425 128.405C189.189 128.893 198.954 128.649 208.963 127.672C210.183 126.452 211.16 125.231 212.136 123.767C209.939 123.767 207.742 123.767 205.545 123.522C183.331 122.79 160.872 117.664 142.075 105.702Z" fill="#FFF7AB"/>
<path d="M177.228 147.202C125.475 168.684 101.308 150.375 94.9609 144.76C108.631 163.801 143.54 167.463 176.495 152.084C203.348 139.39 221.413 117.908 223.854 97.8904C219.46 116.199 202.616 136.461 177.228 147.202Z" fill="#FFFFD7"/>
<path d="M140.122 74.2113C111.561 87.6376 94.7167 111.317 102.04 127.428C109.364 143.54 138.657 145.737 167.219 132.311C195.78 118.884 212.868 95.2052 205.301 79.0936C197.733 62.982 168.684 60.7849 140.122 74.2113Z" fill="url(#paint3_linear)"/>
<path d="M118.884 87.8816C103.993 100.576 96.9138 115.955 102.284 127.428C109.852 143.54 138.902 145.737 167.463 132.311C174.054 129.137 180.157 125.475 185.772 121.081C183.819 120.837 182.11 120.593 180.157 120.349C158.675 115.711 134.019 104.726 118.884 87.8816Z" fill="url(#paint4_linear)"/>
<path d="M140.122 74.2111C111.561 87.6374 94.7167 111.317 102.04 127.428C102.528 128.405 103.017 129.137 103.505 130.113C99.1108 114.246 115.711 92.2756 142.563 79.8257C169.416 67.3758 197.001 68.5964 206.277 82.2669C206.033 81.2904 205.545 80.3139 205.301 79.3375C197.733 62.9818 168.684 60.7847 140.122 74.2111Z" fill="#ED8203"/>
<path d="M171.369 84.22L174.786 78.3612L173.078 74.6995C171.857 74.9436 166.486 80.3141 165.51 81.0465C164.778 81.5347 164.045 82.0229 163.557 82.9994L161.604 86.417C157.698 87.3935 154.037 88.614 150.375 90.3228C147.201 91.5434 144.272 93.2522 141.343 94.961C138.901 96.4257 136.704 98.1345 134.751 100.087C132.554 101.796 130.846 103.993 129.137 106.19C129.625 107.411 130.113 108.631 130.846 109.608C131.578 110.828 132.799 111.561 134.263 111.805C136.216 112.293 138.169 112.293 140.122 112.293C142.319 112.293 144.76 112.049 146.957 111.805L140.61 123.034C139.39 123.034 138.169 123.034 136.704 123.034L133.775 122.79C133.043 122.79 132.066 122.546 131.334 122.546C130.601 122.546 129.625 122.546 128.893 122.79C128.16 123.034 127.184 123.278 126.452 123.767C125.719 124.255 116.687 126.208 115.955 126.696L117.663 130.114C120.105 130.846 122.79 131.334 125.475 131.334C129.137 131.334 132.554 131.09 135.972 130.602L130.846 133.287L132.554 136.949L138.413 135.484C139.634 135.24 140.61 134.752 141.587 134.019C142.319 133.531 143.051 133.043 143.54 132.311L145.737 128.649C149.642 127.672 153.304 126.208 156.966 124.743C160.139 123.278 163.313 121.814 166.242 119.861C168.683 118.396 170.88 116.443 173.078 114.49C174.786 112.781 176.007 111.073 176.983 108.876C177.472 107.899 177.716 106.923 177.472 105.702C177.227 104.97 176.983 104.237 176.251 103.749C175.519 103.261 174.542 102.773 173.566 102.773C172.345 102.529 171.125 102.529 169.904 102.284C168.439 102.284 166.975 102.284 165.51 102.284C164.045 102.284 162.336 102.529 160.872 102.529L166.975 91.7875L169.904 91.5434H172.345C173.078 91.5434 173.81 91.5434 174.542 91.5434C175.03 91.5434 175.763 91.5434 176.251 91.2993C176.983 91.0552 177.96 90.8111 178.692 90.5669C179.424 90.0787 180.157 89.5905 180.889 89.1023L186.26 84.9523L184.551 81.5347C181.866 81.0465 175.03 83.7317 171.369 84.22ZM146.713 100.087C146.957 99.5992 147.445 99.111 147.69 98.6227C148.178 98.1345 148.91 97.4022 149.642 97.158C150.619 96.6698 151.595 95.9375 152.816 95.4492C154.037 94.961 155.501 94.4728 157.21 93.9846L151.84 103.261C150.375 103.261 148.91 103.261 147.445 102.773C146.469 102.04 146.225 101.308 146.713 100.087ZM160.872 113.514C159.651 116.443 155.989 118.884 150.131 120.837L155.745 111.073C157.21 111.073 158.675 111.073 160.139 111.561C161.116 111.805 161.36 112.293 160.872 113.514Z" fill="#D67003"/>
<path d="M169.66 80.5582L173.078 74.6995L167.219 76.1642C165.998 76.4083 165.022 76.8965 164.045 77.6288C163.313 78.1171 162.581 78.6053 162.093 79.3376L160.14 82.7553C156.234 83.7317 152.572 84.9523 148.91 86.6611C145.737 88.1258 142.807 89.5905 139.878 91.2993C137.437 92.764 135.24 94.4728 133.287 96.4257C131.822 97.8904 130.602 99.3551 129.625 101.308C128.893 102.773 128.649 104.482 129.381 105.946C130.113 107.167 131.334 107.899 132.799 108.143C134.752 108.631 136.705 108.631 138.658 108.631C140.855 108.631 143.296 108.387 145.493 108.143L138.658 119.617C137.437 119.861 136.216 119.861 134.752 119.861C133.775 119.861 132.799 119.617 131.822 119.617L129.381 119.373C128.649 119.373 127.672 119.373 126.94 119.617C126.208 119.861 125.231 120.105 124.499 120.593C123.766 120.837 123.034 121.325 122.546 121.814L115.711 126.94C118.152 127.672 120.837 128.161 123.522 127.917C127.184 127.917 130.602 127.672 134.019 126.94L130.358 133.043L136.705 131.822C137.925 131.578 138.902 131.09 139.878 130.358C140.61 129.869 141.343 129.381 141.831 128.649L144.028 124.987C147.934 124.011 151.596 122.546 155.257 120.837C158.431 119.373 161.604 117.908 164.534 115.955C166.975 114.49 169.172 112.537 171.369 110.584C173.078 108.876 174.298 107.167 175.275 104.97C175.763 103.993 176.007 103.017 176.007 101.796C175.763 101.064 175.519 100.332 174.787 99.8433C174.054 99.3551 173.078 98.8669 172.101 98.8669C170.881 98.6227 169.66 98.3786 168.44 98.3786C166.975 98.3786 165.51 98.3786 164.045 98.3786L159.407 98.6227L165.51 87.8817C166.487 87.8817 167.463 87.6376 168.44 87.6376H172.834C173.322 87.6376 174.054 87.6376 174.542 87.3934C175.275 87.1493 176.007 86.9052 176.739 86.6611C177.472 86.1729 178.204 85.6846 178.937 85.1964L184.307 81.0465C182.598 80.3141 180.645 80.07 178.692 79.8259C175.763 80.07 172.59 80.07 169.66 80.5582ZM145.249 96.6698C145.493 96.1816 145.981 95.6934 146.225 95.2051C146.713 94.4728 147.446 93.9846 148.178 93.4963C149.154 92.764 150.131 92.2757 151.351 91.7875C152.816 91.0552 154.037 90.5669 155.501 90.0787L150.131 99.111C148.666 99.111 147.202 98.8669 145.737 98.6227C145.005 98.6227 144.76 97.8904 145.249 96.6698ZM159.407 110.096C158.187 113.026 154.525 115.467 148.666 117.42L154.281 107.655C155.746 107.655 157.21 107.655 158.675 108.143C159.407 108.143 159.651 108.876 159.407 110.096Z" fill="#FCD517"/>
<path d="M133.043 96.4257C131.578 97.8904 130.357 99.3551 129.381 101.308C128.649 102.773 128.404 104.482 129.137 105.946C129.869 107.167 131.09 107.899 132.554 108.143C134.507 108.631 136.46 108.631 138.413 108.631C140.61 108.631 143.051 108.387 145.248 108.143L138.657 119.617C137.437 119.861 136.216 119.861 134.751 119.861C133.775 119.861 132.799 119.617 131.822 119.617L129.381 119.373C128.649 119.373 127.672 119.373 126.94 119.617C126.207 119.861 125.231 120.105 124.499 120.593C123.766 120.837 123.034 121.325 122.546 121.814L115.955 126.94C118.396 127.672 121.081 128.161 123.766 127.917C127.428 127.917 130.846 127.672 134.263 126.94L130.601 133.043L136.704 131.822C137.925 131.578 138.901 131.09 139.878 130.358C140.61 129.869 141.343 129.381 141.831 128.649L144.028 124.987C147.934 124.011 151.595 122.546 155.257 120.837C158.431 119.373 161.604 117.908 164.533 115.955C166.975 114.49 169.172 112.537 171.369 110.584C171.613 110.34 171.613 110.34 171.857 110.096C158.431 107.411 145.737 102.285 136.46 93.7405C135.24 94.4728 134.263 95.4493 133.043 96.4257ZM154.281 107.411C155.745 107.411 157.21 107.411 158.675 107.899C159.651 108.143 159.895 108.876 159.407 110.096C158.187 113.026 154.525 115.467 148.666 117.42L154.281 107.411Z" fill="url(#paint5_linear)"/>
<path d="M171.857 98.8669C170.88 98.6228 169.904 98.6228 168.683 98.6228C167.707 102.529 163.069 105.946 159.407 108.632C159.651 109.12 159.651 109.608 159.407 110.096C158.187 113.026 154.525 115.467 148.666 117.42L150.619 114.002C146.957 115.955 143.051 117.664 139.146 119.373L138.901 119.617H137.681C131.334 121.814 124.987 123.523 118.396 124.987L115.955 126.94C118.396 127.672 121.081 128.161 123.766 127.917C127.184 127.917 130.846 127.672 134.263 127.184L130.601 133.287L136.704 131.822C137.925 131.578 138.901 131.09 139.878 130.358C140.61 129.87 141.343 129.381 141.831 128.649L144.028 124.987C147.934 124.011 151.595 122.546 155.257 120.837C158.431 119.373 161.604 117.908 164.533 115.955C166.975 114.49 169.172 112.537 171.369 110.584C173.078 108.876 174.298 107.167 175.275 104.97C175.763 103.993 176.007 103.017 176.007 101.796C175.763 101.064 175.519 100.332 174.786 99.8434C173.81 99.3551 172.833 99.111 171.857 98.8669Z" fill="#FFEE52"/>
<path d="M169.66 80.5582L173.078 74.6995L167.219 76.1642C165.999 76.4083 165.022 76.8965 164.046 77.6288C163.313 78.1171 162.581 78.6053 162.093 79.3376L160.14 82.7553C156.234 83.7317 152.572 84.9523 148.91 86.6611C145.737 88.1258 142.808 89.5905 139.878 91.2993C137.437 92.764 135.24 94.4728 133.287 96.4257C132.555 97.158 131.822 97.8904 131.09 98.8669C136.705 93.9846 143.052 90.5669 150.131 88.3699C159.652 84.7082 169.904 83.4876 179.913 84.9523L184.551 81.5347C182.842 80.8023 180.89 80.5582 178.937 80.3141C175.519 80.07 172.59 80.07 169.66 80.5582Z" fill="#FFEE52"/>
<path d="M131.09 105.214C129.625 103.017 132.554 97.8904 136.46 93.7405C135.24 94.4728 134.263 95.4493 133.287 96.4257C131.822 97.8904 130.601 99.3551 129.625 101.308C128.893 102.773 128.649 104.482 129.381 105.946C130.113 107.167 131.334 107.899 132.799 108.143C134.751 108.631 136.704 108.631 138.657 108.631C140.854 108.631 143.295 108.387 145.493 108.143L138.657 119.617C137.437 119.861 136.216 119.861 134.751 119.861C133.775 119.861 132.799 119.617 131.822 119.617L129.381 119.373C128.649 119.373 127.672 119.373 126.94 119.617C126.207 119.861 125.231 120.105 124.499 120.593C123.766 120.837 123.034 121.325 122.546 121.814L115.955 126.94C118.396 127.672 121.081 128.161 123.766 127.917C127.428 127.917 130.846 127.672 134.507 126.94L130.846 133.043L133.043 132.555C133.531 132.067 135.484 128.405 136.948 125.72C137.437 124.987 119.372 126.452 119.86 125.72C121.813 123.767 124.01 122.058 126.696 121.081C128.404 120.593 139.634 121.325 139.878 120.837C141.587 118.64 144.272 112.781 147.69 107.167C143.784 105.946 134.263 109.852 131.09 105.214Z" fill="#FFF8B8"/>
<path d="M92.0318 139.634C92.0318 139.634 81.5348 112.293 114.246 83.9757C128.161 72.0141 143.052 65.6671 159.652 59.3201C151.84 61.0289 144.028 63.7141 136.705 67.1318C101.064 83.7316 81.0466 116.199 92.0318 139.634Z" fill="#F9AF19"/>
<path opacity="0.08" d="M125.231 107.167C112.049 127.428 117.908 154.525 138.169 167.707C158.431 180.889 185.528 175.031 198.71 154.769C211.892 134.508 206.033 107.411 185.772 94.2285C165.51 81.0463 138.414 86.9051 125.231 107.167Z" fill="white"/>
<path opacity="0.15" d="M127.184 108.387C114.734 127.672 120.105 153.304 139.39 165.998C158.675 178.448 184.307 173.078 196.757 154.037C209.207 134.752 203.836 109.12 184.795 96.6698C184.795 96.6698 184.551 96.6698 184.551 96.4257C165.266 83.9758 139.634 89.3463 127.184 108.387Z" fill="white"/>
<path opacity="0.23" d="M129.137 109.852C117.419 127.916 122.546 152.084 140.61 163.801C158.675 175.519 182.842 170.392 194.56 152.328C206.277 134.263 201.151 110.096 183.086 98.3785C165.022 86.661 140.854 91.7874 129.137 109.852Z" fill="white"/>
<path opacity="0.31" d="M131.09 111.072C120.105 128.161 125.231 150.863 142.075 161.604C159.163 172.59 181.866 167.463 192.607 150.619C203.592 133.775 198.71 111.072 181.866 100.087C165.022 89.1021 142.075 93.9844 131.09 111.072Z" fill="white"/>
<path opacity="0.38" d="M133.043 112.293C122.79 128.161 127.184 149.643 143.296 159.896C159.407 170.148 180.645 165.754 190.898 149.643C201.151 133.531 196.513 112.293 180.645 102.04C164.778 91.7874 143.54 96.4256 133.043 112.293Z" fill="white"/>
<path opacity="0.46" d="M134.996 113.514C125.475 128.405 129.625 148.178 144.516 157.943C159.407 167.463 179.18 163.313 188.945 148.422C198.466 133.531 194.316 113.758 179.425 103.993C164.534 94.4726 144.76 98.6226 134.996 113.514Z" fill="white"/>
<path opacity="0.54" d="M136.949 114.734C127.916 128.405 131.822 146.957 145.737 155.99C159.651 165.022 177.96 161.116 186.992 147.201C196.024 133.531 192.119 114.978 178.204 105.946C164.534 96.9137 145.981 100.82 136.949 114.734Z" fill="white"/>
<path opacity="0.62" d="M138.902 115.955C130.602 128.649 134.263 145.737 146.957 154.037C159.651 162.337 176.739 158.675 185.039 145.981C193.339 133.287 189.678 116.199 176.984 107.899C164.29 99.599 147.202 103.261 138.902 115.955Z" fill="white"/>
<path opacity="0.69" d="M140.854 117.42C133.287 129.137 136.704 144.516 148.422 152.084C160.139 159.651 175.763 156.234 183.086 144.516C190.654 132.799 187.236 117.42 175.763 109.852C164.045 102.284 148.666 105.458 140.854 117.42C140.854 117.175 140.854 117.175 140.854 117.42Z" fill="white"/>
<path opacity="0.77" d="M142.807 118.64C135.972 129.137 138.902 143.295 149.643 150.131C160.14 156.966 174.298 154.037 181.134 143.295C187.969 132.799 185.039 118.64 174.298 111.805C163.801 104.969 149.643 107.899 142.807 118.64Z" fill="white"/>
<path opacity="0.85" d="M144.76 119.861C138.657 129.381 141.343 142.075 150.863 148.178C160.384 154.281 173.078 151.596 179.181 142.075C185.283 132.555 182.598 119.861 173.078 113.758C163.557 107.655 150.863 110.34 144.76 119.861Z" fill="white"/>
<path opacity="0.92" d="M146.713 121.081C141.343 129.381 143.784 140.855 152.084 146.225C160.384 151.596 171.857 149.155 177.228 140.855C182.598 132.555 180.157 121.081 171.857 115.711C163.557 110.34 152.328 112.781 146.713 121.081Z" fill="white"/>
<path d="M148.666 122.302C144.028 129.625 145.981 139.39 153.305 144.272C160.628 149.154 170.393 146.957 175.275 139.634C179.913 132.31 177.96 122.546 170.637 117.663C163.313 112.781 153.549 114.978 148.666 122.302Z" fill="white"/>
<path d="M143.784 120.837C135.24 126.94 113.025 132.311 113.025 132.311C113.025 132.311 140.854 131.822 149.643 138.169C158.431 144.761 164.045 175.031 164.045 175.031C164.045 175.031 166.242 149.155 172.589 140.366C179.669 130.358 207.986 128.649 207.986 128.649C207.986 128.649 181.378 125.231 173.81 118.64C163.557 109.852 163.557 84.4641 163.557 84.4641C159.407 104.97 152.328 114.734 143.784 120.837Z" fill="white"/>
<defs>
<linearGradient id="paint0_linear" x1="98.29" y1="128.328" x2="142.762" y2="196.076" gradientUnits="userSpaceOnUse">
<stop stop-color="#FFE53B"/>
<stop offset="1" stop-color="#FFA200"/>
</linearGradient>
<linearGradient id="paint1_linear" x1="96.6607" y1="133.848" x2="105.958" y2="197.807" gradientUnits="userSpaceOnUse">
<stop stop-color="#FFF73B"/>
<stop offset="1" stop-color="#FFBA00"/>
</linearGradient>
<linearGradient id="paint2_linear" x1="78.3511" y1="159.445" x2="158.404" y2="176.049" gradientUnits="userSpaceOnUse">
<stop stop-color="#FFF654"/>
<stop offset="0.65" stop-color="#FFD947"/>
</linearGradient>
<linearGradient id="paint3_linear" x1="128.379" y1="77.8471" x2="179.035" y2="128.527" gradientUnits="userSpaceOnUse">
<stop stop-color="#FFE53B"/>
<stop offset="1" stop-color="#FFA200"/>
</linearGradient>
<linearGradient id="paint4_linear" x1="129.17" y1="84.006" x2="149.431" y2="139.713" gradientUnits="userSpaceOnUse">
<stop stop-color="#FFF73B"/>
<stop offset="1" stop-color="#FFBA00"/>
</linearGradient>
<linearGradient id="paint5_linear" x1="115.857" y1="113.38" x2="194.438" y2="113.38" gradientUnits="userSpaceOnUse">
<stop stop-color="#FFF654"/>
<stop offset="0.65" stop-color="#FFD947"/>
</linearGradient>
</defs>
</svg>
