<svg width="46" height="46" viewBox="0 0 46 46" fill="none" xmlns="http://www.w3.org/2000/svg">
<mask id="mask0" style="mask-type:alpha" maskUnits="userSpaceOnUse" x="0" y="0" width="46" height="46">
<rect y="0.44043" width="45.12" height="45.12" fill="white"/>
</mask>
<g mask="url(#mask0)">
<path fill-rule="evenodd" clip-rule="evenodd" d="M22.5602 4.20117C12.177 4.20117 3.76025 12.6179 3.76025 23.0012C3.76025 32.4256 10.7031 40.2088 19.7497 41.568V27.9832H15.0985V23.0406H19.7497V19.7525C19.7497 14.3081 22.4023 11.9186 26.9275 11.9186C29.0951 11.9186 30.24 12.0784 30.7834 12.1517V16.4644H27.6964C25.775 16.4644 25.1039 18.2861 25.1039 20.3391V23.0406H30.7345L29.9712 27.9832H25.1058V41.6075C34.282 40.3648 41.3602 32.5177 41.3602 23.0012C41.3602 12.6179 32.9435 4.20117 22.5602 4.20117Z" fill="white"/>
</g>
</svg>
