<svg width="280" height="280" viewBox="0 0 280 280" fill="none" xmlns="http://www.w3.org/2000/svg">
<path d="M227.312 208.77L222.291 134.737L218.143 108.713L198.712 83.1381L174.915 61.6013L151.336 47.2434L122.736 45L52 49.9355L53.3099 222.903C53.5283 230.082 61.3878 235.691 68.1558 234.569L227.312 208.77Z" fill="white"/>
<path d="M212.248 136.307L188.888 134.961L154.611 111.63L128.194 80.8947L123.391 56.4414L148.498 58.4605L169.239 70.7993L191.507 90.9901L208.537 113.424L212.248 136.307Z" fill="#FFBBD0"/>
<path opacity="0.55" d="M148.716 58.4605L123.391 56.4414L128.194 81.119L154.611 111.854L181.683 130.026C172.513 121.725 131.906 70.7993 148.716 58.4605Z" fill="#FFE1EB"/>
<path d="M188.888 134.961L154.611 111.63L128.194 80.8947L123.391 56.4414L130.814 79.9973L156.358 109.61L188.888 134.961Z" fill="white"/>
<path d="M212.248 136.307L188.888 134.961L168.802 193.29L216.614 200.469L212.248 136.307Z" fill="url(#paint0_linear)"/>
<path opacity="0.73" d="M181.246 185.214C177.316 178.932 188.888 134.961 188.888 134.961L168.584 193.29L216.614 200.469C216.614 200.469 185.394 191.271 181.246 185.214Z" fill="#630121"/>
<path d="M188.887 134.961L154.611 111.63L115.095 159.19L168.802 193.29L188.887 134.961Z" fill="url(#paint1_linear)"/>
<path opacity="0.55" d="M133.215 157.62C131.032 146.851 154.611 111.854 154.611 111.854L115.095 159.415L168.584 193.514C168.802 193.29 135.835 171.08 133.215 157.62Z" fill="#AA003F"/>
<path d="M154.611 111.629L128.194 80.8945L73.6136 108.937L115.095 159.19L154.611 111.629Z" fill="#E53C73"/>
<path d="M154.611 111.629L128.194 80.8945L115.095 159.19L154.611 111.629Z" fill="#FFA1BF"/>
<path d="M143.258 98.3932L128.194 80.8945L73.6136 108.937L94.7909 134.737C111.383 123.071 127.976 111.629 143.258 98.3932Z" fill="url(#paint2_linear)"/>
<path d="M128.194 80.8947L123.391 56.4414L61.8245 61.3769L73.6138 108.937L128.194 80.8947Z" fill="#F96B92"/>
<path d="M84.0933 96.8228C74.0505 96.1498 70.994 86.7275 64.6627 71.9209L73.6139 108.937L128.194 80.8946L84.0933 96.8228Z" fill="#D82762"/>
<path d="M168.802 193.29L66.8459 222.23C68.5925 223.352 70.7757 224.025 72.959 223.801L216.615 200.469L168.802 193.29Z" fill="#AF083E"/>
<path d="M73.614 108.938L62.043 61.3772L62.4796 214.378C62.6979 216.173 63.1346 217.744 64.0079 219.09C65.5361 221.557 73.614 108.938 73.614 108.938Z" fill="#E52C77"/>
<path d="M168.802 193.29L115.095 159.415L65.5359 221.109C66.8458 222.455 68.8107 223.352 70.7756 223.801C71.4306 223.801 168.802 193.29 168.802 193.29Z" fill="#93022C"/>
<path d="M168.802 193.29L115.095 159.415L65.5359 221.109C66.8458 222.455 68.8107 223.352 70.7756 223.801C71.2123 223.801 118.806 183.868 118.806 183.868L168.802 193.29Z" fill="#770122"/>
<path d="M115.095 159.414L73.614 108.938C73.614 108.938 62.6979 215.724 63.1346 217.295C63.7895 219.314 65.0995 221.108 66.846 222.23L115.095 159.414Z" fill="#C1003B"/>
<path d="M115.095 159.414L73.6137 108.938L92.171 158.741C92.171 158.741 62.916 216.622 63.1343 217.295C63.7892 219.314 65.0992 221.108 66.8457 222.23L115.095 159.414Z" fill="#A50233"/>
<defs>
<linearGradient id="paint0_linear" x1="176.545" y1="152.161" x2="224.801" y2="193.487" gradientUnits="userSpaceOnUse">
<stop stop-color="#FC7AA3"/>
<stop offset="1" stop-color="#D80049"/>
</linearGradient>
<linearGradient id="paint1_linear" x1="146.077" y1="114.643" x2="161.759" y2="195.805" gradientUnits="userSpaceOnUse">
<stop stop-color="#EB568C"/>
<stop offset="1" stop-color="#C90C4A"/>
</linearGradient>
<linearGradient id="paint2_linear" x1="87.8557" y1="127.753" x2="129.618" y2="81.5697" gradientUnits="userSpaceOnUse">
<stop stop-color="#FFE6F7"/>
<stop offset="1" stop-color="white"/>
</linearGradient>
</defs>
</svg>
