<svg width="49" height="48" viewBox="0 0 49 48" fill="none" xmlns="http://www.w3.org/2000/svg">
<mask id="mask0" style="mask-type:alpha" maskUnits="userSpaceOnUse" x="0" y="0" width="49" height="48">
<rect x="0.862793" width="48" height="48" fill="white"/>
</mask>
<g mask="url(#mask0)">
<path fill-rule="evenodd" clip-rule="evenodd" d="M16.8628 6C11.3488 6 6.86279 10.486 6.86279 16V32C6.86279 37.514 11.3488 42 16.8628 42H32.8628C38.3768 42 42.8628 37.514 42.8628 32V16C42.8628 10.486 38.3768 6 32.8628 6H16.8628ZM16.8629 10H32.8629C36.1709 10 38.8629 12.692 38.8629 16V32C38.8629 35.308 36.1709 38 32.8629 38H16.8629C13.5549 38 10.8629 35.308 10.8629 32V16C10.8629 12.692 13.5549 10 16.8629 10ZM34.8627 12C33.7581 12 32.8627 12.8954 32.8627 14C32.8627 15.1046 33.7581 16 34.8627 16C35.9672 16 36.8627 15.1046 36.8627 14C36.8627 12.8954 35.9672 12 34.8627 12ZM24.8628 13.999C19.3488 13.999 14.8628 18.485 14.8628 23.999C14.8628 29.513 19.3488 33.999 24.8628 33.999C30.3768 33.999 34.8628 29.513 34.8628 23.999C34.8628 18.485 30.3768 13.999 24.8628 13.999ZM24.8628 18.001C28.1708 18.001 30.8628 20.693 30.8628 24.001C30.8628 27.309 28.1708 30.001 24.8628 30.001C21.5548 30.001 18.8628 27.309 18.8628 24.001C18.8628 20.693 21.5548 18.001 24.8628 18.001Z" fill="white"/>
</g>
</svg>
