<svg width="37" height="37" viewBox="0 0 37 37" fill="none" xmlns="http://www.w3.org/2000/svg">
<path fill-rule="evenodd" clip-rule="evenodd" d="M10.0626 0.700195C4.54862 0.700195 0.0626221 5.1862 0.0626221 10.7002V26.7002C0.0626221 32.2142 4.54862 36.7002 10.0626 36.7002H26.0626C31.5766 36.7002 36.0626 32.2142 36.0626 26.7002V10.7002C36.0626 5.1862 31.5766 0.700195 26.0626 0.700195H10.0626ZM10.0627 4.7002H26.0627C29.3707 4.7002 32.0627 7.3922 32.0627 10.7002V26.7002C32.0627 30.0082 29.3707 32.7002 26.0627 32.7002H10.0627C6.75474 32.7002 4.06274 30.0082 4.06274 26.7002V10.7002C4.06274 7.3922 6.75474 4.7002 10.0627 4.7002ZM28.0625 6.7002C26.9579 6.7002 26.0625 7.59563 26.0625 8.7002C26.0625 9.80477 26.9579 10.7002 28.0625 10.7002C29.1671 10.7002 30.0625 9.80477 30.0625 8.7002C30.0625 7.59563 29.1671 6.7002 28.0625 6.7002ZM18.0626 8.69971C12.5486 8.69971 8.06262 13.1857 8.06262 18.6997C8.06262 24.2137 12.5486 28.6997 18.0626 28.6997C23.5766 28.6997 28.0626 24.2137 28.0626 18.6997C28.0626 13.1857 23.5766 8.69971 18.0626 8.69971ZM18.0626 12.7007C21.3706 12.7007 24.0626 15.3927 24.0626 18.7007C24.0626 22.0087 21.3706 24.7007 18.0626 24.7007C14.7546 24.7007 12.0626 22.0087 12.0626 18.7007C12.0626 15.3927 14.7546 12.7007 18.0626 12.7007Z" fill="#505050"/>
</svg>
