<svg width="624" height="231" viewBox="0 0 624 231" fill="none" xmlns="http://www.w3.org/2000/svg">
<g clip-path="url(#clip0)">
<g filter="url(#filter0_d)">
<path d="M354.343 186.612L350.825 172.811L361.048 159.343L360.953 177.791L354.343 186.612Z" fill="url(#paint0_linear)"/>
<path d="M350.777 172.147H231.807C226.719 170.345 221.393 169.397 216.02 169.349C207.128 169.255 196.002 172.622 196.002 172.622L44.5547 172.811L48.7391 176.273L60.9595 186.612L205.036 186.09C205.036 186.09 211.408 182.865 214.879 182.77C218.35 182.675 222.868 183.102 224.294 183.719L225.721 184.383L229.62 186.754L354.344 186.659L351.063 172.906L350.777 172.147Z" fill="url(#paint1_linear)"/>
<path d="M581.205 168.828L574.405 183.766C574.405 183.766 571.505 187.323 560.663 186.469C549.822 185.616 543.26 186.469 543.26 186.469L473.552 186.374L359.954 186.043L360.382 171.91L411.308 172.147L491.145 172.385L554.434 172.147C554.434 172.147 571.98 172.242 574.025 172.147C576.07 172.053 581.205 168.828 581.205 168.828Z" fill="url(#paint2_linear)"/>
<path d="M69.138 133.829L68.3772 126.147C68.3772 126.147 76.6985 131.695 79.6941 132.027C82.1192 132.264 82.6898 132.976 82.6898 132.976L69.138 133.829Z" fill="#402010"/>
<path d="M93.7689 92.9976L92.6277 89.3459L107.511 90.579L93.7689 92.9976Z" fill="#402010"/>
<path d="M550.963 130.652L539.313 127.617L552.342 125.34L550.963 130.652Z" fill="#402010"/>
<path d="M44.6021 172.811L41.7966 168.496L65.6192 133.972L81.2157 132.881C81.2157 132.881 67.9967 128.802 68.4247 125.957C68.8526 123.112 92.0095 92.9502 92.0095 92.9502L107.368 90.579L92.6752 89.2985L102.613 78.2963C102.613 78.2963 110.174 76.1148 113.217 76.1148H118.4L127.482 76.5416L248.402 76.3519L304.416 75.9251L504.554 76.1148C504.554 76.1148 522.29 78.486 526.427 84.7459C530.564 91.0058 552.39 125.293 552.39 125.293L540.502 127.427C540.502 127.427 555.195 130.652 557.81 132.833C560.426 135.015 579.874 164.133 579.874 164.133C579.874 164.133 582.489 167.595 580.967 169.302C579.446 171.009 574.025 172.527 574.025 172.527L360.43 173.049L360.192 160.529L351.11 172.811H230.618C224.627 170.061 217.922 169.018 211.36 169.776C200.329 171.057 195.336 173.238 195.336 173.238L44.6021 172.811Z" fill="url(#paint3_linear)"/>
<g opacity="0.46">
<path opacity="0.46" d="M135.28 84.5562C122.965 84.5087 110.316 84.319 97.4778 83.9396L93.864 87.9706C117.924 88.8243 140.32 89.014 158.294 88.1129C224.722 85.4098 274.507 80.3829 332.613 84.2242C366.611 86.4057 393.097 89.583 421.817 88.8717C444.403 87.9706 455.102 86.5954 490.289 77.7746H475.406C472.078 78.5808 469.51 79.1973 467.275 79.6715C452.154 83.0386 436.748 84.983 421.246 85.4098C395.76 86.0263 369.084 82.7541 334.325 80.4303C265.948 75.8302 207.651 83.1335 135.28 84.5562Z" fill="url(#paint4_linear)"/>
<path opacity="0.46" d="M315.019 89.1088C340.221 89.583 359.907 91.0532 372.65 92.6656L391.528 94.7996C434.085 98.8781 482.776 96.0327 530.326 90.9109C529.993 90.3892 529.661 89.8676 529.328 89.3459C482.253 94.5151 434.323 97.3605 392.431 93.3769C321.296 85.2201 302.181 86.8325 197.713 92.0491C191.247 92.3336 184.732 92.713 178.265 92.9027C178.123 92.9027 143.316 94.4203 91.7717 93.2347C91.5815 93.4718 91.2487 93.946 90.7732 94.5625C189.392 97.076 246.928 88.35 315.019 89.1088Z" fill="url(#paint5_linear)"/>
<path opacity="0.46" d="M76.9837 113.01C76.5082 113.674 76.0327 114.291 75.6047 114.955C156.06 116.282 251.968 116.52 228.003 109.596C211.218 104.759 144.124 103.051 84.7819 102.482C84.3064 103.099 83.8309 103.763 83.3554 104.379C146.882 104.901 218.588 106.656 226.481 111.588C220.205 114.623 142.983 114.054 76.9837 113.01Z" fill="url(#paint6_linear)"/>
<path opacity="0.46" d="M248.83 101.297C225.626 102.672 145.171 99.8266 88.491 97.5502C88.0631 98.1193 87.5876 98.7358 87.1121 99.3998C143.982 101.724 225.483 104.569 249.591 103.146C275.506 101.629 428.95 105.423 538.933 104.332C538.553 103.715 538.125 103.099 537.745 102.482C428.141 103.478 274.079 99.7791 248.83 101.297Z" fill="url(#paint7_linear)"/>
<path opacity="0.46" d="M543.355 111.208C542.927 110.544 542.547 109.928 542.119 109.264C483.965 107.557 415.112 106.276 410.357 109.738C403.035 115.05 477.926 117.563 548.158 118.749C547.777 118.132 547.349 117.468 546.921 116.804C480.779 115.666 421.674 113.627 414.922 110.544C422.958 108.173 488.102 109.548 543.355 111.208Z" fill="url(#paint8_linear)"/>
<path opacity="0.46" d="M143.459 125.862C124.058 125.672 98.4763 125.34 68.4722 126.573C68.8526 127.427 70.184 128.375 71.8958 129.277C125.437 127.901 167.471 130.367 170.752 130.367C211.122 132.264 132.665 131.505 558.951 134.209C558.428 133.545 558.048 133.118 557.763 132.928C557.335 132.549 556.526 132.169 555.48 131.743C437.128 129.514 314.829 128.423 199.283 127.996C193.481 127.712 159.531 125.957 143.459 125.862Z" fill="url(#paint9_linear)"/>
<path opacity="0.46" d="M412.64 121.973C363.045 119.792 298.567 115.998 266.614 116.045C205.94 117.231 137.943 118.417 71.5156 120.693C70.8975 121.594 70.3269 122.448 69.8989 123.159C337.701 118.938 249.353 119.27 411.689 125.672C524.906 130.13 503.794 125.862 551.439 125.483L552.39 125.293C552.39 125.293 551.819 124.392 550.868 122.922C492.667 123.206 532.466 126.905 412.64 121.973Z" fill="url(#paint10_linear)"/>
<path opacity="0.46" d="M404.794 158.727C353.963 162.568 315.638 155.786 264.902 153.747C232.853 152.372 122.204 153.889 50.5459 155.786L49.3096 157.588C108.082 156.592 181.261 155.454 226.576 155.217C279.928 154.838 320.773 160.386 359.431 161.619L360.192 160.576V161.619C373.934 162.046 387.391 161.904 401.038 160.813L414.97 159.722C458.336 156.972 531.373 162.805 581.348 167.974C581.348 167.595 581.253 167.263 581.158 166.883C540.645 162.52 490.812 158.252 452.772 157.493C421.199 156.782 408.741 158.537 404.794 158.727Z" fill="url(#paint11_linear)"/>
<path opacity="0.46" d="M371.462 145.922C362.047 145.495 281.449 141.939 274.697 145.733C263.095 152.277 396.996 153.273 424.195 152.419C435.559 152.04 436.986 151.518 437.366 151.044C437.509 150.902 437.651 150.57 436.653 150.19C426.762 146.776 374.315 145.922 371.462 145.922ZM276.742 146.728C271.464 142.84 359.146 146.302 371.224 146.823C382.826 147.013 425.574 148.009 434.751 150.807C423.909 153.131 282.876 151.234 276.742 146.728Z" fill="url(#paint12_linear)"/>
<path opacity="0.46" d="M464.184 172.859C425.05 170.677 385.536 168.638 360.335 167.879V168.828C381.97 169.492 414.161 171.104 447.589 172.906L464.184 172.859Z" fill="url(#paint13_linear)"/>
<path opacity="0.46" d="M342.741 168.448C345.879 168.448 349.779 168.496 354.248 168.638L354.914 167.737C350.159 167.595 346.022 167.547 342.741 167.547C300.992 167.547 255.772 168.022 226.529 171.246C227.242 171.483 227.955 171.721 228.621 172.005C257.579 168.923 301.801 168.448 342.741 168.448Z" fill="url(#paint14_linear)"/>
<path opacity="0.46" d="M126.007 166.409C112.883 165.461 73.4168 167.215 42.0337 168.923L42.6518 169.824C73.8447 168.164 112.883 166.409 125.532 167.31C136.801 168.164 151.874 171.057 167.661 173.143L175.982 173.191C157.676 171.199 139.321 167.405 126.007 166.409Z" fill="url(#paint15_linear)"/>
<path opacity="0.46" d="M439.696 165.129C424.1 165.603 392.479 164.607 360.24 163.327L360.287 165.224C392.526 166.504 424.337 167.5 440.076 166.978C458.573 166.409 502.605 169.587 540.264 172.717L562.375 172.669C521.625 169.065 462.663 164.417 439.696 165.129Z" fill="url(#paint16_linear)"/>
<path opacity="0.46" d="M140.748 161.43C167.899 162.852 148.832 173.855 234.802 164.133C266.138 160.576 260.479 160.908 314.639 163.279C327.715 163.848 342.313 164.512 356.911 165.081L358.29 163.232C317.635 161.619 276.646 159.58 266.518 159.58C248.069 159.58 215.45 165.698 186.064 166.219C157.201 166.741 163.905 160.766 141.462 159.58C130.287 159.011 86.2559 160.291 46.5516 161.667L45.1726 163.611C85.1147 162.188 129.907 160.861 140.748 161.43Z" fill="url(#paint17_linear)"/>
</g>
<path d="M256.105 146.586L259.766 152.609L277.075 151.992L272.795 146.112L256.105 146.586Z" fill="url(#paint18_linear)"/>
<path d="M277.075 151.992L273.081 146.444L282.4 123.538L281.021 147.155L277.075 151.992Z" fill="url(#paint19_linear)"/>
<path d="M455.292 108.505L458.478 98.309L476.167 145.922C476.167 145.922 477.593 147.535 481.397 147.867C485.201 148.199 499.799 147.392 499.799 147.392L495.425 153.652C495.425 153.652 495.092 154.933 487.959 154.506C485.011 154.364 482.015 154.411 479.067 154.648C474.883 154.98 470.984 152.467 469.557 148.483L455.292 108.505Z" fill="url(#paint20_linear)"/>
<path d="M144.315 156.687C143.744 155.075 143.459 153.368 143.364 151.66L192.959 152.419C192.959 152.419 195.954 151.471 196.715 149.432C197.476 147.392 200.376 140.469 200.376 140.469L204.513 149.1L198.997 159.912L197.714 160.576L146.597 161.145C145.694 159.722 144.933 158.252 144.315 156.687Z" fill="url(#paint21_linear)"/>
<path d="M195.526 83.1809L199.045 95.9853L185.208 132.075L176.031 131.885L195.526 83.1809Z" fill="url(#paint22_linear)"/>
<path d="M200.567 140.99C200.567 140.99 204.846 152.419 209.839 155.217C214.832 158.015 220.728 161.572 230.048 158.869C239.367 156.166 246.88 149.858 251.445 142.934L258.102 129.846L260.86 103.763L257.674 94.7048C257.674 94.7048 259.006 104.759 258.292 109.406C257.579 114.054 255.059 123.206 251.778 128.85C248.497 134.493 243.076 140.089 238.416 143.504C233.757 146.918 224.104 151.139 222.82 151.471C221.536 151.803 213.928 150.475 212.121 149.526C210.314 148.578 202.611 139.852 202.611 139.852C202.611 139.852 200.043 133.402 199.758 133.45C199.473 133.497 200.567 140.99 200.567 140.99Z" fill="url(#paint23_linear)"/>
<path d="M306.318 87.4965L304.701 84.0345L327.288 83.4655L326.812 90.579H326.384L321.011 91.48L318.348 87.3068L306.318 87.4965Z" fill="url(#paint24_linear)"/>
<path d="M368.894 81.4736L349.588 82.9438L349.874 90.2944L362.237 90.1522L368.894 81.4736Z" fill="url(#paint25_linear)"/>
<path d="M327.715 152.324L322.865 144.926L352.441 145.116L349.113 152.467L327.715 152.324Z" fill="url(#paint26_linear)"/>
<path d="M402.845 135.394C402.845 135.394 397.709 153.605 385.774 153.889C373.839 154.174 371.366 151.423 368.751 149.432C366.136 147.44 356.198 140.089 353.63 128.85C351.063 117.61 353.06 106.703 355.485 102.387C357.91 98.0719 360.525 93.7563 360.525 93.7563C360.525 93.7563 353.725 110.449 359.099 121.641C364.472 132.833 371.366 140.895 373.364 142.081C375.361 143.267 381.875 145.401 381.875 145.401C381.875 145.401 386.773 145.116 390.672 143.836C394.571 142.555 399.754 140.801 400.467 139.662C401.18 138.524 402.845 135.394 402.845 135.394Z" fill="url(#paint27_linear)"/>
<path d="M455.007 108.126C455.007 108.126 452.725 118.369 448.968 120.029C445.212 121.689 431.232 121.831 431.232 121.831L428.332 114.907L447.352 113.579C447.352 113.579 451.441 113.058 452.059 112.299C452.677 111.54 455.007 108.126 455.007 108.126Z" fill="url(#paint28_linear)"/>
<path d="M493.38 132.596C493.38 132.169 487.484 102.34 487.484 102.34C487.484 102.34 487.008 99.3523 487.959 97.9296C489.386 95.6533 493.903 91.48 493.903 91.48L502.034 140.516C502.034 140.516 503.603 146.776 504.602 147.772C505.6 148.768 509.119 150.001 512.685 149.858C514.73 149.811 516.727 149.289 518.486 148.246L514.825 155.739C514.825 155.739 513.541 156.735 508.501 156.735C503.461 156.735 502.272 157.162 500.132 155.739C497.992 154.316 496.994 151.234 496.994 151.234L500.132 146.539L493.38 132.596Z" fill="url(#paint29_linear)"/>
<path d="M560.283 150.048L554.672 156.877C554.672 156.877 554.435 157.399 550.203 157.446C547.492 157.494 544.782 157.351 542.071 157.019C541.311 156.687 540.597 156.166 540.027 155.502C539.028 154.364 527.188 139.899 527.188 139.899L515.919 140.184L513.018 133.639L529.899 133.592L539.837 145.116C539.837 145.116 544.259 150.238 546.066 150.617C547.873 150.996 554.482 150.854 554.482 150.854L560.283 150.048Z" fill="url(#paint30_linear)"/>
<path d="M77.4119 151.091L81.4536 159.438C82.4522 160.054 83.4983 160.576 84.6395 160.861C86.066 161.145 101.662 160.908 101.662 160.908L106.845 160.671C106.845 160.671 109.794 160.908 111.172 158.537C112.551 156.166 129.812 127.095 129.812 127.095L124.819 118.322L106.085 149.289C106.085 149.289 104.611 151.898 102.423 152.277C100.236 152.656 77.4119 151.091 77.4119 151.091Z" fill="url(#paint31_linear)"/>
<path d="M129.669 127.427C129.669 127.427 146.597 127.427 148.642 126.81C150.686 126.194 155.441 123.918 156.202 123.206C157.058 122.258 157.866 121.262 158.627 120.171L164.619 106.798C164.619 106.798 158.913 113.627 155.204 115.287C151.495 116.946 151.257 116.994 149.07 117.231C146.882 117.468 124.867 118.274 124.867 118.274L129.669 127.427Z" fill="url(#paint32_linear)"/>
<path d="M132.903 100.633L141.604 86.1686L153.207 86.5954C154.348 87.2119 154.823 88.5872 154.348 89.7253C153.587 92.0017 151.875 95.9378 149.213 98.2142C146.217 100.775 144.933 101.344 143.174 101.344C141.414 101.344 137.61 101.439 137.61 101.439L132.903 100.633Z" fill="url(#paint33_linear)"/>
<path d="M76.7461 150.38L81.5487 160.197C81.5487 160.197 83.1178 161.335 87.8253 161.287C92.5327 161.24 104.278 161.572 106.703 161.003C109.128 160.434 107.986 160.623 107.986 160.623L104.896 151.139C104.087 151.708 103.231 152.182 102.28 152.514C101.139 152.799 91.1062 152.23 91.1062 152.23L76.7461 150.38Z" fill="url(#paint34_linear)"/>
<path d="M281.021 147.155L284.54 152.419L303.322 152.04L298.995 146.302L280.974 146.159L281.021 147.155Z" fill="url(#paint35_linear)"/>
<path d="M299.09 146.586L318.538 87.2119L323.341 94.61L303.322 152.04L299.09 146.586Z" fill="url(#paint36_linear)"/>
<path d="M271.844 115.619L274.507 87.6861L280.974 94.7522L271.844 115.619Z" fill="url(#paint37_linear)"/>
<path d="M296.047 92.8553L301.04 100.917L295.572 114.812L296.047 92.8553Z" fill="url(#paint38_linear)"/>
<path d="M438.412 148.815L433.086 156.071H414.494L412.925 155.359L416.967 148.246C416.967 148.246 417.347 149.242 419.582 149.242C421.817 149.242 438.412 148.815 438.412 148.815Z" fill="url(#paint39_linear)"/>
<path d="M413.02 155.644C413.02 155.644 411.071 154.79 410.881 153.747L410.643 152.656L404.794 122.969C404.794 122.969 403.51 114.907 402.036 109.833C400.657 105.233 400.325 105.28 400.325 105.28L399.706 102.53L397.757 93.3295L402.654 82.9912L412.735 131.553L415.636 145.78L418.061 149.242L413.02 155.644Z" fill="url(#paint40_linear)"/>
<path d="M105.514 150.427C105.514 150.427 104.23 153.036 98.2863 153.178C92.3425 153.32 78.5054 151.566 78.5054 151.566C78.5054 151.566 73.8931 151.755 78.9334 144.547C83.9737 137.339 131.571 70.0445 131.571 70.0445C131.571 70.0445 131.571 67.8631 141.081 68.3373C150.591 68.8115 162.574 70.1868 162.574 70.1868C162.574 70.1868 170.753 72.6528 172.56 79.0076C174.604 86.1211 169.041 96.2223 169.041 96.2223L164.571 106.845C164.571 106.845 160.339 113.911 154.776 116.045C145.408 119.65 124.772 118.369 124.772 118.369L105.514 150.427Z" fill="url(#paint41_linear)"/>
<path d="M199.616 132.691L185.113 132.454L175.936 132.312L194.575 87.6861C194.575 87.6861 195.764 85.3149 195.431 83.6077C195.384 83.4654 195.384 83.3231 195.288 83.2283C194.956 82.4695 194.242 81.9478 192.768 81.9478C187.68 81.9953 180.12 81.9478 180.12 81.9478C180.12 81.9478 176.887 81.7582 175.317 85.6469C173.083 91.148 143.697 150.665 143.697 150.665C143.411 151.044 143.316 151.518 143.364 151.945C143.411 152.04 143.411 152.135 143.506 152.23C143.934 152.941 145.313 153.605 149.212 153.463C154.776 153.225 182.117 153.036 191.817 152.988C193.91 152.988 195.764 151.755 196.62 149.858L200.471 140.848L200.567 140.231L199.616 132.691Z" fill="url(#paint42_linear)"/>
<path d="M210.695 149.289C210.695 149.289 198.142 139.378 199.425 128.66C200.709 117.942 204.513 102.008 214.356 92.6182C224.199 83.2283 230.904 79.7664 241.174 80.0035C251.445 80.2406 255.107 86.6902 257.627 94.6574C260.147 102.625 257.722 116.994 256.2 120.219C254.679 123.443 250.399 134.256 241.602 141.275C232.806 148.293 225.578 151.423 222.107 152.04C218.636 152.656 210.695 149.289 210.695 149.289Z" fill="url(#paint43_linear)"/>
<path d="M256.105 146.586L262.524 87.7809L274.983 88.0181L271.844 116.614L281.354 93.8511L295.952 92.4759L295.191 115.524L306.318 87.2593L318.586 87.1644L299.091 146.586L280.974 146.159L282.21 124.392L273.081 146.444L256.105 146.586Z" fill="url(#paint44_linear)"/>
<path d="M327.192 83.5128L304.701 84.0819L305.272 72.3209L307.459 71.3724L367.61 62.3619L370.178 64.828L368.894 81.521L349.588 82.9437L352.441 145.116L350.159 146.823L325.053 146.965L322.865 144.926L327.192 83.5128Z" fill="url(#paint45_linear)"/>
<path d="M384.776 145.97C384.776 145.97 363.14 143.93 357.957 119.934C357.957 119.934 354.058 110.165 358.671 97.7873C363.283 85.4098 373.792 85.1252 374.838 85.1252C375.884 85.1252 390.292 86.9748 396.33 96.7914C402.369 106.608 405.127 114.054 405.127 122.116C405.127 130.178 402.797 136.2 401.085 139.093C399.374 141.986 394.714 143.978 392.717 144.689C390.72 145.401 384.776 145.97 384.776 145.97Z" fill="url(#paint46_linear)"/>
<path d="M415.493 145.685L402.655 82.9437L435.987 83.086C435.987 83.086 443.785 83.6551 446.068 86.1211C448.35 88.5871 455.435 105.517 455.435 105.517C455.435 105.517 455.102 112.441 450.633 113.579C446.163 114.717 428.76 114.86 428.76 114.86L440.172 145.353C440.172 145.353 440.029 149.242 436.843 149.242H418.917L416.92 148.246L415.636 145.827L415.493 145.685Z" fill="url(#paint47_linear)"/>
<path d="M474.883 144.073L458.431 98.3564C458.431 98.3564 459.429 97.645 465.944 97.2182C472.458 96.7914 475.882 97.5028 475.882 97.5028L500.085 145.401C500.085 145.401 500.513 148.578 497.612 148.578C494.711 148.578 479.305 148.862 479.305 148.862C479.305 148.862 476.072 146.823 474.883 144.073Z" fill="url(#paint48_linear)"/>
<path d="M503.318 146.254L492.049 96.0326C492.049 96.0326 492.762 90.5789 495.377 91.0057C497.992 91.4326 512.257 104.521 512.257 104.521L548.015 137.623L559.855 148.862C559.855 148.862 562.47 150.427 556.669 151.186C553.055 151.613 549.346 151.566 545.733 151.044C545.733 151.044 541.263 148.009 536.508 141.986C531.753 135.963 529.708 133.924 529.708 133.924L513.256 134.066L518.582 147.155C518.582 147.155 519.152 150.19 514.397 150.19C509.642 150.19 506.742 150.048 506.742 150.048L504.649 148.483L503.318 146.254Z" fill="url(#paint49_linear)"/>
<path d="M469.129 86.7376C469.129 86.7376 466.657 95.8904 456.576 91.812C447.875 88.2552 452.297 80.0035 452.297 80.0035L469.129 86.7376Z" fill="url(#paint50_linear)"/>
<path d="M462.425 89.6779C462.425 89.6779 456.862 89.2985 454.722 86.7376C452.582 84.1768 451.726 82.185 452.202 80.3829C452.677 78.5808 454.96 76.6364 457.765 76.7787C460.57 76.9209 464.137 78.154 466.134 79.7189C468.131 81.2839 469.225 82.4695 469.462 83.4654C469.7 84.4613 469.653 86.2634 468.939 87.0696C468.226 87.8758 466.99 88.5397 466.134 89.0614C465.278 89.5831 462.425 89.6779 462.425 89.6779Z" fill="url(#paint51_linear)"/>
<g opacity="0.25">
<path opacity="0.25" d="M157.771 114.386C159.198 113.342 160.529 112.157 161.671 110.829C142.318 110.355 122.537 110.212 102.946 110.639L100.806 113.627C119.874 113.485 139.037 113.769 157.771 114.386Z" fill="#CE7F42"/>
<path opacity="0.25" d="M184.685 111.635C177.647 111.35 170.515 111.113 163.335 110.924C162.764 112.109 162.146 113.342 161.575 114.528C168.851 114.765 176.031 115.097 183.116 115.429L184.685 111.635Z" fill="#CE7F42"/>
<path opacity="0.25" d="M257.294 117.041C257.579 115.856 257.864 114.386 258.102 112.868C240.699 112.773 223.438 112.678 206.272 112.631L202.992 112.441C202.564 113.769 202.183 115.097 201.85 116.425C203.087 116.472 204.323 116.567 205.607 116.662L257.294 117.041Z" fill="#CE7F42"/>
<path opacity="0.25" d="M295.381 113.058L273.413 112.915H272.319L259.909 112.868L259.433 117.089C277.598 117.231 294.002 117.326 308.743 117.468L310.122 113.247L296.285 113.105L295.381 113.058Z" fill="#CE7F42"/>
<path opacity="0.25" d="M351.062 113.579C342.408 113.485 333.802 113.39 325.148 113.342L324.862 117.563L351.253 117.753L351.062 113.579Z" fill="#CE7F42"/>
<path opacity="0.25" d="M376.74 117.895H375.693H376.74H378.214H378.879H379.925H381.019H381.067L389.103 117.942H389.15H390.577H393.905H398.042H399.041H400.515H401.323H402.322H404.984C404.842 116.614 404.604 115.334 404.319 114.054C388.437 113.864 372.555 113.674 356.721 113.485C356.864 114.86 357.101 116.235 357.434 117.61C364.091 117.658 370.13 117.705 375.693 117.753L376.74 117.895ZM391.337 118.037H392.716H393.905H390.624H391.337ZM389.293 118.037L389.245 117.99L389.293 118.037ZM382.969 118.037H385.964H387.438H389.198L381.162 117.99C381.685 117.99 382.303 117.99 382.874 117.99L382.969 118.037ZM381.162 118.037C381.162 118.037 381.019 117.99 381.019 117.942L381.162 118.037ZM379.307 118.037H379.355H379.925H378.974H379.212L379.117 117.942L379.307 118.037Z" fill="#CE7F42"/>
<path opacity="0.25" d="M409.977 118.132L429.14 118.274H430.138L428.854 114.765C428.854 114.765 431.945 114.718 435.844 114.623C426.952 114.48 418.061 114.386 409.169 114.243L409.977 118.132Z" fill="#CE7F42"/>
<path opacity="0.25" d="M485.154 115.429C478.306 115.334 471.459 115.192 464.612 115.097L465.848 118.511C472.41 118.559 479.353 118.606 486.77 118.654L485.154 115.429Z" fill="#CE7F42"/>
<path opacity="0.25" d="M527.426 118.369C524.62 118.085 523.289 117.136 523.337 116.14C514.445 115.951 505.505 115.808 496.614 115.666L497.279 118.701L527.949 118.891L527.426 118.369Z" fill="#CE7F42"/>
<path opacity="0.25" d="M136.421 91.6697C136.421 91.7171 136.374 91.7645 136.374 91.8119C150.163 92.0016 160.054 92.6182 170.467 93.4718C170.61 93.1872 170.705 92.9027 170.848 92.5707C159.055 91.8594 148.071 91.48 136.421 91.6697Z" fill="#CE7F42"/>
<path opacity="0.25" d="M167.614 99.9688L168.423 98.0719C150.782 98.1193 131.191 98.0719 111.933 97.9296L110.602 99.8265C131.096 99.9688 150.972 100.064 167.614 99.9688Z" fill="#CE7F42"/>
<path opacity="0.25" d="M166.521 102.577C146.312 103.241 125.96 104.047 107.083 104.806C106.417 105.755 105.752 106.703 105.086 107.651C127.672 107.225 147.453 106.798 164.904 106.466L166.521 102.577Z" fill="#CE7F42"/>
<path opacity="0.25" d="M172.417 87.8758C155.822 87.4016 137.563 87.2119 119.541 87.2119L118.162 89.1563C136.612 89.1563 155.204 89.346 171.894 89.7728C172.084 89.1563 172.227 88.4924 172.417 87.8758Z" fill="#CE7F42"/>
<path opacity="0.25" d="M192.008 94.0409C184.97 93.5192 178.408 93.045 172.132 92.6656C171.989 92.9501 171.846 93.2821 171.704 93.6141C177.79 94.1357 184.114 94.7522 191.484 95.3688L192.008 94.0409Z" fill="#CE7F42"/>
<path opacity="0.25" d="M188.774 101.866C181.689 102.103 174.557 102.293 167.377 102.577C166.758 103.858 166.14 105.138 165.475 106.466L187.015 106.039L188.774 101.866Z" fill="#CE7F42"/>
<path opacity="0.25" d="M258.72 100.253C243.837 100.443 226.386 100.775 207.794 101.297C206.986 102.719 206.273 104.142 205.607 105.66C228.431 105.233 245.549 104.948 258.815 104.759C258.863 103.194 258.815 101.676 258.72 100.253Z" fill="#CE7F42"/>
<path opacity="0.25" d="M258.673 99.6843C258.625 99.1152 258.578 98.5935 258.483 98.0719C250.256 97.7399 242.648 97.3605 235.516 96.9337C236.086 96.744 236.61 96.4595 237.037 95.9853C237.656 95.3213 237.703 94.3254 234.422 93.2347C230.856 92.0491 224.817 91.0532 216.924 90.247C216.353 90.7687 215.735 91.2903 215.164 91.8594C224.579 92.7605 230.904 93.8986 232.806 95.3213C232.045 95.7481 230.19 96.0801 227.385 96.4121C221.917 96.0801 216.734 95.7481 211.788 95.4162C211.408 95.8904 211.028 96.3646 210.647 96.8863L215.592 97.2657C213.928 97.3605 212.121 97.408 210.219 97.4554C209.791 98.0719 209.363 98.6884 208.983 99.3049C218.683 98.9729 224.912 98.5461 229.002 98.0719C237.608 98.641 247.356 99.1626 258.673 99.6843Z" fill="#CE7F42"/>
<path opacity="0.25" d="M189.63 99.7791L190.391 97.8822C183.876 97.977 176.887 98.0245 169.516 98.0719L168.613 99.9688H170.99C177.885 99.9214 184.067 99.874 189.63 99.7791Z" fill="#CE7F42"/>
<path opacity="0.25" d="M194.242 88.6821C188.013 88.3501 181.356 88.113 174.366 87.9233C174.129 88.4449 173.843 89.1089 173.51 89.7728C180.595 89.9625 187.3 90.1996 193.482 90.4841L194.242 88.6821Z" fill="#CE7F42"/>
<path opacity="0.25" d="M295.619 104.711L295.81 99.2101C290.103 99.1152 284.588 98.973 279.31 98.7833L276.885 104.569C284.635 104.569 290.579 104.616 295.619 104.711Z" fill="#CE7F42"/>
<path opacity="0.25" d="M301.658 99.3049L301.087 100.728C305.367 100.775 309.741 100.822 314.116 100.87L314.544 99.542C310.122 99.4946 305.842 99.3997 301.658 99.3049Z" fill="#CE7F42"/>
<path opacity="0.25" d="M299.471 104.806C304.178 104.948 308.22 105.185 312.595 105.47L313.974 101.297C309.504 101.107 305.224 100.87 301.087 100.728L299.471 104.806Z" fill="#CE7F42"/>
<path opacity="0.25" d="M273.698 100.159L273.889 98.641C269.609 98.4987 265.472 98.3564 261.478 98.2142L261.288 99.8266L263.237 99.9214L273.698 100.159Z" fill="#CE7F42"/>
<path opacity="0.25" d="M273.699 100.159C269.799 100.159 265.663 100.159 261.24 100.206L260.765 104.711C265.377 104.664 269.514 104.616 273.223 104.569L273.699 100.159Z" fill="#CE7F42"/>
<path opacity="0.25" d="M350.587 103.194C342.171 102.719 333.897 102.293 326.004 101.866L325.671 106.371C332.09 106.798 340.031 107.319 350.825 107.936L350.587 103.194Z" fill="#CE7F42"/>
<path opacity="0.25" d="M350.444 99.6369C341.98 99.6369 333.897 99.6369 326.194 99.5895L326.099 100.87C333.944 100.87 342.028 100.728 350.492 100.585L350.444 99.6369Z" fill="#CE7F42"/>
<path opacity="0.25" d="M397.757 98.9255C384.966 99.3049 371.795 99.5894 358.1 99.6368C358.005 99.9214 357.91 100.206 357.862 100.443C372.508 100.206 385.869 99.9214 398.185 99.5894C397.995 99.3523 397.9 99.1626 397.757 98.9255Z" fill="#CE7F42"/>
<path opacity="0.25" d="M401.466 105.992C386.773 105.233 371.747 104.379 357.101 103.573C356.816 105.138 356.626 106.703 356.531 108.268C368.418 108.884 383.492 109.548 403.177 110.307C402.702 108.884 402.131 107.462 401.466 105.992Z" fill="#CE7F42"/>
<path opacity="0.25" d="M408.408 110.497C418.774 110.876 430.376 111.256 443.357 111.682C446.781 111.777 450.062 111.872 453.2 111.967C453.295 111.825 453.438 111.682 453.533 111.588C453.628 111.493 453.723 111.303 453.818 111.161V111.113C453.913 110.971 453.961 110.829 454.056 110.687C454.151 110.544 454.199 110.402 454.294 110.26C454.389 110.117 454.436 109.975 454.484 109.786C454.532 109.596 454.579 109.501 454.627 109.406C454.674 109.311 454.674 109.264 454.722 109.216C454.769 109.169 454.817 108.979 454.817 108.884C454.817 108.79 454.912 108.6 454.96 108.505V108.458C440.504 107.936 424.29 107.177 407.505 106.324L408.408 110.497Z" fill="#CE7F42"/>
<path opacity="0.25" d="M453.438 100.585C453.153 99.9688 452.867 99.3049 452.582 98.6409C449.253 98.4513 446.068 98.309 443.024 98.1193L452.202 97.7399C452.011 97.3605 451.869 96.9337 451.679 96.5543C445.592 96.8863 439.411 97.1708 433.134 97.5028C419.344 96.5543 410.167 95.4636 407.695 94.2305C411.261 92.9975 427.903 92.8553 450.109 93.2821C449.824 92.6656 449.491 92.0491 449.206 91.4326C427 91.1006 409.834 91.3851 404.747 92.8078L405.317 95.7007C408.028 96.6017 412.973 97.4079 419.677 98.1193C415.16 98.309 410.548 98.4987 405.888 98.6409L406.03 99.3997C413.163 99.21 419.867 98.9729 426.287 98.7832C434.037 99.4472 443.215 100.064 453.438 100.585Z" fill="#CE7F42"/>
<path opacity="0.25" d="M483.49 112.204L481.92 109.074C475.977 109.027 469.415 108.884 462.282 108.695L463.519 112.157C471.079 112.252 477.641 112.252 483.49 112.204Z" fill="#CE7F42"/>
<path opacity="0.25" d="M477.213 99.7317C470.794 99.4946 464.612 99.2101 458.811 98.973L459.524 100.917C465.468 101.202 471.745 101.486 478.212 101.724L477.213 99.7317Z" fill="#CE7F42"/>
<path opacity="0.25" d="M466.039 97.1234C465.706 97.1234 465.373 97.1708 465.088 97.1708L469.272 96.9811C468.273 96.9811 467.227 97.0286 466.039 97.1234Z" fill="#CE7F42"/>
<path opacity="0.25" d="M498.61 92.7604L493.142 92.5707C492.667 93.5666 492.381 94.6574 492.191 95.7481L501.796 95.2265C500.655 94.3254 499.561 93.4718 498.61 92.7604Z" fill="#CE7F42"/>
<path opacity="0.25" d="M508.311 100.775C503.175 100.633 498.087 100.443 493.142 100.301L493.57 102.245C499.133 102.435 504.839 102.625 510.545 102.767C509.927 102.245 509.119 101.534 508.311 100.775Z" fill="#CE7F42"/>
<path opacity="0.25" d="M516.299 108.078C510.451 108.221 504.649 108.505 498.896 108.837C497.66 108.884 496.423 108.932 495.092 108.979L495.758 111.967C504.554 111.73 511.925 111.303 519.438 110.971L516.299 108.078Z" fill="#CE7F42"/>
<path opacity="0.25" d="M88.3007 131.363L87.635 132.264C96.622 132.406 106.322 132.312 116.641 132.027L117.211 131.079C106.988 131.363 97.2877 131.458 88.3007 131.363Z" fill="#CE7F42"/>
<path opacity="0.25" d="M177.98 127.617L178.408 126.621C173.558 126.905 169.231 127.285 165.427 127.712C161.766 128.091 158.152 128.47 154.538 128.802L154.015 129.846C157.962 129.514 162.003 129.087 166.093 128.66C169.611 128.233 173.606 127.901 177.98 127.617Z" fill="#CE7F42"/>
<path opacity="0.25" d="M199.806 126.573C215.259 126.099 233.519 125.862 253.632 125.862C253.823 125.53 253.965 125.198 254.108 124.866C233.899 124.866 215.497 125.103 199.901 125.577C199.901 125.909 199.853 126.241 199.806 126.573Z" fill="#CE7F42"/>
<path opacity="0.25" d="M282.02 124.961C273.984 124.914 266.138 124.866 258.578 124.866L258.482 125.862C265.995 125.862 273.698 125.909 281.639 125.957H282.257C289.961 126.004 297.854 126.099 305.89 126.194L306.223 125.198C298.092 125.103 290.151 125.008 282.353 124.961H282.02Z" fill="#CE7F42"/>
<path opacity="0.25" d="M351.633 125.957C342.456 125.767 333.326 125.625 324.292 125.483L324.244 126.479C333.279 126.621 342.456 126.763 351.681 126.953L351.633 125.957Z" fill="#CE7F42"/>
<path opacity="0.25" d="M360.335 127.095C375.075 127.38 389.959 127.759 404.699 128.091C404.747 127.759 404.794 127.427 404.842 127.095C389.911 126.716 374.838 126.384 359.907 126.099C360.05 126.479 360.192 126.811 360.335 127.095Z" fill="#CE7F42"/>
<path opacity="0.25" d="M412.022 128.328C419.44 128.518 426.81 128.707 434.085 128.897L433.705 127.901C426.477 127.712 419.154 127.522 411.832 127.332L412.022 128.328Z" fill="#CE7F42"/>
<path opacity="0.25" d="M492.286 129.514L469.557 128.85L469.89 129.846L492.714 130.51L492.286 129.514Z" fill="#CE7F42"/>
<path opacity="0.25" d="M541.025 130.936C528.377 130.557 514.492 130.178 499.752 129.751L499.942 130.699C515.016 131.126 529.185 131.553 542.072 131.885L541.025 130.936Z" fill="#CE7F42"/>
<path opacity="0.25" d="M162.764 70.0446C162.764 70.0446 150.782 68.6219 141.271 68.1951H140.891L136.421 68.2425C131.761 68.6219 131.761 69.9497 131.761 69.9497L129.717 72.8426C142.936 72.7952 155.204 72.4632 166.806 71.9415C165.522 71.1827 164.143 70.5188 162.764 70.0446Z" fill="#CE7F42"/>
<path opacity="0.25" d="M370.225 65.6816C365.47 65.2548 360.382 64.7331 354.772 64.2115L337.654 66.7724C350.112 67.8157 360.715 68.7641 369.988 69.5229L370.225 65.6816Z" fill="#CE7F42"/>
<path opacity="0.25" d="M172.75 78.8654C172.702 78.6283 172.607 78.3912 172.512 78.154C172.369 77.8221 172.227 77.5375 172.084 77.2056C157.724 77.7746 142.365 78.2015 125.865 78.2489C125.628 78.5334 125.437 78.8654 125.2 79.1974L121.443 84.5088C137.753 84.983 155.584 85.5047 172.845 85.9315C173.273 83.5129 173.368 81.0469 172.75 78.8654Z" fill="#CE7F42"/>
<path opacity="0.25" d="M254.108 86.4531C251.54 82.6118 247.689 80.0984 241.317 79.9561C233.471 79.7664 227.765 81.7582 221.108 86.7851C235.326 86.9273 246.975 86.8799 254.108 86.4531Z" fill="#CE7F42"/>
<path opacity="0.25" d="M195.574 83.5129C195.526 83.3706 195.526 83.2283 195.431 83.1335V83.0861C195.098 82.3273 194.385 81.8056 192.911 81.8056C187.823 81.8531 180.263 81.8056 180.263 81.8056C180.263 81.8056 177.029 81.6159 175.46 85.5047L175.27 85.9315C182.069 86.1212 188.726 86.2635 195.193 86.3583C195.574 85.5047 195.669 84.5088 195.574 83.5129Z" fill="#CE7F42"/>
<path opacity="0.25" d="M349.636 82.8489L368.941 81.4262L369.512 74.0281C360.573 72.9374 348.019 71.6095 332.851 70.5188L324.102 70.1394C321.534 70.0446 318.919 69.9971 316.351 69.9497L307.507 71.2776L305.367 72.226L304.796 83.9871L327.288 83.418L327.097 86.3108C334.373 86.4057 341.933 86.5479 349.826 86.6428L349.636 82.8489Z" fill="#CE7F42"/>
<path opacity="0.25" d="M374.885 85.0304C372.365 85.1252 369.892 85.7892 367.657 86.9748L383.824 87.2593C380.971 86.0737 377.976 85.3624 374.885 85.0304Z" fill="#CE7F42"/>
<path opacity="0.25" d="M446.163 86.0263C443.833 83.6077 436.035 82.9912 436.035 82.9912L402.702 82.8489L403.653 87.5439C418.108 87.781 432.849 88.0181 447.542 88.2078C447.161 87.4016 446.686 86.6902 446.163 86.0263Z" fill="#CE7F42"/>
<path opacity="0.25" d="M468.987 86.9748C469.652 86.1686 469.748 84.3191 469.51 83.3232C469.272 82.3273 468.178 81.1417 466.181 79.5767C464.802 78.5809 463.281 77.8221 461.617 77.3478C459.096 77.4901 456.576 77.6324 454.104 77.7272C453.248 78.3437 452.582 79.1974 452.249 80.1933C451.774 81.9953 452.63 83.9871 454.769 86.548C455.435 87.2594 456.291 87.8284 457.194 88.2078L467.085 88.3501C467.846 88.0656 468.464 87.5913 468.987 86.9748Z" fill="#CE7F42"/>
<path opacity="0.25" d="M81.0256 141.702L110.935 141.559L112.123 139.615C101.805 139.71 91.772 139.805 82.3095 139.899C81.834 140.563 81.406 141.132 81.0256 141.702Z" fill="#CE7F42"/>
<path opacity="0.25" d="M203.419 141.132C218.968 141.132 231.379 141.132 241.697 141.275L241.745 141.227C242.934 140.279 244.075 139.236 245.121 138.097C230.998 138.003 216.496 137.86 201.375 137.671C201.993 138.904 202.659 140.042 203.419 141.132Z" fill="#CE7F42"/>
<path opacity="0.25" d="M150.116 137.765C164.999 138.287 180.215 138.666 195.669 138.998C180.928 139.046 165.189 139.141 149.403 139.236C149.07 139.947 148.689 140.658 148.404 141.322C168.898 141.227 186.016 141.18 200.471 141.132L200.662 140.658L200.757 140.042L200.424 137.623C184.495 137.433 167.947 137.196 150.544 136.912L150.116 137.765Z" fill="#CE7F42"/>
<path opacity="0.25" d="M281.972 130.225C281.116 130.32 280.355 130.462 279.69 130.557C278.881 130.652 278.121 130.889 277.407 131.268C276.266 132.027 276.742 132.691 278.549 133.355C279.595 133.687 280.641 133.971 281.734 134.161C286.252 135.062 293.527 135.774 302.514 136.39L302.847 135.394C293.099 134.778 285.586 134.066 281.83 133.213C280.974 133.07 280.165 132.786 279.404 132.359C279.262 132.264 279.167 132.122 279.167 131.98C279.167 131.885 279.214 131.837 279.262 131.743C279.547 131.411 280.498 131.173 281.972 130.984C286.109 130.415 294.525 130.272 304.511 130.367L304.796 129.466C295.239 129.419 286.965 129.656 281.972 130.225Z" fill="#CE7F42"/>
<path opacity="0.25" d="M281.497 138.287H276.504C270.085 138.287 263.618 138.24 257.104 138.192L256.723 141.512C263.713 141.654 269.562 141.891 274.887 142.128C277.075 142.223 279.167 142.365 281.259 142.508C287.536 142.935 293.384 143.409 299.994 144.025L300.659 141.939C294.525 141.417 288.154 140.895 281.354 140.421C279.5 140.279 277.645 140.184 275.696 140.089C273.746 139.994 271.797 139.852 269.704 139.757C271.749 139.757 273.746 139.757 275.791 139.757C277.645 139.757 279.5 139.757 281.354 139.757C288.011 139.757 294.668 139.757 301.325 139.71L301.801 138.24C295.144 138.287 288.344 138.287 281.497 138.287Z" fill="#CE7F42"/>
<path opacity="0.25" d="M351.871 130.747C343.93 130.415 334.04 130.035 324.007 129.798L323.959 130.747C333.945 131.031 343.93 131.411 351.918 131.743L351.871 130.747Z" fill="#CE7F42"/>
<path opacity="0.25" d="M322.96 144.879L324.292 146.112C327.525 146.349 330.806 146.586 334.04 146.823L350.159 146.728L351.3 145.875C341.553 145.495 332.328 144.784 322.96 143.978V144.879Z" fill="#CE7F42"/>
<path opacity="0.25" d="M352.204 137.244C342.408 137.054 332.661 136.769 323.579 136.438L323.483 137.481C330.996 137.765 338.937 138.002 346.926 138.192C339.08 138.24 331.282 138.287 323.436 138.334L323.341 139.71C332.993 139.615 342.599 139.52 352.251 139.425L352.204 137.244Z" fill="#CE7F42"/>
<path opacity="0.25" d="M384.87 145.875C384.87 145.875 385.203 145.827 385.774 145.78L384.538 145.827L384.87 145.875Z" fill="#CE7F42"/>
<path opacity="0.25" d="M367.515 137.481C368.133 138.05 368.751 138.619 369.369 139.093C380.068 138.951 390.719 138.761 401.371 138.572C401.561 138.24 401.751 137.908 401.941 137.528L395.189 137.623C386.773 137.67 377.31 137.576 367.515 137.481Z" fill="#CE7F42"/>
<path opacity="0.25" d="M362.475 131.221C362.712 131.6 362.903 131.932 363.14 132.264L367.42 132.454C373.649 132.549 389.531 132.928 403.415 133.734C403.51 133.402 403.605 133.07 403.7 132.738C387.486 131.79 369.274 131.505 367.658 131.458L362.475 131.221Z" fill="#CE7F42"/>
<path opacity="0.25" d="M428.569 136.627C428.712 136.485 428.902 136.106 427.998 135.726C425.573 134.778 419.963 134.019 413.068 133.402L413.258 134.446C419.154 134.967 423.862 135.584 426.144 136.39C424.575 136.769 420.153 137.101 413.829 137.291L414.019 138.287C421.817 138.145 429.615 137.955 437.366 137.765L437.033 136.912L427.666 137.101C428.094 137.007 428.379 136.864 428.569 136.627Z" fill="#CE7F42"/>
<path opacity="0.25" d="M415.16 143.598L415.493 145.306C422.102 145.069 430.281 144.974 440.124 145.021L439.458 143.267C429.853 143.219 421.817 143.361 415.16 143.598Z" fill="#CE7F42"/>
<path opacity="0.25" d="M476.357 146.064C483.632 146.396 491.478 146.871 499.847 147.392C500.085 146.966 500.227 146.444 500.227 145.97C491.24 145.306 482.872 144.784 475.168 144.405C475.501 144.974 475.882 145.543 476.357 146.064Z" fill="#CE7F42"/>
<path opacity="0.25" d="M495.377 135.679L472.173 136.2L472.41 136.912C480.209 136.675 487.912 136.485 495.615 136.248L495.377 135.679Z" fill="#CE7F42"/>
<path opacity="0.25" d="M544.877 134.493L530.802 134.825C530.897 134.92 530.992 135.015 531.088 135.157C535.795 135.015 540.455 134.873 545.115 134.683L544.877 134.493Z" fill="#CE7F42"/>
<path opacity="0.25" d="M545.828 150.902C549.299 151.376 552.818 151.471 556.289 151.091C552.247 150.665 548.3 150.238 544.449 149.858C545.305 150.57 545.828 150.902 545.828 150.902Z" fill="#CE7F42"/>
<path opacity="0.25" d="M504.412 147.724C508.881 148.056 513.494 148.388 518.249 148.768C518.534 148.388 518.724 147.914 518.724 147.44C513.446 146.966 508.358 146.586 503.461 146.207L504.412 147.724Z" fill="#CE7F42"/>
<path opacity="0.25" d="M501.178 136.106L514.112 135.726L513.922 135.252C509.595 135.347 505.315 135.442 501.036 135.536L501.178 136.106Z" fill="#CE7F42"/>
<path opacity="0.25" d="M78.648 151.423C78.648 151.423 81.5486 151.803 85.3051 152.182L93.5312 152.893C96.2416 152.799 98.9044 152.751 101.567 152.656C102.518 152.467 103.374 152.135 104.182 151.613C104.753 151.281 105.276 150.854 105.609 150.285L108.795 145.021C98.9995 145.163 88.586 145.353 78.3152 145.543C74.5587 151.613 78.648 151.423 78.648 151.423Z" fill="#CE7F42"/>
<path opacity="0.25" d="M146.692 144.737C144.933 148.341 143.839 150.522 143.839 150.522C143.554 150.902 143.459 151.376 143.506 151.85C143.554 151.945 143.554 152.04 143.649 152.135C143.792 152.372 144.029 152.562 144.267 152.704H144.41C146.026 152.846 147.786 153.083 149.593 153.32C155.727 153.083 182.402 152.894 191.96 152.846C192.768 152.846 193.529 152.656 194.242 152.324C173.273 151.992 175.935 146.302 156.155 144.974C154.062 144.879 150.829 144.784 146.692 144.737Z" fill="#CE7F42"/>
<path opacity="0.25" d="M222.249 151.992C224.056 151.613 225.816 150.997 227.48 150.19C223.581 150.617 220.015 150.949 216.734 151.234C218.731 151.85 220.87 152.277 222.249 151.992Z" fill="#CE7F42"/>
<path opacity="0.25" d="M259.386 146.491L273.176 146.349L273.366 145.922C268.658 145.875 263.998 146.064 259.386 146.491Z" fill="#CE7F42"/>
</g>
<path d="M238.844 115.429C233.566 126.716 226.196 125.435 223.628 124.629C221.06 123.823 217.161 118.369 223.01 108.031C228.859 97.6924 236.419 100.87 236.419 100.87C236.419 100.87 244.122 104.095 238.844 115.429Z" fill="url(#paint52_radial)"/>
<path d="M374.743 103.952C375.979 103.194 377.738 102.482 379.212 102.719C382.398 103.241 387.914 105.423 389.198 113.2C391.052 124.439 381.495 124.392 378.119 122.068C367.705 114.907 372.793 105.138 374.743 103.952Z" fill="url(#paint53_radial)"/>
<path d="M426.001 105.091L423.624 93.7089C423.624 93.7089 429.187 93.3295 433.372 93.0924C437.271 92.9027 438.079 93.946 438.079 93.946C438.079 93.946 440.029 98.0244 438.792 100.538C437.556 103.051 435.178 104.095 431.47 104.711C427.761 105.328 426.001 105.091 426.001 105.091Z" fill="url(#paint54_linear)"/>
<path d="M521.387 123.349C521.72 123.633 521.72 124.155 521.435 124.487C521.244 124.676 521.007 124.771 520.769 124.771C516.775 124.487 509.167 123.918 509.024 123.918C508.881 123.918 507.455 115.998 506.741 112.014C506.646 111.588 506.932 111.161 507.36 111.113C507.597 111.066 507.835 111.161 508.025 111.303L521.387 123.349Z" fill="url(#paint55_linear)"/>
<path d="M132.617 100.633L141.272 86.4057L152.969 86.6902C152.969 86.6902 156.44 87.4964 152.588 93.7089C148.737 99.9214 146.074 101.818 140.083 101.676C134.091 101.534 132.617 100.633 132.617 100.633Z" fill="url(#paint56_linear)"/>
<path d="M258.91 46.0008C258.102 45.4792 257.531 44.6256 257.436 43.6297C257.294 42.0647 258.102 40.9265 261.003 39.6461C263.903 38.3657 268.611 35.8522 268.135 30.5882C268.135 30.5882 271.416 33.5759 272.319 37.9388C273.223 42.3018 273.175 48.372 268.896 49.1782C264.616 49.9844 260.004 46.9493 260.004 46.9493L258.91 46.0008Z" fill="url(#paint57_linear)"/>
<path d="M255.487 48.3246C255.962 47.2338 256.818 46.4276 257.912 45.9534C259.766 45.1472 263.903 43.5348 265.663 41.5904C267.422 39.6461 268.373 38.6502 268.563 36.7532C268.563 36.7532 268.42 41.1162 266.471 42.9657C264.521 44.8152 261.954 45.1946 260.717 46.6173C259.481 48.04 258.863 49.7473 258.055 50.9803C257.674 51.6442 257.199 52.2133 256.676 52.7824L255.487 48.3246Z" fill="url(#paint58_linear)"/>
<path d="M240.604 41.5904C240.604 41.5904 241.84 44.2936 241.84 45.5266C241.84 46.7596 243.029 47.139 236.324 51.6442C229.62 56.1495 231.379 57.9041 231.379 57.9041C231.379 57.9041 228.716 54.2525 228.669 50.4586C228.621 46.6648 229.62 42.1595 231.522 40.5945C232.948 39.3615 234.803 38.8399 236.657 39.077C237.798 39.3615 238.939 39.6935 240.033 40.1203L240.604 41.5904Z" fill="url(#paint59_linear)"/>
<path d="M298.377 60.1805C298.377 60.1805 295.524 57.1928 295.001 55.1536C294.478 53.1144 293.907 47.5658 297.711 44.9101C301.515 42.2544 301.325 41.8276 310.502 41.2111C319.679 40.5946 326.907 39.5987 328.619 38.8399C328.619 38.8399 323.055 41.3534 320.63 47.2339C318.205 53.1144 319.014 55.3433 316.113 58.331C313.212 61.3187 311.025 62.5517 307.602 62.7414C304.178 62.9311 300.421 61.6506 300.421 61.6506L298.377 60.1805Z" fill="url(#paint60_linear)"/>
<path d="M211.598 76.3993C211.598 76.3993 216.543 67.4837 220.728 65.0177C225.15 62.4094 226.339 61.5083 230.38 61.3661C234.422 61.2238 242.839 61.3661 245.882 59.9434C248.925 58.5207 251.635 53.4463 251.921 50.269C252.206 47.0916 250.066 44.4359 248.735 43.4874C247.403 42.5389 242.316 35.4254 242.173 34.8089C242.03 34.1924 247.451 39.6935 249.971 40.8317L252.444 42.0173C252.444 42.0173 258.483 45.3369 256.866 52.0711C255.249 58.8052 253.347 60.5599 255.202 62.4094C257.056 64.2589 263.285 69.5229 266.804 73.3642C270.323 77.2055 273.128 80.1932 277.265 81.1417C281.402 82.0901 286.585 83.7974 290.769 79.4819C294.953 75.1663 291.768 67.2466 291.768 67.2466C290.389 63.3579 287.298 60.3228 286.87 56.2443C286.68 53.5412 286.965 50.838 287.821 48.2772C287.821 48.2772 287.678 55.9124 292.148 62.5517C296.618 69.1909 300.85 74.8343 297.141 82.3273C293.432 89.8202 289.01 90.9109 280.784 90.9109C272.557 90.9109 270.323 89.4882 261.764 82.8489C253.204 76.2096 248.64 72.7951 243.742 74.123C238.844 75.4509 238.226 76.3519 238.226 76.3519L211.598 76.3993Z" fill="url(#paint61_linear)"/>
<path d="M246.357 40.7843C246.167 40.8317 240.556 39.8832 237.846 42.8709C235.135 45.8586 233.091 50.1741 233.091 50.1741C233.091 50.1741 233.376 45.2895 236.61 41.9699C239.843 38.6502 243.932 37.5595 244.36 37.7492C246.88 38.5554 246.357 40.7843 246.357 40.7843Z" fill="url(#paint62_linear)"/>
<path d="M294.097 65.492C295.714 63.8796 297.141 62.0775 298.377 60.1331C300.279 57.098 306.27 49.1308 307.982 47.8978C309.694 46.6648 311.976 44.8627 317.207 43.0132C322.437 41.1637 327.715 39.1245 327.525 39.2193C327.335 39.3142 315.828 43.2029 310.978 48.7989C306.128 54.3948 300.707 61.5558 299.708 63.9744C298.71 66.393 297.141 70.7085 297.141 70.7085C296.047 70.0446 295.096 69.1436 294.335 68.1002C293.194 66.393 294.097 65.492 294.097 65.492Z" fill="url(#paint63_linear)"/>
</g>
</g>
<defs>
<filter id="filter0_d" x="-8.20337" y="-19.4118" width="639.646" height="256.166" filterUnits="userSpaceOnUse" color-interpolation-filters="sRGB">
<feFlood flood-opacity="0" result="BackgroundImageFix"/>
<feColorMatrix in="SourceAlpha" type="matrix" values="0 0 0 0 0 0 0 0 0 0 0 0 0 0 0 0 0 0 127 0" result="hardAlpha"/>
<feOffset/>
<feGaussianBlur stdDeviation="25"/>
<feComposite in2="hardAlpha" operator="out"/>
<feColorMatrix type="matrix" values="0 0 0 0 1 0 0 0 0 0.95 0 0 0 0 0.616667 0 0 0 1 0"/>
<feBlend mode="normal" in2="BackgroundImageFix" result="effect1_dropShadow"/>
<feBlend mode="normal" in="SourceGraphic" in2="effect1_dropShadow" result="shape"/>
</filter>
<linearGradient id="paint0_linear" x1="334.332" y1="213.848" x2="360.833" y2="166.208" gradientUnits="userSpaceOnUse">
<stop stop-color="#724329"/>
<stop offset="1" stop-color="#451E0F"/>
</linearGradient>
<linearGradient id="paint1_linear" x1="187.786" y1="275.261" x2="202.639" y2="153.236" gradientUnits="userSpaceOnUse">
<stop stop-color="#724329"/>
<stop offset="1" stop-color="#451E0F"/>
</linearGradient>
<linearGradient id="paint2_linear" x1="469.859" y1="225.84" x2="470.814" y2="160.481" gradientUnits="userSpaceOnUse">
<stop stop-color="#724329"/>
<stop offset="1" stop-color="#451E0F"/>
</linearGradient>
<linearGradient id="paint3_linear" x1="309.15" y1="196.022" x2="321.069" y2="60.0814" gradientUnits="userSpaceOnUse">
<stop stop-color="#724329"/>
<stop offset="1" stop-color="#451E0F"/>
</linearGradient>
<linearGradient id="paint4_linear" x1="294.074" y1="8.33585" x2="288.91" y2="199.937" gradientUnits="userSpaceOnUse">
<stop stop-color="#724329"/>
<stop offset="1" stop-color="#451E0F"/>
</linearGradient>
<linearGradient id="paint5_linear" x1="312.82" y1="8.83916" x2="307.655" y2="200.441" gradientUnits="userSpaceOnUse">
<stop stop-color="#724329"/>
<stop offset="1" stop-color="#451E0F"/>
</linearGradient>
<linearGradient id="paint6_linear" x1="156.611" y1="4.63029" x2="151.446" y2="196.231" gradientUnits="userSpaceOnUse">
<stop stop-color="#724329"/>
<stop offset="1" stop-color="#451E0F"/>
</linearGradient>
<linearGradient id="paint7_linear" x1="315.551" y1="8.91383" x2="310.387" y2="200.515" gradientUnits="userSpaceOnUse">
<stop stop-color="#724329"/>
<stop offset="1" stop-color="#451E0F"/>
</linearGradient>
<linearGradient id="paint8_linear" x1="481.708" y1="13.3916" x2="476.543" y2="204.993" gradientUnits="userSpaceOnUse">
<stop stop-color="#724329"/>
<stop offset="1" stop-color="#451E0F"/>
</linearGradient>
<linearGradient id="paint9_linear" x1="317.005" y1="8.95272" x2="311.84" y2="200.554" gradientUnits="userSpaceOnUse">
<stop stop-color="#724329"/>
<stop offset="1" stop-color="#451E0F"/>
</linearGradient>
<linearGradient id="paint10_linear" x1="314.252" y1="8.87667" x2="309.087" y2="200.478" gradientUnits="userSpaceOnUse">
<stop stop-color="#724329"/>
<stop offset="1" stop-color="#451E0F"/>
</linearGradient>
<linearGradient id="paint11_linear" x1="319.536" y1="9.0215" x2="314.371" y2="200.623" gradientUnits="userSpaceOnUse">
<stop stop-color="#724329"/>
<stop offset="1" stop-color="#451E0F"/>
</linearGradient>
<linearGradient id="paint12_linear" x1="359.475" y1="10.0965" x2="354.31" y2="201.698" gradientUnits="userSpaceOnUse">
<stop stop-color="#724329"/>
<stop offset="1" stop-color="#451E0F"/>
</linearGradient>
<linearGradient id="paint13_linear" x1="416.566" y1="11.6357" x2="411.402" y2="203.237" gradientUnits="userSpaceOnUse">
<stop stop-color="#724329"/>
<stop offset="1" stop-color="#451E0F"/>
</linearGradient>
<linearGradient id="paint14_linear" x1="295.074" y1="8.35938" x2="289.909" y2="199.963" gradientUnits="userSpaceOnUse">
<stop stop-color="#724329"/>
<stop offset="1" stop-color="#451E0F"/>
</linearGradient>
<linearGradient id="paint15_linear" x1="113.562" y1="3.4668" x2="108.397" y2="195.07" gradientUnits="userSpaceOnUse">
<stop stop-color="#724329"/>
<stop offset="1" stop-color="#451E0F"/>
</linearGradient>
<linearGradient id="paint16_linear" x1="465.54" y1="12.9585" x2="460.375" y2="204.56" gradientUnits="userSpaceOnUse">
<stop stop-color="#724329"/>
<stop offset="1" stop-color="#451E0F"/>
</linearGradient>
<linearGradient id="paint17_linear" x1="205.957" y1="5.96059" x2="200.792" y2="197.562" gradientUnits="userSpaceOnUse">
<stop stop-color="#724329"/>
<stop offset="1" stop-color="#451E0F"/>
</linearGradient>
<linearGradient id="paint18_linear" x1="234.636" y1="96.763" x2="270.127" y2="155.42" gradientUnits="userSpaceOnUse">
<stop stop-color="#EA8801"/>
<stop offset="0.85" stop-color="#BC6600"/>
<stop offset="0.98" stop-color="#995000"/>
</linearGradient>
<linearGradient id="paint19_linear" x1="234.559" y1="160.778" x2="277.83" y2="138.609" gradientUnits="userSpaceOnUse">
<stop stop-color="#EA8801"/>
<stop offset="0.85" stop-color="#BC6600"/>
<stop offset="0.98" stop-color="#995000"/>
</linearGradient>
<linearGradient id="paint20_linear" x1="428.728" y1="98.1692" x2="474.564" y2="132.483" gradientUnits="userSpaceOnUse">
<stop stop-color="#EA8801"/>
<stop offset="0.85" stop-color="#BC6600"/>
<stop offset="0.98" stop-color="#995000"/>
</linearGradient>
<linearGradient id="paint21_linear" x1="234.166" y1="128.624" x2="188.167" y2="148.598" gradientUnits="userSpaceOnUse">
<stop stop-color="#EA8801"/>
<stop offset="0.85" stop-color="#BC6600"/>
<stop offset="0.98" stop-color="#995000"/>
</linearGradient>
<linearGradient id="paint22_linear" x1="176.023" y1="56.1206" x2="188.361" y2="118.419" gradientUnits="userSpaceOnUse">
<stop stop-color="#EA8801"/>
<stop offset="0.85" stop-color="#BC6600"/>
<stop offset="0.98" stop-color="#995000"/>
</linearGradient>
<linearGradient id="paint23_linear" x1="205.891" y1="71.7904" x2="243.035" y2="146.386" gradientUnits="userSpaceOnUse">
<stop stop-color="#EA8801"/>
<stop offset="0.85" stop-color="#BC6600"/>
<stop offset="0.98" stop-color="#995000"/>
</linearGradient>
<linearGradient id="paint24_linear" x1="308.135" y1="73.198" x2="313.413" y2="80.7184" gradientUnits="userSpaceOnUse">
<stop stop-color="#EA8801"/>
<stop offset="0.85" stop-color="#BC6600"/>
<stop offset="0.98" stop-color="#995000"/>
</linearGradient>
<linearGradient id="paint25_linear" x1="362.461" y1="58.4828" x2="358.952" y2="84.4545" gradientUnits="userSpaceOnUse">
<stop stop-color="#EA8801"/>
<stop offset="0.85" stop-color="#BC6600"/>
<stop offset="0.98" stop-color="#995000"/>
</linearGradient>
<linearGradient id="paint26_linear" x1="335.923" y1="104.839" x2="337.853" y2="149.835" gradientUnits="userSpaceOnUse">
<stop stop-color="#EA8801"/>
<stop offset="0.85" stop-color="#BC6600"/>
<stop offset="0.98" stop-color="#995000"/>
</linearGradient>
<linearGradient id="paint27_linear" x1="404.539" y1="63.4107" x2="368.03" y2="144.184" gradientUnits="userSpaceOnUse">
<stop stop-color="#EA8801"/>
<stop offset="0.85" stop-color="#BC6600"/>
<stop offset="0.98" stop-color="#995000"/>
</linearGradient>
<linearGradient id="paint28_linear" x1="455.912" y1="69.3906" x2="438.701" y2="120.906" gradientUnits="userSpaceOnUse">
<stop stop-color="#EA8801"/>
<stop offset="0.85" stop-color="#BC6600"/>
<stop offset="0.98" stop-color="#995000"/>
</linearGradient>
<linearGradient id="paint29_linear" x1="405.825" y1="53.7829" x2="513.062" y2="136.329" gradientUnits="userSpaceOnUse">
<stop stop-color="#EA8801"/>
<stop offset="0.6" stop-color="#BC6600"/>
<stop offset="1" stop-color="#995000"/>
</linearGradient>
<linearGradient id="paint30_linear" x1="576.887" y1="162.82" x2="535.819" y2="145.142" gradientUnits="userSpaceOnUse">
<stop stop-color="#EA8801"/>
<stop offset="0.6" stop-color="#BC6600"/>
<stop offset="1" stop-color="#995000"/>
</linearGradient>
<linearGradient id="paint31_linear" x1="57.6931" y1="113.113" x2="120.354" y2="148.857" gradientUnits="userSpaceOnUse">
<stop stop-color="#EA8801"/>
<stop offset="0.85" stop-color="#BC6600"/>
<stop offset="0.98" stop-color="#995000"/>
</linearGradient>
<linearGradient id="paint32_linear" x1="94.9277" y1="76.1262" x2="148.73" y2="118.634" gradientUnits="userSpaceOnUse">
<stop stop-color="#EA8801"/>
<stop offset="0.85" stop-color="#BC6600"/>
<stop offset="0.98" stop-color="#995000"/>
</linearGradient>
<linearGradient id="paint33_linear" x1="118.704" y1="73.3834" x2="147.2" y2="97.1888" gradientUnits="userSpaceOnUse">
<stop stop-color="#EA8801"/>
<stop offset="0.85" stop-color="#BC6600"/>
<stop offset="0.98" stop-color="#995000"/>
</linearGradient>
<linearGradient id="paint34_linear" x1="15.9837" y1="114.918" x2="110.939" y2="165.306" gradientUnits="userSpaceOnUse">
<stop stop-color="#EA8801"/>
<stop offset="0.85" stop-color="#BC6600"/>
<stop offset="0.98" stop-color="#995000"/>
</linearGradient>
<linearGradient id="paint35_linear" x1="263.342" y1="114.974" x2="296.408" y2="155.19" gradientUnits="userSpaceOnUse">
<stop stop-color="#EA8801"/>
<stop offset="0.85" stop-color="#BC6600"/>
<stop offset="0.98" stop-color="#995000"/>
</linearGradient>
<linearGradient id="paint36_linear" x1="271.773" y1="94.3161" x2="314.405" y2="122.034" gradientUnits="userSpaceOnUse">
<stop stop-color="#EA8801"/>
<stop offset="0.85" stop-color="#BC6600"/>
<stop offset="0.98" stop-color="#995000"/>
</linearGradient>
<linearGradient id="paint37_linear" x1="250.68" y1="87.1076" x2="275.167" y2="103.03" gradientUnits="userSpaceOnUse">
<stop stop-color="#EA8801"/>
<stop offset="0.85" stop-color="#BC6600"/>
<stop offset="0.98" stop-color="#995000"/>
</linearGradient>
<linearGradient id="paint38_linear" x1="275.82" y1="90.9148" x2="297.592" y2="105.071" gradientUnits="userSpaceOnUse">
<stop stop-color="#EA8801"/>
<stop offset="0.85" stop-color="#BC6600"/>
<stop offset="0.98" stop-color="#995000"/>
</linearGradient>
<linearGradient id="paint39_linear" x1="391.951" y1="110.084" x2="427.697" y2="154.893" gradientUnits="userSpaceOnUse">
<stop stop-color="#EA8801"/>
<stop offset="0.85" stop-color="#BC6600"/>
<stop offset="0.98" stop-color="#995000"/>
</linearGradient>
<linearGradient id="paint40_linear" x1="431.462" y1="76.0278" x2="412.36" y2="112.462" gradientUnits="userSpaceOnUse">
<stop stop-color="#EA8801"/>
<stop offset="0.85" stop-color="#BC6600"/>
<stop offset="0.98" stop-color="#995000"/>
</linearGradient>
<linearGradient id="paint41_linear" x1="92.6031" y1="175.293" x2="162.85" y2="55.167" gradientUnits="userSpaceOnUse">
<stop offset="0.19" stop-color="#FFE507"/>
<stop offset="0.94" stop-color="#FF9300"/>
</linearGradient>
<linearGradient id="paint42_linear" x1="171.629" y1="150.334" x2="181.959" y2="32.5201" gradientUnits="userSpaceOnUse">
<stop stop-color="#FFE507"/>
<stop offset="0.6" stop-color="#FF9300"/>
</linearGradient>
<linearGradient id="paint43_linear" x1="225.809" y1="154.681" x2="236.14" y2="36.8716" gradientUnits="userSpaceOnUse">
<stop offset="0.07" stop-color="#FFE507"/>
<stop offset="0.58" stop-color="#FF9300"/>
</linearGradient>
<linearGradient id="paint44_linear" x1="295.205" y1="198.676" x2="284.014" y2="81.7288" gradientUnits="userSpaceOnUse">
<stop offset="0.38" stop-color="#FFE507"/>
<stop offset="0.94" stop-color="#FF9300"/>
</linearGradient>
<linearGradient id="paint45_linear" x1="379.112" y1="203.504" x2="330.881" y2="56.704" gradientUnits="userSpaceOnUse">
<stop offset="0.11" stop-color="#FFE507"/>
<stop offset="0.25" stop-color="#FFE007"/>
<stop offset="0.41" stop-color="#FFD205"/>
<stop offset="0.58" stop-color="#FFBB03"/>
<stop offset="0.76" stop-color="#FF9A01"/>
<stop offset="0.8" stop-color="#FF9300"/>
</linearGradient>
<linearGradient id="paint46_linear" x1="399.077" y1="180.862" x2="371.951" y2="84.3786" gradientUnits="userSpaceOnUse">
<stop offset="0.31" stop-color="#FFE507"/>
<stop offset="0.89" stop-color="#FF9300"/>
</linearGradient>
<linearGradient id="paint47_linear" x1="456.274" y1="164.227" x2="415.879" y2="86.7857" gradientUnits="userSpaceOnUse">
<stop stop-color="#FFE507"/>
<stop offset="0.99" stop-color="#FF9300"/>
</linearGradient>
<linearGradient id="paint48_linear" x1="489.962" y1="150.195" x2="466.165" y2="96.6347" gradientUnits="userSpaceOnUse">
<stop stop-color="#FFE507"/>
<stop offset="1" stop-color="#FF9300"/>
</linearGradient>
<linearGradient id="paint49_linear" x1="550.228" y1="175.396" x2="494.833" y2="91.8657" gradientUnits="userSpaceOnUse">
<stop offset="0.13" stop-color="#FFE507"/>
<stop offset="1" stop-color="#FF9300"/>
</linearGradient>
<linearGradient id="paint50_linear" x1="427.267" y1="66.3874" x2="461.553" y2="88.6792" gradientUnits="userSpaceOnUse">
<stop stop-color="#EA8801"/>
<stop offset="0.85" stop-color="#BC6600"/>
<stop offset="0.98" stop-color="#995000"/>
</linearGradient>
<linearGradient id="paint51_linear" x1="429.629" y1="63.4156" x2="463.388" y2="85.3648" gradientUnits="userSpaceOnUse">
<stop stop-color="#FFE507"/>
<stop offset="1" stop-color="#FF9300"/>
</linearGradient>
<radialGradient id="paint52_radial" cx="0" cy="0" r="1" gradientUnits="userSpaceOnUse" gradientTransform="translate(242.762 122.959) scale(37.3364 35.0027)">
<stop offset="0.14" stop-color="#EA8801"/>
<stop offset="0.67" stop-color="#995000"/>
<stop offset="0.85" stop-color="#BC6600"/>
</radialGradient>
<radialGradient id="paint53_radial" cx="0" cy="0" r="1" gradientUnits="userSpaceOnUse" gradientTransform="translate(377.188 120.16) rotate(-15.6689) scale(20.2203 26.2601)">
<stop stop-color="#EA8801"/>
<stop offset="0.48" stop-color="#995000"/>
</radialGradient>
<linearGradient id="paint54_linear" x1="377.146" y1="52.528" x2="434.67" y2="102.043" gradientUnits="userSpaceOnUse">
<stop stop-color="#EA8801"/>
<stop offset="0.91" stop-color="#BC6600"/>
<stop offset="1" stop-color="#9E5000"/>
</linearGradient>
<linearGradient id="paint55_linear" x1="469.561" y1="152.08" x2="513.016" y2="118.648" gradientUnits="userSpaceOnUse">
<stop stop-color="#EA8801"/>
<stop offset="0.91" stop-color="#BC6600"/>
<stop offset="1" stop-color="#9E5000"/>
</linearGradient>
<linearGradient id="paint56_linear" x1="192.402" y1="45.3411" x2="143.731" y2="94.1464" gradientUnits="userSpaceOnUse">
<stop stop-color="#EA8801"/>
<stop offset="0.91" stop-color="#BC6600"/>
<stop offset="1" stop-color="#9E5000"/>
</linearGradient>
<linearGradient id="paint57_linear" x1="256.46" y1="54.3797" x2="278.554" y2="28.1485" gradientUnits="userSpaceOnUse">
<stop offset="0.38" stop-color="#266922"/>
<stop offset="0.49" stop-color="#2B6F26"/>
<stop offset="0.65" stop-color="#3A8030"/>
<stop offset="0.83" stop-color="#529C41"/>
<stop offset="0.86" stop-color="#58A345"/>
</linearGradient>
<linearGradient id="paint58_linear" x1="251.522" y1="55.9513" x2="263.659" y2="42.4461" gradientUnits="userSpaceOnUse">
<stop offset="0.38" stop-color="#266922"/>
<stop offset="0.49" stop-color="#2B6F26"/>
<stop offset="0.65" stop-color="#3A8030"/>
<stop offset="0.83" stop-color="#529C41"/>
<stop offset="0.86" stop-color="#58A345"/>
</linearGradient>
<linearGradient id="paint59_linear" x1="248.364" y1="32.258" x2="222.718" y2="58.1296" gradientUnits="userSpaceOnUse">
<stop offset="0.38" stop-color="#266922"/>
<stop offset="0.49" stop-color="#2B6F26"/>
<stop offset="0.65" stop-color="#3A8030"/>
<stop offset="0.83" stop-color="#529C41"/>
<stop offset="0.86" stop-color="#58A345"/>
</linearGradient>
<linearGradient id="paint60_linear" x1="317.316" y1="60.3492" x2="307.409" y2="36.2442" gradientUnits="userSpaceOnUse">
<stop offset="0.38" stop-color="#266922"/>
<stop offset="0.49" stop-color="#2B6F26"/>
<stop offset="0.65" stop-color="#3A8030"/>
<stop offset="0.83" stop-color="#529C41"/>
<stop offset="0.86" stop-color="#58A345"/>
</linearGradient>
<linearGradient id="paint61_linear" x1="297.634" y1="123.622" x2="226.459" y2="32.1433" gradientUnits="userSpaceOnUse">
<stop offset="0.32" stop-color="#266922"/>
<stop offset="0.62" stop-color="#58A345"/>
<stop offset="0.76" stop-color="#32762D"/>
</linearGradient>
<linearGradient id="paint62_linear" x1="248.179" y1="38.1541" x2="233.809" y2="46.3438" gradientUnits="userSpaceOnUse">
<stop offset="0.38" stop-color="#266922"/>
<stop offset="0.49" stop-color="#2B6F26"/>
<stop offset="0.65" stop-color="#3A8030"/>
<stop offset="0.83" stop-color="#529C41"/>
<stop offset="0.86" stop-color="#58A345"/>
</linearGradient>
<linearGradient id="paint63_linear" x1="295.606" y1="82.7736" x2="314.63" y2="44.5191" gradientUnits="userSpaceOnUse">
<stop offset="0.38" stop-color="#266922"/>
<stop offset="0.49" stop-color="#2B6F26"/>
<stop offset="0.65" stop-color="#3A8030"/>
<stop offset="0.83" stop-color="#529C41"/>
<stop offset="0.86" stop-color="#58A345"/>
</linearGradient>
<clipPath id="clip0">
<rect width="624" height="231" fill="white"/>
</clipPath>
</defs>
</svg>
