<svg width="750" height="269" viewBox="0 0 750 269" fill="none" xmlns="http://www.w3.org/2000/svg">
<g filter="url(#filter0_d)">
<path d="M428.271 232.345L423.855 214.978L436.686 198.029L436.567 221.244L428.271 232.345Z" fill="url(#paint0_linear)"/>
<path d="M423.796 214.142H274.478C268.092 211.875 261.408 210.681 254.665 210.621C243.505 210.502 229.54 214.739 229.54 214.739L39.4614 214.978L44.7132 219.335L60.0508 232.345L240.879 231.688C240.879 231.688 248.876 227.63 253.232 227.511C257.589 227.391 263.258 227.928 265.049 228.704L266.839 229.54L271.733 232.524L428.271 232.404L424.154 215.097L423.796 214.142Z" fill="url(#paint1_linear)"/>
<path d="M713.001 209.965L704.467 228.764C704.467 228.764 700.826 233.24 687.219 232.166C673.613 231.091 665.377 232.166 665.377 232.166L577.887 232.046L435.313 231.628L435.851 213.844L499.767 214.142L599.968 214.441L679.401 214.142C679.401 214.142 701.423 214.262 703.989 214.142C706.555 214.023 713.001 209.965 713.001 209.965Z" fill="url(#paint2_linear)"/>
<path d="M70.3155 165.922L69.3606 156.254C69.3606 156.254 79.8045 163.236 83.5643 163.654C86.6079 163.952 87.324 164.847 87.324 164.847L70.3155 165.922Z" fill="#402010"/>
<path d="M101.229 114.538L99.7971 109.943L118.477 111.494L101.229 114.538Z" fill="#402010"/>
<path d="M675.045 161.923L660.423 158.104L676.775 155.239L675.045 161.923Z" fill="#402010"/>
<path d="M39.5211 214.978L36 209.547L65.8993 166.101L85.4741 164.728C85.4741 164.728 68.8832 159.596 69.4204 156.015C69.9575 152.434 99.0212 114.478 99.0212 114.478L118.298 111.494L99.8568 109.883L112.33 96.0373C112.33 96.0373 121.819 93.2921 125.638 93.2921H132.143L143.542 93.8292L295.306 93.5905L365.608 93.0533L616.798 93.2921C616.798 93.2921 639.058 96.276 644.25 104.154C649.443 112.031 676.835 155.179 676.835 155.179L661.916 157.865C661.916 157.865 680.356 161.923 683.639 164.668C686.921 167.414 711.33 204.057 711.33 204.057C711.33 204.057 714.612 208.413 712.703 210.562C710.793 212.71 703.989 214.62 703.989 214.62L435.91 215.276L435.612 199.521L424.213 214.978H272.986C265.467 211.517 257.052 210.204 248.816 211.158C234.97 212.77 228.704 215.515 228.704 215.515L39.5211 214.978Z" fill="url(#paint3_linear)"/>
<g opacity="0.46">
<path opacity="0.46" d="M153.329 103.915C137.872 103.855 121.998 103.617 105.884 103.139L101.349 108.212C131.546 109.286 159.655 109.525 182.214 108.391C265.586 104.989 328.07 98.6632 400.998 103.497C443.669 106.242 476.91 110.241 512.956 109.346C541.304 108.212 554.732 106.481 598.894 95.3808H580.215C576.037 96.3953 572.814 97.1712 570.009 97.768C551.032 102.005 531.695 104.452 512.24 104.989C480.252 105.765 446.772 101.647 403.146 98.7228C317.328 92.934 244.161 102.125 153.329 103.915Z" fill="url(#paint4_linear)"/>
<path opacity="0.46" d="M378.917 109.644C410.547 110.241 435.254 112.091 451.248 114.12L474.94 116.806C528.353 121.938 589.465 118.357 649.144 111.912C648.726 111.255 648.309 110.599 647.891 109.943C588.808 116.448 528.652 120.028 476.074 115.015C386.794 104.75 362.803 106.78 231.688 113.344C223.572 113.702 215.396 114.18 207.279 114.418C207.1 114.418 163.415 116.328 98.7227 114.836C98.484 115.135 98.0663 115.731 97.4695 116.507C221.244 119.67 293.456 108.689 378.917 109.644Z" fill="url(#paint5_linear)"/>
<path opacity="0.46" d="M80.1626 139.722C79.5658 140.558 78.969 141.334 78.4319 142.169C179.409 143.84 299.782 144.139 269.704 135.426C248.637 129.338 164.43 127.19 89.95 126.474C89.3532 127.25 88.7564 128.085 88.1596 128.861C167.891 129.517 257.887 131.725 267.794 137.932C259.916 141.752 162.997 141.035 80.1626 139.722Z" fill="url(#paint6_linear)"/>
<path opacity="0.46" d="M295.843 124.982C266.72 126.712 165.743 123.132 94.605 120.267C94.0679 120.983 93.4711 121.759 92.8743 122.595C164.251 125.519 266.541 129.1 296.798 127.309C329.323 125.399 521.908 130.174 659.946 128.801C659.469 128.025 658.932 127.25 658.454 126.474C520.894 127.727 327.533 123.072 295.843 124.982Z" fill="url(#paint7_linear)"/>
<path opacity="0.46" d="M665.496 137.455C664.959 136.619 664.482 135.843 663.945 135.008C590.957 132.859 504.542 131.248 498.574 135.605C489.383 142.289 583.378 145.452 671.524 146.944C671.047 146.168 670.509 145.332 669.972 144.497C586.959 143.065 512.777 140.498 504.303 136.619C514.389 133.635 596.149 135.366 665.496 137.455Z" fill="url(#paint8_linear)"/>
<path opacity="0.46" d="M163.594 155.896C139.245 155.657 107.138 155.239 69.48 156.791C69.9574 157.865 71.6284 159.059 73.7769 160.192C140.976 158.462 193.732 161.565 197.85 161.565C248.518 163.952 150.047 162.997 685.071 166.399C684.415 165.564 683.937 165.026 683.579 164.788C683.042 164.31 682.027 163.833 680.714 163.296C532.173 160.491 378.678 159.118 233.657 158.581C226.377 158.223 183.766 156.015 163.594 155.896Z" fill="url(#paint9_linear)"/>
<path opacity="0.46" d="M501.438 151.002C439.193 148.257 358.268 143.482 318.163 143.542C242.012 145.034 156.671 146.526 73.2994 149.391C72.5235 150.524 71.8074 151.599 71.2703 152.494C407.384 147.182 296.5 147.6 500.244 155.657C642.341 161.267 615.843 155.896 675.642 155.418L676.835 155.179C676.835 155.179 676.119 154.045 674.925 152.195C601.878 152.554 651.83 157.208 501.438 151.002Z" fill="url(#paint10_linear)"/>
<path opacity="0.46" d="M491.591 197.253C427.794 202.087 379.692 193.553 316.015 190.987C275.791 189.256 136.917 191.166 46.9809 193.553L45.4292 195.821C119.193 194.568 211.039 193.135 267.913 192.837C334.873 192.36 386.138 199.342 434.657 200.894L435.612 199.581V200.894C452.859 201.431 469.748 201.252 486.876 199.879L504.362 198.507C558.79 195.045 650.457 202.386 713.18 208.891C713.18 208.413 713.061 207.995 712.941 207.518C662.095 202.028 599.551 196.656 551.807 195.702C512.18 194.806 496.544 197.015 491.591 197.253Z" fill="url(#paint11_linear)"/>
<path opacity="0.46" d="M449.756 181.14C437.939 180.603 336.783 176.127 328.309 180.901C313.747 189.137 481.803 190.39 515.94 189.316C530.203 188.838 531.994 188.182 532.471 187.585C532.65 187.406 532.829 186.988 531.576 186.511C519.163 182.214 453.336 181.14 449.756 181.14ZM330.875 182.154C324.25 177.261 434.299 181.617 449.457 182.274C464.019 182.512 517.671 183.766 529.189 187.287C515.582 190.211 338.573 187.824 330.875 182.154Z" fill="url(#paint12_linear)"/>
<path opacity="0.46" d="M566.13 215.038C517.014 212.292 467.421 209.726 435.791 208.771V209.965C462.945 210.8 503.348 212.829 545.302 215.097L566.13 215.038Z" fill="url(#paint13_linear)"/>
<path opacity="0.46" d="M413.71 209.487C417.648 209.487 422.542 209.547 428.152 209.726L428.987 208.592C423.019 208.413 417.827 208.354 413.71 208.354C361.311 208.354 304.556 208.95 267.854 213.009C268.749 213.307 269.644 213.605 270.479 213.963C306.824 210.084 362.326 209.487 413.71 209.487Z" fill="url(#paint14_linear)"/>
<path opacity="0.46" d="M141.692 206.921C125.22 205.728 75.6866 207.936 36.2983 210.084L37.0742 211.218C76.2237 209.129 125.22 206.921 141.095 208.055C155.239 209.129 174.157 212.77 193.971 215.396L204.415 215.455C181.438 212.949 158.402 208.175 141.692 206.921Z" fill="url(#paint15_linear)"/>
<path opacity="0.46" d="M535.395 205.31C515.821 205.907 476.134 204.653 435.671 203.042L435.731 205.429C476.194 207.041 516.119 208.294 535.873 207.637C559.088 206.921 614.351 210.92 661.617 214.859L689.368 214.799C638.223 210.263 564.22 204.415 535.395 205.31Z" fill="url(#paint16_linear)"/>
<path opacity="0.46" d="M160.192 200.655C194.269 202.445 170.338 216.291 278.238 204.057C317.566 199.581 310.465 199.998 378.439 202.982C394.851 203.699 413.172 204.534 431.494 205.25L433.225 202.923C382.199 200.894 330.755 198.327 318.044 198.327C294.888 198.327 253.948 206.026 217.067 206.683C180.841 207.339 189.256 199.819 161.087 198.327C147.063 197.611 91.7999 199.223 41.9678 200.953L40.2371 203.4C90.3676 201.61 146.585 199.939 160.192 200.655Z" fill="url(#paint17_linear)"/>
</g>
<path d="M304.974 181.975L309.57 189.555L331.293 188.779L325.922 181.379L304.974 181.975Z" fill="url(#paint18_linear)"/>
<path d="M331.293 188.779L326.28 181.796L337.977 152.971L336.246 182.691L331.293 188.779Z" fill="url(#paint19_linear)"/>
<path d="M554.971 134.053L558.969 121.222L581.17 181.14C581.17 181.14 582.96 183.169 587.735 183.587C592.509 184.004 610.83 182.99 610.83 182.99L605.34 190.868C605.34 190.868 604.922 192.479 595.97 191.942C592.27 191.763 588.51 191.822 584.81 192.121C579.559 192.539 574.665 189.376 572.874 184.363L554.971 134.053Z" fill="url(#paint20_linear)"/>
<path d="M164.669 194.687C163.953 192.658 163.594 190.509 163.475 188.361L225.721 189.316C225.721 189.316 229.48 188.122 230.435 185.556C231.39 182.99 235.03 174.277 235.03 174.277L240.223 185.138L233.3 198.745L231.688 199.581L167.533 200.297C166.399 198.506 165.445 196.656 164.669 194.687Z" fill="url(#paint21_linear)"/>
<path d="M228.943 102.184L233.359 118.298L215.993 163.714L204.475 163.475L228.943 102.184Z" fill="url(#paint22_linear)"/>
<path d="M235.269 174.933C235.269 174.933 240.64 189.316 246.906 192.837C253.173 196.358 260.573 200.834 272.27 197.432C283.967 194.031 293.397 186.093 299.126 177.38L307.481 160.909L310.942 128.085L306.944 116.686C306.944 116.686 308.615 129.338 307.72 135.187C306.824 141.035 303.661 152.554 299.543 159.655C295.426 166.757 288.622 173.799 282.774 178.096C276.925 182.393 264.81 187.705 263.199 188.122C261.587 188.54 252.039 186.869 249.771 185.675C247.503 184.482 237.835 173.501 237.835 173.501C237.835 173.501 234.612 165.385 234.254 165.444C233.896 165.504 235.269 174.933 235.269 174.933Z" fill="url(#paint23_linear)"/>
<path d="M367.995 107.615L365.966 103.259L394.314 102.542L393.717 111.494H393.18L386.436 112.628L383.094 107.376L367.995 107.615Z" fill="url(#paint24_linear)"/>
<path d="M446.533 100.036L422.304 101.886L422.662 111.136L438.178 110.957L446.533 100.036Z" fill="url(#paint25_linear)"/>
<path d="M394.851 189.197L388.764 179.887L425.884 180.125L421.707 189.376L394.851 189.197Z" fill="url(#paint26_linear)"/>
<path d="M489.144 167.891C489.144 167.891 482.699 190.808 467.72 191.166C452.74 191.524 449.637 188.063 446.354 185.556C443.072 183.05 430.599 173.799 427.376 159.655C424.154 145.511 426.66 131.785 429.704 126.354C432.748 120.924 436.03 115.493 436.03 115.493C436.03 115.493 427.496 136.5 434.24 150.584C440.983 164.668 449.637 174.814 452.143 176.306C454.65 177.798 462.826 180.483 462.826 180.483C462.826 180.483 468.973 180.125 473.866 178.514C478.76 176.903 485.265 174.695 486.16 173.262C487.056 171.83 489.144 167.891 489.144 167.891Z" fill="url(#paint27_linear)"/>
<path d="M554.612 133.576C554.612 133.576 551.748 146.466 547.033 148.555C542.318 150.644 524.773 150.823 524.773 150.823L521.132 142.11L545.004 140.439C545.004 140.439 550.136 139.782 550.912 138.827C551.688 137.872 554.612 133.576 554.612 133.576Z" fill="url(#paint28_linear)"/>
<path d="M602.774 164.37C602.774 163.833 595.373 126.295 595.373 126.295C595.373 126.295 594.777 122.535 595.97 120.744C597.76 117.88 603.43 112.628 603.43 112.628L613.635 174.336C613.635 174.336 615.605 182.214 616.858 183.467C618.111 184.721 622.527 186.272 627.003 186.093C629.57 186.034 632.076 185.377 634.284 184.064L629.689 193.493C629.689 193.493 628.078 194.747 621.752 194.747C615.426 194.747 613.934 195.284 611.248 193.493C608.562 191.703 607.309 187.824 607.309 187.824L611.248 181.916L602.774 164.37Z" fill="url(#paint29_linear)"/>
<path d="M686.742 186.332L679.7 194.926C679.7 194.926 679.401 195.582 674.09 195.642C670.688 195.702 667.287 195.523 663.885 195.105C662.93 194.687 662.035 194.031 661.319 193.195C660.065 191.763 645.205 173.561 645.205 173.561L631.061 173.919L627.421 165.683L648.607 165.623L661.08 180.125C661.08 180.125 666.63 186.571 668.898 187.048C671.166 187.526 679.461 187.347 679.461 187.347L686.742 186.332Z" fill="url(#paint30_linear)"/>
<path d="M80.6997 187.645L85.7724 198.148C87.0257 198.924 88.3386 199.581 89.7709 199.939C91.5613 200.297 111.136 199.998 111.136 199.998L117.641 199.7C117.641 199.7 121.341 199.998 123.072 197.015C124.803 194.031 146.466 157.447 146.466 157.447L140.2 146.407L116.686 185.377C116.686 185.377 114.836 188.659 112.091 189.137C109.346 189.614 80.6997 187.645 80.6997 187.645Z" fill="url(#paint31_linear)"/>
<path d="M146.287 157.865C146.287 157.865 167.533 157.865 170.099 157.089C172.666 156.313 178.633 153.449 179.588 152.554C180.663 151.36 181.677 150.107 182.632 148.734L190.152 131.905C190.152 131.905 182.99 140.498 178.335 142.587C173.68 144.676 173.382 144.736 170.636 145.034C167.891 145.332 140.26 146.347 140.26 146.347L146.287 157.865Z" fill="url(#paint32_linear)"/>
<path d="M150.345 124.146L161.267 105.944L175.828 106.481C177.261 107.257 177.858 108.988 177.261 110.42C176.306 113.285 174.157 118.238 170.815 121.103C167.056 124.325 165.444 125.041 163.236 125.041C161.028 125.041 156.254 125.161 156.254 125.161L150.345 124.146Z" fill="url(#paint33_linear)"/>
<path d="M79.8643 186.75L85.8919 199.103C85.8919 199.103 87.8613 200.536 93.7695 200.476C99.6778 200.416 114.419 200.834 117.462 200.118C120.506 199.402 119.074 199.64 119.074 199.64L115.194 187.705C114.18 188.421 113.106 189.018 111.912 189.435C110.48 189.793 97.8874 189.077 97.8874 189.077L79.8643 186.75Z" fill="url(#paint34_linear)"/>
<path d="M336.246 182.692L340.662 189.316L364.236 188.839L358.805 181.617L336.187 181.438L336.246 182.692Z" fill="url(#paint35_linear)"/>
<path d="M358.924 181.975L383.333 107.257L389.361 116.567L364.236 188.838L358.924 181.975Z" fill="url(#paint36_linear)"/>
<path d="M324.728 143.005L328.07 107.854L336.186 116.746L324.728 143.005Z" fill="url(#paint37_linear)"/>
<path d="M355.105 114.359L361.371 124.504L354.508 141.99L355.105 114.359Z" fill="url(#paint38_linear)"/>
<path d="M533.784 184.78L527.1 193.911H503.766L501.796 193.016L506.869 184.064C506.869 184.064 507.347 185.317 510.151 185.317C512.956 185.317 533.784 184.78 533.784 184.78Z" fill="url(#paint39_linear)"/>
<path d="M501.916 193.374C501.916 193.374 499.469 192.3 499.23 190.987L498.932 189.614L491.591 152.255C491.591 152.255 489.98 142.11 488.13 135.724C486.399 129.935 485.981 129.995 485.981 129.995L485.206 126.533L482.759 114.956L488.906 101.946L501.558 163.057L505.198 180.961L508.242 185.317L501.916 193.374Z" fill="url(#paint40_linear)"/>
<path d="M115.97 186.809C115.97 186.809 114.359 190.092 106.899 190.271C99.439 190.45 82.0724 188.242 82.0724 188.242C82.0724 188.242 76.2835 188.48 82.6095 179.409C88.9355 170.338 148.674 85.6531 148.674 85.6531C148.674 85.6531 148.674 82.9079 160.61 83.5047C172.546 84.1015 187.585 85.8322 187.585 85.8322C187.585 85.8322 197.85 88.9355 200.118 96.9325C202.684 105.884 195.702 118.596 195.702 118.596L190.092 131.964C190.092 131.964 184.78 140.856 177.798 143.542C166.041 148.078 140.14 146.466 140.14 146.466L115.97 186.809Z" fill="url(#paint41_linear)"/>
<path d="M234.075 164.489L215.873 164.191L204.355 164.012L227.749 107.854C227.749 107.854 229.241 104.87 228.824 102.721C228.764 102.542 228.764 102.363 228.645 102.244C228.227 101.289 227.332 100.633 225.482 100.633C219.096 100.692 209.607 100.633 209.607 100.633C209.607 100.633 205.549 100.394 203.579 105.288C200.774 112.21 163.893 187.108 163.893 187.108C163.535 187.585 163.415 188.182 163.475 188.719C163.535 188.838 163.535 188.958 163.654 189.077C164.191 189.972 165.922 190.808 170.815 190.629C177.798 190.33 212.113 190.092 224.288 190.032C226.914 190.032 229.241 188.48 230.316 186.093L235.15 174.754L235.269 173.978L234.075 164.489Z" fill="url(#paint42_linear)"/>
<path d="M247.981 185.377C247.981 185.377 232.225 172.904 233.837 159.417C235.448 145.929 240.222 125.877 252.576 114.06C264.929 102.244 273.344 97.8874 286.235 98.1858C299.126 98.4842 303.721 106.601 306.884 116.627C310.047 126.653 307.003 144.736 305.094 148.794C303.184 152.852 297.813 166.459 286.772 175.291C275.731 184.124 266.66 188.063 262.304 188.838C257.947 189.614 247.981 185.377 247.981 185.377Z" fill="url(#paint43_linear)"/>
<path d="M304.974 181.975L313.031 107.973L328.667 108.272L324.728 144.258L336.664 115.612L354.986 113.881L354.031 142.885L367.996 107.317L383.393 107.197L358.924 181.975L336.187 181.438L337.738 154.045L326.28 181.796L304.974 181.975Z" fill="url(#paint44_linear)"/>
<path d="M394.195 102.602L365.966 103.318L366.682 88.5177L369.428 87.3242L444.922 75.9851L448.145 79.0884L446.533 100.096L422.303 101.886L425.884 180.125L423.02 182.274L391.509 182.453L388.764 179.887L394.195 102.602Z" fill="url(#paint45_linear)"/>
<path d="M466.466 181.2C466.466 181.2 439.312 178.633 432.807 148.436C432.807 148.436 427.913 136.142 433.702 120.565C439.491 104.989 452.68 104.631 453.993 104.631C455.306 104.631 473.389 106.959 480.968 119.312C488.548 131.666 492.009 141.035 492.009 151.181C492.009 161.326 489.085 168.906 486.936 172.546C484.788 176.186 478.939 178.693 476.433 179.588C473.926 180.483 466.466 181.2 466.466 181.2Z" fill="url(#paint46_linear)"/>
<path d="M505.019 180.841L488.906 101.886L530.741 102.065C530.741 102.065 540.528 102.781 543.393 105.884C546.257 108.988 555.15 130.293 555.15 130.293C555.15 130.293 554.732 139.006 549.122 140.439C543.512 141.871 521.67 142.05 521.67 142.05L535.993 180.424C535.993 180.424 535.814 185.317 531.815 185.317H509.316L506.81 184.064L505.198 181.021L505.019 180.841Z" fill="url(#paint47_linear)"/>
<path d="M579.558 178.812L558.909 121.282C558.909 121.282 560.162 120.386 568.339 119.849C576.515 119.312 580.811 120.207 580.811 120.207L611.188 180.483C611.188 180.483 611.725 184.482 608.085 184.482C604.444 184.482 585.108 184.84 585.108 184.84C585.108 184.84 581.05 182.274 579.558 178.812Z" fill="url(#paint48_linear)"/>
<path d="M615.246 181.558L601.103 118.357C601.103 118.357 601.998 111.494 605.28 112.031C608.562 112.568 626.466 129.04 626.466 129.04L671.345 170.696L686.205 184.84C686.205 184.84 689.487 186.809 682.207 187.764C677.671 188.301 673.016 188.242 668.48 187.585C668.48 187.585 662.871 183.766 656.903 176.186C650.935 168.607 648.368 166.041 648.368 166.041L627.719 166.22L634.403 182.692C634.403 182.692 635.12 186.511 629.152 186.511C623.184 186.511 619.543 186.332 619.543 186.332L616.918 184.363L615.246 181.558Z" fill="url(#paint49_linear)"/>
<path d="M572.337 106.66C572.337 106.66 569.234 118.178 556.582 113.046C545.66 108.57 551.21 98.1857 551.21 98.1857L572.337 106.66Z" fill="url(#paint50_linear)"/>
<path d="M563.922 110.36C563.922 110.36 556.94 109.883 554.254 106.66C551.569 103.438 550.495 100.931 551.091 98.6632C551.688 96.3954 554.553 93.9485 558.074 94.1276C561.595 94.3066 566.071 95.8583 568.577 97.8277C571.084 99.7971 572.456 101.289 572.755 102.542C573.053 103.796 572.994 106.063 572.098 107.078C571.203 108.092 569.652 108.928 568.577 109.584C567.503 110.241 563.922 110.36 563.922 110.36Z" fill="url(#paint51_linear)"/>
<g opacity="0.25">
<path opacity="0.25" d="M181.557 141.453C183.348 140.14 185.019 138.648 186.451 136.977C162.162 136.38 137.335 136.201 112.747 136.739L110.062 140.498C133.993 140.319 158.044 140.677 181.557 141.453Z" fill="#CE7F42"/>
<path opacity="0.25" d="M215.336 137.992C206.503 137.634 197.551 137.335 188.54 137.097C187.824 138.589 187.048 140.14 186.332 141.632C195.463 141.931 204.474 142.348 213.366 142.766L215.336 137.992Z" fill="#CE7F42"/>
<path opacity="0.25" d="M306.466 144.795C306.824 143.303 307.182 141.453 307.481 139.543C285.638 139.424 263.974 139.305 242.43 139.245L238.312 139.006C237.775 140.677 237.298 142.348 236.88 144.019C238.432 144.079 239.983 144.198 241.595 144.318L306.466 144.795Z" fill="#CE7F42"/>
<path opacity="0.25" d="M354.269 139.782L326.697 139.603H325.325L309.748 139.543L309.152 144.855C331.949 145.034 352.538 145.153 371.039 145.332L372.77 140.021L355.403 139.842L354.269 139.782Z" fill="#CE7F42"/>
<path opacity="0.25" d="M424.154 140.439C413.292 140.319 402.49 140.2 391.629 140.14L391.271 145.452L424.392 145.69L424.154 140.439Z" fill="#CE7F42"/>
<path opacity="0.25" d="M456.38 145.869H455.067H456.38H458.23H459.066H460.379H461.751H461.811L471.897 145.929H471.957H473.747H477.925H483.117H484.37H486.22H487.234H488.488H491.83C491.651 144.258 491.352 142.647 490.994 141.035C471.061 140.797 451.129 140.558 431.255 140.319C431.434 142.05 431.733 143.781 432.151 145.511C440.506 145.571 448.085 145.631 455.067 145.69L456.38 145.869ZM474.702 146.048H476.433H477.925H473.807H474.702ZM472.136 146.048L472.076 145.989L472.136 146.048ZM464.198 146.048H467.958H469.808H472.016L461.93 145.989C462.587 145.989 463.363 145.989 464.079 145.989L464.198 146.048ZM461.93 146.048C461.93 146.048 461.751 145.989 461.751 145.929L461.93 146.048ZM459.603 146.048H459.663H460.379H459.185H459.484L459.364 145.929L459.603 146.048Z" fill="#CE7F42"/>
<path opacity="0.25" d="M498.096 146.168L522.147 146.347H523.4L521.789 141.931C521.789 141.931 525.668 141.871 530.562 141.752C519.402 141.573 508.242 141.453 497.082 141.274L498.096 146.168Z" fill="#CE7F42"/>
<path opacity="0.25" d="M592.449 142.766C583.855 142.647 575.261 142.468 566.667 142.348L568.219 146.645C576.455 146.705 585.168 146.765 594.478 146.824L592.449 142.766Z" fill="#CE7F42"/>
<path opacity="0.25" d="M645.504 146.466C641.983 146.108 640.312 144.915 640.371 143.661C629.211 143.423 617.992 143.244 606.832 143.064L607.667 146.884L646.16 147.123L645.504 146.466Z" fill="#CE7F42"/>
<path opacity="0.25" d="M154.762 112.867C154.762 112.927 154.702 112.986 154.702 113.046C172.009 113.285 184.422 114.06 197.492 115.135C197.671 114.777 197.79 114.418 197.969 114.001C183.169 113.106 169.383 112.628 154.762 112.867Z" fill="#CE7F42"/>
<path opacity="0.25" d="M193.911 123.311L194.926 120.924C172.785 120.983 148.197 120.924 124.027 120.744L122.356 123.132C148.077 123.311 173.023 123.43 193.911 123.311Z" fill="#CE7F42"/>
<path opacity="0.25" d="M192.538 126.593C167.175 127.429 141.632 128.443 117.939 129.398C117.104 130.592 116.268 131.785 115.433 132.979C143.78 132.442 168.607 131.904 190.509 131.487L192.538 126.593Z" fill="#CE7F42"/>
<path opacity="0.25" d="M199.939 108.092C179.111 107.496 156.194 107.257 133.575 107.257L131.845 109.704C155 109.704 178.335 109.943 199.282 110.48C199.521 109.704 199.7 108.868 199.939 108.092Z" fill="#CE7F42"/>
<path opacity="0.25" d="M224.527 115.851C215.694 115.194 207.458 114.598 199.581 114.12C199.402 114.478 199.223 114.896 199.044 115.314C206.683 115.97 214.62 116.746 223.87 117.522L224.527 115.851Z" fill="#CE7F42"/>
<path opacity="0.25" d="M220.468 125.698C211.576 125.996 202.624 126.235 193.613 126.593C192.837 128.204 192.061 129.816 191.226 131.487L218.26 130.95L220.468 125.698Z" fill="#CE7F42"/>
<path opacity="0.25" d="M308.256 123.669C289.577 123.907 267.675 124.325 244.34 124.982C243.325 126.772 242.43 128.562 241.595 130.472C270.241 129.935 291.725 129.577 308.376 129.338C308.435 127.369 308.376 125.459 308.256 123.669Z" fill="#CE7F42"/>
<path opacity="0.25" d="M308.197 122.953C308.137 122.236 308.077 121.58 307.958 120.923C297.634 120.506 288.085 120.028 279.133 119.491C279.849 119.252 280.506 118.894 281.043 118.298C281.819 117.462 281.878 116.209 277.76 114.836C273.284 113.344 265.705 112.091 255.798 111.076C255.082 111.733 254.306 112.389 253.59 113.106C265.407 114.239 273.344 115.672 275.731 117.462C274.776 117.999 272.449 118.417 268.928 118.835C262.065 118.417 255.56 117.999 249.353 117.581C248.876 118.178 248.398 118.775 247.921 119.432L254.127 119.909C252.039 120.028 249.771 120.088 247.384 120.148C246.847 120.923 246.309 121.699 245.832 122.475C258.007 122.057 265.825 121.52 270.957 120.923C281.759 121.64 293.993 122.296 308.197 122.953Z" fill="#CE7F42"/>
<path opacity="0.25" d="M221.543 123.072L222.498 120.685C214.322 120.804 205.549 120.864 196.298 120.924L195.165 123.311H198.149C206.802 123.251 214.56 123.191 221.543 123.072Z" fill="#CE7F42"/>
<path opacity="0.25" d="M227.331 109.107C219.513 108.689 211.158 108.391 202.386 108.152C202.087 108.809 201.729 109.644 201.311 110.48C210.203 110.718 218.618 111.017 226.377 111.375L227.331 109.107Z" fill="#CE7F42"/>
<path opacity="0.25" d="M354.568 129.279L354.806 122.356C347.645 122.236 340.722 122.057 334.098 121.819L331.054 129.1C340.782 129.1 348.242 129.159 354.568 129.279Z" fill="#CE7F42"/>
<path opacity="0.25" d="M362.147 122.475L361.431 124.266C366.802 124.325 372.292 124.385 377.783 124.445L378.32 122.774C372.77 122.714 367.399 122.595 362.147 122.475Z" fill="#CE7F42"/>
<path opacity="0.25" d="M359.401 129.398C365.31 129.577 370.382 129.875 375.873 130.233L377.604 124.982C371.994 124.743 366.623 124.445 361.43 124.266L359.401 129.398Z" fill="#CE7F42"/>
<path opacity="0.25" d="M327.056 123.549L327.294 121.64C321.923 121.461 316.731 121.282 311.718 121.103L311.479 123.132L313.926 123.251L327.056 123.549Z" fill="#CE7F42"/>
<path opacity="0.25" d="M327.055 123.549C322.162 123.549 316.97 123.549 311.42 123.609L310.823 129.279C316.612 129.219 321.804 129.159 326.459 129.1L327.055 123.549Z" fill="#CE7F42"/>
<path opacity="0.25" d="M423.557 127.369C412.993 126.772 402.609 126.235 392.702 125.698L392.285 131.367C400.341 131.904 410.308 132.561 423.855 133.337L423.557 127.369Z" fill="#CE7F42"/>
<path opacity="0.25" d="M423.378 122.893C412.755 122.893 402.609 122.893 392.941 122.833L392.822 124.445C402.669 124.445 412.814 124.266 423.437 124.087L423.378 122.893Z" fill="#CE7F42"/>
<path opacity="0.25" d="M482.758 121.998C466.705 122.475 450.174 122.833 432.986 122.893C432.867 123.251 432.747 123.609 432.688 123.907C451.069 123.609 467.839 123.251 483.295 122.833C483.057 122.535 482.937 122.296 482.758 121.998Z" fill="#CE7F42"/>
<path opacity="0.25" d="M487.413 130.89C468.973 129.935 450.114 128.861 431.733 127.846C431.375 129.816 431.136 131.785 431.017 133.755C445.936 134.53 464.855 135.366 489.562 136.321C488.965 134.53 488.249 132.74 487.413 130.89Z" fill="#CE7F42"/>
<path opacity="0.25" d="M496.127 136.559C509.137 137.037 523.698 137.514 539.991 138.051C544.288 138.171 548.406 138.29 552.344 138.41C552.464 138.231 552.643 138.051 552.762 137.932C552.882 137.813 553.001 137.574 553.12 137.395V137.335C553.24 137.156 553.299 136.977 553.419 136.798C553.538 136.619 553.598 136.44 553.717 136.261C553.836 136.082 553.896 135.903 553.956 135.664C554.015 135.426 554.075 135.306 554.135 135.187C554.194 135.067 554.194 135.008 554.254 134.948C554.314 134.888 554.373 134.65 554.373 134.53C554.373 134.411 554.493 134.172 554.553 134.053V133.993C536.41 133.337 516.059 132.382 494.993 131.308L496.127 136.559Z" fill="#CE7F42"/>
<path opacity="0.25" d="M552.643 124.087C552.285 123.311 551.927 122.475 551.569 121.64C547.391 121.401 543.392 121.222 539.573 120.983L551.091 120.506C550.852 120.028 550.673 119.491 550.435 119.014C542.796 119.432 535.037 119.79 527.16 120.207C509.853 119.014 498.335 117.641 495.231 116.089C499.707 114.538 520.595 114.359 548.465 114.896C548.107 114.12 547.689 113.344 547.331 112.568C519.461 112.151 497.917 112.509 491.531 114.299L492.247 117.94C495.649 119.073 501.856 120.088 510.271 120.983C504.601 121.222 498.812 121.461 492.964 121.64L493.143 122.595C502.094 122.356 510.509 122.057 518.566 121.819C528.294 122.654 539.812 123.43 552.643 124.087Z" fill="#CE7F42"/>
<path opacity="0.25" d="M590.36 138.708L588.391 134.769C580.931 134.709 572.695 134.53 563.743 134.292L565.295 138.648C574.784 138.768 583.02 138.768 590.36 138.708Z" fill="#CE7F42"/>
<path opacity="0.25" d="M582.483 123.012C574.426 122.714 566.668 122.356 559.387 122.057L560.282 124.504C567.742 124.862 575.619 125.22 583.736 125.519L582.483 123.012Z" fill="#CE7F42"/>
<path opacity="0.25" d="M568.458 119.73C568.04 119.73 567.622 119.79 567.264 119.79L572.516 119.551C571.263 119.551 569.95 119.611 568.458 119.73Z" fill="#CE7F42"/>
<path opacity="0.25" d="M609.338 114.239L602.475 114.001C601.878 115.254 601.52 116.627 601.281 117.999L613.336 117.343C611.904 116.209 610.532 115.135 609.338 114.239Z" fill="#CE7F42"/>
<path opacity="0.25" d="M621.513 124.325C615.067 124.146 608.682 123.907 602.475 123.728L603.012 126.175C609.995 126.414 617.156 126.653 624.318 126.832C623.542 126.175 622.527 125.28 621.513 124.325Z" fill="#CE7F42"/>
<path opacity="0.25" d="M631.539 133.516C624.198 133.695 616.917 134.053 609.696 134.471C608.145 134.53 606.593 134.59 604.922 134.65L605.757 138.41C616.798 138.111 626.048 137.574 635.478 137.156L631.539 133.516Z" fill="#CE7F42"/>
<path opacity="0.25" d="M94.3663 162.818L93.5308 163.952C104.81 164.131 116.985 164.012 129.935 163.654L130.651 162.46C117.82 162.818 105.646 162.938 94.3663 162.818Z" fill="#CE7F42"/>
<path opacity="0.25" d="M206.921 158.104L207.458 156.85C201.371 157.208 195.94 157.686 191.166 158.223C186.57 158.7 182.035 159.178 177.499 159.596L176.843 160.909C181.796 160.491 186.869 159.954 192.001 159.417C196.418 158.879 201.431 158.462 206.921 158.104Z" fill="#CE7F42"/>
<path opacity="0.25" d="M234.314 156.791C253.71 156.194 276.627 155.896 301.871 155.896C302.11 155.478 302.289 155.06 302.468 154.642C277.104 154.642 254.008 154.941 234.433 155.537C234.433 155.955 234.374 156.373 234.314 156.791Z" fill="#CE7F42"/>
<path opacity="0.25" d="M337.499 154.762C327.413 154.702 317.566 154.642 308.077 154.642L307.958 155.896C317.387 155.896 327.055 155.955 337.022 156.015H337.798C347.466 156.075 357.372 156.194 367.458 156.313L367.876 155.06C357.671 154.941 347.704 154.821 337.917 154.762H337.499Z" fill="#CE7F42"/>
<path opacity="0.25" d="M424.87 156.015C413.352 155.776 401.893 155.597 390.554 155.418L390.494 156.671C401.833 156.85 413.351 157.029 424.929 157.268L424.87 156.015Z" fill="#CE7F42"/>
<path opacity="0.25" d="M435.791 157.447C454.292 157.805 472.971 158.283 491.472 158.701C491.531 158.283 491.591 157.865 491.651 157.447C472.911 156.97 453.993 156.552 435.254 156.194C435.433 156.671 435.612 157.089 435.791 157.447Z" fill="#CE7F42"/>
<path opacity="0.25" d="M500.663 158.999C509.973 159.238 519.223 159.476 528.354 159.715L527.876 158.462C518.805 158.223 509.614 157.984 500.424 157.746L500.663 158.999Z" fill="#CE7F42"/>
<path opacity="0.25" d="M601.401 160.491L572.874 159.655L573.292 160.909L601.938 161.744L601.401 160.491Z" fill="#CE7F42"/>
<path opacity="0.25" d="M662.572 162.281C646.697 161.804 629.271 161.326 610.771 160.789L611.009 161.983C629.928 162.52 647.712 163.057 663.885 163.475L662.572 162.281Z" fill="#CE7F42"/>
<path opacity="0.25" d="M187.824 85.6531C187.824 85.6531 172.785 83.8627 160.849 83.3256H160.372L154.762 83.3853C148.913 83.8627 148.913 85.5337 148.913 85.5337L146.347 89.1742C162.938 89.1145 178.335 88.6967 192.897 88.0402C191.285 87.0854 189.555 86.2499 187.824 85.6531Z" fill="#CE7F42"/>
<path opacity="0.25" d="M448.204 80.1626C442.236 79.6255 435.851 78.969 428.808 78.3126L407.324 81.5352C422.96 82.8482 436.268 84.0418 447.906 84.9966L448.204 80.1626Z" fill="#CE7F42"/>
<path opacity="0.25" d="M200.357 96.7534C200.297 96.455 200.177 96.1566 200.058 95.8582C199.879 95.4405 199.7 95.0824 199.521 94.6646C181.498 95.3808 162.222 95.9179 141.513 95.9776C141.214 96.3357 140.976 96.7534 140.677 97.1712L135.963 103.855C156.433 104.452 178.812 105.109 200.476 105.646C201.013 102.602 201.132 99.4987 200.357 96.7534Z" fill="#CE7F42"/>
<path opacity="0.25" d="M302.468 106.302C299.245 101.468 294.411 98.3051 286.414 98.126C276.567 97.8873 269.405 100.394 261.05 106.72C278.894 106.899 293.516 106.839 302.468 106.302Z" fill="#CE7F42"/>
<path opacity="0.25" d="M229.003 102.602C228.943 102.423 228.943 102.244 228.824 102.125V102.065C228.406 101.11 227.511 100.454 225.661 100.454C219.275 100.513 209.786 100.454 209.786 100.454C209.786 100.454 205.728 100.215 203.758 105.109L203.52 105.646C212.054 105.884 220.409 106.063 228.525 106.183C229.003 105.109 229.122 103.855 229.003 102.602Z" fill="#CE7F42"/>
<path opacity="0.25" d="M422.363 101.766L446.593 99.9761L447.309 90.6662C436.089 89.2935 420.334 87.6225 401.296 86.2499L390.315 85.7725C387.093 85.6531 383.81 85.5934 380.588 85.5338L369.487 87.2048L366.802 88.3984L366.086 103.199L394.314 102.483L394.075 106.123C403.206 106.242 412.695 106.421 422.602 106.541L422.363 101.766Z" fill="#CE7F42"/>
<path opacity="0.25" d="M454.053 104.512C450.89 104.631 447.786 105.467 444.981 106.959L465.272 107.317C461.692 105.825 457.932 104.929 454.053 104.512Z" fill="#CE7F42"/>
<path opacity="0.25" d="M543.512 105.765C540.587 102.721 530.8 101.946 530.8 101.946L488.965 101.766L490.158 107.675C508.301 107.973 526.801 108.272 545.242 108.51C544.765 107.496 544.168 106.6 543.512 105.765Z" fill="#CE7F42"/>
<path opacity="0.25" d="M572.158 106.959C572.994 105.944 573.113 103.617 572.815 102.363C572.516 101.11 571.143 99.618 568.637 97.6486C566.906 96.3953 564.997 95.4405 562.908 94.8437C559.745 95.0227 556.582 95.2018 553.478 95.3211C552.404 96.0969 551.569 97.1712 551.151 98.4244C550.554 100.692 551.628 103.199 554.314 106.421C555.149 107.317 556.224 108.033 557.358 108.51L569.771 108.689C570.726 108.331 571.502 107.734 572.158 106.959Z" fill="#CE7F42"/>
<path opacity="0.25" d="M85.2351 175.828L122.773 175.649L124.265 173.203C111.315 173.322 98.7226 173.441 86.8465 173.561C86.2497 174.396 85.7125 175.112 85.2351 175.828Z" fill="#CE7F42"/>
<path opacity="0.25" d="M238.85 175.112C258.365 175.112 273.941 175.112 286.891 175.291L286.951 175.232C288.443 174.038 289.875 172.725 291.188 171.293C273.464 171.173 255.261 170.994 236.283 170.756C237.059 172.307 237.895 173.74 238.85 175.112Z" fill="#CE7F42"/>
<path opacity="0.25" d="M171.949 170.875C190.629 171.531 209.726 172.009 229.122 172.427C210.621 172.486 190.868 172.606 171.054 172.725C170.636 173.62 170.159 174.515 169.801 175.351C195.523 175.232 217.007 175.172 235.15 175.112L235.388 174.515L235.508 173.74L235.09 170.696C215.097 170.457 194.329 170.159 172.486 169.801L171.949 170.875Z" fill="#CE7F42"/>
<path opacity="0.25" d="M337.44 161.386C336.365 161.505 335.41 161.684 334.575 161.804C333.56 161.923 332.606 162.222 331.71 162.699C330.278 163.654 330.875 164.489 333.143 165.325C334.456 165.743 335.769 166.101 337.141 166.339C342.811 167.473 351.942 168.368 363.221 169.144L363.639 167.891C351.404 167.115 341.975 166.22 337.261 165.146C336.186 164.967 335.172 164.609 334.217 164.072C334.038 163.952 333.918 163.773 333.918 163.594C333.918 163.475 333.978 163.415 334.038 163.296C334.396 162.878 335.589 162.58 337.44 162.341C342.632 161.625 353.195 161.446 365.728 161.565L366.086 160.431C354.09 160.371 343.706 160.67 337.44 161.386Z" fill="#CE7F42"/>
<path opacity="0.25" d="M336.843 171.531H330.577C322.52 171.531 314.403 171.472 306.227 171.412L305.75 175.59C314.523 175.769 321.863 176.067 328.547 176.365C331.293 176.485 333.919 176.664 336.544 176.843C344.422 177.38 351.763 177.977 360.058 178.753L360.894 176.127C353.195 175.47 345.198 174.814 336.664 174.217C334.336 174.038 332.009 173.919 329.562 173.799C327.115 173.68 324.668 173.501 322.042 173.382C324.609 173.382 327.115 173.382 329.681 173.382C332.009 173.382 334.336 173.382 336.664 173.382C345.019 173.382 353.374 173.382 361.729 173.322L362.326 171.472C353.971 171.531 345.437 171.531 336.843 171.531Z" fill="#CE7F42"/>
<path opacity="0.25" d="M425.168 162.042C415.202 161.625 402.788 161.147 390.196 160.849L390.136 162.042C402.669 162.401 415.201 162.878 425.228 163.296L425.168 162.042Z" fill="#CE7F42"/>
<path opacity="0.25" d="M388.883 179.827L390.554 181.379C394.612 181.677 398.73 181.975 402.789 182.274L423.02 182.154L424.452 181.08C412.218 180.603 400.64 179.708 388.883 178.693V179.827Z" fill="#CE7F42"/>
<path opacity="0.25" d="M425.586 170.219C413.292 169.98 401.058 169.622 389.659 169.204L389.54 170.517C398.969 170.875 408.935 171.173 418.961 171.412C409.114 171.472 399.327 171.531 389.48 171.591L389.361 173.322C401.475 173.202 413.531 173.083 425.646 172.964L425.586 170.219Z" fill="#CE7F42"/>
<path opacity="0.25" d="M466.586 181.08C466.586 181.08 467.003 181.02 467.72 180.961L466.168 181.02L466.586 181.08Z" fill="#CE7F42"/>
<path opacity="0.25" d="M444.803 170.517C445.579 171.233 446.354 171.949 447.13 172.546C460.558 172.367 473.926 172.128 487.294 171.89C487.533 171.472 487.772 171.054 488.01 170.577L479.536 170.696C468.973 170.756 457.097 170.636 444.803 170.517Z" fill="#CE7F42"/>
<path opacity="0.25" d="M438.477 162.639C438.775 163.117 439.014 163.534 439.312 163.952L444.683 164.191C452.501 164.31 472.434 164.788 489.86 165.802C489.98 165.385 490.099 164.967 490.218 164.549C469.868 163.355 447.011 162.997 444.982 162.938L438.477 162.639Z" fill="#CE7F42"/>
<path opacity="0.25" d="M521.431 169.443C521.61 169.264 521.849 168.786 520.715 168.309C517.671 167.115 510.629 166.16 501.976 165.385L502.214 166.697C509.615 167.354 515.523 168.13 518.387 169.144C516.418 169.622 510.868 170.04 502.93 170.278L503.169 171.531C512.957 171.352 522.744 171.114 532.472 170.875L532.054 169.801L520.297 170.04C520.834 169.92 521.192 169.741 521.431 169.443Z" fill="#CE7F42"/>
<path opacity="0.25" d="M504.601 178.216L505.019 180.364C513.314 180.066 523.579 179.946 535.933 180.006L535.097 177.798C523.042 177.738 512.956 177.917 504.601 178.216Z" fill="#CE7F42"/>
<path opacity="0.25" d="M581.408 181.319C590.539 181.737 600.386 182.333 610.89 182.99C611.188 182.453 611.367 181.796 611.367 181.2C600.088 180.364 589.584 179.708 579.916 179.23C580.334 179.946 580.811 180.662 581.408 181.319Z" fill="#CE7F42"/>
<path opacity="0.25" d="M605.28 168.249L576.156 168.906L576.455 169.801C586.242 169.502 595.91 169.264 605.578 168.965L605.28 168.249Z" fill="#CE7F42"/>
<path opacity="0.25" d="M667.406 166.757L649.741 167.175C649.86 167.294 649.979 167.414 650.099 167.593C656.007 167.414 661.856 167.235 667.704 166.996L667.406 166.757Z" fill="#CE7F42"/>
<path opacity="0.25" d="M668.6 187.406C672.956 188.003 677.373 188.122 681.729 187.645C676.657 187.108 671.703 186.571 666.869 186.093C667.943 186.988 668.6 187.406 668.6 187.406Z" fill="#CE7F42"/>
<path opacity="0.25" d="M616.619 183.408C622.229 183.825 628.018 184.243 633.986 184.721C634.344 184.243 634.582 183.646 634.582 183.05C627.958 182.453 621.572 181.975 615.425 181.498L616.619 183.408Z" fill="#CE7F42"/>
<path opacity="0.25" d="M612.561 168.786L628.794 168.309L628.555 167.712C623.124 167.831 617.753 167.951 612.382 168.07L612.561 168.786Z" fill="#CE7F42"/>
<path opacity="0.25" d="M82.2514 188.063C82.2514 188.063 85.8918 188.54 90.6065 189.017L100.931 189.913C104.333 189.793 107.675 189.734 111.017 189.614C112.21 189.376 113.285 188.958 114.299 188.301C115.015 187.884 115.672 187.346 116.09 186.63L120.088 180.006C107.794 180.185 94.7243 180.424 81.8336 180.662C77.119 188.301 82.2514 188.063 82.2514 188.063Z" fill="#CE7F42"/>
<path opacity="0.25" d="M167.652 179.648C165.444 184.184 164.072 186.929 164.072 186.929C163.714 187.406 163.594 188.003 163.654 188.6C163.713 188.719 163.714 188.838 163.833 188.958C164.012 189.256 164.31 189.495 164.609 189.674H164.788C166.817 189.853 169.025 190.151 171.293 190.45C178.991 190.151 212.471 189.913 224.467 189.853C225.481 189.853 226.436 189.614 227.332 189.197C201.013 188.779 204.355 181.617 179.528 179.946C176.903 179.827 172.844 179.708 167.652 179.648Z" fill="#CE7F42"/>
<path opacity="0.25" d="M262.483 188.779C264.75 188.301 266.959 187.526 269.047 186.511C264.154 187.048 259.678 187.466 255.56 187.824C258.066 188.6 260.752 189.137 262.483 188.779Z" fill="#CE7F42"/>
<path opacity="0.25" d="M309.092 181.856L326.399 181.677L326.638 181.14C320.73 181.08 314.881 181.319 309.092 181.856Z" fill="#CE7F42"/>
</g>
<path d="M283.311 142.766C276.686 156.97 267.436 155.358 264.213 154.344C260.991 153.329 256.097 146.466 263.438 133.456C270.778 120.446 280.267 124.445 280.267 124.445C280.267 124.445 289.935 128.503 283.311 142.766Z" fill="url(#paint52_radial)"/>
<path d="M453.874 128.324C455.425 127.369 457.633 126.474 459.483 126.772C463.482 127.429 470.405 130.174 472.016 139.961C474.344 154.105 462.348 154.045 458.111 151.121C445.041 142.11 451.427 129.816 453.874 128.324Z" fill="url(#paint53_radial)"/>
<path d="M518.208 129.756L515.224 115.433C515.224 115.433 522.207 114.956 527.458 114.657C532.352 114.418 533.367 115.731 533.367 115.731C533.367 115.731 535.813 120.864 534.262 124.027C532.71 127.19 529.726 128.503 525.071 129.279C520.416 130.054 518.208 129.756 518.208 129.756Z" fill="url(#paint54_linear)"/>
<path d="M637.924 152.733C638.342 153.091 638.342 153.747 637.984 154.165C637.745 154.404 637.447 154.523 637.148 154.523C632.135 154.165 622.587 153.449 622.408 153.449C622.229 153.449 620.438 143.482 619.543 138.469C619.424 137.932 619.782 137.395 620.319 137.335C620.617 137.276 620.916 137.395 621.154 137.574L637.924 152.733Z" fill="url(#paint55_linear)"/>
<path d="M149.987 124.146L160.849 106.242L175.53 106.601C175.53 106.601 179.887 107.615 175.053 115.433C170.219 123.251 166.877 125.638 159.357 125.459C151.837 125.28 149.987 124.146 149.987 124.146Z" fill="url(#paint56_linear)"/>
<path d="M308.495 55.3957C307.481 54.7393 306.765 53.665 306.645 52.4118C306.466 50.4424 307.481 49.0101 311.121 47.3987C314.762 45.7874 320.67 42.6244 320.073 36C320.073 36 324.191 39.7598 325.325 45.2503C326.459 50.7408 326.399 58.3797 321.028 59.3942C315.657 60.4088 309.868 56.5893 309.868 56.5893L308.495 55.3957Z" fill="url(#paint57_linear)"/>
<path d="M304.198 58.32C304.795 56.9474 305.869 55.9329 307.242 55.3361C309.569 54.3215 314.761 52.2924 316.97 49.8456C319.178 47.3987 320.371 46.1455 320.61 43.7583C320.61 43.7583 320.431 49.2488 317.984 51.5763C315.537 53.9038 312.315 54.3812 310.763 56.1716C309.211 57.962 308.435 60.1104 307.421 61.6621C306.944 62.4976 306.347 63.2137 305.69 63.9299L304.198 58.32Z" fill="url(#paint58_linear)"/>
<path d="M285.519 49.8456C285.519 49.8456 287.071 53.2473 287.071 54.799C287.071 56.3506 288.563 56.8281 280.148 62.4976C271.733 68.1671 273.941 70.3752 273.941 70.3752C273.941 70.3752 270.599 65.7799 270.539 61.0056C270.48 56.2313 271.733 50.5617 274.12 48.5923C275.911 47.0407 278.238 46.3842 280.566 46.6826C281.998 47.0407 283.43 47.4584 284.803 47.9955L285.519 49.8456Z" fill="url(#paint59_linear)"/>
<path d="M358.029 73.2398C358.029 73.2398 354.448 69.48 353.792 66.9138C353.135 64.3476 352.419 57.3652 357.193 54.0231C361.968 50.6811 361.729 50.144 373.247 49.3681C384.765 48.5923 393.836 47.3391 395.985 46.3842C395.985 46.3842 389.002 49.5472 385.959 56.9474C382.915 64.3476 383.93 67.1525 380.289 70.9123C376.649 74.6721 373.904 76.2238 369.607 76.4625C365.31 76.7012 360.595 75.0899 360.595 75.0899L358.029 73.2398Z" fill="url(#paint60_linear)"/>
<path d="M249.115 93.6501C249.115 93.6501 255.321 82.4304 260.573 79.3271C266.123 76.0448 267.615 74.9108 272.688 74.7318C277.761 74.5528 288.324 74.7318 292.143 72.9414C295.963 71.1511 299.364 64.7654 299.722 60.7669C300.081 56.7684 297.395 53.4263 295.724 52.2327C294.053 51.0392 287.667 42.0873 287.488 41.3115C287.309 40.5356 294.113 47.4584 297.276 48.8907L300.379 50.3827C300.379 50.3827 307.958 54.5602 305.929 63.0347C303.9 71.5091 301.513 73.7173 303.84 76.0448C306.168 78.3722 313.986 84.9966 318.402 89.8307C322.818 94.6647 326.339 98.4245 331.531 99.618C336.724 100.812 343.229 102.96 348.48 97.5293C353.732 92.0985 349.734 82.132 349.734 82.132C348.003 77.2383 344.124 73.4189 343.587 68.2865C343.348 64.8847 343.706 61.483 344.78 58.2604C344.78 58.2604 344.601 67.8687 350.211 76.2238C355.821 84.5789 361.132 91.6807 356.477 101.11C351.822 110.539 346.272 111.912 335.948 111.912C325.623 111.912 322.818 110.122 312.076 101.766C301.334 93.4114 295.605 89.1145 289.458 90.7855C283.311 92.4565 282.535 93.5904 282.535 93.5904L249.115 93.6501Z" fill="url(#paint61_linear)"/>
<path d="M292.74 48.831C292.501 48.8907 285.459 47.6971 282.058 51.4569C278.656 55.2167 276.09 60.6475 276.09 60.6475C276.09 60.6475 276.448 54.5006 280.506 50.323C284.564 46.1455 289.696 44.7728 290.234 45.0116C293.397 46.0261 292.74 48.831 292.74 48.831Z" fill="url(#paint62_linear)"/>
<path d="M352.658 79.9239C354.687 77.8948 356.477 75.627 358.029 73.1802C360.416 69.3607 367.936 59.3346 370.084 57.7829C372.233 56.2313 375.097 53.9634 381.662 51.636C388.227 49.3085 394.851 46.7423 394.612 46.8616C394.374 46.981 379.931 51.8747 373.844 58.9168C367.757 65.959 360.953 74.9705 359.7 78.0142C358.447 81.0578 356.477 86.4886 356.477 86.4886C355.105 85.6531 353.911 84.5192 352.956 83.2063C351.524 81.0578 352.658 79.9239 352.658 79.9239Z" fill="url(#paint63_linear)"/>
</g>
<defs>
<filter id="filter0_d" x="0" y="0" width="749.3" height="268.524" filterUnits="userSpaceOnUse" color-interpolation-filters="sRGB">
<feFlood flood-opacity="0" result="BackgroundImageFix"/>
<feColorMatrix in="SourceAlpha" type="matrix" values="0 0 0 0 0 0 0 0 0 0 0 0 0 0 0 0 0 0 127 0" result="hardAlpha"/>
<feOffset/>
<feGaussianBlur stdDeviation="18"/>
<feComposite in2="hardAlpha" operator="out"/>
<feColorMatrix type="matrix" values="0 0 0 0 1 0 0 0 0 0.941176 0 0 0 0 0.54902 0 0 0 1 0"/>
<feBlend mode="normal" in2="BackgroundImageFix" result="effect1_dropShadow"/>
<feBlend mode="normal" in="SourceGraphic" in2="effect1_dropShadow" result="shape"/>
</filter>
<linearGradient id="paint0_linear" x1="403.155" y1="266.62" x2="436.552" y2="206.744" gradientUnits="userSpaceOnUse">
<stop stop-color="#724329"/>
<stop offset="1" stop-color="#451E0F"/>
</linearGradient>
<linearGradient id="paint1_linear" x1="219.228" y1="343.904" x2="237.968" y2="190.355" gradientUnits="userSpaceOnUse">
<stop stop-color="#724329"/>
<stop offset="1" stop-color="#451E0F"/>
</linearGradient>
<linearGradient id="paint2_linear" x1="573.252" y1="281.711" x2="574.458" y2="199.461" gradientUnits="userSpaceOnUse">
<stop stop-color="#724329"/>
<stop offset="1" stop-color="#451E0F"/>
</linearGradient>
<linearGradient id="paint3_linear" x1="371.55" y1="244.187" x2="386.588" y2="73.1221" gradientUnits="userSpaceOnUse">
<stop stop-color="#724329"/>
<stop offset="1" stop-color="#451E0F"/>
</linearGradient>
<linearGradient id="paint4_linear" x1="352.629" y1="7.99685" x2="346.112" y2="249.113" gradientUnits="userSpaceOnUse">
<stop stop-color="#724329"/>
<stop offset="1" stop-color="#451E0F"/>
</linearGradient>
<linearGradient id="paint5_linear" x1="376.156" y1="8.63051" x2="369.639" y2="249.746" gradientUnits="userSpaceOnUse">
<stop stop-color="#724329"/>
<stop offset="1" stop-color="#451E0F"/>
</linearGradient>
<linearGradient id="paint6_linear" x1="180.102" y1="3.3338" x2="173.585" y2="244.45" gradientUnits="userSpaceOnUse">
<stop stop-color="#724329"/>
<stop offset="1" stop-color="#451E0F"/>
</linearGradient>
<linearGradient id="paint7_linear" x1="379.584" y1="8.72414" x2="373.067" y2="249.84" gradientUnits="userSpaceOnUse">
<stop stop-color="#724329"/>
<stop offset="1" stop-color="#451E0F"/>
</linearGradient>
<linearGradient id="paint8_linear" x1="588.124" y1="14.3596" x2="581.607" y2="255.475" gradientUnits="userSpaceOnUse">
<stop stop-color="#724329"/>
<stop offset="1" stop-color="#451E0F"/>
</linearGradient>
<linearGradient id="paint9_linear" x1="381.409" y1="8.77357" x2="374.892" y2="249.89" gradientUnits="userSpaceOnUse">
<stop stop-color="#724329"/>
<stop offset="1" stop-color="#451E0F"/>
</linearGradient>
<linearGradient id="paint10_linear" x1="377.953" y1="8.67746" x2="371.436" y2="249.793" gradientUnits="userSpaceOnUse">
<stop stop-color="#724329"/>
<stop offset="1" stop-color="#451E0F"/>
</linearGradient>
<linearGradient id="paint11_linear" x1="384.585" y1="8.85981" x2="378.068" y2="249.976" gradientUnits="userSpaceOnUse">
<stop stop-color="#724329"/>
<stop offset="1" stop-color="#451E0F"/>
</linearGradient>
<linearGradient id="paint12_linear" x1="434.711" y1="10.2126" x2="428.194" y2="251.329" gradientUnits="userSpaceOnUse">
<stop stop-color="#724329"/>
<stop offset="1" stop-color="#451E0F"/>
</linearGradient>
<linearGradient id="paint13_linear" x1="506.366" y1="12.1498" x2="499.849" y2="253.266" gradientUnits="userSpaceOnUse">
<stop stop-color="#724329"/>
<stop offset="1" stop-color="#451E0F"/>
</linearGradient>
<linearGradient id="paint14_linear" x1="353.883" y1="8.02803" x2="347.366" y2="249.145" gradientUnits="userSpaceOnUse">
<stop stop-color="#724329"/>
<stop offset="1" stop-color="#451E0F"/>
</linearGradient>
<linearGradient id="paint15_linear" x1="126.073" y1="1.87101" x2="119.556" y2="242.987" gradientUnits="userSpaceOnUse">
<stop stop-color="#724329"/>
<stop offset="1" stop-color="#451E0F"/>
</linearGradient>
<linearGradient id="paint16_linear" x1="567.832" y1="13.8141" x2="561.315" y2="254.93" gradientUnits="userSpaceOnUse">
<stop stop-color="#724329"/>
<stop offset="1" stop-color="#451E0F"/>
</linearGradient>
<linearGradient id="paint17_linear" x1="242.034" y1="5.00849" x2="235.517" y2="246.125" gradientUnits="userSpaceOnUse">
<stop stop-color="#724329"/>
<stop offset="1" stop-color="#451E0F"/>
</linearGradient>
<linearGradient id="paint18_linear" x1="278.03" y1="119.276" x2="322.747" y2="192.986" gradientUnits="userSpaceOnUse">
<stop stop-color="#EA8801"/>
<stop offset="0.85" stop-color="#BC6600"/>
<stop offset="0.98" stop-color="#995000"/>
</linearGradient>
<linearGradient id="paint19_linear" x1="277.932" y1="199.835" x2="332.3" y2="172.054" gradientUnits="userSpaceOnUse">
<stop stop-color="#EA8801"/>
<stop offset="0.85" stop-color="#BC6600"/>
<stop offset="0.98" stop-color="#995000"/>
</linearGradient>
<linearGradient id="paint20_linear" x1="521.63" y1="121.046" x2="579.268" y2="164.081" gradientUnits="userSpaceOnUse">
<stop stop-color="#EA8801"/>
<stop offset="0.85" stop-color="#BC6600"/>
<stop offset="0.98" stop-color="#995000"/>
</linearGradient>
<linearGradient id="paint21_linear" x1="277.439" y1="159.371" x2="219.658" y2="184.395" gradientUnits="userSpaceOnUse">
<stop stop-color="#EA8801"/>
<stop offset="0.85" stop-color="#BC6600"/>
<stop offset="0.98" stop-color="#995000"/>
</linearGradient>
<linearGradient id="paint22_linear" x1="204.465" y1="68.1307" x2="220.03" y2="146.513" gradientUnits="userSpaceOnUse">
<stop stop-color="#EA8801"/>
<stop offset="0.85" stop-color="#BC6600"/>
<stop offset="0.98" stop-color="#995000"/>
</linearGradient>
<linearGradient id="paint23_linear" x1="241.951" y1="87.8502" x2="288.77" y2="181.624" gradientUnits="userSpaceOnUse">
<stop stop-color="#EA8801"/>
<stop offset="0.85" stop-color="#BC6600"/>
<stop offset="0.98" stop-color="#995000"/>
</linearGradient>
<linearGradient id="paint24_linear" x1="370.276" y1="89.6215" x2="376.924" y2="99.0687" gradientUnits="userSpaceOnUse">
<stop stop-color="#EA8801"/>
<stop offset="0.85" stop-color="#BC6600"/>
<stop offset="0.98" stop-color="#995000"/>
</linearGradient>
<linearGradient id="paint25_linear" x1="438.46" y1="71.1035" x2="434.032" y2="103.784" gradientUnits="userSpaceOnUse">
<stop stop-color="#EA8801"/>
<stop offset="0.85" stop-color="#BC6600"/>
<stop offset="0.98" stop-color="#995000"/>
</linearGradient>
<linearGradient id="paint26_linear" x1="405.153" y1="129.44" x2="407.588" y2="186.063" gradientUnits="userSpaceOnUse">
<stop stop-color="#EA8801"/>
<stop offset="0.85" stop-color="#BC6600"/>
<stop offset="0.98" stop-color="#995000"/>
</linearGradient>
<linearGradient id="paint27_linear" x1="491.271" y1="77.3049" x2="445.246" y2="178.861" gradientUnits="userSpaceOnUse">
<stop stop-color="#EA8801"/>
<stop offset="0.85" stop-color="#BC6600"/>
<stop offset="0.98" stop-color="#995000"/>
</linearGradient>
<linearGradient id="paint28_linear" x1="555.748" y1="84.8301" x2="534.042" y2="149.624" gradientUnits="userSpaceOnUse">
<stop stop-color="#EA8801"/>
<stop offset="0.85" stop-color="#BC6600"/>
<stop offset="0.98" stop-color="#995000"/>
</linearGradient>
<linearGradient id="paint29_linear" x1="492.885" y1="65.1889" x2="627.742" y2="168.721" gradientUnits="userSpaceOnUse">
<stop stop-color="#EA8801"/>
<stop offset="0.6" stop-color="#BC6600"/>
<stop offset="1" stop-color="#995000"/>
</linearGradient>
<linearGradient id="paint30_linear" x1="707.582" y1="202.405" x2="655.995" y2="180.258" gradientUnits="userSpaceOnUse">
<stop stop-color="#EA8801"/>
<stop offset="0.6" stop-color="#BC6600"/>
<stop offset="1" stop-color="#995000"/>
</linearGradient>
<linearGradient id="paint31_linear" x1="55.9511" y1="139.852" x2="134.698" y2="184.653" gradientUnits="userSpaceOnUse">
<stop stop-color="#EA8801"/>
<stop offset="0.85" stop-color="#BC6600"/>
<stop offset="0.98" stop-color="#995000"/>
</linearGradient>
<linearGradient id="paint32_linear" x1="102.684" y1="93.3064" x2="170.348" y2="146.624" gradientUnits="userSpaceOnUse">
<stop stop-color="#EA8801"/>
<stop offset="0.85" stop-color="#BC6600"/>
<stop offset="0.98" stop-color="#995000"/>
</linearGradient>
<linearGradient id="paint33_linear" x1="132.525" y1="89.8548" x2="168.368" y2="119.718" gradientUnits="userSpaceOnUse">
<stop stop-color="#EA8801"/>
<stop offset="0.85" stop-color="#BC6600"/>
<stop offset="0.98" stop-color="#995000"/>
</linearGradient>
<linearGradient id="paint34_linear" x1="3.60246" y1="142.123" x2="122.919" y2="205.269" gradientUnits="userSpaceOnUse">
<stop stop-color="#EA8801"/>
<stop offset="0.85" stop-color="#BC6600"/>
<stop offset="0.98" stop-color="#995000"/>
</linearGradient>
<linearGradient id="paint35_linear" x1="314.058" y1="142.193" x2="355.69" y2="192.694" gradientUnits="userSpaceOnUse">
<stop stop-color="#EA8801"/>
<stop offset="0.85" stop-color="#BC6600"/>
<stop offset="0.98" stop-color="#995000"/>
</linearGradient>
<linearGradient id="paint36_linear" x1="324.638" y1="116.197" x2="378.23" y2="150.948" gradientUnits="userSpaceOnUse">
<stop stop-color="#EA8801"/>
<stop offset="0.85" stop-color="#BC6600"/>
<stop offset="0.98" stop-color="#995000"/>
</linearGradient>
<linearGradient id="paint37_linear" x1="298.165" y1="107.126" x2="328.947" y2="127.089" gradientUnits="userSpaceOnUse">
<stop stop-color="#EA8801"/>
<stop offset="0.85" stop-color="#BC6600"/>
<stop offset="0.98" stop-color="#995000"/>
</linearGradient>
<linearGradient id="paint38_linear" x1="329.718" y1="111.917" x2="357.087" y2="129.665" gradientUnits="userSpaceOnUse">
<stop stop-color="#EA8801"/>
<stop offset="0.85" stop-color="#BC6600"/>
<stop offset="0.98" stop-color="#995000"/>
</linearGradient>
<linearGradient id="paint39_linear" x1="475.472" y1="136.04" x2="520.482" y2="192.311" gradientUnits="userSpaceOnUse">
<stop stop-color="#EA8801"/>
<stop offset="0.85" stop-color="#BC6600"/>
<stop offset="0.98" stop-color="#995000"/>
</linearGradient>
<linearGradient id="paint40_linear" x1="525.061" y1="93.1826" x2="500.987" y2="138.98" gradientUnits="userSpaceOnUse">
<stop stop-color="#EA8801"/>
<stop offset="0.85" stop-color="#BC6600"/>
<stop offset="0.98" stop-color="#995000"/>
</linearGradient>
<linearGradient id="paint41_linear" x1="99.7661" y1="218.101" x2="188.282" y2="67.1364" gradientUnits="userSpaceOnUse">
<stop offset="0.19" stop-color="#FFE507"/>
<stop offset="0.94" stop-color="#FF9300"/>
</linearGradient>
<linearGradient id="paint42_linear" x1="198.95" y1="186.692" x2="211.984" y2="38.4373" gradientUnits="userSpaceOnUse">
<stop stop-color="#FFE507"/>
<stop offset="0.6" stop-color="#FF9300"/>
</linearGradient>
<linearGradient id="paint43_linear" x1="266.951" y1="192.162" x2="279.985" y2="43.9133" gradientUnits="userSpaceOnUse">
<stop offset="0.07" stop-color="#FFE507"/>
<stop offset="0.58" stop-color="#FF9300"/>
</linearGradient>
<linearGradient id="paint44_linear" x1="354.048" y1="247.527" x2="339.928" y2="100.364" gradientUnits="userSpaceOnUse">
<stop offset="0.38" stop-color="#FFE507"/>
<stop offset="0.94" stop-color="#FF9300"/>
</linearGradient>
<linearGradient id="paint45_linear" x1="459.357" y1="253.603" x2="398.532" y2="68.9612" gradientUnits="userSpaceOnUse">
<stop offset="0.11" stop-color="#FFE507"/>
<stop offset="0.25" stop-color="#FFE007"/>
<stop offset="0.41" stop-color="#FFD205"/>
<stop offset="0.58" stop-color="#FFBB03"/>
<stop offset="0.76" stop-color="#FF9A01"/>
<stop offset="0.8" stop-color="#FF9300"/>
</linearGradient>
<linearGradient id="paint46_linear" x1="484.416" y1="225.109" x2="450.202" y2="103.739" gradientUnits="userSpaceOnUse">
<stop offset="0.31" stop-color="#FFE507"/>
<stop offset="0.89" stop-color="#FF9300"/>
</linearGradient>
<linearGradient id="paint47_linear" x1="556.203" y1="204.175" x2="505.29" y2="106.832" gradientUnits="userSpaceOnUse">
<stop stop-color="#FFE507"/>
<stop offset="0.99" stop-color="#FF9300"/>
</linearGradient>
<linearGradient id="paint48_linear" x1="598.484" y1="186.516" x2="568.483" y2="119.174" gradientUnits="userSpaceOnUse">
<stop stop-color="#FFE507"/>
<stop offset="1" stop-color="#FF9300"/>
</linearGradient>
<linearGradient id="paint49_linear" x1="674.123" y1="218.231" x2="604.34" y2="113.285" gradientUnits="userSpaceOnUse">
<stop offset="0.13" stop-color="#FFE507"/>
<stop offset="1" stop-color="#FF9300"/>
</linearGradient>
<linearGradient id="paint50_linear" x1="519.796" y1="81.0508" x2="562.896" y2="108.999" gradientUnits="userSpaceOnUse">
<stop stop-color="#EA8801"/>
<stop offset="0.85" stop-color="#BC6600"/>
<stop offset="0.98" stop-color="#995000"/>
</linearGradient>
<linearGradient id="paint51_linear" x1="522.761" y1="77.3111" x2="565.199" y2="104.829" gradientUnits="userSpaceOnUse">
<stop stop-color="#FFE507"/>
<stop offset="1" stop-color="#FF9300"/>
</linearGradient>
<radialGradient id="paint52_radial" cx="0" cy="0" r="1" gradientUnits="userSpaceOnUse" gradientTransform="translate(288.228 152.242) scale(46.8601 44.0485)">
<stop offset="0.14" stop-color="#EA8801"/>
<stop offset="0.67" stop-color="#995000"/>
<stop offset="0.85" stop-color="#BC6600"/>
</radialGradient>
<radialGradient id="paint53_radial" cx="0" cy="0" r="1" gradientUnits="userSpaceOnUse" gradientTransform="translate(456.942 148.72) rotate(-15.7086) scale(25.3831 33.0401)">
<stop stop-color="#EA8801"/>
<stop offset="0.48" stop-color="#995000"/>
</radialGradient>
<linearGradient id="paint54_linear" x1="456.89" y1="63.6098" x2="529.251" y2="125.73" gradientUnits="userSpaceOnUse">
<stop stop-color="#EA8801"/>
<stop offset="0.91" stop-color="#BC6600"/>
<stop offset="1" stop-color="#9E5000"/>
</linearGradient>
<linearGradient id="paint55_linear" x1="572.878" y1="188.888" x2="627.527" y2="146.958" gradientUnits="userSpaceOnUse">
<stop stop-color="#EA8801"/>
<stop offset="0.91" stop-color="#BC6600"/>
<stop offset="1" stop-color="#9E5000"/>
</linearGradient>
<linearGradient id="paint56_linear" x1="225.021" y1="54.5655" x2="163.772" y2="115.82" gradientUnits="userSpaceOnUse">
<stop stop-color="#EA8801"/>
<stop offset="0.91" stop-color="#BC6600"/>
<stop offset="1" stop-color="#9E5000"/>
</linearGradient>
<linearGradient id="paint57_linear" x1="305.419" y1="65.9399" x2="333.236" y2="33.003" gradientUnits="userSpaceOnUse">
<stop offset="0.38" stop-color="#266922"/>
<stop offset="0.49" stop-color="#2B6F26"/>
<stop offset="0.65" stop-color="#3A8030"/>
<stop offset="0.83" stop-color="#529C41"/>
<stop offset="0.86" stop-color="#58A345"/>
</linearGradient>
<linearGradient id="paint58_linear" x1="299.222" y1="67.9177" x2="314.5" y2="50.9628" gradientUnits="userSpaceOnUse">
<stop offset="0.38" stop-color="#266922"/>
<stop offset="0.49" stop-color="#2B6F26"/>
<stop offset="0.65" stop-color="#3A8030"/>
<stop offset="0.83" stop-color="#529C41"/>
<stop offset="0.86" stop-color="#58A345"/>
</linearGradient>
<linearGradient id="paint59_linear" x1="295.259" y1="38.1013" x2="262.985" y2="70.5728" gradientUnits="userSpaceOnUse">
<stop offset="0.38" stop-color="#266922"/>
<stop offset="0.49" stop-color="#2B6F26"/>
<stop offset="0.65" stop-color="#3A8030"/>
<stop offset="0.83" stop-color="#529C41"/>
<stop offset="0.86" stop-color="#58A345"/>
</linearGradient>
<linearGradient id="paint60_linear" x1="381.799" y1="73.4522" x2="369.308" y2="43.1411" gradientUnits="userSpaceOnUse">
<stop offset="0.38" stop-color="#266922"/>
<stop offset="0.49" stop-color="#2B6F26"/>
<stop offset="0.65" stop-color="#3A8030"/>
<stop offset="0.83" stop-color="#529C41"/>
<stop offset="0.86" stop-color="#58A345"/>
</linearGradient>
<linearGradient id="paint61_linear" x1="357.096" y1="153.077" x2="267.47" y2="38.1885" gradientUnits="userSpaceOnUse">
<stop offset="0.32" stop-color="#266922"/>
<stop offset="0.62" stop-color="#58A345"/>
<stop offset="0.76" stop-color="#32762D"/>
</linearGradient>
<linearGradient id="paint62_linear" x1="295.026" y1="45.5212" x2="276.967" y2="55.786" gradientUnits="userSpaceOnUse">
<stop offset="0.38" stop-color="#266922"/>
<stop offset="0.49" stop-color="#2B6F26"/>
<stop offset="0.65" stop-color="#3A8030"/>
<stop offset="0.83" stop-color="#529C41"/>
<stop offset="0.86" stop-color="#58A345"/>
</linearGradient>
<linearGradient id="paint63_linear" x1="354.551" y1="101.672" x2="378.53" y2="53.582" gradientUnits="userSpaceOnUse">
<stop offset="0.38" stop-color="#266922"/>
<stop offset="0.49" stop-color="#2B6F26"/>
<stop offset="0.65" stop-color="#3A8030"/>
<stop offset="0.83" stop-color="#529C41"/>
<stop offset="0.86" stop-color="#58A345"/>
</linearGradient>
</defs>
</svg>
